<?xml version="1.0" encoding="UTF-8"?>
<svg width="15px" height="14px" viewBox="0 0 15 14" version="1.1" xmlns="http://www.w3.org/2000/svg" xmlns:xlink="http://www.w3.org/1999/xlink">
    <!-- Generator: Sketch 51.1 (57501) - http://www.bohemiancoding.com/sketch -->
    <title>Group 5</title>
    <desc>Created with Sketch.</desc>
    <defs></defs>
    <g id="Sprint-4" stroke="none" stroke-width="1" fill="none" fill-rule="evenodd">
        <g id="Validação-da-Base_Base-Contábil_01" transform="translate(-150.000000, -879.000000)" fill="#333333">
            <g id="Group-5" transform="translate(150.000000, 879.000000)">
                <g id="Group-7">
                    <g id="Group-2" transform="translate(0.500000, 0.000000)">
                        <path d="M7,0 C3.13400675,9.04327118e-15 0,3.13400675 0,7 C0,10.8659932 3.13400675,14 7,14 C10.8659932,14 14,10.8659932 14,7 C14,3.13400675 10.8659932,9.04327118e-15 7,9.04327118e-15 L7,0 Z M7,13.0454545 C3.66118765,13.0454545 0.954545455,10.3388124 0.954545455,7 C0.954545455,3.66118765 3.66118765,0.954545455 7,0.954545455 C10.3388124,0.954545455 13.0454545,3.66118765 13.0454545,7 C13.0454545,8.60335423 12.4085246,10.1410393 11.2747819,11.2747819 C10.1410393,12.4085246 8.60335423,13.0454545 7,13.0454545 Z" id="Shape"></path>
                    </g>
                    <path d="M8.03787234,6.36893617 L6.99829787,6.36893617 C6.56638298,6.36893617 6.21489362,6.01744681 6.21489362,5.58553191 C6.21489362,5.15361702 6.56638298,4.80212766 6.99829787,4.80212766 L8.83319149,4.80212766 C9.02978723,4.80212766 9.1906383,4.6412766 9.1906383,4.44468085 C9.1906383,4.24808511 9.02978723,4.08723404 8.83319149,4.08723404 L7.87702128,4.08723404 L7.87702128,3.35744681 C7.87702128,3.16085106 7.71617021,3 7.51957447,3 C7.32297872,3 7.16212766,3.16085106 7.16212766,3.35744681 L7.16212766,4.08723404 L6.99829787,4.08723404 C6.17319149,4.08723404 5.5,4.76042553 5.5,5.58553191 C5.5,6.4106383 6.17319149,7.08382979 6.99829787,7.08382979 L8.03787234,7.08382979 C8.46978723,7.08382979 8.8212766,7.43531915 8.8212766,7.86723404 C8.8212766,8.29914894 8.46978723,8.6506383 8.03787234,8.6506383 L6.17021277,8.6506383 C5.97361702,8.6506383 5.81276596,8.81148936 5.81276596,9.00808511 C5.81276596,9.20468085 5.97361702,9.36553191 6.17021277,9.36553191 L7.15914894,9.36553191 L7.15914894,10.1102128 C7.15914894,10.3068085 7.32,10.4676596 7.51659574,10.4676596 C7.71319149,10.4676596 7.87404255,10.3068085 7.87404255,10.1102128 L7.87404255,9.36553191 L8.04680851,9.36553191 C8.04978723,9.36553191 8.05276596,9.36553191 8.05574468,9.36553191 C8.87191489,9.35361702 9.53319149,8.68638298 9.53319149,7.86723404 C9.53319149,7.03914894 8.86297872,6.36893617 8.03787234,6.36893617 Z" id="Shape" stroke="#333333" stroke-width="0.2" fill-rule="nonzero"></path>
                </g>
            </g>
        </g>
    </g>
</svg>