<?xml version="1.0" encoding="utf-8"?>
<!-- Generator: Adobe Illustrator 21.1.0, SVG Export Plug-In . SVG Version: 6.00 Build 0)  -->
<svg version="1.1" id="Layer_1" xmlns="http://www.w3.org/2000/svg" xmlns:xlink="http://www.w3.org/1999/xlink" x="0px" y="0px"
	 viewBox="0 0 80 72" style="enable-background:new 0 0 80 72;" xml:space="preserve">
<style type="text/css">
	.alert-message .st0{fill:none;}
	.alert-message .st1{fill:#3B4340;}
	.alert-message .st2{fill:#C86D61;}
</style>
<title>Group 14</title>
<desc>Created with Sketch.</desc>
<g class="alert-message">
	<path class="st0" d="M65.9,69.1c2.5,0,4.6-2.1,4.6-4.6h-9.2C61.3,67,63.4,69.1,65.9,69.1z"/>
	<circle class="st0" cx="57.1" cy="28.9" r="1.8"/>
	<circle class="st0" cx="64.1" cy="28.9" r="1.8"/>
	<circle class="st0" cx="71.2" cy="28.9" r="1.8"/>
	<path class="st1" d="M15.9,28.2h22.5c0.6,0,1.1-0.5,1.1-1.1c0-0.6-0.5-1.1-1.1-1.1H15.9c-0.6,0-1.1,0.5-1.1,1.1
		C14.8,27.7,15.3,28.2,15.9,28.2z"/>
	<path class="st1" d="M64.8,62.4h-1.1h-1.2h-1.2V49.7c0-0.6-0.5-1.1-1.1-1.1c-0.6,0-1.1,0.5-1.1,1.1v12.7v2.1c0,1.8,0.7,3.4,1.8,4.6
		H31.2H8.5c-3.5,0-6.3-2.8-6.3-6.3V5.6c0-1.9,1.6-3.5,3.5-3.5h50.1c1.9,0,3.5,1.6,3.5,3.5v3.9c0,0.6,0.5,1.1,1.1,1.1
		c0.6,0,1.1-0.5,1.1-1.1V5.6c0-3.1-2.5-5.6-5.6-5.6H5.6C2.5,0,0,2.5,0,5.6v57.1c0,4.7,3.8,8.5,8.5,8.5h22.7h32.6h2.1
		c3.7,0,6.7-3,6.7-6.7v-2.1h-2.1H64.8z M65.9,69.1c-2.5,0-4.6-2.1-4.6-4.6h9.2C70.5,67,68.4,69.1,65.9,69.1z"/>
	<path class="st1" d="M15.9,38.8h22.5c0.6,0,1.1-0.5,1.1-1.1c0-0.6-0.5-1.1-1.1-1.1H15.9c-0.6,0-1.1,0.5-1.1,1.1
		C14.8,38.3,15.3,38.8,15.9,38.8z"/>
	<path class="st1" d="M15.9,49.3h29.6c0.6,0,1.1-0.5,1.1-1.1c0-0.6-0.5-1.1-1.1-1.1H15.9c-0.6,0-1.1,0.5-1.1,1.1
		C14.8,48.9,15.3,49.3,15.9,49.3z"/>
	<path class="st2" d="M65.9,14.8h-3.5c-7.8,0-14.1,6.3-14.1,14.1c0,7.1,5.3,13,12.2,14c2.2,1.7,5.2,1.7,7.4,0
		C74.7,41.9,80,36,80,28.9C80,21.1,73.7,14.8,65.9,14.8z M57.1,30.7c-1,0-1.8-0.8-1.8-1.8c0-1,0.8-1.8,1.8-1.8c1,0,1.8,0.8,1.8,1.8
		C58.9,29.9,58.1,30.7,57.1,30.7z M64.1,30.7c-1,0-1.8-0.8-1.8-1.8c0-1,0.8-1.8,1.8-1.8c1,0,1.8,0.8,1.8,1.8
		C65.9,29.9,65.1,30.7,64.1,30.7z M71.2,30.7c-1,0-1.8-0.8-1.8-1.8c0-1,0.8-1.8,1.8-1.8c1,0,1.8,0.8,1.8,1.8
		C73,29.9,72.2,30.7,71.2,30.7z"/>
</g>
</svg>
