<?xml version="1.0" encoding="UTF-8"?>
<svg viewBox="0 0 2 8" version="1.1" xmlns="http://www.w3.org/2000/svg" xmlns:xlink="http://www.w3.org/1999/xlink">
    <g id="Sprint-9" stroke="none" stroke-width="1" fill="none" fill-rule="evenodd">
        <g id="Definir-Entregas-(03)" transform="translate(-1026.000000, -524.000000)" fill="#FFFFFF" fill-rule="nonzero">
            <g id="Entrega-/-Concluida" transform="translate(571.000000, 497.000000)">
                <g id="alert-simple" transform="translate(455.000000, 27.000000)">
                    <path d="M2.27373675e-13,0.827546296 C2.27373675e-13,0.370505097 0.370505097,0 0.827546296,0 C1.2845875,0 1.65509259,0.370505097 1.65509259,0.827546296 L1.65509259,4.13773148 C1.65509259,4.59477268 1.2845875,4.96527778 0.827546296,4.96527778 C0.370505097,4.96527778 2.27373675e-13,4.59477268 2.27373675e-13,4.13773148 L2.27373675e-13,0.827546296 Z M0.242382698,7.91270989 C-0.0807942328,7.58953296 -0.0807942328,7.06555963 0.242382698,6.7423827 C0.56555963,6.41920577 1.08953296,6.41920577 1.41270989,6.7423827 C1.73588683,7.06555963 1.73588683,7.58953296 1.41270989,7.91270989 C1.08953296,8.23588683 0.56555963,8.23588683 0.242382698,7.91270989 Z" id="Combined-Shape"></path>
                </g>
            </g>
        </g>
    </g>
</svg>