<?xml version="1.0" encoding="UTF-8"?>
<svg viewBox="0 0 55 54" version="1.1" xmlns="http://www.w3.org/2000/svg" xmlns:xlink="http://www.w3.org/1999/xlink">
    <g id="Login-+-Estratégia-de-Análise" stroke="none" stroke-width="1" fill="none" fill-rule="evenodd">
        <g id="01---Menu-de-Análises" transform="translate(-587.000000, -617.000000)" fill="#3580B2" fill-rule="nonzero">
            <g id="Group-10" transform="translate(587.000000, 617.000000)">
                <path d="M44.3548387,10.4516129 L44.3548387,0 L0,0 L0,43.5483871 L10.6451613,43.5483871 L10.6451613,54 L55,54 L55,10.4516129 L44.3548387,10.4516129 Z M53.2258065,52.2580645 L12.4193548,52.2580645 L12.4193548,43.5483871 L14.1935484,43.5483871 L14.1935484,50.516129 L51.4516129,50.516129 L51.4516129,38.3225806 L47.9032258,38.3225806 L47.9032258,40.0645161 L49.6774194,40.0645161 L49.6774194,48.7741935 L15.9677419,48.7741935 L15.9677419,43.5483871 L19.516129,43.5483871 L19.516129,41.8064516 L1.77419355,41.8064516 L1.77419355,1.74193548 L42.5806452,1.74193548 L42.5806452,41.8064516 L21.2903226,41.8064516 L21.2903226,43.5483871 L44.3548387,43.5483871 L44.3548387,40.0645161 L46.1290323,40.0645161 L46.1290323,38.3225806 L44.3548387,38.3225806 L44.3548387,36.5806452 L51.4516129,36.5806452 L51.4516129,34.8387097 L44.3548387,34.8387097 L44.3548387,33.0967742 L51.4516129,33.0967742 L51.4516129,31.3548387 L44.3548387,31.3548387 L44.3548387,29.6129032 L51.4516129,29.6129032 L51.4516129,27.8709677 L44.3548387,27.8709677 L44.3548387,26.1290323 L51.4516129,26.1290323 L51.4516129,24.3870968 L44.3548387,24.3870968 L44.3548387,22.6451613 L51.4516129,22.6451613 L51.4516129,20.9032258 L44.3548387,20.9032258 L44.3548387,19.1612903 L51.4516129,19.1612903 L51.4516129,17.4193548 L44.3548387,17.4193548 L44.3548387,15.6774194 L51.4516129,15.6774194 L51.4516129,13.9354839 L44.3548387,13.9354839 L44.3548387,12.1935484 L53.2258065,12.1935484 L53.2258065,52.2580645 Z" id="Shape"></path>
                <path d="M30.5,21 C25.2620455,21 21,25.2620455 21,30.5 C21,35.7379545 25.2620455,40 30.5,40 C35.7379545,40 40,35.7379545 40,30.5 C40,25.2620455 35.7379545,21 30.5,21 Z M22.7272727,30.5 C22.7272727,26.5065455 25.7560455,23.2100455 29.6363636,22.7782273 L29.6363636,30.0681818 L23.8102727,34.4381818 C23.1271364,33.2809091 22.7272727,31.9379545 22.7272727,30.5 Z M30.5,38.2727273 C28.2726818,38.2727273 26.2664545,37.3253182 24.8475,35.8191364 L30.6563182,31.4629545 L37.5472727,33.7602273 C36.3105455,36.4193636 33.6211818,38.2727273 30.5,38.2727273 Z M31.3636364,29.8773182 L31.3636364,22.7782273 C35.2439545,23.2100455 38.2727273,26.5065455 38.2727273,30.5 C38.2727273,31.0570455 38.2114091,31.5985455 38.0991364,32.1227727 L31.3636364,29.8773182 Z" id="Shape"></path>
                <rect id="Rectangle-path" x="7" y="4" width="34" height="2"></rect>
                <rect id="Rectangle-path" x="3" y="8" width="38" height="2"></rect>
                <rect id="Rectangle-path" x="3" y="12" width="38" height="2"></rect>
                <rect id="Rectangle-path" x="3" y="16" width="38" height="2"></rect>
                <path d="M3,21 L3,40 L19,40 L19,21 L3,21 Z M17.2222222,38.2727273 L4.77777778,38.2727273 L4.77777778,22.7272727 L17.2222222,22.7272727 L17.2222222,38.2727273 Z" id="Shape"></path>
                <rect id="Rectangle-path" x="7" y="24" width="9" height="2"></rect>
                <rect id="Rectangle-path" x="7" y="28" width="9" height="2"></rect>
                <rect id="Rectangle-path" x="7" y="32" width="9" height="2"></rect>
                <rect id="Rectangle-path" x="7" y="35" width="9" height="2"></rect>
                <rect id="Rectangle-path" x="3" y="4" width="2" height="2"></rect>
            </g>
        </g>
    </g>
</svg>