<?xml version="1.0" encoding="utf-8"?>
<!-- Generator: Adobe Illustrator 21.1.0, SVG Export Plug-In . SVG Version: 6.00 Build 0)  -->
<svg version="1.1" id="Layer_1" xmlns="http://www.w3.org/2000/svg" xmlns:xlink="http://www.w3.org/1999/xlink" x="0px" y="0px"
	 viewBox="0 0 24 24" style="enable-background:new 0 0 24 24;" xml:space="preserve">
<g id="FE-7a-Tooltips" transform="translate(-691.000000, -276.000000)">
	<g id="Icons_x2F_-inbox" transform="translate(691.000000, 274.000000)">
		<g id="Combined-Shape">
			<path id="path-1_1_" d="M21.3,14.5c0,0.1,0.1,0.2,0.1,0.3c0,0,0,0,0,0v4.3c0,1.4-1.1,2.6-2.6,2.6H5.2c-1.4,0-2.6-1.1-2.6-2.6
				v-4.3c0,0,0,0,0,0c0-0.1,0-0.2,0.1-0.3l2.9-6.6C6.1,6.9,7,6.3,8,6.3h8c1,0,1.9,0.6,2.3,1.5L21.3,14.5z M19.2,14l-2.4-5.5
				C16.6,8.2,16.3,8,16,8H8C7.7,8,7.4,8.2,7.2,8.5L4.8,14h3.8c0.3,0,0.6,0.1,0.7,0.4l1.4,2.2h2.5l1.4-2.2c0.2-0.2,0.4-0.4,0.7-0.4
				H19.2z M19.7,15.7h-3.8l-1.4,2.2c-0.2,0.2-0.4,0.4-0.7,0.4h-3.4c-0.3,0-0.6-0.1-0.7-0.4l-1.4-2.2H4.3v3.4c0,0.5,0.4,0.9,0.9,0.9
				h13.6c0.5,0,0.9-0.4,0.9-0.9V15.7z"/>
		</g>
	</g>
</g>
</svg>
