<?xml version="1.0" encoding="UTF-8"?>
<svg width="24px" height="42px" viewBox="0 0 24 42" version="1.1" xmlns="http://www.w3.org/2000/svg" xmlns:xlink="http://www.w3.org/1999/xlink">
    <!-- Generator: Sketch 51.1 (57501) - http://www.bohemiancoding.com/sketch -->
    <title>Group 8</title>
    <desc>Created with Sketch.</desc>
    <defs></defs>
    <g id="Sprint-9" stroke="none" stroke-width="1" fill="none" fill-rule="evenodd">
        <g id="Analise-SoC-_04" transform="translate(-760.000000, -184.000000)" fill="#333333" fill-rule="nonzero">
            <g id="Group-6" transform="translate(75.000000, 56.000000)">
                <g id="area" transform="translate(684.000000, 128.000000)">
                    <g id="Group-8" transform="translate(13.000000, 21.000000) rotate(-90.000000) translate(-13.000000, -21.000000) translate(-7.500000, 8.500000)">
                        <g>
                            <g id="research-(1)" transform="translate(20.500000, 12.500000) rotate(90.000000) translate(-20.500000, -12.500000) translate(8.500000, -8.000000)">
                                <rect id="Rectangle-path" x="11.2845211" y="23.0189025" width="1.68520679" height="5.11500975"></rect>
                                <path d="M12.127164,0.00135867446 C5.61202646,0.00135867446 0.330558527,5.3448655 0.330558527,11.9363548 C0.330558527,18.5278441 5.61210545,23.8713509 12.127164,23.8713509 C18.6393788,23.8643177 23.9168179,18.5249669 23.9237695,11.9363548 C23.9237695,5.3448655 18.6422226,0.00135867446 12.127164,0.00135867446 Z M12.127164,22.1664542 C6.54282811,22.1664542 2.01576531,17.5862827 2.01576531,11.9364347 C2.01576531,6.28658674 6.54282811,1.7064152 12.127164,1.7064152 C17.7090511,1.71248928 22.2325591,6.28906433 22.2385627,11.9364347 C22.2385627,17.5862827 17.7115,22.1664542 12.127164,22.1664542 Z" id="Shape"></path>
                                <path d="M12.127164,27.2814639 C10.73108,27.2814639 9.59931435,28.4265068 9.59931435,29.8389688 L9.59931435,38.3640117 C9.59931435,39.7764737 10.73108,40.9215166 12.127164,40.9215166 C13.523248,40.9215166 14.6550137,39.7764737 14.6550137,38.3640117 L14.6550137,29.8389688 C14.6550137,28.4265068 13.523248,27.2814639 12.127164,27.2814639 Z M12.9697279,38.3639318 C12.9697279,38.8347524 12.5924464,39.21646 12.127085,39.21646 C11.6617237,39.21646 11.2844421,38.8347524 11.2844421,38.3639318 L11.2844421,29.8389688 C11.2844421,29.3681481 11.6617237,28.9864405 12.127085,28.9864405 C12.5924464,28.9864405 12.9697279,29.3681481 12.9697279,29.8389688 L12.9697279,38.3639318 Z" id="Shape"></path>
                            </g>
                            <path d="M29.0150392,11.5676764 C29.0823894,11.8075084 29.1184211,12.0605206 29.1184211,12.3219814 C29.1184211,12.5833023 29.082428,12.8361836 29.0151473,13.0759014 L32.6838057,15.2220976 C33.1843884,14.7159111 33.8781024,14.4024768 34.6447368,14.4024768 C36.1707868,14.4024768 37.4078947,15.6444361 37.4078947,17.1764706 C37.4078947,18.708505 36.1707868,19.9504644 34.6447368,19.9504644 C33.1186869,19.9504644 31.8815789,18.708505 31.8815789,17.1764706 C31.8815789,16.9138885 31.9179203,16.6598276 31.985829,16.4190806 L28.3187239,14.273793 C27.81795,14.7814834 27.1231899,15.0959752 26.3552632,15.0959752 C24.8292132,15.0959752 23.5921053,13.8540159 23.5921053,12.3219814 C23.5921053,10.789947 24.8292132,9.54798762 26.3552632,9.54798762 C27.1230467,9.54798762 27.8176909,9.86236223 28.3184438,10.3698859 L31.9849608,8.22179732 C31.9176105,7.98196527 31.8815789,7.72895308 31.8815789,7.46749226 C31.8815789,5.93545779 33.1186869,4.69349845 34.6447368,4.69349845 C36.1707868,4.69349845 37.4078947,5.93545779 37.4078947,7.46749226 C37.4078947,8.99952673 36.1707868,10.2414861 34.6447368,10.2414861 C33.8769533,10.2414861 33.1823091,9.92711146 32.6815562,9.41958781 L29.0150392,11.5676764 Z M27.568122,11.6572269 C27.5610853,11.6465193 27.5543011,11.6355564 27.547782,11.6243417 C27.5413105,11.6132089 27.5351828,11.6019697 27.5293956,11.5906367 C27.2856164,11.1970226 26.8509214,10.9349845 26.3552632,10.9349845 C25.5922382,10.9349845 24.9736842,11.5559642 24.9736842,12.3219814 C24.9736842,13.0879987 25.5922382,13.7089783 26.3552632,13.7089783 C26.850923,13.7089783 27.2856193,13.4469385 27.529398,13.0533222 C27.5351183,13.0421202 27.5411713,13.0310098 27.5475601,13.0200031 C27.5541477,13.0086539 27.5610068,12.9975623 27.5681243,12.9867318 C27.6756906,12.78935 27.7368421,12.562835 27.7368421,12.3219814 C27.7368421,12.0811261 27.6756898,11.8546097 27.568122,11.6572269 Z M33.4706044,8.19883701 C33.7143836,8.59245104 34.1490787,8.85448916 34.6447368,8.85448916 C35.4077618,8.85448916 36.0263158,8.2335095 36.0263158,7.46749226 C36.0263158,6.70147502 35.4077618,6.08049536 34.6447368,6.08049536 C33.8817119,6.08049536 33.2631579,6.70147502 33.2631579,7.46749226 C33.2631579,7.70834759 33.3243102,7.93486401 33.431878,8.13224679 C33.4389147,8.14295443 33.445699,8.15391727 33.452218,8.16513194 C33.4586895,8.17626479 33.4648173,8.18750395 33.4706044,8.19883701 Z M33.4118567,16.5498538 C33.3167549,16.7380658 33.2631579,16.9509845 33.2631579,17.1764706 C33.2631579,17.9424878 33.8817119,18.5634675 34.6447368,18.5634675 C35.4077618,18.5634675 36.0263158,17.9424878 36.0263158,17.1764706 C36.0263158,16.4104534 35.4077618,15.7894737 34.6447368,15.7894737 C34.166126,15.7894737 33.744357,16.033797 33.4964298,16.4049849 C33.4856489,16.4298838 33.4732991,16.4544135 33.4593478,16.4784489 C33.4447954,16.5035198 33.4289181,16.5273339 33.4118567,16.5498538 Z" id="path-1" transform="translate(30.500000, 12.321981) scale(-1, 1) translate(-30.500000, -12.321981) "></path>
                        </g>
                    </g>
                </g>
            </g>
        </g>
    </g>
</svg>