<?xml version="1.0" encoding="utf-8"?>
<!-- Generator: Adobe Illustrator 21.1.0, SVG Export Plug-In . SVG Version: 6.00 Build 0)  -->
<svg version="1.1" id="Layer_1" xmlns="http://www.w3.org/2000/svg" xmlns:xlink="http://www.w3.org/1999/xlink" x="0px" y="0px"
	 viewBox="0 0 16 16" style="enable-background:new 0 0 16 16;" xml:space="preserve">
<style type="text/css">
	.st0{fill:none;}
</style>
<g>
	<path d="M8,0C3.6,0,0,3.6,0,8c0,4.4,3.6,8,8,8s8-3.6,8-8C16,3.6,12.4,0,8,0z M8,14.6c-3.7,0-6.6-3-6.6-6.6c0-3.7,3-6.6,6.6-6.6
		s6.6,3,6.6,6.6C14.6,11.7,11.7,14.6,8,14.6z"/>
	<path d="M8,9.5c0.5,0,0.9-0.4,0.9-0.9V4.2c0-0.5-0.4-0.9-0.9-0.9c-0.5,0-0.9,0.4-0.9,0.9v4.3C7.1,9,7.5,9.5,8,9.5z"/>
	<path d="M8,10.4c-0.3,0-0.6,0.1-0.8,0.4C7,11,6.8,11.3,6.8,11.6c0,0.3,0.1,0.6,0.4,0.8c0.2,0.2,0.5,0.4,0.8,0.4
		c0.3,0,0.6-0.1,0.8-0.4s0.4-0.5,0.4-0.8c0-0.3-0.1-0.6-0.4-0.8C8.6,10.6,8.3,10.4,8,10.4z"/>
</g>
<title>Icons/ Attention</title>
<desc>Created with Sketch.</desc>
</svg>
