<?xml version="1.0" encoding="UTF-8"?>
<svg viewBox="0 0 22 20" version="1.1" xmlns="http://www.w3.org/2000/svg" xmlns:xlink="http://www.w3.org/1999/xlink">
    <g id="Page-1" stroke="none" stroke-width="1" fill="none" fill-rule="evenodd">
        <path d="M13,0 L9,0 C8.4,0 8,0.4 8,1 L8,19 C8,19.6 8.4,20 9,20 L13,20 C13.6,20 14,19.6 14,19 L14,1 C14,0.4 13.6,0 13,0 Z M12,18 L10,18 L10,2 L12,2 L12,18 Z M21,5 L17,5 C16.4,5 16,5.4 16,6 L16,19 C16,19.6 16.4,20 17,20 L21,20 C21.6,20 22,19.6 22,19 L22,6 C22,5.4 21.6,5 21,5 Z M20,18 L18,18 L18,7 L20,7 L20,18 Z M5,10 L1,10 C0.4,10 0,10.4 0,11 L0,19 C0,19.6 0.4,20 1,20 L5,20 C5.6,20 6,19.6 6,19 L6,11 C6,10.4 5.6,10 5,10 Z M4,18 L2,18 L2,12 L4,12 L4,18 Z" id="path-1" fill="#000000" fill-rule="nonzero"></path>
    </g>
</svg>