<?xml version="1.0" encoding="utf-8"?>
<!-- Generator: Adobe Illustrator 22.0.1, SVG Export Plug-In . SVG Version: 6.00 Build 0)  -->
<svg version="1.1" id="Camada_1" xmlns="http://www.w3.org/2000/svg" xmlns:xlink="http://www.w3.org/1999/xlink" x="0px" y="0px"
	 viewBox="0 0 45.8 41.9" style="enable-background:new 0 0 45.8 41.9;" xml:space="preserve">
<style type="text/css">
	.st0{fill:#333333;}
	.st1{fill:none;}
	.st2{fill:#C6CBD4;}
	.st3{fill:#59A1D0;}
	.st4{fill:#FFFFFF;}
	.st5{fill:#52AD8C;}
	.st6{fill:#C86D61;}
</style>
<g>
	<path class="st0" d="M43.7,4.1c0-0.3,0-1-0.6-1.6C42.6,2,41.9,2,41.6,2L30.2,2c-2.6,0-5.3,1.1-7.1,2.8C21.4,3.1,18.8,2,16.4,2H5
		C4.4,2,3.4,2,2.7,2.7C2.3,3.1,2.1,3.6,2.1,4.2v29.9v0.2c0,1.4,1.1,2.5,2.5,2.5c0,0,0.1,0,0.1,0h12.1c2,0,4.1,1,5.1,2.4
		c0,0,0,0,0.1,0.1c0.1,0.1,0.1,0.1,0.2,0.2c0,0,0.1,0.1,0.1,0.1c0,0,0.1,0,0.1,0.1c0,0,0.1,0,0.1,0c0.1,0.1,0.2,0.1,0.3,0.2
		c0,0,0.1,0,0.1,0c0.1,0,0.3,0.1,0.5,0.1c0,0,0,0,0,0c0,0,0,0,0,0s0,0,0,0c0,0,0,0,0,0c0.2,0,0.3,0,0.4-0.1c0,0,0.1,0,0.1-0.1
		c0.1,0,0.2-0.1,0.3-0.2c0,0,0.1,0,0.1,0c0,0,0.1,0,0.1-0.1c0,0,0.1-0.1,0.1-0.1c0.1-0.1,0.1-0.1,0.2-0.2c0,0,0,0,0-0.1
		c1-1.4,3.1-2.4,5.1-2.4l11.7,0c0.8,0,1.5-0.4,1.9-1c0.3-0.5,0.2-1.5,0.2-1.7V4.1z M5.6,33.2V5.5h10.8c1.8,0,3.7,1,4.8,2.3l0.6,26.9
		c-1.3-1.2-3.5-1.5-5-1.5H5.6z M24.6,34.7V8.5c0,0,0,0,0,0c0.9-1.6,3.5-3,5.6-3h10v27.8H29.9C28,33.2,26,33.4,24.6,34.7z"/>
</g>
</svg>
