<svg xmlns="http://www.w3.org/2000/svg" xmlns:xlink="http://www.w3.org/1999/xlink" viewBox="0 0 32 33"><defs><path id="lz4na" d="M367.82 188.03a.64.64 0 1 1 0 1.28.64.64 0 0 1 0-1.28"/><path id="lz4nb" d="M343.41 188.03a.64.64 0 1 1 0 1.28.64.64 0 0 1 0-1.28"/><path id="lz4nc" d="M349.55 186.6v-6.22c0-1.11.32-2.2.93-3.13a6.09 6.09 0 0 1 5.13-2.73c2.09 0 4 1.03 5.12 2.74.61.93.93 2.01.93 3.12v6.21c0 1.1-.85 2.02-1.96 2.17v-8.17a.64.64 0 1 0-1.28 0v17.95h-2.28v-8.92a.64.64 0 1 0-1.28 0v8.92h-1.96v-17.95a.64.64 0 1 0-1.29 0v8.19a2.23 2.23 0 0 1-2.06-2.19zm5.85-18.32a2.48 2.48 0 1 1 0 4.97 2.48 2.48 0 0 1 0-4.97zm10.29 30.26l-.04-15.76a.64.64 0 0 0-1.28 0l.04 15.76h-1.87l-.01-7.01a.64.64 0 0 0-1.28 0l.01 7h-1.56v-8.48a3.52 3.52 0 0 0 3.25-3.46v-6.21c0-.99-.21-1.96-.61-2.85a5.3 5.3 0 0 1 3.35 1.47c.99.96 1.54 2.23 1.54 3.59l.01 3.65c0 .35.29.64.64.64.36 0 .64-.3.64-.65v-3.64c-.01-1.7-.7-3.3-1.94-4.51a6.55 6.55 0 0 0-2.48-1.5 3.38 3.38 0 0 0-2.33-5.85h-.01a3.4 3.4 0 0 0-1.56.38.64.64 0 0 0 .59 1.14 2.11 2.11 0 1 1 .9 3.99h-.1a7.3 7.3 0 0 0-3.71-2.65 3.75 3.75 0 1 0-4.84.1 7.29 7.29 0 0 0-3.41 2.55 6.8 6.8 0 0 0-.45 0h-.04a2.11 2.11 0 1 1 1-3.97.64.64 0 0 0 .62-1.13 3.4 3.4 0 0 0-3.84 5.54 6.39 6.39 0 0 0-4.15 5.92v3.64a.64.64 0 1 0 1.29 0v-3.64a5.17 5.17 0 0 1 4.81-5.07c-.4.9-.6 1.86-.6 2.85v6.21a3.52 3.52 0 0 0 3.34 3.47v8.48h-1.74v-7.01a.64.64 0 1 0-1.28 0v7H347V182.8a.64.64 0 1 0-1.28 0v15.75h-5.09a.64.64 0 1 0 0 1.28h30.55a.64.64 0 1 0 0-1.28z"/></defs><g><g transform="translate(-340 -167)"><g><use fill="#ebc05f" xlink:href="#lz4na"/></g><g><use fill="#ebc05f" xlink:href="#lz4nb"/></g><g><use fill="#ebc05f" xlink:href="#lz4nc"/></g></g></g></svg>