<svg xmlns="http://www.w3.org/2000/svg" xmlns:xlink="http://www.w3.org/1999/xlink" viewBox="0 0 32 32"><defs><path id="nwwxb" d="M165.06 185.75c.74 0 1.35.52 1.35 1.17a.62.62 0 0 0 1.23 0c0-1.13-.84-2.08-1.97-2.33v-.32a.62.62 0 0 0-1.23 0v.32a2.45 2.45 0 0 0-1.97 2.33c0 1.33 1.16 2.4 2.59 2.4.74 0 1.35.53 1.35 1.18 0 .64-.6 1.17-1.35 1.17-.75 0-1.36-.53-1.36-1.17a.62.62 0 0 0-1.23 0c0 1.13.84 2.07 1.97 2.33v.27a.62.62 0 0 0 1.23 0v-.27a2.45 2.45 0 0 0 1.97-2.33c0-1.33-1.16-2.4-2.58-2.4-.75 0-1.36-.53-1.36-1.18 0-.65.6-1.17 1.36-1.17"/><path id="nwwxc" d="M171.8 184.43a8.02 8.02 0 0 0-3.28-2.9.62.62 0 1 0-.53 1.11 6.81 6.81 0 0 1 3.05 9.29.62.62 0 1 0 1.09.57 8.02 8.02 0 0 0-.33-8.07"/><path id="nwwxd" d="M165.99 181.98h.03a.62.62 0 0 0 0-1.23H166a.62.62 0 0 0 0 1.23"/><path id="nwwxe" d="M162.12 194.86a6.81 6.81 0 0 1-3.05-9.28.62.62 0 1 0-1.09-.58 8.02 8.02 0 0 0 3.61 10.97.61.61 0 0 0 .82-.29.62.62 0 0 0-.29-.82"/><path id="nwwxa" d="M144 168.06h31.52v31.16H144z"/><path id="nwwxg" d="M164.13 195.52h-.03a.62.62 0 1 0 0 1.23h.03a.62.62 0 0 0 0-1.23"/><path id="nwwxh" d="M165.06 197.99a9.25 9.25 0 0 1 0-18.48 9.25 9.25 0 0 1 0 18.48zm-14.9-3.33a1.6 1.6 0 0 1 0-3.2h4.79c.3 1.16.81 2.24 1.47 3.2zm-1.6-6.03c0-.89.71-1.6 1.6-1.6h4.57a10.5 10.5 0 0 0-.03 3.2h-4.54a1.6 1.6 0 0 1-1.6-1.6zm0-4.44c0-.88.71-1.6 1.6-1.6h6.44c-.7.96-1.24 2.04-1.58 3.2h-4.86a1.6 1.6 0 0 1-1.6-1.6zm0-4.43c0-.88.71-1.6 1.6-1.6h15.08c.25 0 .49.06.7.16-.29-.02-.58-.04-.88-.04-2.9 0-5.51 1.18-7.4 3.08h-7.5a1.6 1.6 0 0 1-1.6-1.6zm3.94-4.43c0-.89.72-1.6 1.6-1.6h15.08a1.6 1.6 0 0 1 0 3.2H154.1a1.6 1.6 0 0 1-1.6-1.6zm-7.27-4.44c0-.88.72-1.6 1.6-1.6h15.09a1.6 1.6 0 0 1 0 3.2h-15.09a1.6 1.6 0 0 1-1.6-1.6zm22.35 7.27h1.6a2.84 2.84 0 0 0 0-5.67h-4.93a2.84 2.84 0 0 0-2.34-4.43h-15.08a2.84 2.84 0 0 0 0 5.67h4.93a2.82 2.82 0 0 0 0 3.2h-1.6a2.84 2.84 0 0 0-1.76 5.05 2.83 2.83 0 0 0 0 4.43 2.83 2.83 0 0 0 0 4.43 2.83 2.83 0 0 0 1.76 5.05h7.25a10.48 10.48 0 1 0 10.44-17.23 2.83 2.83 0 0 0-.27-.5z"/><clipPath id="nwwxf"><use xlink:href="#nwwxa"/></clipPath></defs><g><g transform="translate(-144 -168)"><g><use fill="#ebc05f" xlink:href="#nwwxb"/></g><g><use fill="#ebc05f" xlink:href="#nwwxc"/></g><g><use fill="#ebc05f" xlink:href="#nwwxd"/></g><g><use fill="#ebc05f" xlink:href="#nwwxe"/></g><g><g/><g clip-path="url(#nwwxf)"><use fill="#ebc05f" xlink:href="#nwwxg"/></g><g clip-path="url(#nwwxf)"><use fill="#ebc05f" xlink:href="#nwwxh"/></g></g></g></g></svg>