<svg xmlns="http://www.w3.org/2000/svg" xmlns:xlink="http://www.w3.org/1999/xlink" viewBox="0 0 49 32"><defs><path id="2mqja" d="M685.96 179.78l-5.45-6.5a.71.71 0 1 0-1.09.92l5.46 6.5c.13.15.1.39-.05.52l-9.75 8.22-2.4-2.86c.46-.38 1.33-.99 1.45-2.33a2.93 2.93 0 0 0-4.8-2.5l-.42.34-2.39-2.85c3.6-3.03 3.54-2.89 3.57-3.28a.71.71 0 0 0-.16-.52l-.8-.96a1.5 1.5 0 0 1 2.3-1.94l.8.96a.71.71 0 0 0 1 .08l3.33-2.8 1.25 1.5a.71.71 0 1 0 1.09-.92l-1.71-2.04a.71.71 0 0 0-1-.08l-3.32 2.8-.35-.42a2.93 2.93 0 1 0-4.48 3.78l.34.41-3.32 2.8c-.3.25-.34.7-.08 1 3.56 4.25 3.39 4.16 3.79 4.2.37.03.48-.14 1.47-.97a1.51 1.51 0 0 1 2.47 1.28c-.06.77-.52 1.02-1.48 1.83-.3.26-.34.7-.1 1 3.57 4.25 3.4 4.16 3.8 4.2.41.03-.3.52 10.82-8.84a1.8 1.8 0 0 0 .21-2.53z"/><path id="2mqjb" d="M668.85 185.66v13.48c0 .99-.8 1.79-1.79 1.79h-27.27c-.99 0-1.79-.8-1.79-1.8v-26.96c0-.99.8-1.79 1.8-1.79h7.42a.71.71 0 0 1 0 1.42h-7.43c-.2 0-.37.17-.37.37v12.77h4.43c.4 0 .71.32.71.72v1.24a1.51 1.51 0 0 0 3.02 0v-1.24c0-.4.31-.72.7-.72h4.43v-3.63h-.53a2.94 2.94 0 0 1 0-5.87h.53v-3.64h-2.74a.71.71 0 0 1 0-1.42h3.46c.39 0 .7.32.7.71v5.06c0 .4-.31.71-.7.71h-1.25a1.51 1.51 0 0 0 0 3.02h1.25c.39 0 .7.32.7.72v4.34h3.72v-.53a2.94 2.94 0 0 1 5.86 0v.53h4.43c.4 0 .71.32.71.72zm-15.42 8.79h1.24a1.51 1.51 0 0 0 0-3.02h-1.24a.71.71 0 0 1-.72-.72v-4.34H649v.53a2.94 2.94 0 0 1-5.86 0v-.53h-3.72v12.77c0 .2.17.37.37.37h12.92v-4.35c0-.4.32-.71.72-.71zm14 4.69v-12.77H663a.71.71 0 0 1-.71-.71v-1.25a1.51 1.51 0 0 0-3.01 0v1.25c0 .39-.32.7-.72.7h-4.42V190h.53a2.94 2.94 0 0 1 0 5.87h-.53v3.64h12.92c.2 0 .37-.17.37-.37z"/></defs><g><g transform="translate(-638 -169)"><g><use fill="#ebc05f" xlink:href="#2mqja"/></g><g><use fill="#ebc05f" xlink:href="#2mqjb"/></g></g></g></svg>