<?xml version="1.0" encoding="utf-8"?>
<!-- Generator: Adobe Illustrator 22.0.1, SVG Export Plug-In . SVG Version: 6.00 Build 0)  -->
<svg version="1.1" id="Camada_1" xmlns="http://www.w3.org/2000/svg" xmlns:xlink="http://www.w3.org/1999/xlink" x="0px" y="0px"
	 viewBox="0 0 53 53.3" style="enable-background:new 0 0 53 53.3;" xml:space="preserve">
<style type="text/css">
	.st0{fill:#333333;}
	.st1{fill:none;}
	.st2{fill:#C6CBD4;}
	.st3{fill:#59A1D0;}
	.st4{fill:#FFFFFF;}
	.st5{fill:#52AD8C;}
	.st6{fill:#C86D61;}
</style>
<g>
	<path class="st1" d="M40,19.9c0-7.5-6-13.5-13.5-13.5S13,12.4,13,19.9v11.3c0,1.6-0.4,3.2-1.2,4.5h29.4c-0.8-1.3-1.2-2.9-1.2-4.5
		V19.9z"/>
	<path class="st0" d="M30.4,44.6h-7.8c-1.7,0-2.8,1.9-1.9,3.4c1.2,2.1,3.4,3.4,5.8,3.4s4.6-1.3,5.8-3.4
		C33.2,46.5,32.1,44.6,30.4,44.6z"/>
	<path class="st0" d="M49,35.6c-2.5,0-4.5-2-4.5-4.5V19.9c0-9.9-8.1-18-18-18s-18,8.1-18,18v11.3c0,2.5-2,4.5-4.5,4.5
		c-3,0-3,4.5,0,4.5h45C52,40.1,52,35.6,49,35.6z M11.8,35.6c0.8-1.3,1.2-2.9,1.2-4.5V19.9c0-7.5,6-13.5,13.5-13.5S40,12.4,40,19.9
		v11.3c0,1.6,0.4,3.2,1.2,4.5H11.8z"/>
</g>
</svg>
