<?xml version="1.0" encoding="UTF-8"?>
<svg width="49px" height="53px" viewBox="0 0 49 53" version="1.1" xmlns="http://www.w3.org/2000/svg" xmlns:xlink="http://www.w3.org/1999/xlink">
    <!-- Generator: Sketch 49 (51002) - http://www.bohemiancoding.com/sketch -->
    <title>invoice (1)</title>
    <desc>Created with Sketch.</desc>
    <defs></defs>
    <g id="Login-+-Estratégia-de-Análise" stroke="none" stroke-width="1" fill="none" fill-rule="evenodd">
        <g id="01---Validação-base-de-dados-/-base-contábil/-conta-adiconada-no-escopo" transform="translate(-494.000000, -677.000000)" fill="#3580B2" fill-rule="nonzero">
            <g id="invoice-(1)" transform="translate(494.000000, 677.000000)">
                <path d="M45.2433361,0 L3.7566639,0 C1.68531572,0 0,1.68274671 0,3.75129541 L0,43.4162316 C0,43.6391003 0.0886299017,43.8527561 0.246505153,44.0104101 L9.00220649,52.7539438 C9.15997808,52.9114943 9.37403744,53 9.59711527,53 L45.2433361,53 C47.3146843,53 49,51.3172533 49,49.2487046 L49,3.75129541 C49,1.68274671 47.3146843,0 45.2433361,0 Z M8.75570134,50.1311736 L2.87274908,44.2564663 L7.35337934,44.2564663 C8.12668819,44.2564663 8.75570134,44.8845979 8.75570134,45.6568229 L8.75570134,50.1311736 Z M45.2433361,51.3193236 L10.4385292,51.3193236 L10.4385292,45.6566159 C10.4385292,43.9579278 9.05465881,42.5758934 7.353483,42.5758934 L1.68282786,42.5758934 L1.68282786,3.75129541 C1.68282786,2.60952029 2.61318268,1.68046937 3.7566639,1.68046937 L45.2433361,1.68046937 C46.3868173,1.68046937 47.3171721,2.60952029 47.3171721,3.75129541 L47.3171721,49.2484976 C47.3171721,50.3904797 46.386921,51.3193236 45.2433361,51.3193236 Z" id="Shape"></path>
                <path d="M41.1719182,6 L7.82808182,6 C7.37073418,6 7,6.41292135 7,6.92256608 L7,12.0774339 C7,12.5870787 7.37073418,13 7.82808182,13 L41.1719182,13 C41.6292658,13 42,12.5870787 42,12.0774339 L42,6.92256608 C42,6.41292135 41.6292658,6 41.1719182,6 Z M8.65616365,11.1548678 L8.65616365,7.84501851 L40.3438364,7.84501851 L40.3438364,11.1548678 L8.65616365,11.1548678 Z" id="Shape"></path>
                <path d="M37.8264725,38.8385385 L37.8264725,36.7374374 C38.2213369,36.834034 38.6307081,37 39.0401853,37.2072072 C39.2012442,37.2903904 39.3762806,37.3316316 39.5518465,37.3316316 C40.1076638,37.3316316 40.5464725,36.9308308 40.5464725,36.4054054 C40.5464725,35.9904905 40.2979484,35.7281281 40.0201985,35.575976 C39.391317,35.244044 38.6890536,35.0229229 37.8995367,34.9122122 L37.8995367,34.7188188 C37.8995367,34.3176176 37.5628061,34 37.138822,34 C36.7146261,34 36.3784249,34.3176176 36.3784249,34.7188188 L36.3784249,34.8843844 C34.5356188,35.0643644 33.3071873,36.0873874 33.3071873,37.6082082 C33.3071873,39.2533534 34.345546,40.0137137 36.451595,40.552953 L36.451595,42.7511512 C35.7789808,42.6128128 35.1938319,42.3501502 34.5796691,41.9768769 C34.4042091,41.8662663 34.1994176,41.7968969 34.0092389,41.7968969 C33.4388087,41.7968969 33,42.1978979 33,42.7372372 C33,43.1103103 33.1903905,43.3867868 33.4975778,43.5667668 C34.3601588,44.0644645 35.3401721,44.4099099 36.3785308,44.5345345 L36.3785308,45.280981 C36.3785308,45.681982 36.714732,46 37.1389279,46 C37.562912,46 37.8996426,45.6820821 37.8996426,45.280981 L37.8996426,44.5484484 C39.742131,44.3547548 41,43.3590591 41,41.8109109 C41.0001059,40.2626627 40.0492124,39.4053053 37.8264725,38.8385385 Z M36.4519126,38.478979 C35.6474653,38.2025025 35.4427796,37.9121121 35.4427796,37.4834835 C35.4427796,37.0411411 35.749861,36.7094094 36.4519126,36.6126126 L36.4519126,38.478979 Z M37.8264725,42.8201201 L37.8264725,40.8985986 C38.6160953,41.1611612 38.8648312,41.4651652 38.8648312,41.9213213 C38.8648312,42.419019 38.5134878,42.7234234 37.8264725,42.8201201 Z" id="Shape"></path>
                <path d="M31.0955567,34 L16.9043318,34 C16.4048715,34 16,34.413035 16,34.9225661 L16,40.0774339 C16,40.5870787 16.4048715,41 16.9043318,41 L31.0956682,41 C31.5951285,41 32,40.5870787 32,40.0774339 L32,34.9225661 C31.9998886,34.413035 31.5950171,34 31.0955567,34 Z M30.1912249,39.1549815 L17.8085523,39.1549815 L17.8085523,35.8451322 L30.1912249,35.8451322 L30.1912249,39.1549815 Z" id="Shape"></path>
                <rect id="Rectangle-path" x="8" y="18" width="34" height="2"></rect>
                <rect id="Rectangle-path" x="8" y="23" width="34" height="2"></rect>
                <rect id="Rectangle-path" x="8" y="28" width="34" height="2"></rect>
            </g>
        </g>
    </g>
</svg>