<?xml version="1.0" encoding="utf-8"?>
<!-- Generator: Adobe Illustrator 22.0.1, SVG Export Plug-In . SVG Version: 6.00 Build 0)  -->
<svg version="1.1" id="Camada_1" xmlns="http://www.w3.org/2000/svg" xmlns:xlink="http://www.w3.org/1999/xlink" x="0px" y="0px"
	 viewBox="0 0 43.8 58.5" style="enable-background:new 0 0 43.8 58.5;" xml:space="preserve">
<style type="text/css">
	.st0{fill:#333333;}
	.st1{fill:none;}
	.st2{fill:#C6CBD4;}
	.st3{fill:#59A1D0;}
	.st4{fill:#FFFFFF;}
	.st5{fill:#52AD8C;}
	.st6{fill:#C86D61;}
</style>
<g>
	<path class="st0" d="M21.9,18.3c3,0,5.5-2.5,5.5-5.6c0-1-0.3-2-0.8-2.8l-4.7-8.4l-4.7,8.4c-0.5,0.9-0.8,1.9-0.8,2.9
		C16.4,15.8,18.8,18.3,21.9,18.3z M19.8,11.4l2.1-3.7l2.1,3.8c0.2,0.4,0.4,0.9,0.4,1.3c0,1.4-1.1,2.6-2.5,2.6s-2.5-1.2-2.5-2.6
		C19.4,12.3,19.5,11.8,19.8,11.4z"/>
	<path class="st0" d="M33.8,24.4h-8.5v-4.1h-7v4.1H9.9c-4.1,0-7.5,3.4-7.5,7.6v3.1c0,3,2.4,5.5,5.4,5.5c1.5,0,2.8-0.6,3.8-1.6
		l3.2-3.3l3.2,3.3c1,1,2.4,1.6,3.8,1.6s2.9-0.6,3.8-1.6l3.2-3.3l3.2,3.3c1,1,2.4,1.6,3.8,1.6c3,0,5.4-2.5,5.4-5.5v-3.1
		C41.3,27.9,37.9,24.4,33.8,24.4z M38.3,35.2c0,1.4-1.1,2.5-2.4,2.5c-0.6,0-1.2-0.3-1.7-0.7l-5.3-5.4L23.6,37
		c-0.8,0.9-2.5,0.9-3.4,0l-5.3-5.4L9.5,37c-0.5,0.5-1,0.7-1.7,0.7c-1.3,0-2.4-1.1-2.4-2.5v-3.1c0-2.6,2-4.6,4.5-4.6h11.5v-4.1h1v4.1
		h11.5c2.5,0,4.5,2.1,4.5,4.6V35.2z"/>
	<path class="st0" d="M35.9,43.8c-1.4,0-2.8-0.6-3.8-1.6l-3.2-3.3l-3.2,3.3c-1,1-2.3,1.5-3.8,1.5c-1.5,0-2.8-0.6-3.8-1.5l-3.2-3.3
		l-3.2,3.3c-1,1-2.3,1.6-3.8,1.6c-1.1,0-2.1-0.3-3-1l-2.4-1.7v12.3c0,2,1.6,3.5,3.5,3.5h31.9c1.9,0,3.5-1.6,3.5-3.5V41.1L39,42.8
		C38,43.4,37,43.8,35.9,43.8z M38.3,53.5c0,0.3-0.2,0.5-0.5,0.5H5.9c-0.3,0-0.5-0.2-0.5-0.5v-7c0.8,0.2,1.6,0.4,2.4,0.4
		c2.3,0,4.4-0.9,5.9-2.5l1.1-1.1l1.1,1.1c1.5,1.6,3.7,2.5,6,2.5c2.3,0,4.4-0.9,5.9-2.4l1.1-1.1l1.1,1.1c1.6,1.6,3.7,2.5,6,2.5
		c0.8,0,1.6-0.1,2.4-0.4V53.5z"/>
</g>
</svg>
