<?xml version="1.0" encoding="utf-8"?>
<!-- Generator: Adobe Illustrator 21.1.0, SVG Export Plug-In . SVG Version: 6.00 Build 0)  -->
<svg version="1.1" id="Layer_1" xmlns="http://www.w3.org/2000/svg" xmlns:xlink="http://www.w3.org/1999/xlink" x="0px" y="0px"
	 viewBox="0 0 21 21" style="enable-background:new 0 0 21 21;" xml:space="preserve">
<style type="text/css">
	.st0{fill:#FFFFFF;}
	.st1{fill:#C3D6E3;fill-opacity:0.6;}
</style>
<g>
	<path id="path-1" class="st0" d="M10.8,12.8l1.5-1.5c0.4-0.4,1-0.4,1.4,0c0.4,0.4,0.4,1,0,1.4l-1.5,1.5l1.5,1.5
		c0.4,0.4,0.4,1,0,1.4c-0.4,0.4-1,0.4-1.4,0l-1.5-1.5l-1.5,1.5c-0.4,0.4-1,0.4-1.4,0c-0.4-0.4-0.4-1,0-1.4l1.5-1.5l-1.5-1.5
		c-0.4-0.4-0.4-1,0-1.4c0.4-0.4,1-0.4,1.4,0L10.8,12.8z M16.5,4v1c0,0.6-0.4,1-1,1s-1-0.4-1-1V4h-8v1c0,0.6-0.4,1-1,1s-1-0.4-1-1V4
		H2v3h17V4H16.5z M16.5,2h3C20.3,2,21,2.7,21,3.5v16c0,0.8-0.7,1.5-1.5,1.5h-18C0.7,21,0,20.3,0,19.5v-16C0,2.7,0.7,2,1.5,2h3V1
		c0-0.6,0.4-1,1-1s1,0.4,1,1v1h8V1c0-0.6,0.4-1,1-1s1,0.4,1,1V2z M2,9v10h17V9H2z"/>
</g>
<title>Icons / calendar x</title>
<desc>Created with Sketch.</desc>
<path id="path-1_1_" class="st1" d="M10.8,12.8l1.5-1.5c0.4-0.4,1-0.4,1.4,0c0.4,0.4,0.4,1,0,1.4l-1.5,1.5l1.5,1.5
	c0.4,0.4,0.4,1,0,1.4c-0.4,0.4-1,0.4-1.4,0l-1.5-1.5l-1.5,1.5c-0.4,0.4-1,0.4-1.4,0c-0.4-0.4-0.4-1,0-1.4l1.5-1.5l-1.5-1.5
	c-0.4-0.4-0.4-1,0-1.4c0.4-0.4,1-0.4,1.4,0L10.8,12.8z M16.5,4v1c0,0.6-0.4,1-1,1s-1-0.4-1-1V4h-8v1c0,0.6-0.4,1-1,1s-1-0.4-1-1V4H2
	v3h17V4H16.5z M16.5,2h3C20.3,2,21,2.7,21,3.5v16c0,0.8-0.7,1.5-1.5,1.5h-18C0.7,21,0,20.3,0,19.5v-16C0,2.7,0.7,2,1.5,2h3V1
	c0-0.6,0.4-1,1-1s1,0.4,1,1v1h8V1c0-0.6,0.4-1,1-1s1,0.4,1,1V2z M2,9v10h17V9H2z"/>
</svg>
