<?xml version="1.0" encoding="utf-8"?>
<!-- Generator: Adobe Illustrator 22.0.1, SVG Export Plug-In . SVG Version: 6.00 Build 0)  -->
<svg version="1.1" id="Camada_1" xmlns="http://www.w3.org/2000/svg" xmlns:xlink="http://www.w3.org/1999/xlink" x="0px" y="0px"
	 viewBox="0 0 41.3 43" style="enable-background:new 0 0 41.3 43;" xml:space="preserve">
<style type="text/css">
	.st0{fill:#333333;}
	.st1{fill:none;}
	.st2{fill:#C6CBD4;}
	.st3{fill:#59A1D0;}
	.st4{fill:#FFFFFF;}
	.st5{fill:#52AD8C;}
	.st6{fill:#C86D61;}
</style>
<path id="path-7_1_" class="st0" d="M34.6,16.3V11c0-1-0.8-1.8-1.8-1.8h-3.5V11c0,1-0.8,1.8-1.8,1.8S25.9,12,25.9,11V9.3H15.4V11
	c0,1-0.8,1.8-1.8,1.8S11.9,12,11.9,11V9.3H8.4c-1,0-1.8,0.8-1.8,1.8v5.3H34.6z M34.6,19.8h-28v15.8c0,1,0.8,1.8,1.8,1.8h24.5
	c1,0,1.8-0.8,1.8-1.8V19.8z M15.4,5.8h10.5V4c0-1,0.8-1.8,1.8-1.8S29.4,3,29.4,4v1.8h3.5c2.9,0,5.3,2.4,5.3,5.3v24.5
	c0,2.9-2.4,5.3-5.3,5.3H8.4c-2.9,0-5.3-2.4-5.3-5.3V11c0-2.9,2.4-5.3,5.3-5.3h3.5V4c0-1,0.8-1.8,1.8-1.8S15.4,3,15.4,4V5.8z"/>
</svg>
