<?xml version="1.0" encoding="utf-8"?>
<!-- Generator: Adobe Illustrator 22.0.1, SVG Export Plug-In . SVG Version: 6.00 Build 0)  -->
<svg version="1.1" id="Camada_1" xmlns="http://www.w3.org/2000/svg" xmlns:xlink="http://www.w3.org/1999/xlink" x="0px" y="0px"
	 viewBox="0 0 95.3 90.5" style="enable-background:new 0 0 95.3 90.5;" xml:space="preserve">
<style type="text/css">
	.st0{fill:#333333;}
	.st1{fill:none;}
	.st2{fill:#C6CBD4;}
	.st3{fill:#59A1D0;}
	.st4{fill:#FFFFFF;}
	.st5{fill:#52AD8C;}
	.st6{fill:#C86D61;}
</style>
<path class="st0" d="M22.8,76.2C22.8,76.1,22.9,76.1,22.8,76.2C22.9,76.1,22.9,76.1,22.8,76.2L22.8,76.2z"/>
<path class="st0" d="M76.8,76.2L76.8,76.2C76.8,76.1,76.8,76.1,76.8,76.2C76.8,76.1,76.8,76.1,76.8,76.2z"/>
<path class="st0" d="M93,19.9c0-2-1.1-4-3.5-4.4c-0.7-0.1-2.2-0.3-2.4-0.2l-21.6,0.1V9.7c0-4.4-3.5-7.9-7.9-7.9H37.8
	c-4.4,0-7.9,3.5-7.9,7.9v5.7c-14.3-0.1-21.5-0.2-21.5-0.2c-0.2-0.1-1.9,0-2.6,0.2c-2.4,0.5-3.5,2.4-3.5,4.4v10.5
	c0,2.8,0.7,5.5,2,7.9v43.4c0,3.2,2.2,7,5.9,7h75c3.7,0,5.9-3.8,5.9-7V38.3c1.3-2.4,2-5.1,2-7.9V19.9z M37.8,9.7h19.7v3.9H37.8V9.7z
	 M10.1,23.5h75v6.9c0,4.7-3.8,8.9-7.9,8.9H18c-4.1,0-7.9-4.3-7.9-8.9V23.5z M53.5,47.2v7.9H41.7v-7.9H53.5z M12.1,81.7v-0.1
	C12.1,81.6,12.1,81.6,12.1,81.7C12.1,81.6,12.1,81.6,12.1,81.7z M83.1,81.7C83.1,81.6,83.1,81.6,83.1,81.7c0-0.1,0-0.1,0-0.1V81.7z
	 M12.1,80.8V45.9c1.8,0.8,3.8,1.3,5.9,1.3h15.8v8.2c0,3.3,2,7.6,5.9,7.6h15.8c4,0,5.9-4.3,5.9-7.6v-8.2h15.8c2.1,0,4.1-0.5,5.9-1.3
	v34.8H12.1z"/>
</svg>
