<?xml version="1.0" encoding="utf-8"?>
<!-- Generator: Adobe Illustrator 21.1.0, SVG Export Plug-In . SVG Version: 6.00 Build 0)  -->
<svg version="1.1" id="Layer_1" xmlns="http://www.w3.org/2000/svg" xmlns:xlink="http://www.w3.org/1999/xlink" x="0px" y="0px"
	 viewBox="0 0 24 24" style="enable-background:new 0 0 24 24;" xml:space="preserve">
<g>
	<path id="path-1" class="st0" d="M4.7,11.8c-0.4-0.4-1-0.4-1.4,0c-0.4,0.4-0.4,1,0,1.4l5,5c0.4,0.4,1,0.4,1.4,0l11-11
		c0.4-0.4,0.4-1,0-1.4c-0.4-0.4-1-0.4-1.4,0L9,16.1L4.7,11.8z"/>
</g>
<g id="Formação-de-Equipes">
	<g id="FE-7a-Alinhamento-de-cargos-e-funções" transform="translate(-850.000000, -361.000000)">
		<g id="Icons_x2F_-check" transform="translate(847.000000, 355.000000)">
			<g id="Shape">
				<path id="path-1_1_" d="M7.7,17.8c-0.4-0.4-1-0.4-1.4,0s-0.4,1,0,1.4l5,5c0.4,0.4,1,0.4,1.4,0l11-11c0.4-0.4,0.4-1,0-1.4
					c-0.4-0.4-1-0.4-1.4,0L12,22.1L7.7,17.8z"/>
			</g>
		</g>
	</g>
</g>
</svg>
