<?xml version="1.0" encoding="utf-8"?>
<!-- Generator: Adobe Illustrator 21.1.0, SVG Export Plug-In . SVG Version: 6.00 Build 0)  -->
<svg version="1.1" id="Layer_1" xmlns="http://www.w3.org/2000/svg" xmlns:xlink="http://www.w3.org/1999/xlink" x="0px" y="0px"
	 viewBox="0 0 16 16" style="enable-background:new 0 0 16 16;" xml:space="preserve">
<path id="path-1_1_" d="M13.7,7.4c0-0.4,0.3-0.7,0.7-0.7S15,7,15,7.4V8c0,3.2-2.1,6.1-5.3,7c-3.1,0.9-6.5-0.3-8.2-3S0,5.7,2.1,3.2
	S7.7,0,10.7,1.3C11,1.5,11.1,1.8,11,2.2c-0.1,0.3-0.5,0.5-0.9,0.3c-2.4-1.1-5.3-0.4-7,1.6S1.2,9,2.6,11.3s4.2,3.2,6.7,2.5
	s4.3-3.1,4.3-5.7V7.4z M7.7,8.4l6.9-6.9c0.3-0.3,0.7-0.3,0.9,0c0.3,0.3,0.3,0.7,0,0.9L8.1,9.8c-0.3,0.3-0.7,0.3-0.9,0l-2-2
	c-0.3-0.3-0.3-0.7,0-0.9c0.3-0.3,0.7-0.3,0.9,0L7.7,8.4z"/>
</svg>
