<?xml version="1.0" encoding="UTF-8"?>
<svg width="44px" height="43px" viewBox="0 0 44 43" version="1.1" xmlns="http://www.w3.org/2000/svg" xmlns:xlink="http://www.w3.org/1999/xlink">
    <!-- Generator: Sketch 51.1 (57501) - http://www.bohemiancoding.com/sketch -->
    <title>loan</title>
    <desc>Created with Sketch.</desc>
    <defs></defs>
    <g id="Sprint-4" stroke="none" stroke-width="1" fill="none" fill-rule="evenodd">
        <g id="Identificação-de-Lacuna-(Preço-e-Consumo)" transform="translate(-590.000000, -191.000000)" fill="#000000" fill-rule="nonzero">
            <g id="loan" transform="translate(590.000000, 191.000000)">
                <path d="M43.2445761,26.6333724 L40.3474568,26.6333724 C39.94693,26.6333724 39.623177,26.9557824 39.623177,27.3530377 L32.3803786,27.3530377 C32.1877202,27.3530377 32.0037531,27.4286025 31.8683128,27.5638996 L27.7884444,31.6177741 L13.4245267,29.1356485 C12.7357366,29.0176234 12.0317366,29.2047364 11.4950453,29.6530879 C10.9598025,30.1007197 10.6519835,30.7570544 10.6519835,31.4529707 C10.6519835,32.2856234 11.1017613,33.0643013 11.8260412,33.4845858 L27.6262058,42.6423264 C27.9948642,42.8560669 28.4062551,42.9640167 28.8183704,42.9632971 C29.1805103,42.9632971 29.5426502,42.8805356 29.8779918,42.7142929 L37.6212675,38.867682 L39.623177,38.867682 C39.623177,39.2649372 39.94693,39.5873473 40.3474568,39.5873473 L43.2445761,39.5873473 C43.6451029,39.5873473 43.968856,39.2649372 43.968856,38.867682 L43.968856,27.3530377 C43.968856,26.9557824 43.6451029,26.6333724 43.2445761,26.6333724 Z M39.623177,37.4283515 L37.4503374,37.4283515 C37.3380741,37.4283515 37.226535,37.4542594 37.1265844,37.5039163 L29.2297613,41.4275314 C28.9501893,41.5657071 28.6235391,41.5549121 28.3562798,41.3994644 L12.5568395,32.2417238 C12.2750947,32.0783598 12.1005432,31.7761004 12.1005432,31.4529707 C12.1005432,31.1830962 12.2200494,30.9283347 12.4279177,30.7541757 C12.635786,30.5807364 12.9081152,30.5080502 13.176823,30.5533891 L26.5354403,32.8620753 L25.9487737,33.4450042 C25.4258436,33.9653222 25.1375802,34.6569205 25.1375802,35.3924184 C25.1375802,36.9123515 26.381893,38.1480167 27.9101235,38.1480167 C28.6510617,38.1480167 29.3470947,37.86159 29.870749,37.3405523 L33.6167243,33.6191632 L32.5925926,32.6015565 L28.8466173,36.3236653 C28.5996379,36.5683515 28.2592263,36.7086862 27.9101235,36.7086862 C27.1800494,36.7086862 26.5861399,36.1185607 26.5861399,35.3924184 C26.5861399,35.0412218 26.7237531,34.7101757 26.9736296,34.4618912 L32.6802305,28.7923682 L39.623177,28.7923682 L39.623177,37.4283515 Z M42.5202963,38.1480167 L41.0717366,38.1480167 L41.0717366,28.0727029 L42.5202963,28.0727029 L42.5202963,38.1480167 Z" id="Shape"></path>
                <path d="M25.8618601,10.8007364 C23.4652181,10.8007364 21.5161811,12.7373556 21.5161811,15.118728 C21.5161811,17.5001004 23.4652181,19.4367197 25.8618601,19.4367197 C28.2585021,19.4367197 30.2075391,17.5001004 30.2075391,15.118728 C30.2075391,12.7373556 28.2585021,10.8007364 25.8618601,10.8007364 Z M25.8618601,17.9973891 C24.2640988,17.9973891 22.9647407,16.7063096 22.9647407,15.118728 C22.9647407,13.5311464 24.2640988,12.2400669 25.8618601,12.2400669 C27.4596214,12.2400669 28.7589794,13.5311464 28.7589794,15.118728 C28.7589794,16.7063096 27.4596214,17.9973891 25.8618601,17.9973891 Z" id="Shape"></path>
                <path d="M39.623177,0.00575732218 L12.1005432,0.00575732218 C11.7000165,0.00575732218 11.3762634,0.328167364 11.3762634,0.725422594 L11.3762634,3.60408368 L11.3762634,6.48274477 L5.58202469,6.48274477 C5.38936626,6.48274477 5.20539918,6.55830962 5.06995885,6.69360669 L0,11.7312636 L1.02413169,12.7488703 L5.88187654,7.92207531 L11.3762634,7.92207531 L11.3762634,10.0810711 L11.3762634,12.2400669 L7.7548642,12.2400669 L7.7548642,13.6793975 L12.1005432,13.6793975 L17.1705021,13.6793975 C17.9693827,13.6793975 18.6190617,14.3249372 18.6190617,15.118728 C18.6190617,15.5023096 18.4684115,15.8635816 18.1939095,16.1356151 C17.9194074,16.4076485 17.5558189,16.5580586 17.1705021,16.5580586 L12.1005432,16.5580586 C12.0034897,16.5580586 11.9093333,16.5774895 11.8216955,16.6141925 C11.7333333,16.6508954 11.6543868,16.703431 11.5877531,16.7696402 L9.41563786,18.9279163 L10.4397695,19.945523 L11.3762634,19.0149958 L11.3762634,20.1563849 L11.3762634,23.035046 L0.512065844,23.035046 L0.512065844,24.4743766 L12.1005432,24.4743766 L15.7219424,24.4743766 L36.0017778,24.4743766 L39.623177,24.4743766 C40.0237037,24.4743766 40.3474568,24.1519665 40.3474568,23.7547113 L40.3474568,20.1563849 L40.3474568,10.0810711 L40.3474568,6.48274477 L40.3474568,3.60408368 L40.3474568,0.725422594 C40.3474568,0.328167364 40.0237037,0.00575732218 39.623177,0.00575732218 Z M12.824823,7.20241004 L14.905679,7.20241004 C14.6434897,8.21282008 13.8409877,9.00948954 12.824823,9.27072803 L12.824823,7.20241004 Z M12.824823,23.035046 L12.824823,20.966728 C13.8409877,21.2279665 14.6434897,22.024636 14.905679,23.035046 L12.824823,23.035046 Z M38.8988971,23.035046 L36.8180412,23.035046 C37.0802305,22.024636 37.8827325,21.2279665 38.8988971,20.966728 L38.8988971,23.035046 Z M38.8988971,19.5014895 C37.0831276,19.8059079 35.6497778,21.2308452 35.3426831,23.035046 L16.381037,23.035046 C16.0746667,21.2308452 14.6405926,19.8066276 12.824823,19.5014895 L12.824823,17.9973891 L17.1705021,17.9973891 C17.9425844,17.9973891 18.6704856,17.6972887 19.2180412,17.1532218 C19.766321,16.6091548 20.0676214,15.8866109 20.0676214,15.118728 C20.0676214,13.5311464 18.7682634,12.2400669 17.1705021,12.2400669 L12.824823,12.2400669 L12.824823,10.7359665 C14.6405926,10.4315481 16.0739424,9.00661088 16.381037,7.20241004 L35.3426831,7.20241004 C35.6490535,9.00661088 37.0831276,10.4308285 38.8988971,10.7359665 L38.8988971,19.5014895 Z M38.8988971,9.27072803 C37.8827325,9.00948954 37.0802305,8.21282008 36.8180412,7.20241004 L38.8988971,7.20241004 L38.8988971,9.27072803 Z M38.8988971,5.7630795 L36.0017778,5.7630795 L15.7219424,5.7630795 L12.824823,5.7630795 L12.824823,4.32374895 L38.8988971,4.32374895 L38.8988971,5.7630795 Z M38.8988971,2.88441841 L12.824823,2.88441841 L12.824823,1.44508787 L38.8988971,1.44508787 L38.8988971,2.88441841 Z" id="Shape"></path>
            </g>
        </g>
    </g>
</svg>