<?xml version="1.0" encoding="UTF-8"?>
<svg version="1.1" xmlns="http://www.w3.org/2000/svg" xmlns:xlink="http://www.w3.org/1999/xlink">
    <g id="Sprint-4" stroke="none" stroke-width="1" fill="none" fill-rule="evenodd">
        <g id="Conf.-Análise-(Produtividade)_04" transform="translate(-130.000000, -279.000000)" fill="#59A1D0" fill-rule="nonzero" stroke="#59A1D0">
            <g id="FTE" transform="translate(131.000000, 277.000000)">
                <path d="M1.71172005,5.26002004 L3.57141052,5.26002004 C3.70291224,5.26002004 3.80949755,5.13515182 3.80949755,4.98109321 C3.80949755,4.82703459 3.70288434,4.70216637 3.57141052,4.70216637 L2.30901632,4.70216637 C3.47121474,3.62833237 4.91073029,3.0284746 6.4285665,3.0284746 C10.1043925,3.0284746 13.0952545,6.53246643 13.0952545,10.8387202 C13.0952545,10.9927788 13.2018398,11.1176471 13.3333415,11.1176471 C13.4648433,11.1176471 13.5714286,10.9927788 13.5714286,10.8387202 C13.5714286,6.22434919 10.3673681,2.47058824 6.4285386,2.47058824 C4.75425635,2.47058824 3.16833947,3.15239486 1.90474549,4.36757184 L1.90474549,2.74958045 C1.90474549,2.59552183 1.79813228,2.47065361 1.66665846,2.47065361 C1.53518464,2.47065361 1.42857143,2.59552183 1.42857143,2.74958045 L1.42857143,5.26002004 L1.62176428,5.26002004 C1.65142402,5.2666884 1.68197661,5.26672109 1.71172005,5.26002004 Z" id="Shape" stroke-width="0.605000026" transform="translate(7.500000, 6.794118) rotate(-27.000000) translate(-7.500000, -6.794118) "></path>
                <path d="M1.71172005,12.6717848 L3.57141052,12.6717848 C3.70291224,12.6717848 3.80949755,12.5469165 3.80949755,12.3928579 C3.80949755,12.2387993 3.70288434,12.1139311 3.57141052,12.1139311 L2.30901632,12.1139311 C3.47121474,11.0400971 4.91073029,10.4402393 6.4285665,10.4402393 C10.1043925,10.4402393 13.0952545,13.9442311 13.0952545,18.2504849 C13.0952545,18.4045435 13.2018398,18.5294118 13.3333415,18.5294118 C13.4648433,18.5294118 13.5714286,18.4045435 13.5714286,18.2504849 C13.5714286,13.6361139 10.3673681,9.88235294 6.4285386,9.88235294 C4.75425635,9.88235294 3.16833947,10.5641596 1.90474549,11.7793365 L1.90474549,10.1613452 C1.90474549,10.0072865 1.79813228,9.88241832 1.66665846,9.88241832 C1.53518464,9.88241832 1.42857143,10.0072865 1.42857143,10.1613452 L1.42857143,12.6717848 L1.62176428,12.6717848 C1.65142402,12.6784531 1.68197661,12.6784858 1.71172005,12.6717848 Z" id="Shape" stroke-width="0.605000026" transform="translate(7.500000, 14.205882) scale(-1, -1) rotate(-27.000000) translate(-7.500000, -14.205882) "></path>
                <path d="M8.12776957,10.0774772 L6.87581768,10.0774772 C6.35566575,10.0774772 5.9323697,9.67047561 5.9323697,9.17034656 C5.9323697,8.67021751 6.35566575,8.26321594 6.87581768,8.26321594 L9.08556658,8.26321594 C9.32232539,8.26321594 9.51603714,8.07696098 9.51603714,7.84931603 C9.51603714,7.62167109 9.32232539,7.43541613 9.08556658,7.43541613 L7.93405782,7.43541613 L7.93405782,6.59037049 C7.93405782,6.36272554 7.74034606,6.17647059 7.50358725,6.17647059 C7.26682844,6.17647059 7.07311669,6.36272554 7.07311669,6.59037049 L7.07311669,7.43541613 L6.87581768,7.43541613 C5.88214813,7.43541613 5.07142857,8.21492761 5.07142857,9.17034656 C5.07142857,10.1257655 5.88214813,10.905277 6.87581768,10.905277 L8.12776957,10.905277 C8.6479215,10.905277 9.07121756,11.3122786 9.07121756,11.8124076 C9.07121756,12.3125367 8.6479215,12.7195382 8.12776957,12.7195382 L5.87856088,12.7195382 C5.64180207,12.7195382 5.44809031,12.9057932 5.44809031,13.1334381 C5.44809031,13.3610831 5.64180207,13.547338 5.87856088,13.547338 L7.06952944,13.547338 L7.06952944,14.4096295 C7.06952944,14.6372745 7.26324119,14.8235294 7.5,14.8235294 C7.73675881,14.8235294 7.93047056,14.6372745 7.93047056,14.4096295 L7.93047056,13.547338 L8.13853134,13.547338 C8.14211859,13.547338 8.14570585,13.547338 8.1492931,13.547338 C9.13220089,13.5335414 9.92857143,12.7609282 9.92857143,11.8124076 C9.92857143,10.8535395 9.12143912,10.0774772 8.12776957,10.0774772 Z" id="Combined-Shape" stroke-width="0.5"></path>
            </g>
        </g>
    </g>
</svg>