<?xml version="1.0" encoding="utf-8"?>
<!-- Generator: Adobe Illustrator 22.0.1, SVG Export Plug-In . SVG Version: 6.00 Build 0)  -->
<svg version="1.1" id="Camada_1" xmlns="http://www.w3.org/2000/svg" xmlns:xlink="http://www.w3.org/1999/xlink" x="0px" y="0px"
	 viewBox="0 0 53.5 54" style="enable-background:new 0 0 53.5 54;" xml:space="preserve">
<g>
	<path class="st0" d="M44.8,18H24.5c-3.7,0-6.8,3-6.8,6.8V45c0,3.7,3,6.8,6.8,6.8h20.3c3.7,0,6.8-3,6.8-6.8V24.8
		C51.5,21,48.5,18,44.8,18z M47,45c0,1.2-1,2.3-2.3,2.3H24.5c-1.2,0-2.3-1-2.3-2.3V24.8c0-1.2,1-2.3,2.3-2.3h20.3
		c1.2,0,2.3,1,2.3,2.3V45z"/>
	<path class="st0" d="M11,31.5H8.8c-1.2,0-2.3-1-2.3-2.3V9c0-1.2,1-2.3,2.3-2.3H29c1.2,0,2.3,1,2.3,2.3v2.3c0,1.2,1,2.3,2.3,2.3
		s2.3-1,2.3-2.3V9c0-3.7-3-6.8-6.8-6.8H8.8C5,2.3,2,5.3,2,9v20.3C2,33,5,36,8.8,36H11c1.2,0,2.3-1,2.3-2.3S12.2,31.5,11,31.5z"/>
</g>
</svg>
