<?xml version="1.0" encoding="UTF-8"?>
<svg width="41px" height="56px" viewBox="0 0 41 56" version="1.1" xmlns="http://www.w3.org/2000/svg" xmlns:xlink="http://www.w3.org/1999/xlink">
    <g id="Sprint-1" stroke="none" stroke-width="1" fill="none" fill-rule="evenodd">
        <g id="02---Classificação-das-entregas" transform="translate(-813.000000, -429.000000)" fill="#333333" stroke="#333333">
            <g id="Group-3" transform="translate(784.000000, 430.000000)">
                <g id="drag-and-drop" transform="translate(49.000000, 27.000000) scale(-1, -1) translate(-49.000000, -27.000000) translate(29.000000, 0.000000)">
                    <path d="M12.1219481,34.804878 C10.9096596,34.804878 9.09122692,34.804878 6.66665,34.804878 C5.1968,34.804878 4,33.6226732 4,32.1707482 L4,27.9560811 C4,27.6652713 4.23895,27.4292848 4.53335,27.4292848 C4.82775,27.4292848 5.06665,27.6652713 5.06665,27.9560811 L5.06665,32.1707482 C5.06665,33.0420909 5.78455,33.751236 6.66665,33.751236 C9.03498563,33.751236 10.8112373,33.751236 11.9954052,33.751236 C13.1816151,33.751236 21.4053745,33.751236 36.6666833,33.751236 C37.5487833,33.751236 38.2666833,33.0420909 38.2666833,32.1707482 L38.2666833,21.6341299 C38.2666833,20.7627872 37.5487833,20.0536421 36.6666833,20.0536421 C22.3552127,20.0536421 14.8438319,20.0536421 14.132541,20.0536421 C13.658643,20.0536421 12.947796,20.0536421 12,20.0536421 C11.7056,20.0536421 11.46665,19.8176555 11.46665,19.5268457 C11.46665,19.236036 11.7056,19 12,19 C13.1851889,19 14.0740806,19 14.666675,19 C15.2592694,19 22.5926056,19 36.6666833,19 C38.1365333,19 39.3333333,20.1822049 39.3333333,21.6341299 L39.3333333,32.1707482 C39.3333333,33.6226732 38.1365333,34.804878 36.6666833,34.804878 C21.4616158,34.804878 13.2800374,34.804878 12.1219481,34.804878 Z" id="Fill-1" stroke-width="0.5"></path>
                    <path d="M2.66666667,38.9878049 C1.74619208,38.9878049 1,39.7248971 1,40.6341463 L1,51.1707317 C1,52.079981 1.74619208,52.8170732 2.66666667,52.8170732 L32.6666667,52.8170732 C33.5871412,52.8170732 34.3333333,52.079981 34.3333333,51.1707317 L34.3333333,40.6341463 C34.3333333,39.7248971 33.5871412,38.9878049 32.6666667,38.9878049 L2.66666667,38.9878049 Z M2.66666667,38 L32.6666667,38 C34.139426,38 35.3333333,39.1793475 35.3333333,40.6341463 L35.3333333,51.1707317 C35.3333333,52.6255306 34.139426,53.804878 32.6666667,53.804878 L2.66666667,53.804878 C1.19390733,53.804878 1.80361e-16,52.6255306 0,51.1707317 L0,40.6341463 C-1.80361e-16,39.1793475 1.19390733,38 2.66666667,38 Z" id="Rectangle-3" stroke-width="0.5" fill-rule="nonzero"></path>
                    <path d="M2.66666667,0.987804878 C1.74619208,0.987804878 1,1.72489706 1,2.63414634 L1,13.1707317 C1,14.079981 1.74619208,14.8170732 2.66666667,14.8170732 L32.6666667,14.8170732 C33.5871412,14.8170732 34.3333333,14.079981 34.3333333,13.1707317 L34.3333333,2.63414634 C34.3333333,1.72489706 33.5871412,0.987804878 32.6666667,0.987804878 L2.66666667,0.987804878 Z M2.66666667,0 L32.6666667,0 C34.139426,-2.67242214e-16 35.3333333,1.17934749 35.3333333,2.63414634 L35.3333333,13.1707317 C35.3333333,14.6255306 34.139426,15.804878 32.6666667,15.804878 L2.66666667,15.804878 C1.19390733,15.804878 1.80361e-16,14.6255306 0,13.1707317 L0,2.63414634 C-1.80361e-16,1.17934749 1.19390733,2.67242214e-16 2.66666667,0 Z" id="Rectangle-3-Copy" stroke-width="0.5" fill-rule="nonzero"></path>
                    <path d="M3.09628611,25.4023551 L3.09628611,26.2335055 C3.09628611,27.1002248 3.83684663,27.8056072 4.74690509,27.8056072 L7.00273384,27.8056072 C9.70314649,27.8056072 11.8996045,25.7136312 11.8996045,23.1416729 C11.8996045,21.8965684 11.3900791,20.7248614 10.4657325,19.8444845 L8.76012724,18.2199631 C8.51913686,17.9904363 8.12845598,17.9904363 7.88746561,18.2199631 C7.77083906,18.3300103 7.70589752,18.4777878 7.70589752,18.634998 C7.70589752,18.7922081 7.76975585,18.9399857 7.88638239,19.0500328 C7.99424003,19.1527598 8.04814305,19.2868797 8.04814305,19.4210488 C8.04814305,19.5552178 7.99424003,19.6893378 7.88746561,19.7920648 C7.67288514,19.996438 7.32408872,19.996438 7.10950825,19.7920648 L6.55928473,19.2680145 C6.32598006,19.0458569 5.91992779,19.0458569 5.68667469,19.2680145 C5.44568432,19.4975414 5.44568432,19.8696382 5.68667469,20.099165 L6.23684663,20.6231661 C6.34362105,20.7248614 6.39752407,20.8589814 6.39752407,20.9931504 C6.39752407,21.1273195 6.34362105,21.2614394 6.23684663,21.3641664 C6.02226616,21.5685396 5.67346974,21.5685396 5.45888927,21.3641664 L4.63357978,20.5781156 C4.4002751,20.3559088 3.99422283,20.3559088 3.76091816,20.5781156 C3.51992779,20.8076424 3.51992779,21.1796901 3.76091816,21.4092169 L5.13645117,22.719318 C5.243174,22.8209642 5.29712861,22.9551332 5.29712861,23.0893023 C5.29712861,23.2234222 5.243174,23.3575913 5.13645117,23.4603183 C4.9218707,23.6646915 4.5730227,23.6646915 4.35844223,23.4603183 L3.15349037,22.3126841 C2.92023728,22.0904773 2.51418501,22.0904773 2.28088033,22.3126841 C2.16425378,22.4237629 2.10039546,22.5715404 2.10039546,22.7277189 C2.10039546,22.8838483 2.16425378,23.0327066 2.28088033,23.1427537 L5.13645117,25.8624896 C5.243174,25.9651674 5.29712861,26.0993365 5.29712861,26.2335055 C5.29712861,26.3676255 5.243174,26.5017945 5.13645117,26.6045215 C4.9218707,26.8088947 4.5730227,26.8088947 4.35844223,26.6045215 L3.09628611,25.4023551 Z M7.00273384,28.8536585 L4.74690509,28.8536585 C3.23055365,28.8536585 1.99589065,27.6777265 1.99589065,26.2335055 L1.99589065,24.3543037 L1.50287139,23.8847857 C1.17826685,23.5766538 1,23.1647632 1,22.7277189 C1,22.2906747 1.17826685,21.8798157 1.50287139,21.5706521 C1.77140646,21.3148908 2.11360041,21.1545365 2.48447387,21.1063417 C2.45146149,20.6504323 2.6176066,20.1840585 2.9829608,19.8360836 C3.3647696,19.4723877 3.9127751,19.3026008 4.43767194,19.372854 C4.50039546,19.0626096 4.65668845,18.7660228 4.90866575,18.5259826 C5.37083906,18.0857941 6.08829092,17.9380165 6.68803301,18.1371822 C6.76834594,17.8961102 6.90921596,17.6686959 7.10950825,17.4779312 C7.77852476,16.8406896 8.86906809,16.8406896 9.53808459,17.4779312 L11.2437414,19.1024526 C12.376066,20.181946 13,21.6167343 13,23.1416729 C13,26.2911329 10.3094911,28.8536585 7.00273384,28.8536585 Z" id="Fill-7" stroke-width="0.2" transform="translate(7.000000, 22.926829) scale(-1, -1) translate(-7.000000, -22.926829) "></path>
                </g>
            </g>
        </g>
    </g>
</svg>