<svg xmlns="http://www.w3.org/2000/svg" xmlns:xlink="http://www.w3.org/1999/xlink" viewBox="0 0 39 39"><defs><path id="9smwb" d="M224 446h-16a4 4 0 0 1-4-4v-6.4a.8.8 0 0 1 1.6 0v6.4a2.4 2.4 0 0 0 2.4 2.4h16a2.4 2.4 0 0 0 2.4-2.4v-16a2.4 2.4 0 0 0-2.4-2.4h-8a.8.8 0 0 1 0-1.6h8a4 4 0 0 1 4 4v16a4 4 0 0 1-4 4"/><path id="9smwa" d="M189 407h23.82v24H189z"/><path id="9smwd" d="M200.9 431h-.79a.8.8 0 0 1-.79-.8c0-.44.36-.8.8-.8h.79c.44 0 .8.36.8.8a.8.8 0 0 1-.8.8"/><path id="9smwe" d="M198.49 408.6h-1.6a.8.8 0 0 1-.8-.8c0-.44.35-.8.8-.8h1.6c.44 0 .8.36.8.8a.8.8 0 0 1-.8.8zm4.81 0h-1.6a.8.8 0 0 1-.8-.8c0-.44.36-.8.8-.8h1.6c.44 0 .8.36.8.8a.8.8 0 0 1-.8.8zm4.82 0h-1.6a.8.8 0 0 1-.8-.8c0-.44.36-.8.8-.8h1.6c.44 0 .8.36.8.8a.8.8 0 0 1-.8.8zm-16.04.13a.8.8 0 0 1-.76-.58.8.8 0 0 1 .54-.99c.36-.1.73-.16 1.11-.16h.7c.44 0 .8.36.8.8a.8.8 0 0 1-.8.8h-.7c-.23 0-.45.03-.67.1a.77.77 0 0 1-.22.03zm19.82 2.17a.8.8 0 0 1-.76-.58 2.42 2.42 0 0 0-.61-1.03.8.8 0 0 1 0-1.13.79.79 0 0 1 1.12 0 4 4 0 0 1 1.01 1.71.8.8 0 0 1-.76 1.03zm-22.1 1.63a.8.8 0 0 1-.8-.8V411c0-.37.05-.73.15-1.09a.79.79 0 0 1 .98-.55.8.8 0 0 1 .55.99c-.06.2-.1.43-.1.65v.73a.8.8 0 0 1-.79.8zm22 3.47a.8.8 0 0 1-.8-.8v-1.62a.8.8 0 1 1 1.59 0v1.62a.8.8 0 0 1-.8.8zm0 4.22a.8.8 0 0 1-.8-.8v-1.62a.8.8 0 1 1 1.59 0v1.62a.8.8 0 0 1-.8.8zm-22-2.83a.8.8 0 0 1-.8-.8v-1.62a.8.8 0 0 1 1.59 0v1.62a.8.8 0 0 1-.8.8zm0 4.85a.8.8 0 0 1-.8-.8v-1.62a.8.8 0 0 1 1.59 0v1.62a.8.8 0 0 1-.8.8zm0 4.85a.8.8 0 0 1-.8-.8v-1.62a.8.8 0 0 1 1.59 0v1.62a.8.8 0 0 1-.8.8zm2.3 3.79a.8.8 0 0 1-.21-.03 3.96 3.96 0 0 1-1.72-1.01.8.8 0 0 1 0-1.13.8.8 0 0 1 1.12 0c.29.28.65.49 1.03.6a.8.8 0 0 1-.22 1.57zm3.2.12a.8.8 0 0 1-.8-.8c0-.44.36-.8.8-.8h1.6c.45 0 .8.36.8.8a.8.8 0 0 1-.8.8z"/><path id="9smwf" d="M212.96 422.42a.85.85 0 0 0-1.16 0 .79.79 0 0 0 0 1.12l4.28 4.13a.87.87 0 0 1 0 1.26.97.97 0 0 1-1.31 0l-1.8-1.74a.85.85 0 0 0-1.17 0 .78.78 0 0 0 0 1.13l2.06 1.98c.36.35.36.92 0 1.27a.97.97 0 0 1-1.31 0l-1.24-1.2a.85.85 0 0 0-1.17 0 .78.78 0 0 0 0 1.13l.83.8c.36.34.36.9 0 1.26a.97.97 0 0 1-1.3 0l-.83-.8a.85.85 0 0 0-1.17 0 .78.78 0 0 0 0 1.13.87.87 0 0 1 0 1.26.95.95 0 0 1-1.31 0l-2.56-2.47a6.91 6.91 0 0 1-2.15-5c0-3.91 3.3-7.09 7.35-7.09h3.38a2.44 2.44 0 0 1 2.48 2.39v1.26zM209 419c-4.96 0-9 3.9-9 8.67 0 2.32.94 4.5 2.63 6.14l2.56 2.46c1 .97 2.64.97 3.65 0 .3-.29.5-.63.63-1 .9.3 1.97.08 2.67-.59.37-.36.6-.81.7-1.28.8.1 1.61-.15 2.19-.7.54-.54.8-1.24.74-1.94a2.6 2.6 0 0 0 1.48-.7 2.42 2.42 0 0 0 0-3.51l-.74-.72v-2.85c0-2.2-1.86-3.98-4.13-3.98z"/><clipPath id="9smwc"><use xlink:href="#9smwa"/></clipPath></defs><g><g transform="rotate(180 114 223)"><g><use fill="#333" xlink:href="#9smwb"/></g><g><g/><g clip-path="url(#9smwc)"><use fill="#333" xlink:href="#9smwd"/></g><g clip-path="url(#9smwc)"><use fill="#333" xlink:href="#9smwe"/></g></g><g><use fill="#333" xlink:href="#9smwf"/></g></g></g></svg>