<?xml version="1.0" encoding="utf-8"?>
<!-- Generator: Adobe Illustrator 22.0.1, SVG Export Plug-In . SVG Version: 6.00 Build 0)  -->
<svg version="1.1" id="Camada_1" xmlns="http://www.w3.org/2000/svg" xmlns:xlink="http://www.w3.org/1999/xlink" x="0px" y="0px"
	 viewBox="0 0 46 47.5" style="enable-background:new 0 0 46 47.5;" xml:space="preserve">
<style type="text/css">
	.st0{fill:#333333;}
	.st1{fill:none;}
	.st2{fill:#C6CBD4;}
	.st3{fill:#59A1D0;}
	.st4{fill:#FFFFFF;}
	.st5{fill:#52AD8C;}
	.st6{fill:#C86D61;}
</style>
<path id="path-13_1_" class="st0" d="M36.1,29.2c0-1,0.8-1.9,1.9-1.9s1.9,0.8,1.9,1.9v10c0,3.1-2.5,5.6-5.6,5.6H8
	c-3.1,0-5.6-2.5-5.6-5.6V13c0-3.1,2.5-5.6,5.6-5.6h10c1,0,1.9,0.8,1.9,1.9S19,11.1,18,11.1H8c-1,0-1.9,0.8-1.9,1.9v26.3
	c0,1,0.8,1.9,1.9,1.9h26.3c1,0,1.9-0.8,1.9-1.9V29.2z M35.6,4.2l7.5,7.5c0.7,0.7,0.7,1.9,0,2.7L24.3,33.1c-0.4,0.4-0.8,0.5-1.3,0.5
	h-7.5c-1,0-1.9-0.8-1.9-1.9v-7.5c0-0.5,0.2-1,0.5-1.3L32.9,4.2C33.7,3.4,34.8,3.4,35.6,4.2z M17.4,25v4.8h4.8L39.1,13l-4.8-4.8
	L17.4,25z"/>
</svg>
