<?xml version="1.0" encoding="UTF-8"?>
<svg viewBox="0 0 67 58" version="1.1" xmlns="http://www.w3.org/2000/svg" xmlns:xlink="http://www.w3.org/1999/xlink">
    <g id="Sprint-4" stroke="none" stroke-width="1" fill="none" fill-rule="evenodd">
        <g id="01---Movimentação-funcionários" transform="translate(-490.000000, -185.000000)">
            <g id="movimentação" transform="translate(490.000000, 185.000000)">
                <g id="Group-5">
                    <path d="M46.9900227,47.9904889 C46.0065136,44.7244444 43.3067101,42.3168 39.9426179,41.7071556 L31.461952,40.1682222 L31.461952,39.5005778 C34.6334781,37.6639111 36.9559036,34.5306222 37.6796423,30.8263556 C40.029208,30.3417333 41.8010753,28.2627556 41.8010753,25.7777778 L41.8010753,13.0474222 C41.8010753,9.45013333 39.4385856,6.31297778 36.0111663,5.29217778 L35.3649711,4.64773333 C32.358871,1.64977778 28.3627998,0 24.1121278,0 C15.3380893,0 8.19892473,7.11853333 8.19892473,15.8700889 L8.19892473,25.7777778 C8.19892473,28.2627556 9.97079198,30.3417333 12.3203577,30.8263556 C13.0453888,34.5306222 15.3665219,37.6652 18.538048,39.5005778 L18.538048,40.1682222 L10.0573821,41.7058667 C6.69328991,42.3168 3.99348635,44.7244444 3.00997725,47.9904889 L0,58 L50,58 L46.9900227,47.9904889 Z M37.9239041,27.9972444 L37.9239041,23.5583111 C38.6928763,24.0055556 39.2162945,24.8278667 39.2162945,25.7777778 C39.2162945,26.7276889 38.6928763,27.55 37.9239041,27.9972444 Z M12.0760959,27.9972444 C11.3071237,27.55 10.7837055,26.7276889 10.7837055,25.7777778 C10.7837055,24.8278667 11.3071237,24.0055556 12.0760959,23.5583111 L12.0760959,27.9972444 Z M12.0760959,20.8052444 C11.616005,20.9251111 11.1843466,21.1055556 10.7837055,21.3388444 L10.7837055,15.8700889 C10.7837055,8.54146667 16.7623036,2.57777778 24.1121278,2.57777778 C27.671371,2.57777778 31.0199545,3.96075556 33.537531,6.47151111 L34.6774194,7.6096 L35.0250724,7.69466667 C37.493538,8.30946667 39.2162945,10.5108889 39.2162945,13.0474222 L39.2162945,21.3388444 C38.8156534,21.1055556 38.383995,20.9238222 37.9239041,20.8052444 L37.9239041,19.3333333 L33.8257341,19.3333333 C30.3233561,19.3333333 26.9760649,17.6655111 24.8759305,14.8724889 L23.8484801,13.5036889 L21.2805004,16.066 C19.1661497,18.1733333 16.356493,19.3333333 13.3684864,19.3333333 L12.0760959,19.3333333 L12.0760959,20.8052444 Z M14.6608768,28.3555556 L14.6608768,21.8518222 C17.8517887,21.5566667 20.8126551,20.1762667 23.1079404,17.8884889 L23.6106803,17.3871111 C26.2019231,20.2394222 29.9343466,21.9111111 33.8257341,21.9111111 L35.3391232,21.9111111 L35.3391232,28.3555556 C35.3391232,34.0408444 30.7007341,38.6666667 25,38.6666667 C19.2992659,38.6666667 14.6608768,34.0408444 14.6608768,28.3555556 Z M21.232682,40.6824889 C22.4255583,41.0459556 23.6895161,41.2444444 25,41.2444444 C26.3104839,41.2444444 27.5744417,41.0459556 28.767318,40.6824889 L25,43.5 L21.232682,40.6824889 Z M23.0329818,45.2503111 L20.395213,47.8796444 L18.6840881,42.7614667 L19.5073408,42.6132444 L23.0329818,45.2503111 Z M30.4926592,42.6132444 L31.3146195,42.7627556 L29.6034946,47.8809333 L26.9657258,45.2516 L30.4926592,42.6132444 Z M3.47394541,55.4222222 L5.48748966,48.7316 C6.18925765,46.3987111 8.11750414,44.6780444 10.5213503,44.2436889 L16.1174007,43.2293333 L19.2669562,52.6536889 L25,46.9336 L30.7343362,52.6524 L33.8838916,43.2280444 L39.4799421,44.2424 C41.8824959,44.6780444 43.8120347,46.3987111 44.5138027,48.7303111 L46.5260546,55.4222222 L3.47394541,55.4222222 Z" id="Shape" fill="#333333" fill-rule="nonzero"></path>
                    <g id="Icons/-arrow-right" transform="translate(57.500000, 32.500000) scale(1, -1) translate(-57.500000, -32.500000) translate(46.000000, 21.000000)">
                        <use id="Combined-Shape" fill="#000000" fill-rule="nonzero" xlink:href="#path-1"></use>
                        <g id="Color-/-Blue-Gray" fill="#59A1D0" fill-rule="evenodd">
                            <path d="M16.8530453,10.5416667 L12.7390227,6.427644 C12.3647702,6.05339155 12.3647702,5.44660845 12.7390227,5.072356 C13.1132751,4.69810356 13.7200582,4.69810356 14.0943107,5.072356 L19.8443107,10.822356 C20.2185631,11.1966084 20.2185631,11.8033916 19.8443107,12.177644 L14.0943107,17.927644 C13.7200582,18.3018964 13.1132751,18.3018964 12.7390227,17.927644 C12.3647702,17.5533916 12.3647702,16.9466084 12.7390227,16.572356 L16.8530453,12.4583333 L3.83333333,12.4583333 C3.30406045,12.4583333 2.875,12.0292729 2.875,11.5 C2.875,10.9707271 3.30406045,10.5416667 3.83333333,10.5416667 L16.8530453,10.5416667 Z" id="path-1"></path>
                        </g>
                    </g>
                </g>
            </g>
        </g>
    </g>
</svg>