<?xml version="1.0" encoding="utf-8"?>
<!-- Generator: Adobe Illustrator 22.1.0, SVG Export Plug-In . SVG Version: 6.00 Build 0)  -->
<svg version="1.1" id="Camada_1" xmlns="http://www.w3.org/2000/svg" xmlns:xlink="http://www.w3.org/1999/xlink" x="0px" y="0px"
	 viewBox="0 0 189 49" style="enable-background:new 0 0 189 49;" xml:space="preserve">
<style type="text/css">
	.st0{opacity:0.4067;fill:#606E6E;enable-background:new    ;}
	.st1{fill:url(#SVGID_1_);}
	.st2{fill:url(#SVGID_2_);}
	.st3{fill:url(#SVGID_3_);}
	.st4{opacity:0.5;fill:#D6A03C;}
	.st5{fill:url(#SVGID_4_);}
	.st6{fill:url(#SVGID_5_);}
	.st7{fill:url(#SVGID_6_);}
	.st8{opacity:0.5;fill:#B8395B;}
	.st9{opacity:0.5;fill:#00A06C;}
	.st10{opacity:0.5;fill:#005ABC;}
	.st11{fill:url(#SVGID_7_);}
	.st12{fill:url(#SVGID_8_);}
	.st13{fill:url(#SVGID_9_);}
	.st14{fill:url(#SVGID_10_);}
	.st15{fill:url(#SVGID_11_);}
	.st16{fill:url(#SVGID_12_);}
	.st17{fill:url(#SVGID_13_);}
</style>
<g>
	<g id="Group-4" transform="translate(415.000000, 135.000000)">
		<path id="OBZ-DIGITAL" class="st0" d="M-314.9-86.9c-0.7,0-1.3-0.1-1.9-0.4c-0.6-0.2-1.1-0.6-1.5-1c-0.4-0.4-0.7-0.9-1-1.5
			c-0.2-0.6-0.4-1.2-0.4-1.9s0.1-1.3,0.4-1.9c0.2-0.6,0.6-1.1,1-1.5c0.4-0.4,0.9-0.8,1.5-1c0.6-0.2,1.2-0.4,1.9-0.4s1.3,0.1,1.9,0.4
			c0.6,0.2,1.1,0.6,1.5,1c0.4,0.4,0.7,0.9,1,1.5c0.2,0.6,0.4,1.2,0.4,1.9s-0.1,1.3-0.4,1.9s-0.6,1.1-1,1.5c-0.4,0.4-0.9,0.8-1.5,1
			C-313.6-87-314.2-86.9-314.9-86.9z M-314.9-88.1c0.5,0,1-0.1,1.4-0.3c0.4-0.2,0.8-0.5,1.1-0.8c0.3-0.3,0.5-0.7,0.7-1.2
			s0.2-0.9,0.2-1.4c0-0.5-0.1-1-0.2-1.4c-0.2-0.4-0.4-0.8-0.7-1.2c-0.3-0.3-0.7-0.6-1.1-0.8c-0.4-0.2-0.9-0.3-1.4-0.3
			c-0.5,0-1,0.1-1.4,0.3s-0.8,0.5-1.1,0.8c-0.3,0.3-0.5,0.7-0.7,1.2c-0.2,0.4-0.2,0.9-0.2,1.4c0,0.5,0.1,1,0.2,1.4s0.4,0.8,0.7,1.2
			c0.3,0.3,0.7,0.6,1.1,0.8S-315.5-88.1-314.9-88.1z M-307-96.3h3.2c0.4,0,0.8,0,1.1,0.1c0.3,0.1,0.6,0.2,0.9,0.4s0.4,0.4,0.6,0.7
			c0.1,0.3,0.2,0.6,0.2,1c0,0.5-0.1,1-0.4,1.3c-0.3,0.3-0.7,0.6-1.1,0.7v0c0.3,0,0.5,0.1,0.8,0.2c0.2,0.1,0.5,0.3,0.6,0.5
			c0.2,0.2,0.3,0.4,0.4,0.7c0.1,0.3,0.2,0.6,0.2,0.9c0,0.4-0.1,0.8-0.3,1.1s-0.4,0.6-0.7,0.8c-0.3,0.2-0.6,0.4-1,0.5
			c-0.4,0.1-0.8,0.2-1.3,0.2h-3.2V-96.3z M-305.8-92.5h1.7c0.2,0,0.5,0,0.7-0.1c0.2,0,0.4-0.1,0.5-0.2c0.2-0.1,0.3-0.3,0.4-0.4
			s0.1-0.4,0.1-0.6c0-0.4-0.1-0.7-0.4-0.9s-0.6-0.4-1.1-0.4h-2V-92.5z M-305.8-88.2h1.8c0.2,0,0.4,0,0.6-0.1c0.2,0,0.4-0.1,0.6-0.2
			c0.2-0.1,0.4-0.3,0.5-0.5c0.1-0.2,0.2-0.5,0.2-0.8c0-0.5-0.2-1-0.5-1.2s-0.8-0.4-1.4-0.4h-1.8V-88.2z M-298.3-88.3l5.2-6.9h-5.1
			v-1.2h6.6v1.2l-5.2,6.9h5.3v1.2h-6.9V-88.3z M-283.8-96.3h3.2c0.6,0,1.2,0.1,1.7,0.2c0.5,0.1,0.9,0.3,1.3,0.6
			c0.4,0.2,0.7,0.5,0.9,0.9s0.4,0.6,0.6,1c0.1,0.3,0.2,0.7,0.3,1s0.1,0.7,0.1,0.9c0,0.6-0.1,1.2-0.3,1.7c-0.2,0.6-0.5,1-1,1.5
			c-0.4,0.4-1,0.8-1.6,1c-0.6,0.3-1.4,0.4-2.2,0.4h-3V-96.3z M-282.6-88.3h1.6c0.5,0,1-0.1,1.5-0.2c0.5-0.1,0.9-0.4,1.2-0.6
			s0.6-0.6,0.8-1.1s0.3-0.9,0.3-1.5c0-0.3,0-0.6-0.1-1c-0.1-0.4-0.3-0.8-0.5-1.1c-0.3-0.4-0.6-0.7-1.1-0.9c-0.5-0.2-1.1-0.4-1.8-0.4
			h-1.9V-88.3z M-272.7-96.3h1.2v9.2h-1.2V-96.3z M-259.9-92.3v4.5c-0.2,0.1-0.5,0.3-0.8,0.4c-0.3,0.1-0.6,0.2-0.9,0.3
			c-0.3,0.1-0.6,0.1-0.9,0.2c-0.3,0-0.6,0.1-0.9,0.1c-0.8,0-1.5-0.1-2.1-0.4c-0.6-0.3-1.1-0.6-1.5-1.1c-0.4-0.4-0.7-1-1-1.5
			c-0.2-0.6-0.3-1.2-0.3-1.9c0-0.7,0.1-1.3,0.4-1.9c0.2-0.6,0.6-1.1,1-1.5c0.4-0.4,0.9-0.8,1.5-1c0.6-0.2,1.2-0.4,1.9-0.4
			c0.8,0,1.5,0.1,2.1,0.3c0.5,0.2,1,0.5,1.4,0.9l-0.9,0.9c-0.4-0.4-0.8-0.6-1.2-0.8c-0.4-0.1-0.9-0.2-1.3-0.2c-0.5,0-1,0.1-1.4,0.3
			c-0.4,0.2-0.8,0.5-1.1,0.8c-0.3,0.3-0.5,0.7-0.7,1.2c-0.2,0.4-0.2,0.9-0.2,1.4c0,0.5,0.1,1,0.3,1.4s0.4,0.8,0.8,1.2
			c0.3,0.3,0.7,0.6,1.1,0.8c0.4,0.2,0.9,0.3,1.4,0.3c0.4,0,0.9,0,1.3-0.1c0.4-0.1,0.7-0.2,1-0.4v-2.6h-2v-1.2H-259.9z M-256.4-96.3
			h1.2v9.2h-1.2V-96.3z M-249.5-95.2h-3v-1.2h7.2v1.2h-3v8h-1.2V-95.2z M-241-96.3h1.1l3.9,9.2h-1.5l-0.9-2.3h-4.4l-0.9,2.3h-1.5
			L-241-96.3z M-238.8-90.5l-1.7-4.2h0l-1.7,4.2H-238.8z M-233.4-96.3h1.2v8h4.2v1.2h-5.5V-96.3z"/>
	</g>
	<g>
		<g>
			<g>
				<linearGradient id="SVGID_1_" gradientUnits="userSpaceOnUse" x1="10.5361" y1="24.6503" x2="34.6694" y2="10.1704">
					<stop  offset="0" style="stop-color:#005ABC"/>
					<stop  offset="0.337" style="stop-color:#424E99"/>
					<stop  offset="0.7922" style="stop-color:#973F6D"/>
					<stop  offset="1" style="stop-color:#B8395B"/>
				</linearGradient>
				<path class="st1" d="M3.4,14.5c0.4,3.4,0.9,10.3,2,12.2c1.1,1.9,4.1,3.9,4.9,4.8c0.7,0.9,1.3,1.6,2.7,1.8
					c1.4,0.2,1.1,1.5,2.6,1.3c0.2,0,0.3,0,0.5-0.1c-1.7-0.6-3.3-1.6-4.8-2.7c0,0,0,0,0,0c0,0,0,0,0,0c-0.2-0.2-0.4-0.5-0.6-0.8
					c0,0-0.1-0.1-0.1-0.1c-0.6-0.8-1.1-1.7-1.5-2.6c0,0,0,0,0,0c-1-2.2-1.6-4.7-1.6-7.3c0-4.1,1.4-7.8,3.8-10.8c0,0,0,0,0,0
					c0.2-0.2,0.5-0.4,0.7-0.5c0.1,0,0.1-0.1,0.2-0.1c0.2-0.2,0.5-0.3,0.7-0.5c0,0,0,0,0,0c0.3-0.2,0.6-0.3,0.9-0.5c0,0,0,0,0,0
					c0.3-0.2,0.6-0.3,0.9-0.4c2.2-1,4.7-1.6,7.3-1.6c2.1,0,4.1,0.4,5.9,1c2.2-0.5,5.6-0.4,8.1,2.7c3.6,4.5,5.3,10.8,5.4,15.9
					c0.4-1.6,0.6-3.3,0.6-5.1c0-11.1-9-20.2-20.2-20.2c-8.6,0-15.9,5.4-18.8,12.9C3.3,14,3.4,14.2,3.4,14.5z"/>
				<linearGradient id="SVGID_2_" gradientUnits="userSpaceOnUse" x1="1.9615" y1="24.2786" x2="41.6442" y2="24.2786">
					<stop  offset="0" style="stop-color:#00A06C"/>
					<stop  offset="9.875675e-02" style="stop-color:#0BA06A"/>
					<stop  offset="0.2723" style="stop-color:#28A063"/>
					<stop  offset="0.5001" style="stop-color:#58A058"/>
					<stop  offset="0.7701" style="stop-color:#99A04A"/>
					<stop  offset="1" style="stop-color:#D6A03C"/>
				</linearGradient>
				<path class="st2" d="M36.2,10.3c-2.6-3.2-5.9-3.2-8.1-2.7c1.8,0.6,3.4,1.6,4.9,2.7c0,0,0,0,0,0c0,0,0,0,0,0
					c0.2,0.2,0.4,0.5,0.6,0.7c0,0.1,0.1,0.1,0.1,0.2c0.4,0.5,0.7,1.1,1,1.6c0,0,0,0,0,0c0.2,0.3,0.3,0.6,0.5,0.9c0,0,0,0,0,0
					c1,2.2,1.6,4.7,1.6,7.3c0,4.1-1.4,7.8-3.8,10.8c0,0,0,0,0,0c0,0,0,0,0,0c-0.2,0.2-0.5,0.4-0.7,0.6c0,0-0.1,0.1-0.1,0.1
					c-0.5,0.4-1.1,0.7-1.6,1c0,0,0,0,0,0c-0.3,0.2-0.6,0.3-0.9,0.5c0,0,0,0,0,0c-2.2,1-4.7,1.6-7.3,1.6c-2.1,0-4.2-0.4-6-1.1
					c-0.2,0-0.3,0.1-0.5,0.1c-1.6,0.2-1.2-1.1-2.6-1.3c-1.4-0.2-2-0.9-2.7-1.8c-0.7-0.9-3.8-3-4.9-4.8c-1.1-1.9-1.6-8.8-2-12.2
					c0-0.2,0-0.5-0.1-0.7C2.4,16.1,2,18.5,2,21.1c0,11.1,9,20.2,20.2,20.2c9.4,0,17.3-6.4,19.5-15.1C41.5,21.1,39.8,14.8,36.2,10.3z
					"/>
			</g>
			
				<radialGradient id="SVGID_3_" cx="871.9476" cy="375.7089" r="34.8297" gradientTransform="matrix(0 0.9993 -0.9993 0 411.799 -856.104)" gradientUnits="userSpaceOnUse">
				<stop  offset="0.5" style="stop-color:#D6A03C"/>
				<stop  offset="0.5659" style="stop-color:#D2A03D"/>
				<stop  offset="0.6342" style="stop-color:#C5A040"/>
				<stop  offset="0.7037" style="stop-color:#B1A044"/>
				<stop  offset="0.774" style="stop-color:#94A04B"/>
				<stop  offset="0.8448" style="stop-color:#6EA053"/>
				<stop  offset="0.9162" style="stop-color:#40A05E"/>
				<stop  offset="0.9868" style="stop-color:#0BA06A"/>
				<stop  offset="1" style="stop-color:#00A06C"/>
			</radialGradient>
			<path class="st3" d="M35.7,34.7c2.4-3,3.8-6.7,3.8-10.8c0-1-0.1-1.9-0.2-2.8c-0.7-4.4-3-8.2-6.3-10.8c2.4,3,3.8,6.7,3.8,10.8
				c0,4.1-1.4,7.8-3.8,10.8c-2.6,3.3-6.4,5.6-10.8,6.3c-0.9,0.1-1.8,0.2-2.8,0.2c-4.1,0-7.8-1.4-10.8-3.8c-4-3.2-6.4-8.2-6.6-13.6
				c0,11.1,9,20.2,20.2,20.2C27.6,41.2,32.5,38.7,35.7,34.7z"/>
			<path class="st4" d="M32.9,10.3c0.8,1.1,1.6,2.2,2.1,3.5c1.8,2.3,3.1,5,3.5,8c0.1,0.9,0.2,1.8,0.2,2.8c0,4.1-1.4,7.8-3.8,10.8
				c-0.3,0.4-0.7,0.8-1,1.2c0.6-0.6,1.2-1.2,1.7-1.8c2.4-3,3.8-6.7,3.8-10.8c0-1-0.1-1.9-0.2-2.8C38.6,16.7,36.2,12.9,32.9,10.3z"/>
			
				<radialGradient id="SVGID_4_" cx="863.2524" cy="394.7617" r="33.8471" gradientTransform="matrix(0 0.9993 -0.9993 0 411.799 -856.104)" gradientUnits="userSpaceOnUse">
				<stop  offset="0.5" style="stop-color:#B8395B"/>
				<stop  offset="0.5954" style="stop-color:#B93D5A"/>
				<stop  offset="0.6942" style="stop-color:#BD4A56"/>
				<stop  offset="0.7946" style="stop-color:#C35E50"/>
				<stop  offset="0.8956" style="stop-color:#CB7B47"/>
				<stop  offset="0.9966" style="stop-color:#D6A03C"/>
			</radialGradient>
			<path class="st5" d="M42.3,21.1c0-5.5-2.6-10.4-6.6-13.6c-3-2.4-6.7-3.8-10.8-3.8c-1,0-1.9,0.1-2.8,0.2c-4.4,0.7-8.2,3-10.8,6.3
				c3-2.4,6.7-3.8,10.8-3.8c4.1,0,7.8,1.4,10.8,3.8c3.3,2.6,5.6,6.4,6.3,10.8c0.1,0.9,0.2,1.8,0.2,2.8c0,4.1-1.4,7.8-3.8,10.8
				c-3.2,4-8.1,6.6-13.6,6.6C33.3,41.2,42.3,32.2,42.3,21.1z"/>
			
				<radialGradient id="SVGID_5_" cx="892.9006" cy="386.3042" r="34.2586" gradientTransform="matrix(0 0.9993 -0.9993 0 411.799 -856.104)" gradientUnits="userSpaceOnUse">
				<stop  offset="0.5" style="stop-color:#00A06C"/>
				<stop  offset="0.6093" style="stop-color:#009C70"/>
				<stop  offset="0.7226" style="stop-color:#00917D"/>
				<stop  offset="0.8377" style="stop-color:#007F91"/>
				<stop  offset="0.9534" style="stop-color:#0066AE"/>
				<stop  offset="1" style="stop-color:#005ABC"/>
			</radialGradient>
			<path class="st6" d="M22.1,38.2c4.4-0.7,8.2-3,10.8-6.3c-3,2.4-6.7,3.8-10.8,3.8c-4.1,0-7.8-1.4-10.8-3.8C8,29.2,5.7,25.4,5,21.1
				c-0.1-0.9-0.2-1.8-0.2-2.8c0-4.1,1.4-7.8,3.8-10.8c3.2-4,8.1-6.6,13.6-6.6C11,0.9,2,9.9,2,21.1c0,5.5,2.6,10.4,6.6,13.6
				c3,2.4,6.7,3.8,10.8,3.8C20.3,38.4,21.2,38.3,22.1,38.2z"/>
			
				<radialGradient id="SVGID_6_" cx="884.4979" cy="403.7492" r="34.8338" gradientTransform="matrix(0 0.9993 -0.9993 0 411.799 -856.104)" gradientUnits="userSpaceOnUse">
				<stop  offset="0.5" style="stop-color:#005ABC"/>
				<stop  offset="0.5712" style="stop-color:#0459BA"/>
				<stop  offset="0.6451" style="stop-color:#1157B3"/>
				<stop  offset="0.7201" style="stop-color:#2553A8"/>
				<stop  offset="0.796" style="stop-color:#424E99"/>
				<stop  offset="0.8726" style="stop-color:#684785"/>
				<stop  offset="0.9486" style="stop-color:#953F6D"/>
				<stop  offset="1" style="stop-color:#B8395B"/>
			</radialGradient>
			<path class="st7" d="M7.6,21.1c0-4.1,1.4-7.8,3.8-10.8C14,7,17.8,4.6,22.1,3.9C23,3.8,24,3.7,24.9,3.7c4.1,0,7.8,1.4,10.8,3.8
				c4,3.2,6.6,8.1,6.6,13.6c0-11.1-9-20.2-20.2-20.2c-5.5,0-10.4,2.6-13.6,6.6c-2.4,3-3.8,6.7-3.8,10.8c0,1,0.1,1.9,0.2,2.8
				c0.7,4.4,3,8.2,6.3,10.8C9,28.9,7.6,25.1,7.6,21.1z"/>
			<path class="st8" d="M11.3,10.3c1.1-0.8,2.2-1.6,3.5-2.1c2.3-1.8,5-3.1,8-3.5c0.9-0.1,1.8-0.2,2.8-0.2c4.1,0,7.8,1.4,10.8,3.8
				c0.4,0.3,0.8,0.7,1.2,1C37,8.5,36.4,8,35.7,7.5c-3-2.4-6.7-3.8-10.8-3.8c-1,0-1.9,0.1-2.8,0.2C17.8,4.6,14,7,11.3,10.3z"/>
			<path class="st9" d="M32.9,31.9c-1.1,0.8-2.2,1.6-3.5,2.1c-2.3,1.8-5,3.1-8,3.5c-0.9,0.1-1.8,0.2-2.8,0.2
				c-4.1,0-7.8-1.4-10.8-3.8c-0.4-0.3-0.8-0.7-1.2-1c0.6,0.6,1.2,1.2,1.8,1.7c3,2.4,6.7,3.8,10.8,3.8c1,0,1.9-0.1,2.8-0.2
				C26.5,37.5,30.3,35.2,32.9,31.9z"/>
			<path class="st10" d="M11.3,31.9c-0.8-1.1-1.6-2.2-2.1-3.5c-1.8-2.3-3.1-5-3.5-8c-0.1-0.9-0.2-1.8-0.2-2.8
				c0-4.1,1.4-7.8,3.8-10.8c0.3-0.4,0.7-0.8,1-1.2C9.6,6.2,9,6.8,8.5,7.5c-2.4,3-3.8,6.7-3.8,10.8c0,1,0.1,1.9,0.2,2.8
				C5.7,25.4,8,29.2,11.3,31.9z"/>
		</g>
		<g>
			
				<radialGradient id="SVGID_7_" cx="62.0957" cy="-7.0272" r="59.2643" gradientTransform="matrix(0.9993 0 0 0.9993 -0.1686 1.4034)" gradientUnits="userSpaceOnUse">
				<stop  offset="1.688128e-03" style="stop-color:#809696"/>
				<stop  offset="0.2567" style="stop-color:#7C9191"/>
				<stop  offset="0.5401" style="stop-color:#728484"/>
				<stop  offset="0.8357" style="stop-color:#606E6E"/>
			</radialGradient>
			<path class="st11" d="M58.2,14.6h-4l0.1-0.8c0.2-1.6,0.7-2.7,2.4-2.7c0.6,0,1.3,0.1,2.3,0.4l0.6-2.3c-1.3-0.4-2.1-0.5-3-0.5
				c-2.7,0-4.5,1.4-5,4.8l-0.2,1.2h-2L49,16.9h2L49.3,29c-0.2,1.7-1,2.5-2.5,2.6l-0.3,2.2c3.2,0,5.2-1.6,5.7-4.8l1.7-12.1h4.1
				L58.2,14.6z"/>
			
				<radialGradient id="SVGID_8_" cx="62.0957" cy="-7.0272" r="59.2643" gradientTransform="matrix(0.9993 0 0 0.9993 -0.1686 1.4034)" gradientUnits="userSpaceOnUse">
				<stop  offset="1.688128e-03" style="stop-color:#809696"/>
				<stop  offset="0.2567" style="stop-color:#7C9191"/>
				<stop  offset="0.5401" style="stop-color:#728484"/>
				<stop  offset="0.8357" style="stop-color:#606E6E"/>
			</radialGradient>
			<path class="st12" d="M67.3,13.9l-0.2,1.2c-0.7-0.2-1.9-0.4-3-0.4c-4.4,0-7.2,3.7-7.2,8.4c0,3.7,1.8,5.9,5.3,5.9
				c0.9,0,1.6-0.1,2.3-0.3l1-0.2c0.6-0.1,1.3-0.1,1.8,0.2l1.1,0.6l1.2-2l-1.4-0.9l1.9-12.5H67.3z M65.4,26.3l-1.1,0.2
				c-0.5,0.1-1,0.2-1.7,0.2c-2,0-2.9-1.5-2.9-3.6c0-2.8,1.3-5.9,4.3-5.9c0.9,0,1.8,0.2,2.7,0.4L65.4,26.3z"/>
			
				<radialGradient id="SVGID_9_" cx="62.0957" cy="-7.0272" r="59.2643" gradientTransform="matrix(0.9993 0 0 0.9993 -0.1686 1.4034)" gradientUnits="userSpaceOnUse">
				<stop  offset="1.688128e-03" style="stop-color:#809696"/>
				<stop  offset="0.2567" style="stop-color:#7C9191"/>
				<stop  offset="0.5401" style="stop-color:#728484"/>
				<stop  offset="0.8357" style="stop-color:#606E6E"/>
			</radialGradient>
			<path class="st13" d="M94.7,14.5c-4.4,0-7.6,3.5-7.6,8.7c0,0.8,0.1,1.4,0.2,2.1L86,25.8l-1.1,0.4c-1.1,0.4-2.3,0.6-3.3,0.6
				c-2,0-3.1-1.5-3.1-3.7c0-3,1.4-6.1,4.4-6.1c1,0,2,0.3,3,0.6l1,0.3l0.7-2.4l-0.9-0.3c-1.1-0.4-2.5-0.7-3.7-0.7
				c-4.3,0-7.4,3.6-7.4,8.7c0,3.6,2.1,6.1,5.6,6.1c1.4,0,2.7-0.3,4.1-0.7l1.2-0.4l2.1-0.8c0.9,1.2,2.4,1.9,4.3,1.9
				c4.7,0,7.6-4.1,7.6-8.8C100.2,16.8,98.2,14.5,94.7,14.5z M93,27.1c-2,0-2.9-1.5-2.9-3.8c0-3.6,1.8-6.5,4.3-6.5c2,0,3,1.5,3,3.8
				C97.4,23.4,95.9,27.1,93,27.1z"/>
			
				<radialGradient id="SVGID_10_" cx="62.0957" cy="-7.0272" r="59.2643" gradientTransform="matrix(0.9993 0 0 0.9993 -0.1686 1.4034)" gradientUnits="userSpaceOnUse">
				<stop  offset="1.688128e-03" style="stop-color:#809696"/>
				<stop  offset="0.2567" style="stop-color:#7C9191"/>
				<stop  offset="0.5401" style="stop-color:#728484"/>
				<stop  offset="0.8357" style="stop-color:#606E6E"/>
			</radialGradient>
			<polygon class="st14" points="113.2,29.3 116.2,29.3 118.3,13.9 115.3,13.9 			"/>
			
				<radialGradient id="SVGID_11_" cx="62.0957" cy="-7.0272" r="59.2643" gradientTransform="matrix(0.9993 0 0 0.9993 -0.1686 1.4034)" gradientUnits="userSpaceOnUse">
				<stop  offset="1.688128e-03" style="stop-color:#809696"/>
				<stop  offset="0.2567" style="stop-color:#7C9191"/>
				<stop  offset="0.5401" style="stop-color:#728484"/>
				<stop  offset="0.8357" style="stop-color:#606E6E"/>
			</radialGradient>
			<path class="st15" d="M108.2,14.7c-1,0-2.4,0.1-4.3,0.6c-0.8-1.1-2.1-1.6-4-1.6c-0.1,0-0.2,0-0.3,0l0,1.8c1.9,0,2.2,2,2,3.7
				l0,0.1l0,0l-1.4,10.1h2.9l1.4-10.1l0,0l0-0.4c0,0,0-0.1,0-0.1l0.2-1.1c1.6-0.4,2.3-0.5,3-0.5c2,0,2.4,1.3,2.2,2.9l-1.3,9.2h2.9
				l1.3-9.5C113.2,16.5,111.5,14.7,108.2,14.7z"/>
			
				<radialGradient id="SVGID_12_" cx="62.0957" cy="-7.0272" r="59.2643" gradientTransform="matrix(0.9993 0 0 0.9993 -0.1686 1.4034)" gradientUnits="userSpaceOnUse">
				<stop  offset="1.688128e-03" style="stop-color:#809696"/>
				<stop  offset="0.2567" style="stop-color:#7C9191"/>
				<stop  offset="0.5401" style="stop-color:#728484"/>
				<stop  offset="0.8357" style="stop-color:#606E6E"/>
			</radialGradient>
			<path class="st16" d="M75.5,8.3h-2.9l-2.1,15.4l-0.1,0.4c-0.5,3.4,1.2,5.2,4.6,5.2c0.1,0,0.2,0,0.3,0v-2.5
				c-1.8-0.1-2.2-1.2-2-2.8L75.5,8.3z"/>
			
				<radialGradient id="SVGID_13_" cx="62.0957" cy="-7.0272" r="59.2643" gradientTransform="matrix(0.9993 0 0 0.9993 -0.1686 1.4034)" gradientUnits="userSpaceOnUse">
				<stop  offset="1.688128e-03" style="stop-color:#809696"/>
				<stop  offset="0.2567" style="stop-color:#7C9191"/>
				<stop  offset="0.5401" style="stop-color:#728484"/>
				<stop  offset="0.8357" style="stop-color:#606E6E"/>
			</radialGradient>
			<path class="st17" d="M117.2,10c-0.7,0-1.4,0.5-1.5,1.3l-0.3,1.9h2.9l0.4-3.2H117.2z"/>
		</g>
	</g>
</g>
</svg>
