<?xml version="1.0" encoding="utf-8"?>
<!-- Generator: Adobe Illustrator 22.1.0, SVG Export Plug-In . SVG Version: 6.00 Build 0)  -->
<svg version="1.1" id="Camada_1" xmlns="http://www.w3.org/2000/svg" xmlns:xlink="http://www.w3.org/1999/xlink" x="0px" y="0px"
	 viewBox="0 0 212.2 128.3" style="enable-background:new 0 0 212.2 128.3;" xml:space="preserve">
<style type="text/css">
	.st0{fill:url(#SVGID_1_);}
	.st1{fill:url(#SVGID_2_);}
	.st2{fill:url(#SVGID_3_);}
	.st3{opacity:0.5;fill:#D6A03C;}
	.st4{fill:url(#SVGID_4_);}
	.st5{fill:url(#SVGID_5_);}
	.st6{fill:url(#SVGID_6_);}
	.st7{opacity:0.5;fill:#B8395B;}
	.st8{opacity:0.5;fill:#00A06C;}
	.st9{opacity:0.5;fill:#005ABC;}
</style>
<title>Ativo 4</title>
<g>
	<g>
		<linearGradient id="SVGID_1_" gradientUnits="userSpaceOnUse" x1="88.3394" y1="59.1671" x2="125.3579" y2="36.956">
			<stop  offset="0" style="stop-color:#005ABC"/>
			<stop  offset="0.337" style="stop-color:#424E99"/>
			<stop  offset="0.7922" style="stop-color:#973F6D"/>
			<stop  offset="1" style="stop-color:#B8395B"/>
		</linearGradient>
		<path class="st0" d="M77.4,43.5c0.6,5.2,1.4,15.9,3,18.7c1.6,2.8,6.3,6,7.5,7.4c1.1,1.4,2,2.4,4.2,2.8c2.2,0.4,1.6,2.3,4.1,2
			c0.2,0,0.5-0.1,0.8-0.1c-2.7-1-5.1-2.4-7.3-4.1c0,0,0,0,0,0c0,0,0,0,0,0c-0.3-0.4-0.6-0.8-0.9-1.2c0-0.1-0.1-0.1-0.1-0.2
			c-0.9-1.2-1.6-2.6-2.3-3.9c0,0,0,0,0,0c-1.6-3.4-2.5-7.2-2.5-11.2c0-6.3,2.2-12,5.8-16.6c0,0,0,0,0,0c0.4-0.3,0.7-0.6,1.1-0.8
			c0.1-0.1,0.2-0.1,0.3-0.2c0.4-0.3,0.7-0.5,1.1-0.7c0,0,0,0,0,0c0.4-0.3,0.9-0.5,1.3-0.8c0,0,0,0,0.1,0c0.4-0.2,0.9-0.5,1.4-0.7
			c3.4-1.6,7.2-2.5,11.2-2.5c3.2,0,6.3,0.6,9.1,1.6c3.4-0.7,8.6-0.7,12.5,4.2c5.6,6.9,8.1,16.6,8.3,24.3c0.6-2.5,1-5.1,1-7.8
			c0-17.1-13.8-30.9-30.9-30.9c-13.1,0-24.4,8.2-28.8,19.8C77.3,42.8,77.3,43.2,77.4,43.5z"/>
		<linearGradient id="SVGID_2_" gradientUnits="userSpaceOnUse" x1="75.1867" y1="58.5969" x2="136.0566" y2="58.5969">
			<stop  offset="0" style="stop-color:#00A06C"/>
			<stop  offset="9.875675e-02" style="stop-color:#0BA06A"/>
			<stop  offset="0.2723" style="stop-color:#28A063"/>
			<stop  offset="0.5001" style="stop-color:#58A058"/>
			<stop  offset="0.7701" style="stop-color:#99A04A"/>
			<stop  offset="1" style="stop-color:#D6A03C"/>
		</linearGradient>
		<path class="st1" d="M127.7,37.1c-3.9-4.9-9.1-4.9-12.5-4.2c2.7,1,5.2,2.4,7.4,4.2c0,0,0,0,0,0c0,0,0,0,0,0
			c0.3,0.4,0.6,0.8,0.9,1.1c0.1,0.1,0.1,0.2,0.2,0.2c0.6,0.8,1.1,1.6,1.6,2.5c0,0,0,0,0,0c0.2,0.5,0.5,0.9,0.7,1.4c0,0,0,0,0,0
			c1.6,3.4,2.5,7.2,2.5,11.2c0,6.3-2.2,12-5.8,16.6c0,0,0,0,0,0c0,0,0,0,0,0c-0.4,0.3-0.8,0.6-1.1,0.9c-0.1,0.1-0.2,0.1-0.2,0.2
			c-0.8,0.6-1.7,1.1-2.5,1.6c0,0,0,0,0,0c-0.5,0.2-0.9,0.5-1.4,0.7c0,0,0,0,0,0c-3.4,1.6-7.2,2.5-11.2,2.5c-3.3,0-6.4-0.6-9.3-1.7
			c-0.3,0-0.5,0.1-0.8,0.1c-2.4,0.3-1.9-1.6-4.1-2c-2.2-0.4-3-1.4-4.2-2.8c-1.1-1.4-5.8-4.6-7.5-7.4c-1.6-2.8-2.4-13.5-3-18.7
			c0-0.4-0.1-0.7-0.1-1c-1.3,3.5-2.1,7.2-2.1,11.2c0,17.1,13.8,30.9,30.9,30.9c14.4,0,26.5-9.8,29.9-23.2
			C135.8,53.7,133.3,44,127.7,37.1z"/>
	</g>
	
		<radialGradient id="SVGID_3_" cx="874.4291" cy="335.0652" r="53.4259" gradientTransform="matrix(0 0.9993 -0.9993 0 462.7717 -829.0956)" gradientUnits="userSpaceOnUse">
		<stop  offset="0.5" style="stop-color:#D6A03C"/>
		<stop  offset="0.5659" style="stop-color:#D2A03D"/>
		<stop  offset="0.6342" style="stop-color:#C5A040"/>
		<stop  offset="0.7037" style="stop-color:#B1A044"/>
		<stop  offset="0.774" style="stop-color:#94A04B"/>
		<stop  offset="0.8448" style="stop-color:#6EA053"/>
		<stop  offset="0.9162" style="stop-color:#40A05E"/>
		<stop  offset="0.9868" style="stop-color:#0BA06A"/>
		<stop  offset="1" style="stop-color:#00A06C"/>
	</radialGradient>
	<path class="st2" d="M127,74.5c3.6-4.5,5.8-10.3,5.8-16.6c0-1.5-0.1-2.9-0.3-4.3c-1.1-6.7-4.7-12.5-9.7-16.6
		c3.6,4.5,5.8,10.3,5.8,16.6c0,6.3-2.2,12-5.8,16.6c-4,5.1-9.9,8.6-16.6,9.7c-1.4,0.2-2.8,0.3-4.3,0.3c-6.3,0-12-2.2-16.6-5.8
		c-6.1-4.9-9.8-12.5-10.1-20.9c0,17.1,13.8,30.9,30.9,30.9C114.6,84.6,122.1,80.7,127,74.5z"/>
	<path class="st3" d="M122.7,37.1c1.3,1.6,2.4,3.4,3.3,5.3c2.8,3.5,4.7,7.7,5.4,12.3c0.2,1.4,0.4,2.8,0.4,4.3c0,6.3-2.2,12-5.8,16.6
		c-0.5,0.6-1,1.2-1.5,1.8c0.9-0.9,1.8-1.8,2.5-2.8c3.6-4.5,5.8-10.3,5.8-16.6c0-1.5-0.1-2.9-0.4-4.3C131.3,47,127.7,41.1,122.7,37.1
		z"/>
	
		<radialGradient id="SVGID_4_" cx="861.0913" cy="364.2907" r="51.9187" gradientTransform="matrix(0 0.9993 -0.9993 0 462.7717 -829.0956)" gradientUnits="userSpaceOnUse">
		<stop  offset="0.5" style="stop-color:#B8395B"/>
		<stop  offset="0.5954" style="stop-color:#B93D5A"/>
		<stop  offset="0.6942" style="stop-color:#BD4A56"/>
		<stop  offset="0.7946" style="stop-color:#C35E50"/>
		<stop  offset="0.8956" style="stop-color:#CB7B47"/>
		<stop  offset="0.9966" style="stop-color:#D6A03C"/>
	</radialGradient>
	<path class="st4" d="M137,53.7c0-8.4-3.9-16-10.1-20.9c-4.5-3.6-10.3-5.8-16.6-5.8c-1.5,0-2.9,0.1-4.3,0.4
		c-6.7,1.1-12.5,4.7-16.6,9.7c4.5-3.6,10.3-5.8,16.6-5.8c6.3,0,12,2.2,16.6,5.8c5.1,4,8.6,9.9,9.7,16.6c0.2,1.4,0.3,2.8,0.3,4.3
		c0,6.3-2.2,12-5.8,16.6c-4.9,6.1-12.4,10.1-20.9,10.1C123.2,84.6,137,70.7,137,53.7z"/>
	
		<radialGradient id="SVGID_5_" cx="906.5693" cy="351.3175" r="52.5499" gradientTransform="matrix(0 0.9993 -0.9993 0 462.7717 -829.0956)" gradientUnits="userSpaceOnUse">
		<stop  offset="0.5" style="stop-color:#00A06C"/>
		<stop  offset="0.6093" style="stop-color:#009C70"/>
		<stop  offset="0.7226" style="stop-color:#00917D"/>
		<stop  offset="0.8377" style="stop-color:#007F91"/>
		<stop  offset="0.9534" style="stop-color:#0066AE"/>
		<stop  offset="1" style="stop-color:#005ABC"/>
	</radialGradient>
	<path class="st5" d="M106.1,79.9c6.7-1.1,12.5-4.7,16.6-9.7c-4.5,3.6-10.3,5.8-16.6,5.8c-6.3,0-12-2.2-16.6-5.8
		c-5.1-4-8.6-9.9-9.7-16.6c-0.2-1.4-0.3-2.8-0.3-4.3c0-6.3,2.2-12,5.8-16.6c4.9-6.1,12.4-10.1,20.9-10.1
		c-17.1,0-30.9,13.8-30.9,30.9c0,8.4,3.9,16,10.1,20.9c4.5,3.6,10.3,5.8,16.6,5.8C103.3,80.3,104.7,80.2,106.1,79.9z"/>
	
		<radialGradient id="SVGID_6_" cx="893.6802" cy="378.0767" r="53.4322" gradientTransform="matrix(0 0.9993 -0.9993 0 462.7717 -829.0956)" gradientUnits="userSpaceOnUse">
		<stop  offset="0.5" style="stop-color:#005ABC"/>
		<stop  offset="0.5712" style="stop-color:#0459BA"/>
		<stop  offset="0.6451" style="stop-color:#1157B3"/>
		<stop  offset="0.7201" style="stop-color:#2553A8"/>
		<stop  offset="0.796" style="stop-color:#424E99"/>
		<stop  offset="0.8726" style="stop-color:#684785"/>
		<stop  offset="0.9486" style="stop-color:#953F6D"/>
		<stop  offset="1" style="stop-color:#B8395B"/>
	</radialGradient>
	<path class="st6" d="M83.8,53.7c0-6.3,2.2-12,5.8-16.6c4-5.1,9.9-8.6,16.6-9.7c1.4-0.2,2.8-0.4,4.3-0.4c6.3,0,12,2.2,16.6,5.8
		c6.1,4.9,10.1,12.4,10.1,20.9c0-17.1-13.8-30.9-30.9-30.9c-8.4,0-16,3.9-20.9,10.1c-3.6,4.5-5.8,10.3-5.8,16.6
		c0,1.5,0.1,2.9,0.3,4.3c1.1,6.7,4.7,12.5,9.7,16.6C85.9,65.7,83.8,59.9,83.8,53.7z"/>
	<path class="st7" d="M89.6,37.1c1.6-1.3,3.4-2.4,5.3-3.3c3.5-2.8,7.7-4.7,12.3-5.4c1.4-0.2,2.8-0.4,4.3-0.4c6.3,0,12,2.2,16.6,5.8
		c0.6,0.5,1.2,1,1.8,1.5c-0.9-0.9-1.8-1.8-2.8-2.5c-4.5-3.6-10.3-5.8-16.6-5.8c-1.5,0-2.9,0.1-4.3,0.4C99.4,28.5,93.6,32,89.6,37.1z
		"/>
	<path class="st8" d="M122.7,70.2c-1.6,1.3-3.4,2.4-5.3,3.3c-3.5,2.8-7.7,4.7-12.3,5.4c-1.4,0.2-2.8,0.4-4.3,0.4
		c-6.3,0-12-2.2-16.6-5.8c-0.6-0.5-1.2-1-1.8-1.5c0.9,0.9,1.8,1.8,2.8,2.5c4.5,3.6,10.3,5.8,16.6,5.8c1.5,0,2.9-0.1,4.3-0.4
		C112.8,78.9,118.6,75.3,122.7,70.2z"/>
	<path class="st9" d="M89.6,70.2c-1.3-1.6-2.4-3.4-3.3-5.3c-2.8-3.5-4.7-7.7-5.4-12.3c-0.2-1.4-0.4-2.8-0.4-4.3
		c0-6.3,2.2-12,5.8-16.6c0.5-0.6,1-1.2,1.5-1.8c-0.9,0.9-1.8,1.8-2.5,2.8c-3.6,4.5-5.8,10.3-5.8,16.6c0,1.5,0.1,2.9,0.4,4.3
		C80.9,60.3,84.5,66.2,89.6,70.2z"/>
</g>
</svg>
