<?xml version="1.0" encoding="UTF-8"?>
<svg viewBox="0 0 36 38" version="1.1" xmlns="http://www.w3.org/2000/svg" xmlns:xlink="http://www.w3.org/1999/xlink">
    <g>
        <path fill="#dde2e6" d="M29.8333333,13.3333333 C29.6666667,13.1666667 29.6666667,13 29.5,12.8333333 L17.8333333,1.16666667 C17.6666667,1 17.5,0.833333333 17.3333333,0.833333333 C17.1666667,0.666666667 16.8333333,0.666666667 16.6666667,0.666666667 L5,0.666666667 C2.16666667,0.666666667 0,2.83333333 0,5.66666667 L0,32.3333333 C0,35.1666667 2.16666667,37.3333333 5,37.3333333 L25,37.3333333 C27.8333333,37.3333333 30,35.1666667 30,32.3333333 L30,14 C30,13.8333333 30,13.5 29.8333333,13.3333333 Z M18.3333333,6.33333333 L24.3333333,12.3333333 L18.3333333,12.3333333 L18.3333333,6.33333333 Z M25,34 L5,34 C4,34 3.33333333,33.3333333 3.33333333,32.3333333 L3.33333333,5.66666667 C3.33333333,4.66666667 4,4 5,4 L15,4 L15,14 C15,15 15.6666667,15.6666667 16.6666667,15.6666667 L26.6666667,15.6666667 L26.6666667,32.3333333 C26.6666667,33.3333333 26,34 25,34 Z" id="path-1"></path>
    </g>
    <g id="Sprint-1" stroke="none" stroke-width="1" fill="none" fill-rule="evenodd">
        <g id="02---Base-de-dados" transform="translate(-249.000000, -336.000000)">
            <g id="csv" transform="translate(249.000000, 336.000000)">
                <path d="M35.28125,30.0625 C35.28125,31.09375 34.4375,31.9375 33.40625,31.9375 L16.53125,31.9375 C15.5,31.9375 14.65625,31.09375 14.65625,30.0625 L14.65625,22.5625 C14.65625,21.53125 15.5,20.6875 16.53125,20.6875 L33.40625,20.6875 C34.4375,20.6875 35.28125,21.53125 35.28125,22.5625 L35.28125,30.0625 Z" id="Shape" fill="#52AD8C" fill-rule="nonzero"></path>
                <path d="M22.3292187,27.1759375 L23.1176563,27.4257812 C22.9967188,27.8654687 22.7951563,28.1917187 22.5153125,28.405 C22.2340625,28.6182812 21.8773438,28.7251562 21.4451563,28.7251562 C20.9103125,28.7251562 20.4710938,28.5423437 20.1265625,28.1776562 C19.7825,27.8125 19.61,27.3123437 19.61,26.6795312 C19.61,26.00875 19.7829687,25.4889062 20.1284375,25.118125 C20.474375,24.7473437 20.9295312,24.56125 21.4934375,24.56125 C21.9865625,24.56125 22.3859375,24.7075 22.694375,24.998125 C22.8776563,25.1701562 23.015,25.418125 23.1064062,25.7396875 L22.3015625,25.931875 C22.2532813,25.72375 22.1548438,25.5582812 22.0029688,25.4373437 C21.8520312,25.3164062 21.6682813,25.2559375 21.4521875,25.2559375 C21.153125,25.2559375 20.9117187,25.3632812 20.725625,25.5775 C20.5395313,25.7917187 20.44625,26.1385937 20.44625,26.6185937 C20.44625,27.128125 20.5376562,27.49 20.7209375,27.7060937 C20.9046875,27.9221875 21.141875,28.03 21.4348437,28.03 C21.6509375,28.03 21.8365625,27.9615625 21.9921875,27.8242187 C22.1478125,27.686875 22.2617187,27.4707812 22.3292187,27.1759375 Z M23.609375,27.3460938 L24.400625,27.2692188 C24.4489063,27.5345313 24.545,27.7295313 24.6903125,27.8542188 C24.835625,27.9789063 25.0320312,28.0407813 25.2795313,28.0407813 C25.5420313,28.0407813 25.7384375,27.985 25.8715625,27.8748438 C26.0046875,27.7646875 26.07125,27.634375 26.07125,27.48625 C26.07125,27.3910938 26.0426563,27.31 25.986875,27.2425 C25.9310938,27.1754688 25.8340625,27.1173438 25.694375,27.0685938 C25.5996875,27.0357813 25.3821875,26.9771875 25.0432813,26.8928125 C24.606875,26.785 24.3017188,26.651875 24.1259375,26.494375 C23.8789063,26.2721875 23.7551563,26.0021875 23.7551563,25.6839063 C23.7551563,25.4785938 23.8132813,25.286875 23.9295313,25.1082813 C24.0457813,24.9292188 24.213125,24.7932813 24.4320313,24.7 C24.6509375,24.6067188 24.914375,24.5598438 25.22375,24.5598438 C25.7290625,24.5598438 26.1101563,24.6704688 26.365625,24.8921875 C26.6210938,25.1139063 26.7546875,25.4096875 26.7673438,25.78 L25.9545313,25.8151563 C25.9198438,25.6089063 25.8457813,25.4598438 25.7304688,25.369375 C25.6151563,25.2789063 25.4445313,25.2334375 25.2153125,25.2334375 C24.9790625,25.2334375 24.794375,25.2821875 24.6598438,25.3792188 C24.5735938,25.4420313 24.5314063,25.5254688 24.5314063,25.6290625 C24.5314063,25.7242188 24.5717188,25.8057813 24.6523438,25.8732813 C24.755,25.96 25.0039063,26.0490625 25.3995313,26.1423438 C25.7951563,26.235625 26.088125,26.3321875 26.2770313,26.4320313 C26.4664063,26.531875 26.6154688,26.6682813 26.721875,26.84125 C26.8282813,27.0142188 26.8826563,27.2279688 26.8826563,27.4825 C26.8826563,27.713125 26.8184375,27.9292188 26.6904688,28.1307813 C26.5625,28.3323438 26.3810938,28.481875 26.1467188,28.5798438 C25.9123438,28.6778125 25.6203125,28.7265625 25.270625,28.7265625 C24.7615625,28.7265625 24.370625,28.6084375 24.0978125,28.373125 C23.825,28.1378125 23.6623437,27.7965625 23.609375,27.3460938 Z M28.5940625,28.65625 L27.155,24.6296875 L28.0367187,24.6296875 L29.0557812,27.6095312 L30.0420312,24.6296875 L30.9045312,24.6296875 L29.4621875,28.65625 L28.5940625,28.65625 Z" id="Combined-Shape" fill="#F5F5F5" fill-rule="nonzero"></path>
            </g>
        </g>
    </g>
</svg>