<?xml version="1.0" encoding="utf-8"?>
<!-- Generator: Adobe Illustrator 22.0.1, SVG Export Plug-In . SVG Version: 6.00 Build 0)  -->
<svg version="1.1" id="Camada_1" xmlns="http://www.w3.org/2000/svg" xmlns:xlink="http://www.w3.org/1999/xlink" x="0px" y="0px"
	 viewBox="0 0 79.3 96.3" style="enable-background:new 0 0 79.3 96.3;" xml:space="preserve">
<style type="text/css">
	.st0{fill:#333333;}
	.st1{fill:none;}
	.st2{fill:#C6CBD4;}
	.st3{fill:#59A1D0;}
	.st4{fill:#FFFFFF;}
	.st5{fill:#52AD8C;}
	.st6{fill:#C86D61;}
</style>
<path id="path-5_2_" class="st0" d="M2.1,60.7v-50c0-1.1,0.4-2.2,1.2-2.9c0.9-0.9,2.6-2,5-3C12.1,3.2,17,2.3,23,2.3
	c5.9,0,9.9,1.2,18.2,4.5c7.3,2.9,10.6,3.9,15.1,3.9c5,0,8.7-0.7,11.5-1.8c1.4-0.6,2.1-1,2.2-1.2c2.6-2.6,7.1-0.8,7.1,2.9v50
	c0,1.1-0.4,2.2-1.2,2.9c-0.9,0.9-2.6,2-5,3c-3.8,1.5-8.6,2.4-14.6,2.4c-5.9,0-9.9-1.2-18.2-4.5c-7.3-2.9-10.6-3.9-15.1-3.9
	c-5,0-8.7,0.7-11.5,1.8c-0.4,0.2-0.7,0.3-1,0.4v26.9c0,2.3-1.9,4.2-4.2,4.2s-4.2-1.9-4.2-4.2V60.7z M23,52.3c5.9,0,9.9,1.2,18.2,4.5
	c7.3,2.9,10.6,3.9,15.1,3.9c5,0,8.7-0.7,11.5-1.8c0.4-0.2,0.7-0.3,1-0.4V17.4c-3.4,1.1-7.6,1.7-12.5,1.7c-5.9,0-9.9-1.2-18.2-4.5
	c-7.3-2.9-10.6-3.9-15.1-3.9c-5,0-8.7,0.7-11.5,1.8c-0.4,0.2-0.7,0.3-1,0.4V54C13.9,52.9,18,52.3,23,52.3z"/>
</svg>
