<?xml version="1.0" encoding="utf-8"?>
<!-- Generator: Adobe Illustrator 21.1.0, SVG Export Plug-In . SVG Version: 6.00 Build 0)  -->
<svg version="1.1" id="Layer_1" xmlns="http://www.w3.org/2000/svg" xmlns:xlink="http://www.w3.org/1999/xlink" x="0px" y="0px"
	 viewBox="0 0 19 16" style="enable-background:new 0 0 19 16;" xml:space="preserve">
<g>
	<path id="path-1" d="M8.9,1.5c0-0.5,0.3-1,0.7-1.3c0.4-0.3,0.9-0.3,1.4,0l7.4,4.9C18.7,5.4,19,5.9,19,6.4c0,0.5-0.3,1-0.7,1.3
		l-7.5,4.8c-0.4,0.3-0.9,0.3-1.4,0c-0.4-0.3-0.7-0.8-0.7-1.3l0-1.1c-0.2,0-0.3,0-0.4,0c-0.9,0.1-1.6,0.2-2.3,0.5
		c-0.6,0.2-1,0.5-1.5,0.8c-0.5,0.4-0.9,0.9-1.3,1.5c-0.3,0.5-0.4,1.1-0.6,1.9C2.7,15.5,2.1,16,1.4,16c-0.7,0-1.3-0.6-1.3-1.3
		C0,14.3,0,13.9,0,13.6c-0.1-2.3,0.7-4.5,2.1-6.2c0.5-0.6,1-1.2,1.6-1.6c0.8-0.7,1.6-1.2,2.5-1.6C7.2,3.6,8,3.3,8.8,3
		C8.8,3,8.8,2.5,8.9,1.5z M9.9,4.6C9.9,4.6,9.9,4.6,9.9,4.6C9.9,4.6,9.9,4.6,9.9,4.6z M10.5,2.2l0,2.3L9.9,4.6
		C9.7,4.7,9.5,4.8,9.3,4.8c-0.7,0.2-1.5,0.6-2.4,1C6.2,6.2,5.4,6.7,4.7,7.3c-0.5,0.4-1,0.9-1.4,1.4c-0.8,1-1.3,2.2-1.5,3.4
		c0-0.1,0.1-0.1,0.1-0.2C2.3,11,3,10.3,3.7,9.7c0.6-0.4,1.2-0.8,1.9-1c0.8-0.3,1.7-0.5,2.6-0.5c0.4,0,0.8,0,1.3-0.1c0,0,0,0,0.1,0
		l0.8,0l0,0.9l0,1.4L17,6.4L10.5,2.2z"/>
</g>
<title>Icons/Share forward</title>
<desc>Created with Sketch.</desc>
</svg>
