<?xml version="1.0" encoding="utf-8"?>
<!-- Generator: Adobe Illustrator 22.0.1, SVG Export Plug-In . SVG Version: 6.00 Build 0)  -->
<svg version="1.1" id="Camada_1" xmlns="http://www.w3.org/2000/svg" xmlns:xlink="http://www.w3.org/1999/xlink" x="0px" y="0px"
	 viewBox="0 0 55.5 56.3" style="enable-background:new 0 0 55.5 56.3;" xml:space="preserve">
<style type="text/css">
	.st0{fill:#333333;}
	.st1{fill:none;}
	.st2{fill:#C6CBD4;}
	.st3{fill:#59A1D0;}
	.st4{fill:#FFFFFF;}
	.st5{fill:#52AD8C;}
	.st6{fill:#C86D61;}
</style>
<g>
	<polygon class="st1" points="35.9,49.4 46.4,49.4 41.2,42.4 	"/>
	<polygon class="st1" points="10.3,49.4 28.1,49.4 19.2,33.4 	"/>
	<path class="st1" d="M35.1,25c2.3,0,4.1-1.9,4.1-4.1s-1.9-4.1-4.1-4.1c-2.3,0-4.1,1.9-4.1,4.1S32.8,25,35.1,25z"/>
	<path class="st1" d="M6.5,48.2l11-19.7c0.2-0.3,0.4-0.6,0.8-0.8c0.9-0.5,2.1-0.2,2.7,0.8c0,0,0,0,0,0l11,19.9
		c0.1-0.2,0.2-0.4,0.3-0.6l7.3-9.7c0.1-0.1,0.1-0.1,0.2-0.2c0.5-0.5,1.3-0.7,2-0.5c0.4,0.1,0.8,0.4,1.1,0.7l6.1,8.3V6.9H6.5V48.2z
		 M35.1,12.8c4.4,0,8.1,3.6,8.1,8.1s-3.6,8.1-8.1,8.1c-4.4,0-8.1-3.6-8.1-8.1S30.6,12.8,35.1,12.8z"/>
	<path class="st0" d="M49.8,3H5.7C4,3,2.6,4.4,2.6,6v44.2c0,1.7,1.4,3.1,3.1,3.1H7h24.4h18.4c1.7,0,3.1-1.4,3.1-3.1V6
		C52.9,4.4,51.5,3,49.8,3z M10.3,49.4l8.9-16l8.9,16H10.3z M35.9,49.4l5.2-7l5.2,7H35.9z M49,46.2L42.8,38c-0.3-0.4-0.7-0.6-1.1-0.7
		c-0.7-0.2-1.5,0-2,0.5c-0.1,0.1-0.1,0.1-0.2,0.2l-7.3,9.7c-0.1,0.2-0.2,0.4-0.3,0.6l-11-19.9c0,0,0,0,0,0c-0.5-0.9-1.7-1.3-2.7-0.8
		c-0.3,0.2-0.6,0.5-0.8,0.8l-11,19.7V6.9H49V46.2z"/>
	<path class="st0" d="M35.1,28.9c4.4,0,8.1-3.6,8.1-8.1s-3.6-8.1-8.1-8.1c-4.4,0-8.1,3.6-8.1,8.1S30.6,28.9,35.1,28.9z M35.1,16.7
		c2.3,0,4.1,1.9,4.1,4.1S37.4,25,35.1,25c-2.3,0-4.1-1.9-4.1-4.1S32.8,16.7,35.1,16.7z"/>
</g>
</svg>
