<?xml version="1.0" encoding="UTF-8"?>
<svg width="88px" height="49px" viewBox="0 0 88 49" version="1.1" xmlns="http://www.w3.org/2000/svg" xmlns:xlink="http://www.w3.org/1999/xlink">
    <!-- Generator: Sketch 51.1 (57501) - http://www.bohemiancoding.com/sketch -->
    <title>Group 3</title>
    <desc>Created with Sketch.</desc>
    <defs></defs>
    <g id="Sprint-4" stroke="none" stroke-width="1" fill="none" fill-rule="evenodd">
        <g id="Definição-de-Meta-(Preço-e-Consumo)_02" transform="translate(-682.000000, -317.000000)" fill="#59A1D0" fill-rule="nonzero">
            <g id="Group-3" transform="translate(682.000000, 317.000000)">
                <path d="M66.7423793,0.518793012 C66.3301861,-0.0741132875 65.4233611,-0.158814187 64.8462907,0.264690312 L51.4912322,11.1911064 L34.2615579,3.82212811 C33.8493647,3.65272631 33.3547329,3.73742721 33.0249784,3.99152991 L14.5587246,17.5436739 C13.9816542,17.9671784 13.8167769,18.8141874 14.2289701,19.4070937 C14.476286,19.8305982 14.8884791,20 15.3006723,20 C15.5479882,20 15.7953041,19.9152991 16.04262,19.7458973 L33.9318034,6.61725781 L51.2439163,13.9862361 C51.6561094,14.1556379 52.2331799,14.070937 52.5629344,13.8168343 L66.4950634,2.46691371 C67.0721338,2.04340921 67.1545724,1.11169931 66.7423793,0.518793012 Z" id="Shape"></path>
                <path d="M86.7469205,46.3072407 L80.6040764,46.3072407 L80.6040764,7.34637965 C80.6040764,6.5890411 80.0229965,6 79.2758938,6 L67.073217,6 C66.3261143,6 65.7450345,6.5890411 65.7450345,7.34637965 L65.7450345,46.3072407 L61.2624185,46.3072407 L61.2624185,20.8101761 C61.2624185,20.0528376 60.6813386,19.4637965 59.934236,19.4637965 L47.6485477,19.4637965 C46.901445,19.4637965 46.3203652,20.0528376 46.3203652,20.8101761 L46.3203652,46.3072407 L41.8377492,46.3072407 L41.8377492,18.7906067 C41.8377492,18.0332681 41.2566694,17.444227 40.5095667,17.444227 L28.3068898,17.444227 C27.5597872,17.444227 26.9787073,18.0332681 26.9787073,18.7906067 L26.9787073,46.3072407 L22.4960913,46.3072407 L22.4960913,26.7005871 C22.4960913,25.9432485 21.9150115,25.3542074 21.1679088,25.3542074 L8.88222057,25.3542074 C8.1351179,25.3542074 7.55403805,25.9432485 7.55403805,26.7005871 L7.55403805,46.3072407 L1.32818251,46.3072407 C0.58107985,46.3072407 0,46.8962818 0,47.6536204 C0,48.4109589 0.58107985,49 1.32818251,49 L8.79920916,49 L21.001886,49 L28.3068898,49 L40.5095667,49 L47.6485477,49 L59.8512246,49 L66.9902056,49 L79.1928824,49 L86.6639091,49 C87.4110117,49 87.9920916,48.4109589 87.9920916,47.6536204 C88.075103,46.8962818 87.4940232,46.3072407 86.7469205,46.3072407 Z M19.7567149,46.3072407 L10.2104031,46.3072407 L10.2104031,28.0469667 L19.7567149,28.0469667 L19.7567149,46.3072407 Z M39.1813842,46.3072407 L29.6350724,46.3072407 L29.6350724,20.1369863 L39.1813842,20.1369863 L39.1813842,46.3072407 Z M58.5230421,46.3072407 L48.9767302,46.3072407 L48.9767302,22.1565558 L58.5230421,22.1565558 L58.5230421,46.3072407 Z M77.9477113,46.3072407 L68.4013995,46.3072407 L68.4013995,8.6927593 L77.9477113,8.6927593 L77.9477113,46.3072407 Z" id="Shape"></path>
            </g>
        </g>
    </g>
</svg>