<svg xmlns="http://www.w3.org/2000/svg" xmlns:xlink="http://www.w3.org/1999/xlink" width="40" height="42" viewBox="0 0 40 42"><defs><path id="c3dla" d="M469.99 227.74a.8.8 0 0 1 0 1.62H431.8a.8.8 0 0 1-.8-.81c0-.45.36-.81.8-.81h6.36V207.9c0-.45.36-.81.8-.81.44 0 .8.36.8.8v19.85h1.97v-8.83c0-.45.36-.81.8-.81.45 0 .8.36.8.8v8.84h2.19v-10.68a4.42 4.42 0 0 1-4.19-4.38v-7.82c0-1.25.26-2.46.76-3.59a6.49 6.49 0 0 0-6.02 6.39v4.58a.8.8 0 0 1-.8.8.8.8 0 0 1-.8-.8v-4.58a8.04 8.04 0 0 1 5.17-7.47 4.28 4.28 0 0 1 2.79-7.5c.7 0 1.4.19 2.02.53.4.2.53.7.32 1.1a.8.8 0 0 1-1.08.31 2.65 2.65 0 0 0-3.9 2.34 2.65 2.65 0 0 0 2.64 2.66h.04a8.3 8.3 0 0 1 .56.01 9.12 9.12 0 0 1 4.27-3.22 4.75 4.75 0 0 1 2.95-8.42 4.73 4.73 0 0 1 3.1 8.3 9.12 9.12 0 0 1 4.63 3.34h.13a2.65 2.65 0 0 0 2.73-2.67 2.65 2.65 0 0 0-3.85-2.35.8.8 0 0 1-1.08-.35.81.81 0 0 1 .33-1.09 4.26 4.26 0 0 1 4.88 6.88 8.18 8.18 0 0 1 3.1 1.9 7.9 7.9 0 0 1 2.42 5.68l.01 4.6a.8.8 0 0 1-.8.8.8.8 0 0 1-.8-.8l-.01-4.6c0-1.7-.7-3.31-1.93-4.52a6.6 6.6 0 0 0-4.2-1.86c.51 1.13.77 2.35.77 3.6v7.82a4.42 4.42 0 0 1-4.05 4.37v10.69h1.95l-.02-8.83c0-.45.35-.8.8-.81.44 0 .8.36.8.8l.02 8.84h2.33l-.05-19.85c0-.45.36-.8.8-.8.45 0 .8.35.8.8l.05 19.85zm-22.84-35a3.11 3.11 0 0 0 3.1 3.12c1.71 0 3.1-1.4 3.1-3.12a3.11 3.11 0 0 0-3.1-3.12c-1.7 0-3.1 1.4-3.1 3.12zm-1.63 22.7v-10.31c0-.45.36-.8.8-.8.44 0 .8.35.8.8v22.6h2.45V216.5c0-.45.36-.8.8-.8.44 0 .8.35.8.8v11.24h2.86v-22.61c0-.45.36-.8.8-.8.44 0 .8.35.8.8v10.3a2.8 2.8 0 0 0 2.45-2.75v-7.82c0-1.4-.4-2.76-1.16-3.93a7.59 7.59 0 0 0-6.41-3.45 7.6 7.6 0 0 0-6.41 3.44 7.22 7.22 0 0 0-1.17 3.94v7.82a2.8 2.8 0 0 0 2.59 2.76z"/></defs><g><g transform="translate(-431 -188)"><use fill="#333" xlink:href="#c3dla"/></g></g></svg>