<?xml version="1.0" encoding="utf-8"?>
<!-- Generator: Adobe Illustrator 22.0.1, SVG Export Plug-In . SVG Version: 6.00 Build 0)  -->
<svg version="1.1" id="Camada_1" xmlns="http://www.w3.org/2000/svg" xmlns:xlink="http://www.w3.org/1999/xlink" x="0px" y="0px"
	 viewBox="0 0 47 46.5" style="enable-background:new 0 0 47 46.5;" xml:space="preserve">
<style type="text/css">
	.st0{fill:#333333;}
	.st1{fill:none;}
	.st2{fill:#C6CBD4;}
	.st3{fill:#59A1D0;}
	.st4{fill:#FFFFFF;}
	.st5{fill:#52AD8C;}
	.st6{fill:#C86D61;}
</style>
<g>
	<path class="st0" d="M34.8,29.9c-0.8-0.6-1.9-0.5-2.6,0.2L23.5,40l-8.7-9.9c-0.6-0.7-1.8-0.8-2.6-0.2c-0.8,0.6-0.9,1.7-0.2,2.5
		l9.8,11.1c0.9,1,2.5,1,3.4,0L35,32.3C35.7,31.6,35.6,30.5,34.8,29.9z"/>
	<path class="st0" d="M33,2.3c-3.9,0-7.4,1.8-9.5,4.7c-2.1-2.9-5.6-4.8-9.5-4.8C7.7,2.3,2.5,7.1,2.5,13.2c0,0.8,0.1,1.5,0.2,2.2
		c0.3,1.5,1,2.9,1.9,4.1c0.6,0.8,1.7,1,2.5,0.4s1-1.7,0.4-2.4c-0.6-0.8-1.1-1.8-1.3-2.8c-0.1-0.5-0.2-1-0.2-1.5
		c0-4.1,3.5-7.4,7.8-7.4c3.5,0,6.6,2.2,7.5,5.3c0.2,0.7,0.9,1.2,1.7,1.3l0.4,0c0.8,0,1.6-0.5,1.8-1.3c1-3.1,4-5.3,7.5-5.3
		c4.3,0,7.8,3.3,7.8,7.4c0,0.5-0.1,1-0.2,1.5c-0.2,1-0.7,2-1.3,2.9c-0.6,0.8-0.4,1.9,0.4,2.4s2,0.4,2.6-0.4c1-1.3,1.7-2.7,2-4.2
		c0.2-0.7,0.2-1.5,0.2-2.2C44.5,7.1,39.3,2.3,33,2.3z"/>
	<path class="st0" d="M41.8,23.7H27c-0.4,0-0.8,0.1-1.1,0.4l-3.4,2.6l-4.9-8.4c-0.7-1.1-2.4-1.2-3.1-0.1l-3.6,5.2l-6.5,0.1
		c-1,0-1.8,0.8-1.8,1.8c0,1,0.9,1.7,1.9,1.7l7.4-0.1c0.6,0,1.2-0.3,1.5-0.8l2.5-3.6l4.5,7.8c0.5,0.9,1.9,1.2,2.7,0.5l4.6-3.5h14.2
		c1,0,1.8-0.8,1.8-1.8S42.8,23.7,41.8,23.7z"/>
</g>
</svg>
