<?xml version="1.0" encoding="utf-8"?>
<!-- Generator: Adobe Illustrator 21.1.0, SVG Export Plug-In . SVG Version: 6.00 Build 0)  -->
<svg version="1.1" id="Camada_1" xmlns="http://www.w3.org/2000/svg" xmlns:xlink="http://www.w3.org/1999/xlink" x="0px" y="0px"
	 viewBox="0 0 46.8 47.7" style="enable-background:new 0 0 46.8 47.7;" xml:space="preserve">
<style type="text/css">
	.st0{fill:#333333;}
</style>
<path class="st0" d="M23.4,1.9c-12.2,0-22,9.8-22,22c0,12.2,9.8,22,22,22c12.1,0,22-9.8,22-22C45.4,11.7,35.6,1.9,23.4,1.9z
	 M23.4,41.9c-10,0-18-8.1-18-18c0-9.9,8.1-18,18-18c9.9,0,18,8.1,18,18C41.4,33.8,33.3,41.9,23.4,41.9z"/>
<path class="st0" d="M23.4,34.5L23.4,34.5c-1.1,0-2-0.9-2-2v-9.2c0-1.1,0.9-2,2-2h0c1.1,0,2,0.9,2,2v9.2
	C25.4,33.6,24.5,34.5,23.4,34.5z"/>
<circle class="st0" cx="23.4" cy="16.3" r="2"/>
</svg>
