<?xml version="1.0" encoding="UTF-8"?>
<svg width="36px" height="43px" viewBox="0 0 36 43" version="1.1" xmlns="http://www.w3.org/2000/svg" xmlns:xlink="http://www.w3.org/1999/xlink">
    <!-- Generator: Sketch 51.1 (57501) - http://www.bohemiancoding.com/sketch -->
    <title>Group 9</title>
    <desc>Created with Sketch.</desc>
    <defs></defs>
    <g id="Sprint-4" stroke="none" stroke-width="1" fill="none" fill-rule="evenodd">
        <g id="Identificação-de-Lacuna-(Preço-e-Consumo)" transform="translate(-799.000000, -192.000000)" fill="#333333" fill-rule="nonzero">
            <g id="Group-9" transform="translate(799.000000, 192.000000)">
                <path d="M24.3002595,19.7084453 C23.9974407,19.7084453 23.6969843,19.7200352 23.399903,19.742543 L23.399903,4.25523633 C23.399903,3.31998633 22.7414472,2.00033984 19.6051759,1.02469336 C17.4808037,0.363988281 14.6733385,0 11.6999937,0 C8.72664887,0 5.91926801,0.363988281 3.79481146,1.02469336 C0.658371438,2.00033984 0,3.31998633 0,4.25523633 L0,31.3543906 C0,32.2895566 0.658371438,33.6092031 3.79481146,34.5847656 C5.91926801,35.2455547 8.72673324,35.609543 11.6999937,35.609543 C12.2667348,35.609543 12.8334759,35.5953496 13.3929609,35.5684746 C15.0932686,39.9129863 19.3410848,43 24.3001751,43 C30.7515064,43 36,37.7758359 36,31.3543906 C36.0000844,24.9327773 30.7515908,19.7084453 24.3002595,19.7084453 Z M4.33168413,2.7347832 C6.2870549,2.12656836 8.9037502,1.79163867 11.6999937,1.79163867 C14.4960684,1.79163867 17.1129324,2.12656836 19.0683032,2.7347832 C21.1347947,3.37759961 21.5999494,4.0650957 21.5999494,4.25523633 C21.5999494,4.44546094 21.1347947,5.13287305 19.0683032,5.77577344 C17.1129324,6.3839043 14.4962371,6.71883398 11.6999937,6.71883398 C8.9037502,6.71883398 6.28697052,6.3839043 4.33168413,5.77568945 C2.26502387,5.13287305 1.79995359,4.44546094 1.79995359,4.25523633 C1.79995359,4.06517969 2.26502387,3.37768359 4.33168413,2.7347832 Z M1.79978485,6.65626563 C2.31556398,6.94777539 2.9684511,7.22878711 3.79481146,7.4857793 C5.91926801,8.14656836 8.72673324,8.51047266 11.6999937,8.51047266 C14.6732541,8.51047266 17.4808037,8.14648438 19.6051759,7.48586328 C20.4315362,7.22887109 21.084339,6.94785938 21.5999494,6.65626563 L21.5999494,8.772 C21.5999494,8.96205664 21.1347947,9.64955273 19.0683032,10.2924531 C17.1128481,10.900584 14.4962371,11.2355137 11.6999937,11.2355137 C10.4023194,11.2355137 9.13535722,11.1627832 7.93429129,11.0195059 C7.44104005,10.9601289 6.99267586,11.3110996 6.93361396,11.8023242 C6.87446768,12.2935488 7.22656098,12.7395898 7.72006534,12.7983789 C8.99192118,12.9501387 10.3309388,13.0271523 11.700078,13.0271523 C14.6734228,13.0271523 17.4808881,12.6631641 19.6051759,12.002459 C20.4315362,11.7454668 21.084339,11.4644551 21.5999494,11.1730293 L21.5999494,17.8048555 C21.5999494,17.9950801 21.1347947,18.6824922 19.0683032,19.3253926 C17.1129324,19.9336074 14.4962371,20.2684531 11.6999937,20.2684531 C8.9037502,20.2684531 6.28688615,19.9336074 4.33168413,19.3253926 C2.26502387,18.6825762 1.79986922,17.9950801 1.79986922,17.8048555 L1.79986922,15.689541 C2.31547961,15.9809668 2.96836673,16.2620625 3.79472708,16.5190547 C5.91918363,17.1798437 8.72664887,17.543748 11.6999093,17.543748 C13.4712601,17.543748 15.1676022,17.4171836 16.741855,17.167498 C17.2328281,17.0897285 17.5673716,16.630502 17.4891568,16.1419648 C17.4109419,15.6532598 16.9484029,15.3205137 16.4587797,15.3981992 C14.9986852,15.6296602 13.3531363,15.7520254 11.6999093,15.7520254 C8.90383457,15.7520254 6.28688615,15.4170957 4.33159976,14.8088809 C2.2649395,14.1660645 1.79978485,13.4786523 1.79978485,13.2885117 L1.79978485,6.65626563 Z M11.6999937,33.8179043 C8.90391894,33.8179043 6.28697052,33.4829746 4.33168413,32.8747598 C2.26502387,32.2319434 1.79986922,31.5445312 1.79986922,31.3543906 L1.79986922,29.2388242 C2.31547961,29.53025 2.96836673,29.8113457 3.79472708,30.0683379 C5.91909926,30.729127 8.72664887,31.0931152 11.6999093,31.0931152 C12.0010406,31.0931152 12.3026782,31.088916 12.6032189,31.0812734 C12.6011095,31.1723125 12.5999283,31.2631836 12.5999283,31.3543906 C12.5999283,31.4563477 12.6013626,31.5578008 12.6039782,31.6591699 C12.604822,31.6906641 12.6064251,31.7223262 12.6076063,31.7539883 C12.6099688,31.8236953 12.6122469,31.8934863 12.615875,31.9627734 C12.6178156,32.0009863 12.6208531,32.0391992 12.6231312,32.0772441 C12.6270124,32.1396445 12.6307248,32.2022969 12.6354498,32.2644453 C12.6387404,32.3066055 12.6430435,32.3486816 12.6467559,32.3906738 C12.6519871,32.448623 12.6567965,32.5066562 12.6628714,32.5643535 C12.6676807,32.609873 12.6733338,32.6553086 12.6786494,32.7005762 C12.684893,32.7542422 12.6908836,32.8079922 12.6978023,32.8614902 C12.7042147,32.911041 12.7115553,32.9605078 12.7186427,33.0098066 C12.7255614,33.0582656 12.7323113,33.1068926 12.739905,33.1551836 C12.7484268,33.2092695 12.7577079,33.2631875 12.7669891,33.3171895 C12.7742453,33.3600215 12.7815014,33.4029375 12.7891795,33.4456855 C12.7999794,33.5047266 12.8117074,33.5635996 12.823351,33.6225566 C12.8305228,33.6589219 12.8376946,33.6953711 12.8452039,33.7315684 C12.8496757,33.7534883 12.8537257,33.7757441 12.858535,33.797832 C12.4743796,33.8111855 12.0871866,33.8179043 11.6999937,33.8179043 Z M13.635874,26.5643418 C13.6355365,26.5652656 13.6350303,26.5659375 13.6346928,26.5668613 C13.6030525,26.6368203 13.5722559,26.7070312 13.5418812,26.7776621 C13.5332751,26.7977344 13.5243314,26.8176387 13.515894,26.8377949 C13.5018879,26.8708848 13.4885568,26.9041426 13.4748881,26.9374004 C13.1662475,27.6840215 12.9328687,28.4690234 12.7853826,29.2834199 C12.4248519,29.2950098 12.0620431,29.3014766 11.6999093,29.3014766 C8.90366582,29.3014766 6.28688615,28.9665469 4.33159976,28.358332 C2.2649395,27.7155156 1.79978485,27.0280195 1.79978485,26.8378789 L1.79978485,20.2058008 C2.31547961,20.4972266 2.96836673,20.7783223 3.79472708,21.0353145 C5.91909926,21.6960195 8.7265645,22.0600078 11.6999093,22.0600078 C14.069304,22.0600078 16.3321341,21.8282949 18.2290336,21.4000586 C17.172585,22.0391797 16.2150228,22.8451777 15.400053,23.7946211 C15.1646491,24.068998 14.9434201,24.3533691 14.7358597,24.6463906 C13.7571197,24.7381016 12.7357707,24.7848809 11.6999093,24.7848809 C10.402235,24.7848809 9.13527284,24.7121504 7.93420692,24.568873 C7.44095568,24.509916 6.99259148,24.8603828 6.93352958,25.3516914 C6.87438331,25.842916 7.22647661,26.288957 7.71998097,26.3477461 C8.9918368,26.4995059 10.3308545,26.5765195 11.6999937,26.5765195 C12.3597151,26.5765195 13.0129397,26.5562793 13.6560394,26.5207539 C13.6493739,26.5353672 13.6425396,26.5498125 13.635874,26.5643418 Z M24.3002595,41.2083613 C19.8663139,41.2083613 16.1039021,38.2920879 14.8472336,34.2855293 C14.8319619,34.2368184 14.8177026,34.1877715 14.8031903,34.1388926 C14.7788905,34.0569238 14.7556876,33.9745352 14.7334129,33.8917266 C14.718563,33.8361289 14.704135,33.7803633 14.6902133,33.7245977 C14.6788228,33.6785742 14.6670104,33.6327188 14.6562105,33.5862754 C14.6343576,33.4922129 14.6139391,33.3978145 14.5947018,33.3029961 C14.586855,33.2642793 14.5795988,33.2253945 14.5721739,33.1865098 C14.5565647,33.1041211 14.5419679,33.0214805 14.5285524,32.9387559 C14.5243337,32.9128887 14.5196088,32.8871895 14.5156432,32.8612383 C14.4992746,32.7558379 14.4850998,32.6500176 14.4722749,32.5440293 C14.4685624,32.513207 14.4651031,32.4823848 14.4616437,32.4515625 C14.4502532,32.3487656 14.4398752,32.2458848 14.4316909,32.142752 C14.4309316,32.1336816 14.4300878,32.1247793 14.4293285,32.115709 C14.4207223,32.0040938 14.414563,31.8921426 14.4097537,31.7799395 C14.408488,31.7518047 14.4074755,31.7236699 14.4065474,31.6955352 C14.4025818,31.5819883 14.3999663,31.4683574 14.3999663,31.3543906 C14.3999663,31.217748 14.4036787,31.0819453 14.409163,30.9466465 C14.4100911,30.9245586 14.4106818,30.9022188 14.4116943,30.8801309 C14.4174317,30.7581016 14.4260379,30.6366602 14.4361628,30.5158066 C14.439369,30.4777617 14.4426596,30.4397168 14.446372,30.4018398 C14.4566657,30.2945078 14.4688156,30.1876797 14.4823998,30.0814395 C14.4899091,30.0239102 14.4982621,29.9668008 14.5066995,29.9096074 C14.5143776,29.8571172 14.5229838,29.8048789 14.5314212,29.7526406 C14.5524303,29.6254883 14.5750426,29.4990078 14.6010298,29.3736191 C14.601283,29.3721074 14.6017048,29.3705957 14.6020423,29.369084 C15.3440285,25.7726211 18.0607916,22.8849023 21.5702497,21.881373 C21.5846777,21.8773418 21.5988525,21.8731426 21.6131961,21.8691113 C21.694364,21.8463516 21.776207,21.8245996 21.858303,21.8036875 C21.9519583,21.7802559 22.0462042,21.7576641 22.1411251,21.736752 C22.1773216,21.7286895 22.2137713,21.7207109 22.2503053,21.7129844 C22.3744196,21.6871172 22.4994621,21.6630137 22.6254327,21.6416816 C23.1699834,21.5489629 23.7295527,21.499916 24.3004282,21.499916 C29.7590978,21.499916 34.2002152,25.9206016 34.2002152,31.3542227 C34.2000464,36.7878438 29.758929,41.2083613 24.3002595,41.2083613 Z" id="Shape"></path>
                <path d="M4.6078383,11.8616034 C4.73423915,11.9002835 4.86362223,11.937899 4.99537581,11.9741837 C5.05884387,11.9917494 5.12238839,12 5.18486237,12 C5.55389473,12 5.88851669,11.7073267 5.97767785,11.272442 C6.08190311,10.7641006 5.81120801,10.2538075 5.37297253,10.132888 C5.2542949,10.1001518 5.13783484,10.0663511 5.02397467,10.0315745 C4.58803321,9.89814603 4.14199804,10.1998684 4.02722026,10.7051934 C3.91221308,11.2106071 4.17220272,11.7283523 4.6078383,11.8616034 Z" id="Shape"></path>
                <path d="M18.7829909,17 C18.8569854,17 18.9323747,16.9875105 19.006883,16.9614978 C19.1608915,16.9076637 19.3160744,16.8496952 19.4681742,16.7892287 C19.8777133,16.6263482 20.097201,16.1046311 19.9583145,15.6240001 C19.8195014,15.1434553 19.3748736,14.8859991 18.9652611,15.0488796 C18.8315865,15.1021107 18.6951958,15.1531024 18.559686,15.2003041 C18.1452286,15.3451825 17.9093711,15.8568219 18.0327687,16.3431377 C18.1342175,16.7421992 18.4455377,17 18.7829909,17 Z" id="Shape"></path>
                <path d="M5.37249943,24.1323545 C5.25366648,24.0996106 5.13689819,24.0658018 5.02288279,24.0311057 C4.58769725,23.898799 4.14119428,24.2006819 4.02687301,24.7064822 C3.9126282,25.2120163 4.17315836,25.7295299 4.60887919,25.8621916 C4.73520611,25.9006147 4.86436239,25.9379729 4.99588921,25.9742663 C5.05920561,25.9916587 5.12259847,26 5.18484431,26 C5.5541135,26 5.8887422,25.7069908 5.97775221,25.271825 C6.08182663,24.7631851 5.81082021,24.2529479 5.37249943,24.1323545 Z" id="Shape"></path>
                <path d="M25.3539741,30.6904152 L23.6460259,30.6904152 C23.0443623,30.6904152 22.5526802,30.1840082 22.5526802,29.564326 C22.5526802,28.9446438 23.0443623,28.4382368 23.6460259,28.4382368 L26.6543438,28.4382368 C27.0813309,28.4382368 27.4306839,28.0784213 27.4306839,27.6386468 C27.4306839,27.1988724 27.0813309,26.8390569 26.6543438,26.8390569 L25.2763401,26.8390569 L25.2763401,25.79959 C25.2763401,25.3598155 24.9269871,25 24.5,25 C24.0730129,25 23.7236599,25.3598155 23.7236599,25.79959 L23.7236599,26.8390569 L23.6460259,26.8390569 C22.1839187,26.8390569 21,28.0650948 21,29.564326 C21,31.0702204 22.1903882,32.2895951 23.6460259,32.2895951 L25.3539741,32.2895951 C25.9556377,32.2895951 26.4473198,32.7960021 26.4473198,33.4156843 C26.4473198,34.0353665 25.9556377,34.5417734 25.3539741,34.5417734 L22.2874307,34.5417734 C21.8604436,34.5417734 21.5110906,34.9015889 21.5110906,35.3413634 C21.5110906,35.7811379 21.8604436,36.1409534 22.2874307,36.1409534 L23.7236599,36.1409534 L23.7236599,37.20041 C23.7236599,37.6401845 24.0730129,38 24.5,38 C24.9269871,38 25.2763401,37.6401845 25.2763401,37.20041 L25.2763401,36.1409534 L25.3669131,36.1409534 C25.3733826,36.1409534 25.3798521,36.1409534 25.3863216,36.1409534 C26.8290203,36.1209636 28,34.9082522 28,33.4156843 C28,31.9097899 26.8096118,30.6904152 25.3539741,30.6904152 Z" id="Shape"></path>
            </g>
        </g>
    </g>
</svg>