<?xml version="1.0" encoding="UTF-8"?>
<svg viewBox="0 0 20 13" version="1.1" xmlns="http://www.w3.org/2000/svg" xmlns:xlink="http://www.w3.org/1999/xlink">
    <g id="Análise-de-produtividade" stroke="none" stroke-width="1" fill="none" fill-rule="evenodd">
        <g id="list" fill="#000000" fill-rule="nonzero">
            <path d="M18.7291803,12.6871522 L5.54754098,12.6871522 C5.0042623,12.6871522 4.56393443,12.3076087 4.56393443,11.8393261 C4.56393443,11.3710435 5.0042623,10.9915 5.54754098,10.9915 L18.7288525,10.9915 C19.2721311,10.9915 19.712459,11.3710435 19.712459,11.8393261 C19.712459,12.3076087 19.272459,12.6871522 18.7291803,12.6871522 Z" id="Shape"></path>
            <path d="M18.7291803,7.36534783 L5.54754098,7.36534783 C5.0042623,7.36534783 4.56393443,6.98580435 4.56393443,6.51752174 C4.56393443,6.04923913 5.0042623,5.66969565 5.54754098,5.66969565 L18.7288525,5.66969565 C19.2721311,5.66969565 19.712459,6.04923913 19.712459,6.51752174 C19.7127869,6.98580435 19.272459,7.36534783 18.7291803,7.36534783 Z" id="Shape"></path>
            <path d="M18.7291803,2.04354348 L5.54754098,2.04354348 C5.0042623,2.04354348 4.56393443,1.664 4.56393443,1.19571739 C4.56393443,0.727434783 5.0042623,0.347891304 5.54754098,0.347891304 L18.7288525,0.347891304 C19.2721311,0.347891304 19.712459,0.727434783 19.712459,1.19571739 C19.712459,1.664 19.272459,2.04354348 18.7291803,2.04354348 Z" id="Shape"></path>
            <ellipse id="Oval" cx="1.32098361" cy="1.26128261" rx="1.32098361" ry="1.13863043"></ellipse>
            <ellipse id="Oval" cx="1.32098361" cy="6.51752174" rx="1.32098361" ry="1.13863043"></ellipse>
            <ellipse id="Oval" cx="1.32098361" cy="11.7737609" rx="1.32098361" ry="1.13863043"></ellipse>
        </g>
    </g>
</svg>
