<?xml version="1.0" encoding="utf-8"?>
<!-- Generator: Adobe Illustrator 21.1.0, SVG Export Plug-In . SVG Version: 6.00 Build 0)  -->
<svg version="1.1" id="Layer_1" xmlns="http://www.w3.org/2000/svg" xmlns:xlink="http://www.w3.org/1999/xlink" x="0px" y="0px"
	 viewBox="0 0 24 24" style="enable-background:new 0 0 24 24;" xml:space="preserve">
<g>
	<path id="path-1" class="st0" d="M6,10V7c0-3.3,2.7-6,6-6s6,2.7,6,6v3h1c1.7,0,3,1.3,3,3v7c0,1.7-1.3,3-3,3H5c-1.7,0-3-1.3-3-3v-7
		c0-1.7,1.3-3,3-3H6z M8,10h8V7c0-2.2-1.8-4-4-4S8,4.8,8,7V10z M5,12c-0.6,0-1,0.4-1,1v7c0,0.6,0.4,1,1,1h14c0.6,0,1-0.4,1-1v-7
		c0-0.6-0.4-1-1-1H5z"/>
</g>
<title>Icons/ lock</title>
<desc>Created with Sketch.</desc>
<g id="Symbols">
	<g id="Icons_x2F_-lock">
		<g id="Combined-Shape">
			<path id="path-1_1_" d="M6,10V7c0-3.3,2.7-6,6-6s6,2.7,6,6v3h1c1.7,0,3,1.3,3,3v7c0,1.7-1.3,3-3,3H5c-1.7,0-3-1.3-3-3v-7
				c0-1.7,1.3-3,3-3H6z M8,10h8V7c0-2.2-1.8-4-4-4S8,4.8,8,7V10z M5,12c-0.6,0-1,0.4-1,1v7c0,0.6,0.4,1,1,1h14c0.6,0,1-0.4,1-1v-7
				c0-0.6-0.4-1-1-1H5z"/>
		</g>
	</g>
</g>
</svg>
