<?xml version="1.0" encoding="utf-8"?>
<!-- Generator: Adobe Illustrator 21.1.0, SVG Export Plug-In . SVG Version: 6.00 Build 0)  -->
<svg version="1.1" id="Layer_1" xmlns="http://www.w3.org/2000/svg" xmlns:xlink="http://www.w3.org/1999/xlink" x="0px" y="0px"
	 viewBox="0 0 24 24" style="enable-background:new 0 0 24 24;" xml:space="preserve">
<style type="text/css">
	.st0{fill:#FFFFFF;}
</style>
<g>
	<path id="path-1" class="st0" d="M6,11l0-3c0-3.1,2.3-5.7,5.4-6s5.9,1.8,6.5,4.8C18,7.3,17.6,7.9,17.1,8S16,7.7,15.9,7.2
		c-0.4-2-2.3-3.4-4.3-3.2C9.6,4.2,8,5.9,8,8v3h11c1.7,0,3,1.3,3,3v7c0,1.7-1.3,3-3,3H5c-1.7,0-3-1.3-3-3v-7c0-1.7,1.3-3,3-3H6z
		 M5,13c-0.6,0-1,0.4-1,1v7c0,0.6,0.4,1,1,1h14c0.6,0,1-0.4,1-1v-7c0-0.6-0.4-1-1-1H5z"/>
</g>
<title>Icons/ unlock@2x</title>
<desc>Created with Sketch.</desc>
<g id="Symbols">
	<g id="Icons_x2F_-unlock">
		<g id="Combined-Shape">
			<path id="path-1_1_" d="M6,11l0-3c0-3.1,2.3-5.7,5.4-6s5.9,1.8,6.5,4.8C18,7.3,17.6,7.9,17.1,8S16,7.7,15.9,7.2
				c-0.4-2-2.3-3.4-4.3-3.2C9.6,4.2,8,5.9,8,8v3h11c1.7,0,3,1.3,3,3v7c0,1.7-1.3,3-3,3H5c-1.7,0-3-1.3-3-3v-7c0-1.7,1.3-3,3-3H6z
				 M5,13c-0.6,0-1,0.4-1,1v7c0,0.6,0.4,1,1,1h14c0.6,0,1-0.4,1-1v-7c0-0.6-0.4-1-1-1H5z"/>
		</g>
	</g>
</g>
</svg>
