<?xml version="1.0" encoding="utf-8"?>
<!-- Generator: Adobe Illustrator 22.1.0, SVG Export Plug-In . SVG Version: 6.00 Build 0)  -->
<svg version="1.1" id="Camada_1" xmlns="http://www.w3.org/2000/svg" xmlns:xlink="http://www.w3.org/1999/xlink" x="0px" y="0px"
	 viewBox="0 0 290.3 62.8" style="enable-background:new 0 0 290.3 62.8;" xml:space="preserve">
<style type="text/css">
	.st0{fill:url(#SVGID_1_);}
	.st1{fill:url(#SVGID_2_);}
	.st2{fill:url(#SVGID_3_);}
	.st3{opacity:0.5;fill:#D6A03C;}
	.st4{fill:url(#SVGID_4_);}
	.st5{fill:url(#SVGID_5_);}
	.st6{fill:url(#SVGID_6_);}
	.st7{opacity:0.5;fill:#B8395B;}
	.st8{opacity:0.5;fill:#00A06C;}
	.st9{opacity:0.5;fill:#005ABC;}
	.st10{fill:url(#SVGID_7_);}
	.st11{fill:url(#SVGID_8_);}
	.st12{fill:url(#SVGID_9_);}
	.st13{fill:url(#SVGID_10_);}
	.st14{fill:url(#SVGID_11_);}
	.st15{fill:url(#SVGID_12_);}
	.st16{fill:url(#SVGID_13_);}
</style>
<g>
	<g>
		<g>
			<linearGradient id="SVGID_1_" gradientUnits="userSpaceOnUse" x1="68.5008" y1="36.9136" x2="105.6075" y2="14.6495">
				<stop  offset="0" style="stop-color:#005ABC"/>
				<stop  offset="0.337" style="stop-color:#424E99"/>
				<stop  offset="0.7922" style="stop-color:#973F6D"/>
				<stop  offset="1" style="stop-color:#B8395B"/>
			</linearGradient>
			<path class="st0" d="M57.5,21.3c0.6,5.2,1.4,15.9,3,18.7c1.7,2.8,6.3,6,7.5,7.4c1.1,1.4,2,2.4,4.2,2.8c2.2,0.4,1.7,2.3,4.1,2
				c0.2,0,0.5-0.1,0.8-0.1c-2.7-1-5.1-2.4-7.3-4.1c0,0,0,0,0,0c0,0,0,0,0,0c-0.3-0.4-0.6-0.8-0.9-1.2c0-0.1-0.1-0.1-0.1-0.2
				c-0.9-1.2-1.6-2.6-2.3-4c0,0,0,0,0,0c-1.6-3.4-2.5-7.2-2.5-11.3c0-6.3,2.2-12,5.8-16.6c0,0,0,0,0,0c0.4-0.3,0.7-0.6,1.1-0.8
				c0.1-0.1,0.2-0.1,0.3-0.2c0.4-0.3,0.7-0.5,1.1-0.7c0,0,0,0,0,0c0.4-0.3,0.9-0.5,1.3-0.8c0,0,0,0,0.1,0c0.5-0.2,0.9-0.5,1.4-0.7
				C78.5,9.9,82.3,9,86.3,9c3.2,0,6.3,0.6,9.1,1.6c3.4-0.7,8.6-0.7,12.5,4.2c5.6,6.9,8.1,16.6,8.4,24.4c0.6-2.5,1-5.1,1-7.8
				c0-17.1-13.9-31-31-31c-13.2,0-24.4,8.2-28.9,19.8C57.4,20.6,57.5,20.9,57.5,21.3z"/>
			<linearGradient id="SVGID_2_" gradientUnits="userSpaceOnUse" x1="55.3167" y1="36.342" x2="116.3317" y2="36.342">
				<stop  offset="0" style="stop-color:#00A06C"/>
				<stop  offset="9.875675e-02" style="stop-color:#0BA06A"/>
				<stop  offset="0.2723" style="stop-color:#28A063"/>
				<stop  offset="0.5001" style="stop-color:#58A058"/>
				<stop  offset="0.7701" style="stop-color:#99A04A"/>
				<stop  offset="1" style="stop-color:#D6A03C"/>
			</linearGradient>
			<path class="st1" d="M108,14.8c-3.9-4.9-9.1-4.9-12.5-4.2c2.7,1,5.2,2.4,7.5,4.2c0,0,0,0,0,0c0,0,0,0,0,0
				c0.3,0.4,0.6,0.8,0.9,1.1c0.1,0.1,0.1,0.2,0.2,0.2c0.6,0.8,1.1,1.7,1.6,2.5c0,0,0,0,0,0c0.2,0.5,0.5,0.9,0.7,1.4c0,0,0,0,0,0
				c1.6,3.4,2.5,7.2,2.5,11.3c0,6.3-2.2,12-5.8,16.6c0,0,0,0,0,0c0,0,0,0,0,0c-0.4,0.3-0.8,0.6-1.1,0.9c-0.1,0.1-0.2,0.1-0.2,0.2
				c-0.8,0.6-1.7,1.1-2.5,1.6c0,0,0,0,0,0c-0.5,0.2-0.9,0.5-1.4,0.7c0,0,0,0,0,0c-3.4,1.6-7.2,2.5-11.3,2.5c-3.3,0-6.4-0.6-9.3-1.7
				c-0.3,0-0.5,0.1-0.8,0.1c-2.4,0.3-1.9-1.7-4.1-2c-2.2-0.4-3-1.4-4.2-2.8c-1.1-1.4-5.8-4.6-7.5-7.4c-1.7-2.8-2.4-13.5-3-18.7
				c0-0.4-0.1-0.7-0.1-1c-1.3,3.5-2.1,7.2-2.1,11.2c0,17.1,13.9,31,31,31c14.4,0,26.6-9.9,30-23.2C116.1,31.4,113.5,21.7,108,14.8z"
				/>
		</g>
		
			<radialGradient id="SVGID_3_" cx="923.1479" cy="361.8506" r="53.5533" gradientTransform="matrix(0 0.9993 -0.9993 0 469.7941 -900.0682)" gradientUnits="userSpaceOnUse">
			<stop  offset="0.5" style="stop-color:#D6A03C"/>
			<stop  offset="0.5659" style="stop-color:#D2A03D"/>
			<stop  offset="0.6342" style="stop-color:#C5A040"/>
			<stop  offset="0.7037" style="stop-color:#B1A044"/>
			<stop  offset="0.774" style="stop-color:#94A04B"/>
			<stop  offset="0.8448" style="stop-color:#6EA053"/>
			<stop  offset="0.9162" style="stop-color:#40A05E"/>
			<stop  offset="0.9868" style="stop-color:#0BA06A"/>
			<stop  offset="1" style="stop-color:#00A06C"/>
		</radialGradient>
		<path class="st2" d="M107.2,52.3c3.6-4.6,5.8-10.3,5.8-16.6c0-1.5-0.1-2.9-0.3-4.3c-1.1-6.7-4.7-12.6-9.7-16.6
			c3.6,4.6,5.8,10.3,5.8,16.6c0,6.3-2.2,12-5.8,16.6c-4,5.1-9.9,8.7-16.6,9.7c-1.4,0.2-2.8,0.4-4.3,0.4c-6.3,0-12-2.2-16.6-5.8
			c-6.2-4.9-9.8-12.5-10.1-20.9c0,17.1,13.9,31,31,31C94.8,62.4,102.3,58.5,107.2,52.3z"/>
		<path class="st3" d="M102.9,14.8c1.3,1.6,2.4,3.4,3.3,5.3c2.8,3.5,4.7,7.7,5.4,12.3c0.2,1.4,0.4,2.8,0.4,4.3
			c0,6.3-2.2,12-5.8,16.6c-0.5,0.6-1,1.2-1.5,1.8c0.9-0.9,1.8-1.8,2.6-2.8c3.6-4.6,5.8-10.3,5.8-16.6c0-1.5-0.1-2.9-0.4-4.3
			C111.6,24.7,108,18.8,102.9,14.8z"/>
		
			<radialGradient id="SVGID_4_" cx="909.7783" cy="391.1458" r="52.0425" gradientTransform="matrix(0 0.9993 -0.9993 0 469.7941 -900.0682)" gradientUnits="userSpaceOnUse">
			<stop  offset="0.5" style="stop-color:#B8395B"/>
			<stop  offset="0.5954" style="stop-color:#B93D5A"/>
			<stop  offset="0.6942" style="stop-color:#BD4A56"/>
			<stop  offset="0.7946" style="stop-color:#C35E50"/>
			<stop  offset="0.8956" style="stop-color:#CB7B47"/>
			<stop  offset="0.9966" style="stop-color:#D6A03C"/>
		</radialGradient>
		<path class="st4" d="M117.3,31.4c0-8.5-3.9-16-10.1-20.9c-4.6-3.6-10.3-5.8-16.6-5.8c-1.5,0-2.9,0.1-4.3,0.4
			c-6.7,1.1-12.6,4.7-16.6,9.7C74.3,11.2,80,9,86.3,9c6.3,0,12,2.2,16.6,5.8c5.1,4,8.7,9.9,9.7,16.6c0.2,1.4,0.3,2.8,0.3,4.3
			c0,6.3-2.2,12-5.8,16.6c-4.9,6.2-12.4,10.1-20.9,10.1C103.4,62.4,117.3,48.5,117.3,31.4z"/>
		
			<radialGradient id="SVGID_5_" cx="955.3647" cy="378.1417" r="52.6751" gradientTransform="matrix(0 0.9993 -0.9993 0 469.7941 -900.0682)" gradientUnits="userSpaceOnUse">
			<stop  offset="0.5" style="stop-color:#00A06C"/>
			<stop  offset="0.6093" style="stop-color:#009C70"/>
			<stop  offset="0.7226" style="stop-color:#00917D"/>
			<stop  offset="0.8377" style="stop-color:#007F91"/>
			<stop  offset="0.9534" style="stop-color:#0066AE"/>
			<stop  offset="1" style="stop-color:#005ABC"/>
		</radialGradient>
		<path class="st5" d="M86.3,57.7c6.7-1.1,12.6-4.7,16.6-9.7c-4.6,3.6-10.3,5.8-16.6,5.8c-6.3,0-12-2.2-16.6-5.8
			c-5.1-4-8.7-9.9-9.7-16.6c-0.2-1.4-0.4-2.8-0.4-4.3c0-6.3,2.2-12,5.8-16.6C70.3,4.3,77.8,0.4,86.3,0.4c-17.1,0-31,13.9-31,31
			c0,8.5,3.9,16,10.1,20.9c4.6,3.6,10.3,5.8,16.6,5.8C83.5,58.1,84.9,58,86.3,57.7z"/>
		
			<radialGradient id="SVGID_6_" cx="942.4449" cy="404.9648" r="53.5596" gradientTransform="matrix(0 0.9993 -0.9993 0 469.7941 -900.0682)" gradientUnits="userSpaceOnUse">
			<stop  offset="0.5" style="stop-color:#005ABC"/>
			<stop  offset="0.5712" style="stop-color:#0459BA"/>
			<stop  offset="0.6451" style="stop-color:#1157B3"/>
			<stop  offset="0.7201" style="stop-color:#2553A8"/>
			<stop  offset="0.796" style="stop-color:#424E99"/>
			<stop  offset="0.8726" style="stop-color:#684785"/>
			<stop  offset="0.9486" style="stop-color:#953F6D"/>
			<stop  offset="1" style="stop-color:#B8395B"/>
		</radialGradient>
		<path class="st6" d="M63.9,31.4c0-6.3,2.2-12,5.8-16.6c4-5.1,9.9-8.7,16.6-9.7c1.4-0.2,2.8-0.4,4.3-0.4c6.3,0,12,2.2,16.6,5.8
			c6.2,4.9,10.1,12.4,10.1,20.9c0-17.1-13.9-31-31-31c-8.5,0-16,3.9-20.9,10.1c-3.6,4.6-5.8,10.3-5.8,16.6c0,1.5,0.1,2.9,0.4,4.3
			c1.1,6.7,4.7,12.6,9.7,16.6C66.1,43.4,63.9,37.7,63.9,31.4z"/>
		<path class="st7" d="M69.7,14.8c1.6-1.3,3.4-2.4,5.3-3.3c3.5-2.8,7.7-4.7,12.3-5.4c1.4-0.2,2.8-0.4,4.3-0.4c6.3,0,12,2.2,16.6,5.8
			c0.6,0.5,1.2,1,1.8,1.5c-0.9-0.9-1.8-1.8-2.8-2.6c-4.6-3.6-10.3-5.8-16.6-5.8c-1.5,0-2.9,0.1-4.3,0.4C79.6,6.1,73.8,9.7,69.7,14.8
			z"/>
		<path class="st8" d="M102.9,48c-1.6,1.3-3.4,2.4-5.3,3.3c-3.5,2.8-7.7,4.7-12.3,5.4c-1.4,0.2-2.8,0.4-4.3,0.4
			c-6.3,0-12-2.2-16.6-5.8c-0.6-0.5-1.2-1-1.8-1.5c0.9,0.9,1.8,1.8,2.8,2.6c4.6,3.6,10.3,5.8,16.6,5.8c1.5,0,2.9-0.1,4.3-0.4
			C93,56.7,98.9,53.1,102.9,48z"/>
		<path class="st9" d="M69.7,48c-1.3-1.6-2.4-3.4-3.3-5.3c-2.8-3.5-4.7-7.7-5.4-12.3c-0.2-1.4-0.4-2.8-0.4-4.3
			c0-6.3,2.2-12,5.8-16.6c0.5-0.6,1-1.2,1.5-1.8c-0.9,0.9-1.8,1.8-2.6,2.8c-3.6,4.6-5.8,10.3-5.8,16.6c0,1.5,0.1,2.9,0.4,4.3
			C61.1,38.1,64.6,44,69.7,48z"/>
	</g>
	<g>
		
			<radialGradient id="SVGID_7_" cx="147.6877" cy="-11.0437" r="91.1234" gradientTransform="matrix(0.9993 0 0 0.9993 -0.1328 1.4083)" gradientUnits="userSpaceOnUse">
			<stop  offset="1.688128e-03" style="stop-color:#809696"/>
			<stop  offset="0.2567" style="stop-color:#7C9191"/>
			<stop  offset="0.5401" style="stop-color:#728484"/>
			<stop  offset="0.8357" style="stop-color:#606E6E"/>
		</radialGradient>
		<path class="st10" d="M141.7,21.4h-6.2l0.2-1.3c0.3-2.5,1.1-4.1,3.7-4.1c0.9,0,2,0.2,3.6,0.6l0.9-3.5c-2-0.6-3.3-0.8-4.6-0.8
			c-4.1,0-7,2.1-7.8,7.4l-0.3,1.8h-3.1l-0.4,3.6h3.1l-2.6,18.5c-0.4,2.6-1.5,3.9-3.9,4l-0.5,3.4c4.9,0,8-2.5,8.7-7.3L135,25h6.2
			L141.7,21.4z"/>
		
			<radialGradient id="SVGID_8_" cx="147.6877" cy="-11.0437" r="91.1234" gradientTransform="matrix(0.9993 0 0 0.9993 -0.1328 1.4083)" gradientUnits="userSpaceOnUse">
			<stop  offset="1.688128e-03" style="stop-color:#809696"/>
			<stop  offset="0.2567" style="stop-color:#7C9191"/>
			<stop  offset="0.5401" style="stop-color:#728484"/>
			<stop  offset="0.8357" style="stop-color:#606E6E"/>
		</radialGradient>
		<path class="st11" d="M155.7,20.4l-0.2,1.9c-1-0.2-2.9-0.7-4.7-0.7c-6.8,0-11,5.6-11,12.9c0,5.8,2.7,9,8.2,9
			c1.4,0,2.5-0.2,3.5-0.4l1.5-0.3c0.9-0.2,2-0.2,2.8,0.3l1.7,0.9l1.9-3.1l-2.1-1.3l2.9-19.2H155.7z M152.9,39.4l-1.7,0.3
			c-0.8,0.2-1.6,0.2-2.7,0.2c-3.1,0-4.4-2.3-4.4-5.6c0-4.4,2-9.1,6.6-9.1c1.3,0,2.7,0.2,4.1,0.6L152.9,39.4z"/>
		
			<radialGradient id="SVGID_9_" cx="147.6877" cy="-11.0437" r="91.1234" gradientTransform="matrix(0.9993 0 0 0.9993 -0.1328 1.4083)" gradientUnits="userSpaceOnUse">
			<stop  offset="1.688128e-03" style="stop-color:#809696"/>
			<stop  offset="0.2567" style="stop-color:#7C9191"/>
			<stop  offset="0.5401" style="stop-color:#728484"/>
			<stop  offset="0.8357" style="stop-color:#606E6E"/>
		</radialGradient>
		<path class="st12" d="M197.9,21.3c-6.7,0-11.6,5.4-11.6,13.4c0,1.2,0.1,2.2,0.4,3.2l-2.2,0.9l-1.6,0.6c-1.7,0.6-3.6,0.9-5.1,0.9
			c-3.1,0-4.7-2.2-4.7-5.7c0-4.6,2.1-9.4,6.7-9.4c1.5,0,3.1,0.4,4.6,1l1.5,0.5l1.1-3.8l-1.4-0.5c-1.7-0.6-3.9-1.1-5.7-1.1
			c-6.7,0-11.4,5.5-11.4,13.4c0,5.6,3.2,9.4,8.5,9.4c2.2,0,4.1-0.4,6.2-1.1l1.8-0.6l3.2-1.3c1.4,1.9,3.7,2.9,6.6,2.9
			c7.2,0,11.6-6.3,11.6-13.5C206.4,24.8,203.3,21.3,197.9,21.3z M195.3,40.7c-3.1,0-4.5-2.4-4.5-5.9c0-5.6,2.7-10,6.6-10
			c3.1,0,4.6,2.3,4.6,5.8C202,35,199.7,40.7,195.3,40.7z"/>
		
			<radialGradient id="SVGID_10_" cx="147.6877" cy="-11.0437" r="91.1234" gradientTransform="matrix(0.9993 0 0 0.9993 -0.1328 1.4083)" gradientUnits="userSpaceOnUse">
			<stop  offset="1.688128e-03" style="stop-color:#809696"/>
			<stop  offset="0.2567" style="stop-color:#7C9191"/>
			<stop  offset="0.5401" style="stop-color:#728484"/>
			<stop  offset="0.8357" style="stop-color:#606E6E"/>
		</radialGradient>
		<polygon class="st13" points="226.3,44.1 231,44.1 234.3,20.5 229.6,20.5 		"/>
		
			<radialGradient id="SVGID_11_" cx="147.6877" cy="-11.0437" r="91.1234" gradientTransform="matrix(0.9993 0 0 0.9993 -0.1328 1.4083)" gradientUnits="userSpaceOnUse">
			<stop  offset="1.688128e-03" style="stop-color:#809696"/>
			<stop  offset="0.2567" style="stop-color:#7C9191"/>
			<stop  offset="0.5401" style="stop-color:#728484"/>
			<stop  offset="0.8357" style="stop-color:#606E6E"/>
		</radialGradient>
		<path class="st14" d="M218.6,21.5c-1.6,0-3.7,0.2-6.6,1c-1.2-1.7-3.2-2.5-6.1-2.5c-0.2,0-0.3,0-0.5,0l0,2.7
			c2.9,0.1,3.5,3.1,3.1,5.6l0,0.1l0,0l-2.1,15.5h4.4l2.2-15.5l0,0L213,28c0,0,0-0.1,0-0.1l0.2-1.7c2.5-0.7,3.6-0.7,4.6-0.7
			c3.1,0,3.7,2,3.3,4.5l-2,14.1h4.4l2-14.5C226.4,24.3,223.8,21.5,218.6,21.5z"/>
		
			<radialGradient id="SVGID_12_" cx="147.6877" cy="-11.0437" r="91.1234" gradientTransform="matrix(0.9993 0 0 0.9993 -0.1328 1.4083)" gradientUnits="userSpaceOnUse">
			<stop  offset="1.688128e-03" style="stop-color:#809696"/>
			<stop  offset="0.2567" style="stop-color:#7C9191"/>
			<stop  offset="0.5401" style="stop-color:#728484"/>
			<stop  offset="0.8357" style="stop-color:#606E6E"/>
		</radialGradient>
		<path class="st15" d="M168.4,11.8h-4.5l-3.2,23.6l-0.1,0.5c-0.7,5.3,1.9,8.1,7.1,8.1c0.2,0,0.4,0,0.5,0v-3.9
			c-2.8-0.1-3.4-1.9-3.1-4.3L168.4,11.8z"/>
		
			<radialGradient id="SVGID_13_" cx="147.6877" cy="-11.0437" r="91.1234" gradientTransform="matrix(0.9993 0 0 0.9993 -0.1328 1.4083)" gradientUnits="userSpaceOnUse">
			<stop  offset="1.688128e-03" style="stop-color:#809696"/>
			<stop  offset="0.2567" style="stop-color:#7C9191"/>
			<stop  offset="0.5401" style="stop-color:#728484"/>
			<stop  offset="0.8357" style="stop-color:#606E6E"/>
		</radialGradient>
		<path class="st16" d="M232.5,14.4c-1.1,0-2.1,0.8-2.3,2l-0.4,2.9h4.5l0.7-4.9H232.5z"/>
	</g>
</g>
</svg>
