<svg xmlns="http://www.w3.org/2000/svg" xmlns:xlink="http://www.w3.org/1999/xlink" width="24" height="42" viewBox="0 0 24 42"><defs><path id="6l08b" d="M771.28 212.64v-5.12h1.69v5.12z"/><path id="6l08c" d="M772.13 206.67a10.17 10.17 0 0 1-10.11-10.23c0-5.65 4.52-10.23 10.1-10.23 5.59 0 10.11 4.58 10.12 10.23 0 5.64-4.53 10.23-10.11 10.23zm0-22.17c-6.52 0-11.8 5.34-11.8 11.94 0 6.59 5.28 11.93 11.8 11.93 6.5 0 11.79-5.35 11.8-11.94 0-6.59-5.29-11.93-11.8-11.93z"/><path id="6l08d" d="M772.96 222.86c0 .47-.37.85-.84.85a.85.85 0 0 1-.83-.85v-8.52c0-.47.37-.86.83-.86.47 0 .84.39.84.86zm-.83-11.08a2.54 2.54 0 0 0-2.53 2.56v8.52a2.54 2.54 0 0 0 2.53 2.56c1.4 0 2.53-1.14 2.53-2.56v-8.52a2.54 2.54 0 0 0-2.53-2.56z"/><path id="6l08a" d="M784.96 208.97a.7.7 0 0 0 .03-.07 1.38 1.38 0 0 1 2.53.77 1.38 1.38 0 1 1-2.61-.62.7.7 0 0 0 .05-.08zm-.01-8.3a1.39 1.39 0 1 1 0 0zm-5.72 4.15a1.4 1.4 0 0 1-1.38 1.4c-.76 0-1.38-.63-1.38-1.4a1.38 1.38 0 1 1 2.76 0zm4.95-2.9a2.77 2.77 0 1 0-.7-1.2l-3.66 2.15a2.77 2.77 0 1 0 0 3.9l3.66 2.15a2.79 2.79 0 0 0 2.66 3.53 2.77 2.77 0 1 0-1.96-4.73l-3.67-2.15a2.79 2.79 0 0 0 0-1.5z"/><path id="6l08f" d="M774.21 213.14V196.5h16.58v16.64z"/><clipPath id="6l08e"><use xlink:href="#6l08a"/></clipPath></defs><g><g transform="translate(-760 -184)"><g transform="rotate(-90 772 205)"><g transform="rotate(90 772 205)"><g><use fill="#333" xlink:href="#6l08b"/></g><g><use fill="#333" xlink:href="#6l08c"/></g><g><use fill="#333" xlink:href="#6l08d"/></g></g><g transform="matrix(-1 0 0 1 1544 0)"><g><g><use xlink:href="#6l08a"/></g></g><g><g/><g clip-path="url(#6l08e)"><g><use fill="#333" xlink:href="#6l08f"/></g></g></g></g></g></g></g></svg>