<?xml version="1.0" encoding="UTF-8"?>
<svg viewBox="0 0 26 26" version="1.1" xmlns="http://www.w3.org/2000/svg" xmlns:xlink="http://www.w3.org/1999/xlink">
    <g id="Mark" stroke="none" stroke-width="1" fill="none" fill-rule="evenodd">
        <g id="Group-8" transform="translate(1.000000, 1.000000)" fill="#000000" stroke="#000000" stroke-width="0.3">
            <path d="M19.4544119,8.29015842 L23.9532506,3.80269307 L21.1740149,2.87839604 L20.2474243,0.106039604 L15.7488238,4.59374257 L16.4225509,6.60980198 L15.3314739,7.69817822 C13.7059057,6.30724752 11.5949777,5.46534653 9.29032258,5.46534653 C4.16754342,5.46534653 0,9.62281188 0,14.7326733 C0,19.8427129 4.16754342,24 9.29032258,24 C14.4131017,24 18.5806452,19.8427129 18.5806452,14.7326733 C18.5806452,12.4337228 17.7366551,10.3277822 16.3420347,8.70641584 L17.4330521,7.61809901 L19.4544119,8.29015842 Z M19.6228288,2.74544554 L20.0441092,4.00550495 L21.3072953,4.42574257 L19.0684467,6.6590495 L17.8050819,6.2389901 L17.3839801,4.97869307 L19.6228288,2.74544554 Z M17.1513648,14.7326733 C17.1513648,19.0565347 13.6249132,22.5742574 9.29032258,22.5742574 C4.95573201,22.5742574 1.4292804,19.0565347 1.4292804,14.7326733 C1.4292804,10.4088119 4.95573201,6.89108911 9.29032258,6.89108911 C11.2006749,6.89108911 12.9540447,7.57473267 14.3179355,8.70920792 L12.2844864,10.7376238 C11.4491315,10.1129109 10.4123077,9.74257426 9.29032258,9.74257426 C6.53204963,9.74257426 4.28784119,11.9811683 4.28784119,14.7326733 C4.28784119,17.4841188 6.53204963,19.7227723 9.29032258,19.7227723 C12.0485955,19.7227723 14.292804,17.4841188 14.292804,14.7326733 C14.292804,13.6134653 13.9215484,12.5789703 13.2952854,11.7456832 L15.3284963,9.71750495 C16.4660248,11.0777822 17.1513648,12.8268119 17.1513648,14.7326733 Z M12.8635236,14.7326733 C12.8635236,16.6981782 11.2607047,18.2970297 9.29032258,18.2970297 C7.31994045,18.2970297 5.71712159,16.6981782 5.71712159,14.7326733 C5.71712159,12.7674059 7.31994045,11.1683168 9.29032258,11.1683168 C10.0175285,11.1683168 10.6942333,11.3866931 11.2592754,11.760297 L9.65997022,13.3556436 C9.54205459,13.324099 9.41806452,13.3069307 9.29032258,13.3069307 C8.50219355,13.3069307 7.86104218,13.9464356 7.86104218,14.7326733 C7.86104218,15.5188515 8.50219355,16.1584158 9.29032258,16.1584158 C10.0784516,16.1584158 10.719603,15.5188515 10.719603,14.7326733 C10.719603,14.6050099 10.7023921,14.4813267 10.6707692,14.363703 L12.2698362,12.7685347 C12.6446055,13.332 12.8635236,14.0072673 12.8635236,14.7326733 Z" id="target"></path>
        </g>
    </g>
</svg>
