<svg version="1.1" id="Camada_1" xmlns="http://www.w3.org/2000/svg" xmlns:xlink="http://www.w3.org/1999/xlink" x="0px" y="0px"
	 viewBox="0 0 99.9 99" style="enable-background:new 0 0 99.9 99;" xml:space="preserve">
<path id="path-51_1_" class="st0" d="M13.8,85.7l18.5-6.2c1.2-0.4,2.6-0.3,3.7,0.3c5.1,2.6,10.6,3.9,16.3,3.9
	c13.8,0,26.5-7.8,32.7-20.2c2.6-5.1,3.9-10.6,3.9-16.3l0-2.2c-1-18.6-15.8-33.4-34.1-34.4l-2.5,0c-5.7,0-11.3,1.3-16.3,3.9
	c-12.4,6.2-20.2,18.8-20.2,32.7c0,5.7,1.3,11.3,3.9,16.3c0.6,1.2,0.7,2.5,0.3,3.7L13.8,85.7z M98.7,47.1c0,7.2-1.7,14.3-4.9,20.7
	C86,83.5,70,93.4,52.4,93.4c-6.5,0-12.9-1.4-18.9-4L7.6,98c-3.8,1.3-7.4-2.4-6.2-6.2l8.6-25.9c-2.7-5.9-4-12.4-4-18.9
	c0-17.5,9.9-33.6,25.6-41.4c6.4-3.2,13.5-4.9,20.7-4.9l2.7,0C78.6,2,97.4,20.8,98.7,44.6V47.1z"/>
</svg>
