<?xml version="1.0" encoding="UTF-8"?>
<svg viewBox="0 0 16 16" version="1.1" xmlns="http://www.w3.org/2000/svg" xmlns:xlink="http://www.w3.org/1999/xlink">
    <g id="Sprint-4" stroke="none" stroke-width="1" fill="none" fill-rule="evenodd">
        <g id="Pareto-de-contas_01" transform="translate(-50.000000, -433.000000)" fill="#333333" fill-rule="nonzero">
            <path d="M63.6578723,435.342128 C65.1693617,436.853617 66,438.862128 66,441 C66,443.137872 65.1693617,445.146383 63.6578723,446.657872 C62.146383,448.169362 60.1378723,449 58,449 C55.8621277,449 53.853617,448.169362 52.3421277,446.657872 C50.8306383,445.146383 50,443.137872 50,441 C50,438.862128 50.8306383,436.853617 52.3421277,435.342128 C53.853617,433.830638 55.8621277,433 58,433 C60.1378723,433 62.146383,433.830638 63.6578723,435.342128 Z M58,448.182979 C61.9591489,448.182979 65.1829787,444.959149 65.1829787,441 C65.1829787,437.040851 61.9591489,433.817021 58,433.817021 C54.0408511,433.817021 50.8170213,437.040851 50.8170213,441 C50.8170213,444.959149 54.0408511,448.182979 58,448.182979 Z M58.7298636,440.494122 C59.8851334,440.494122 60.8235294,441.423285 60.8235294,442.571318 C60.8235294,443.706962 59.8976453,444.631995 58.7423755,444.648514 L58.5004779,444.648514 L58.5004779,445.680917 C58.5004779,445.953471 58.2752628,446.176471 58,446.176471 C57.7247372,446.176471 57.4995221,445.953471 57.4995221,445.680917 L57.4995221,444.648514 L56.1148666,444.648514 C55.8396038,444.648514 55.6143887,444.425514 55.6143887,444.15296 C55.6143887,443.880405 55.8396038,443.657406 56.1148666,443.657406 L58.7298636,443.657406 C59.3346077,443.657406 59.8267443,443.170112 59.8267443,442.571318 C59.8267443,441.972524 59.3346077,441.48523 58.7298636,441.48523 L57.2743071,441.48523 C56.1190373,441.48523 55.1764706,440.551937 55.1764706,439.408034 C55.1764706,438.264131 56.1190373,437.330838 57.2743071,437.330838 L57.5036928,437.330838 L57.5036928,436.319083 C57.5036928,436.046529 57.7289078,435.823529 58.0041706,435.823529 C58.2794335,435.823529 58.5046485,436.046529 58.5046485,436.319083 L58.5046485,437.330838 L59.8434269,437.330838 C60.1186897,437.330838 60.3439048,437.553837 60.3439048,437.826392 C60.3439048,438.098946 60.1186897,438.321946 59.8434269,438.321946 L57.2743071,438.321946 C56.669563,438.321946 56.1774264,438.80924 56.1774264,439.408034 C56.1774264,440.006828 56.669563,440.494122 57.2743071,440.494122 L58.7298636,440.494122 Z" id="Combined-Shape"></path>
        </g>
    </g>
</svg>
