<?xml version="1.0" encoding="UTF-8"?>
<svg viewBox="0 0 35 19" version="1.1" xmlns="http://www.w3.org/2000/svg" xmlns:xlink="http://www.w3.org/1999/xlink">
    <g id="Sprint-1" stroke="none" stroke-width="1" fill="none" fill-rule="evenodd">
        <g id="01---Resultado-da-torre" transform="translate(-654.000000, -560.000000)" fill="#959595">
            <g id="Outros" transform="translate(655.000000, 561.000000)">
                <g id="Group-11">
                    <path d="M14.5114894,2.48851064 C16.1174468,4.09446809 17,6.22851064 17,8.5 C17,10.7714894 16.1174468,12.9055319 14.5114894,14.5114894 C12.9055319,16.1174468 10.7714894,17 8.5,17 C6.22851064,17 4.09446809,16.1174468 2.48851064,14.5114894 C0.882553191,12.9055319 0,10.7714894 0,8.5 C0,6.22851064 0.882553191,4.09446809 2.48851064,2.48851064 C4.09446809,0.882553191 6.22851064,0 8.5,0 C10.7714894,0 12.9055319,0.882553191 14.5114894,2.48851064 Z M8.5,16.1319149 C12.7065957,16.1319149 16.1319149,12.7065957 16.1319149,8.5 C16.1319149,4.29340426 12.7065957,0.868085106 8.5,0.868085106 C4.29340426,0.868085106 0.868085106,4.29340426 0.868085106,8.5 C0.868085106,12.7065957 4.29340426,16.1319149 8.5,16.1319149 Z M9.13297872,8.06595745 C10.1348936,8.06595745 10.9487234,8.87978723 10.9487234,9.88531915 C10.9487234,10.88 10.1457447,11.6902128 9.15468085,11.7046809 C9.15106383,11.7046809 9.14744681,11.7046809 9.14382979,11.7046809 L8.93404255,11.7046809 L8.93404255,12.6089362 C8.93404255,12.8476596 8.7387234,13.0429787 8.5,13.0429787 C8.2612766,13.0429787 8.06595745,12.8476596 8.06595745,12.6089362 L8.06595745,11.7046809 L6.86510638,11.7046809 C6.62638298,11.7046809 6.43106383,11.5093617 6.43106383,11.2706383 C6.43106383,11.0319149 6.62638298,10.8365957 6.86510638,10.8365957 L9.13297872,10.8365957 C9.65744681,10.8365957 10.0842553,10.4097872 10.0842553,9.88531915 C10.0842553,9.36085106 9.65744681,8.93404255 9.13297872,8.93404255 L7.8706383,8.93404255 C6.8687234,8.93404255 6.0512766,8.11659574 6.0512766,7.11468085 C6.0512766,6.11276596 6.8687234,5.29531915 7.8706383,5.29531915 L8.06957447,5.29531915 L8.06957447,4.40914894 C8.06957447,4.17042553 8.26489362,3.97510638 8.50361702,3.97510638 C8.74234043,3.97510638 8.93765957,4.17042553 8.93765957,4.40914894 L8.93765957,5.29531915 L10.0987234,5.29531915 C10.3374468,5.29531915 10.532766,5.4906383 10.532766,5.7293617 C10.532766,5.96808511 10.3374468,6.16340426 10.0987234,6.16340426 L7.8706383,6.16340426 C7.34617021,6.16340426 6.9193617,6.59021277 6.9193617,7.11468085 C6.9193617,7.63914894 7.34617021,8.06595745 7.8706383,8.06595745 L9.13297872,8.06595745 Z" id="Combined-Shape" stroke="#959595" stroke-width="0.5" fill-rule="nonzero"></path>
                    <g id="Group-8" transform="translate(20.000000, 2.000000)" fill-rule="nonzero">
                        <path d="M13.9943034,3.41928188 C13.9918425,3.40008672 13.9888347,3.38097359 13.984642,3.36202452 C13.9827279,3.35365739 13.9800847,3.34553636 13.9778972,3.33725127 C13.9742514,3.32355216 13.9707879,3.30977102 13.9661394,3.29623597 C13.962767,3.28622823 13.9585744,3.27663065 13.9547462,3.26686901 C13.950189,3.25530269 13.9459051,3.24365435 13.9407098,3.23225209 C13.935788,3.22150608 13.9299547,3.21117023 13.9243948,3.20067031 C13.9191083,3.1907446 13.9142776,3.18065484 13.9084443,3.1708932 C13.9012438,3.15867064 13.8930407,3.14710432 13.8851111,3.13537394 C13.8800069,3.12782713 13.8753585,3.12011625 13.8698897,3.11273349 C13.8577674,3.09632737 13.8446424,3.08065953 13.8310617,3.06523777 C13.8289654,3.06285888 13.8271425,3.06031594 13.8250461,3.05793705 C13.8074551,3.03857782 13.7888614,3.02012094 13.7690828,3.00256639 L10.6609288,0.205240584 C10.3567762,-0.068413528 9.8652283,-0.068413528 9.56116679,0.205240584 C9.25710528,0.478976727 9.25710528,0.921367802 9.56116679,1.19502191 L11.3446115,2.80011484 L0.777744864,2.80011484 C0.347629077,2.80011484 0,3.11371786 0,3.50008203 C0,3.8864462 0.347629077,4.20004922 0.777744864,4.20004922 L11.3446115,4.20004922 L9.56116679,5.80514215 C9.25710528,6.07879626 9.25710528,6.52126937 9.56116679,6.79492348 C9.71283297,6.93142241 9.91198596,7 10.1110478,7 C10.3101097,7 10.5092627,6.93142241 10.6609288,6.79492348 L13.7690828,3.99759768 C13.7887702,3.98004312 13.8074551,3.96158624 13.8250461,3.94222701 C13.8272336,3.93984813 13.8289654,3.93730518 13.8310617,3.93492629 C13.8446424,3.91950454 13.8577674,3.90383669 13.8698897,3.88743057 C13.8753585,3.88004781 13.8800069,3.87233693 13.8851111,3.86479012 C13.8931319,3.85305974 13.9012438,3.8414114 13.9084443,3.82927087 C13.9142776,3.81950922 13.9191083,3.80941946 13.9243948,3.79949375 C13.9299547,3.78899384 13.9356968,3.77874001 13.9407098,3.76791197 C13.9459963,3.75650971 13.950189,3.74486137 13.9548374,3.73321302 C13.9586655,3.72345138 13.9628582,3.7138538 13.9662306,3.70392809 C13.9707879,3.69039304 13.9743425,3.6766119 13.9779884,3.66283076 C13.9801758,3.65454567 13.9828191,3.64642464 13.9847331,3.63805752 C13.9889258,3.61910844 13.9919336,3.59999531 13.9943945,3.58080015 C13.9948503,3.5774369 13.9956706,3.57415567 13.9960352,3.57071039 C14.0013216,3.52362482 14.0013216,3.47621112 13.9960352,3.42920758 C13.9955794,3.42600839 13.9947591,3.42272717 13.9943034,3.41928188 Z" id="Shape"></path>
                        <path d="M13.2222653,9.80008613 L2.65553621,9.80008613 L4.4389577,8.19504492 C4.74301525,7.9213176 4.74301525,7.47894078 4.4389577,7.20529549 C4.134809,6.93156817 3.64326752,6.93156817 3.33920997,7.20529549 L0.231005355,10.0025311 C0.211318175,10.0200851 0.192724728,10.0385414 0.175133868,10.057818 C0.17285526,10.0603609 0.170941228,10.0630678 0.168662619,10.0656107 C0.1552644,10.0808679 0.142230758,10.0963711 0.130199704,10.1126127 C0.124639898,10.1201593 0.119900392,10.1279519 0.114705164,10.1355805 C0.106775606,10.1472285 0.0987549031,10.1587124 0.0915544994,10.1707705 C0.085721261,10.1806139 0.0807994662,10.1907853 0.0755130939,10.2007927 C0.0700444329,10.2112103 0.0642111945,10.2214638 0.0592893996,10.2321274 C0.0540030273,10.2435293 0.0497192429,10.2551773 0.0451620254,10.2668253 C0.0413339627,10.2765866 0.0371413226,10.2861839 0.0337689816,10.2961092 C0.0292117641,10.3096439 0.0256571345,10.3234246 0.0220113605,10.3372052 C0.0198238961,10.3454901 0.0171807099,10.3536108 0.0152666786,10.3619777 C0.0110740385,10.3809262 0.00806627496,10.4000387 0.00560537752,10.4192332 C0.00514965577,10.4225964 0.00432935662,10.4258775 0.00396477922,10.4293227 C-0.00132159307,10.4764067 -0.00132159307,10.5238189 0.00396477922,10.5708209 C0.00432935662,10.574184 0.00514965577,10.5774652 0.00560537752,10.5809103 C0.00806627496,10.6001049 0.0110740385,10.6192174 0.0152666786,10.6381659 C0.0171807099,10.6465327 0.0198238961,10.6546535 0.0220113605,10.6629383 C0.0256571345,10.676719 0.0291206198,10.6904177 0.0337689816,10.7040343 C0.0371413226,10.7139597 0.0413339627,10.723557 0.0451620254,10.7333183 C0.0497192429,10.7448842 0.0540030273,10.7566142 0.0592893996,10.7680161 C0.0642111945,10.7786798 0.0699532885,10.7889333 0.0755130939,10.7993508 C0.0807994662,10.8093582 0.085721261,10.8195297 0.0915544994,10.829373 C0.0986637587,10.8414312 0.106775606,10.8529151 0.114705164,10.864563 C0.119900392,10.8721916 0.124639898,10.8800663 0.130199704,10.8875309 C0.142230758,10.9037724 0.155173256,10.9192757 0.168662619,10.9345329 C0.170941228,10.9370758 0.17285526,10.9397827 0.175133868,10.9423256 C0.192633583,10.9616842 0.211318175,10.9800584 0.231005355,10.9976124 L3.33920997,13.7949301 C3.49087417,13.9314246 3.69002458,14 3.88908384,14 C4.08823424,14 4.2872935,13.9314246 4.4389577,13.7949301 C4.74301525,13.5212028 4.74301525,13.0788259 4.4389577,12.8051807 L2.65553621,11.2000574 L13.2222653,11.2000574 C13.6523754,11.2000574 14,10.8864645 14,10.5001128 C14,10.1137611 13.6523754,9.80008613 13.2222653,9.80008613 Z" id="Shape"></path>
                    </g>
                </g>
            </g>
        </g>
    </g>
</svg>