<?xml version="1.0" encoding="UTF-8"?>
<svg width="17px" height="17px" viewBox="0 0 17 17" version="1.1" xmlns="http://www.w3.org/2000/svg" xmlns:xlink="http://www.w3.org/1999/xlink">
    <!-- Generator: Sketch 51.1 (57501) - http://www.bohemiancoding.com/sketch -->
    <title>Group 11</title>
    <desc>Created with Sketch.</desc>
    <defs></defs>
    <g id="Sprint-4" stroke="none" stroke-width="1" fill="none" fill-rule="evenodd">
        <g id="Pareto-de-contas_01" transform="translate(-96.000000, -415.000000)">
            <g id="Group-11" transform="translate(96.000000, 415.000000)">
                <circle id="Oval-6" fill="#59A1D0" cx="8.5" cy="8.5" r="8"></circle>
                <g id="contabil" transform="translate(5.000000, 3.000000)" fill="#FBFCFE" fill-rule="nonzero">
                    <path d="M4.053393,5.170593 C5.2086628,5.170593 6.1470588,6.099756 6.1470588,7.247789 C6.1470588,8.383433 5.2211747,9.308466 4.0659049,9.324985 L3.8240073,9.324985 L3.8240073,10.357388 C3.8240073,10.629942 3.5987922,10.852942 3.3235294,10.852942 C3.0482666,10.852942 2.8230515,10.629942 2.8230515,10.357388 L2.8230515,9.324985 L1.438396,9.324985 C1.1631332,9.324985 0.9379181,9.101985 0.9379181,8.829431 C0.9379181,8.556876 1.1631332,8.333877 1.438396,8.333877 L4.053393,8.333877 C4.6581371,8.333877 5.1502737,7.846583 5.1502737,7.247789 C5.1502737,6.648995 4.6581371,6.161701 4.053393,6.161701 L2.5978365,6.161701 C1.4425667,6.161701 0.5,5.228408 0.5,4.084505 C0.5,2.940602 1.4425667,2.007309 2.5978365,2.007309 L2.8272222,2.007309 L2.8272222,0.995554 C2.8272222,0.723 3.0524372,0.5 3.3277,0.5 C3.6029629,0.5 3.8281779,0.723 3.8281779,0.995554 L3.8281779,2.007309 L5.1669563,2.007309 C5.4422191,2.007309 5.6674342,2.230308 5.6674342,2.502863 C5.6674342,2.775417 5.4422191,2.998417 5.1669563,2.998417 L2.5978365,2.998417 C1.9930924,2.998417 1.5009558,3.485711 1.5009558,4.084505 C1.5009558,4.683299 1.9930924,5.170593 2.5978365,5.170593 L4.053393,5.170593 Z" id="Combined-Shape"></path>
                </g>
            </g>
        </g>
    </g>
</svg>