<?xml version="1.0" encoding="utf-8"?>
<svg version="1.1" id="Camada_1" xmlns="http://www.w3.org/2000/svg" xmlns:xlink="http://www.w3.org/1999/xlink" x="0px" y="0px"
	 viewBox="0 0 14.8 41.5" style="enable-background:new 0 0 14.8 41.5;" xml:space="preserve">
<g>
	<circle class="st1" cx="7.4" cy="6.8" r="1.8"/>
	<circle class="st1" cx="7.4" cy="34.8" r="1.8"/>
	<circle class="st1" cx="7.4" cy="20.8" r="1.8"/>
	<path class="st0" d="M7.4,29.5c-2.9,0-5.3,2.4-5.3,5.3S4.5,40,7.4,40s5.3-2.4,5.3-5.3S10.3,29.5,7.4,29.5z M7.4,36.5
		c-1,0-1.8-0.8-1.8-1.8S6.4,33,7.4,33s1.8,0.8,1.8,1.8S8.3,36.5,7.4,36.5z"/>
	<path class="st0" d="M7.4,15.5c-2.9,0-5.3,2.4-5.3,5.3S4.5,26,7.4,26s5.3-2.4,5.3-5.3S10.3,15.5,7.4,15.5z M7.4,22.5
		c-1,0-1.8-0.8-1.8-1.8S6.4,19,7.4,19s1.8,0.8,1.8,1.8S8.3,22.5,7.4,22.5z"/>
	<path class="st0" d="M7.4,12c2.9,0,5.3-2.4,5.3-5.3s-2.4-5.3-5.3-5.3S2.1,3.9,2.1,6.8S4.5,12,7.4,12z M7.4,5c1,0,1.8,0.8,1.8,1.8
		S8.3,8.5,7.4,8.5S5.6,7.7,5.6,6.8S6.4,5,7.4,5z"/>
</g>
</svg>
