<?xml version="1.0" encoding="UTF-8"?>
<svg width="14px" height="14px" viewBox="0 0 14 14" version="1.1" xmlns="http://www.w3.org/2000/svg" xmlns:xlink="http://www.w3.org/1999/xlink">
    <!-- Generator: Sketch 51.1 (57501) - http://www.bohemiancoding.com/sketch -->
    <title>Group 2</title>
    <desc>Created with Sketch.</desc>
    <defs></defs>
    <g id="Sprint-4" stroke="none" stroke-width="1" fill="none" fill-rule="evenodd">
        <g id="02---Custeio-funcionários" transform="translate(-99.000000, -346.000000)" fill="#333333" fill-rule="nonzero">
            <g id="Group-2" transform="translate(99.000000, 346.000000)">
                <path d="M13.9944808,3.60345649 C13.9920965,3.5848591 13.9891824,3.56634119 13.9851203,3.54798223 C13.9832658,3.53987568 13.9807049,3.53200755 13.9785855,3.52398047 C13.9750532,3.51070797 13.9716976,3.497356 13.9671939,3.48424246 C13.9639266,3.47454638 13.9598644,3.46524769 13.9561555,3.45579004 C13.9517402,3.44458392 13.9475897,3.43329833 13.9425562,3.42225116 C13.9377877,3.4118398 13.932136,3.40182582 13.9267493,3.39165289 C13.9216275,3.38203629 13.9169472,3.37226074 13.9112955,3.3628031 C13.9043193,3.35096117 13.8963716,3.33975505 13.8886889,3.32838998 C13.8837437,3.32107818 13.87924,3.31360744 13.8739416,3.3064546 C13.8621968,3.29055939 13.8494806,3.27537947 13.8363228,3.26043798 C13.8342917,3.25813317 13.8325256,3.25566942 13.8304945,3.25336461 C13.8134513,3.23460827 13.7954366,3.21672617 13.776274,3.1997183 L10.7649138,0.489506448 C10.470233,0.224374437 9.99399282,0.224374437 9.69940035,0.489506448 C9.40480789,0.754717936 9.40480789,1.18333213 9.69940035,1.44846414 L11.4273053,3.00357147 L1.18951059,3.00357147 C0.772789417,3.00357147 0.435986159,3.30740831 0.435986159,3.68174038 C0.435986159,4.05607244 0.772789417,4.35990928 1.18951059,4.35990928 L11.4273053,4.35990928 L9.69940035,5.91501661 C9.40480789,6.18014863 9.40480789,6.60884229 9.69940035,6.8739743 C9.84634336,7.0062224 10.0392944,7.07266436 10.2321571,7.07266436 C10.4250197,7.07266436 10.6179707,7.0062224 10.7649138,6.8739743 L13.776274,4.16376245 C13.7953483,4.14675458 13.8134513,4.12887248 13.8304945,4.11011614 C13.8326139,4.10781133 13.8342917,4.10534758 13.8363228,4.10304277 C13.8494806,4.08810128 13.8621968,4.07292136 13.8739416,4.05702615 C13.87924,4.04987331 13.8837437,4.04240257 13.8886889,4.03509077 C13.8964599,4.0237257 13.9043193,4.01244011 13.9112955,4.00067765 C13.9169472,3.99122001 13.9216275,3.98144446 13.9267493,3.97182786 C13.932136,3.96165493 13.9376993,3.95172042 13.9425562,3.94122959 C13.947678,3.93018242 13.9517402,3.91889683 13.9562438,3.90761123 C13.9599527,3.89815359 13.9640149,3.88885489 13.9672822,3.87923829 C13.9716976,3.86612475 13.9751416,3.85277278 13.9786738,3.8394208 C13.9807932,3.83139373 13.9833541,3.8235256 13.9852086,3.81541905 C13.9892707,3.79706008 13.9921848,3.77854217 13.9945691,3.75994478 C13.9950106,3.75668627 13.9958054,3.75350722 13.9961586,3.75016923 C14.0012805,3.70454999 14.0012805,3.65861285 13.9961586,3.61307309 C13.9957171,3.60997353 13.9949223,3.60679449 13.9944808,3.60345649 Z" id="Shape"></path>
                <path d="M13.2464854,9.78555058 L3.00882401,9.78555058 L4.73670642,8.23049335 C5.03129505,7.96529041 5.03129505,7.53669003 4.73670642,7.27156657 C4.44202948,7.00636362 3.96579553,7.00636362 3.6712069,7.27156657 L0.659797576,9.98169108 C0.640723492,9.9986984 0.622709079,10.0165799 0.605666032,10.0352562 C0.603458383,10.0377199 0.601603958,10.0403425 0.599396309,10.0428062 C0.586415336,10.0575882 0.573787586,10.0726087 0.562131201,10.0883445 C0.556744538,10.095656 0.552152629,10.103206 0.54711919,10.110597 C0.539436573,10.1218823 0.53166565,10.1330085 0.52468948,10.1446911 C0.5190379,10.154228 0.514269379,10.1640827 0.509147634,10.1737784 C0.503849278,10.1838716 0.498197697,10.1938057 0.493429176,10.2041373 C0.488307431,10.2151841 0.484157052,10.2264693 0.479741755,10.2377546 C0.476032905,10.2472119 0.471970832,10.2565103 0.468703512,10.2661266 C0.464288214,10.2792397 0.460844283,10.2925913 0.457312045,10.3059428 C0.455192702,10.3139696 0.45263183,10.3218375 0.450777405,10.3299438 C0.446715331,10.3483022 0.443801235,10.3668195 0.441416975,10.3854163 C0.440975445,10.3886747 0.440180692,10.3918536 0.439827468,10.3951915 C0.434705723,10.4408093 0.434705723,10.4867449 0.439827468,10.5322832 C0.440180692,10.5355416 0.440975445,10.5387206 0.441416975,10.5420585 C0.443801235,10.5606552 0.446715331,10.5791726 0.450777405,10.5975309 C0.45263183,10.6056372 0.455192702,10.6135051 0.457312045,10.6215319 C0.460844283,10.6348835 0.464199908,10.6481555 0.468703512,10.6613481 C0.471970832,10.6709644 0.476032905,10.6802628 0.479741755,10.6897201 C0.484157052,10.7009259 0.488307431,10.7122906 0.493429176,10.7233374 C0.498197697,10.733669 0.503760972,10.7436032 0.509147634,10.7536963 C0.514269379,10.763392 0.5190379,10.7732468 0.52468948,10.7827836 C0.531577344,10.7944662 0.539436573,10.8055925 0.54711919,10.8168777 C0.552152629,10.8242687 0.556744538,10.8318982 0.562131201,10.8391303 C0.573787586,10.854866 0.58632703,10.8698865 0.599396309,10.8846685 C0.601603958,10.8871322 0.603458383,10.8897549 0.605666032,10.8922185 C0.622620773,10.9109743 0.640723492,10.9287763 0.659797576,10.9457836 L3.6712069,13.6559876 C3.81814799,13.7882315 4.01109648,13.8546713 4.20395666,13.8546713 C4.39690515,13.8546713 4.58976533,13.7882315 4.73670642,13.6559876 C5.03129505,13.3907847 5.03129505,12.9621843 4.73670642,12.6970608 L3.00882401,11.1419241 L13.2464854,11.1419241 C13.6632011,11.1419241 14,10.8380971 14,10.4637771 C14,10.0894571 13.6632011,9.78555058 13.2464854,9.78555058 Z" id="Shape"></path>
            </g>
        </g>
    </g>
</svg>