<?xml version="1.0" encoding="UTF-8"?>
<svg width="227px" height="212px" viewBox="0 0 227 212" version="1.1" xmlns="http://www.w3.org/2000/svg" xmlns:xlink="http://www.w3.org/1999/xlink">
    <!-- Generator: Sketch 46.2 (44496) - http://www.bohemiancoding.com/sketch -->
    <title>Page 1</title>
    <desc>Created with Sketch.</desc>
    <defs></defs>
    <g id="Page-1" stroke="none" stroke-width="1" fill="none" fill-rule="evenodd">
        <g id="Icons-by-Sunako---Sketch-App-Source" transform="translate(-1472.000000, -262.000000)">
            <g id="Page-1" transform="translate(1472.000000, 261.000000)">
                <path d="M125,189 C125.315169,187.108988 126.086995,185.934882 128,185.934882 C130.390952,185.934882 131.371872,188.089957 131,190.456386 C128.911422,203.794885 117.778747,213 103.880501,213 C89.9810357,213 79.0897968,203.794885 77,190.456386 C76.6293476,188.089957 77.6090481,185.934882 80,185.934882 C81.9142246,185.934882 82.6903102,188.108811 83,190 C84.5740535,199.59033 93.8643513,207 103.880501,207 C113.895431,207 123,201 125,189 Z M184,120.454912 L184,129.654796 C197.700727,131.625395 207,143.033295 207,157.286846 L207,161.690162 C207,170.643987 201.538252,177.195999 192.620648,177.195999 L131,177.195999 L77,177.195999 L15,177.195999 C6.09214973,177.195999 0,170.615888 0,161.690162 L0,157.634125 C0,143.395234 10.3175615,131.62906 24,129.654796 L24,82.0354502 C24,37.3811653 58.7029583,1.2614366 103.266595,0.99999322 C129.906017,0.843615872 153.203166,13.0411396 168,32.8546383 C169.802053,35.2662702 168.516049,38.3035473 165.509375,38.3035473 C164.340113,38.3035473 163.70107,36.7780537 163,35.8410113 C149.494353,17.8136351 127.489461,6.7723807 103.266595,6.97273917 C62.8069583,7.30626274 30,41.4934009 30,82.0354502 L30,129.654796 C30,133.285683 27.6370267,135.85324 24,136.382235 C13.7192727,137.878815 6.31660535,147.225257 6.31660535,157.634125 L6.31660535,161.677945 C6.31660535,166.541525 10.1449412,171.223253 15,171.223253 L81,171.223253 L127,171.223253 L192.620648,171.223253 C197.48668,171.223253 201.446809,166.568402 201.446809,161.690162 L201.446809,156.291388 C201.446809,145.831209 193.352663,136.819829 183,135.386777 C179.445882,134.894433 178,133.264914 178,129.654796 C178.165137,125.596212 178.165137,122.529584 178,120.454912 C178,118.364587 178.988199,116.378604 181.097504,116.489778 C183.075129,116.593623 184,118.470875 184,120.454912 Z" id="Combined-Shape" fill="#333333"></path>
                <path d="M119.710028,55.7661682 C121.393814,55.7661682 122.758156,57.1098994 122.758156,58.7655683 C122.758156,60.4224369 121.393814,61.7661682 119.710028,61.7661682 L89.2214289,61.7661682 C87.5376428,61.7661682 86.1720813,60.4224369 86.1720813,58.7655683 C86.1720813,57.1098994 87.5376428,55.7661682 89.2214289,55.7661682 L119.710028,55.7661682 Z M226.334167,54.0525273 L226.501204,100.085073 C226.519493,105.131618 222.402081,109.3068 217.38852,109.325209 L138.120113,109.6173 C133.105333,109.635709 128.95744,105.491209 128.94037,100.444664 L128.772113,54.4108909 C128.753825,49.3643455 132.871236,45.1903909 137.886017,45.1719818 L217.153204,44.8798909 C222.169204,44.8614818 226.315878,49.0047545 226.334167,54.0525273 Z M210.361974,96.2314364 C211.566595,95.0471182 211.58976,93.1043455 210.413183,91.8905727 C210.383921,91.8598909 210.35222,91.8304364 210.321739,91.8009818 L195.212776,76.7043 L210.168113,62.4556636 C211.387365,61.2860727 211.433696,59.3433 210.272969,58.1148 C209.111022,56.8875273 207.180948,56.8408909 205.961696,58.0092545 C205.960477,58.0104818 205.960477,58.0104818 205.959258,58.0104818 L180.418381,82.3693909 C179.200349,83.5291636 176.065653,83.5377545 174.845183,82.3890273 L149.175065,58.2203455 C148.575194,57.6386182 147.765611,57.3305727 146.934081,57.3661636 C145.251514,57.4361182 143.943258,58.8646636 144.012755,60.5595273 C144.045675,61.3744364 144.400477,62.1439364 145.000349,62.6949818 L160.056883,76.8331636 L145.057653,92.0415273 C143.840841,93.2123455 143.796948,95.1551182 144.960113,96.3811636 C146.123279,97.6059818 148.053354,97.6513909 149.271386,96.4793455 C149.301867,96.4498909 149.332349,96.4192091 149.361611,96.3885273 L164.503493,81.0365727 L170.668028,86.8636636 C174.576948,90.5454818 180.69637,90.5135727 184.579686,86.8133455 L190.750317,80.8917545 L206.050702,96.1798909 C207.227279,97.3924364 209.157354,97.4157545 210.361974,96.2314364 Z M119.710028,74.1794318 C121.393814,74.1794318 122.758156,75.5219633 122.758156,77.1788319 C122.758156,78.8357006 121.393814,80.1794318 119.710028,80.1794318 L95.3189048,80.1794318 C93.6351187,80.1794318 92.2707765,78.8357006 92.2707765,77.1788319 C92.2707765,75.5219633 93.6351187,74.1794318 95.3189048,74.1794318 L119.710028,74.1794318 Z M119.710028,92.5926955 C121.393814,92.5926955 122.758156,93.9352269 122.758156,95.5920956 C122.758156,97.2489642 121.393814,98.5926955 119.710028,98.5926955 L101.416381,98.5926955 C99.7325947,98.5926955 98.3682524,97.2489642 98.3682524,95.5920956 C98.3682524,93.9352269 99.7325947,92.5926955 101.416381,92.5926955 L119.710028,92.5926955 Z" id="Combined-Shape" fill="#59A1D0"></path>
            </g>
        </g>
    </g>
</svg>