<?xml version="1.0" encoding="UTF-8"?>
<svg viewBox="0 0 90 79" version="1.1" xmlns="http://www.w3.org/2000/svg" xmlns:xlink="http://www.w3.org/1999/xlink">
    <!-- Generator: Sketch 46.2 (44496) - http://www.bohemiancoding.com/sketch -->
    <title>:D</title>
    <desc>Created with Sketch.</desc>
    <defs></defs>
    <g id="Formação-de-Equipes" stroke="none" stroke-width="1" fill="none" fill-rule="evenodd">
        <g id="FE-4b-Modal-impedimento-salvar" transform="translate(-474.000000, -217.000000)">
            <g id="modal-cadastrar-agenda" transform="translate(350.000000, 101.000000)">
                <g id=":D" transform="translate(124.000000, 116.000000)">
                    <path d="M55.19874,32.4946954 L53.2556314,30.5515867 C52.7877055,30.0836609 52.7815028,29.331206 53.2490067,28.8637021 C53.7132738,28.399435 54.4597435,28.3931789 54.9368913,28.8703268 L56.88,30.8134354 L58.8231087,28.8703268 C59.2910345,28.4024009 60.0434894,28.3961982 60.5109933,28.8637021 C60.9752604,29.3279692 60.9815165,30.0744389 60.5043686,30.5515867 L58.56126,32.4946954 L60.5043686,34.4378041 C60.9722945,34.9057299 60.9784972,35.6581848 60.5109933,36.1256887 C60.0467262,36.5899558 59.3002565,36.5962119 58.8231087,36.119064 L56.88,34.1759554 L54.9368913,36.119064 C54.4689655,36.5869899 53.7165106,36.5931926 53.2490067,36.1256887 C52.7847396,35.6614216 52.7784835,34.9149519 53.2556314,34.4378041 L55.19874,32.4946954 Z M20.43874,32.4946954 L18.4956314,30.5515867 C18.0277055,30.0836609 18.0215028,29.331206 18.4890067,28.8637021 C18.9532738,28.399435 19.6997435,28.3931789 20.1768913,28.8703268 L22.12,30.8134354 L24.0631087,28.8703268 C24.5310345,28.4024009 25.2834894,28.3961982 25.7509933,28.8637021 C26.2152604,29.3279692 26.2215165,30.0744389 25.7443686,30.5515867 L23.80126,32.4946954 L25.7443686,34.4378041 C26.2122945,34.9057299 26.2184972,35.6581848 25.7509933,36.1256887 C25.2867262,36.5899558 24.5402565,36.5962119 24.0631087,36.119064 L22.12,34.1759554 L20.1768913,36.119064 C19.7089655,36.5869899 18.9565106,36.5931926 18.4890067,36.1256887 C18.0247396,35.6614216 18.0184835,34.9149519 18.4956314,34.4378041 L20.43874,32.4946954 Z M76.63,45.1755521 C76.63,44.5189793 77.1605426,43.9867218 77.815,43.9867218 C78.4694574,43.9867218 79,44.5189793 79,45.1755521 L79,66.5729318 C79,69.1994955 76.8754763,71.3298192 74.2589648,71.3298192 L48.1270451,71.3298192 L49.8028881,70.6334185 L42.8520087,77.6067655 C41.0005937,79.4641649 37.9998979,79.4646581 36.1479913,77.6067655 L29.1971119,70.6334185 L30.8729549,71.3298192 L4.7410352,71.3298192 C2.12264983,71.3298192 0,69.1994009 0,66.5729318 L0,4.75688734 C0,2.13032364 2.12452369,0 4.7410352,0 L74.2589648,0 C76.8773502,0 79,2.13041832 79,4.75688734 L79,11.0957496 C79,11.7523225 78.4694574,12.28458 77.815,12.28458 C77.1605426,12.28458 76.63,11.7523225 76.63,11.0957496 L76.63,4.75688734 C76.63,3.44358036 75.5684514,2.37766064 74.2589648,2.37766064 L4.7410352,2.37766064 C3.43402985,2.37766064 2.37,3.44287672 2.37,4.75688734 L2.37,66.5729318 C2.37,67.8862388 3.43154862,68.9521585 4.7410352,68.9521585 L30.8729549,68.9521585 L37.8238343,75.9255055 C38.75035,76.855016 40.2504449,76.8542185 41.1761657,75.9255055 L48.1270451,68.9521585 L74.2589648,68.9521585 C75.5659702,68.9521585 76.63,67.8869425 76.63,66.5729318 L76.63,45.1755521 Z M28.045,49.9308734 C28.045,49.2743006 28.5775832,48.7420431 29.2284983,48.7420431 L49.7715017,48.7420431 C50.4251298,48.7420431 50.955,49.2697231 50.955,49.9308734 C50.955,50.5874463 50.4224168,51.1197037 49.7715017,51.1197037 L29.2284983,51.1197037 C28.5748702,51.1197037 28.045,50.5920238 28.045,49.9308734 Z" id="Shape" fill="#3B4340" fill-rule="nonzero"></path>
                    <path d="M81.5,40 C85.3408894,40 90,38.4358174 90,31.5322581 C90,24.6286987 82.2727273,15 81.5,15 C80.7272727,15 73,24.6286987 73,31.5322581 C73,38.4358174 77.6591106,40 81.5,40 Z" id="Oval-123" fill="#59A1D0"></path>
                </g>
            </g>
        </g>
    </g>
</svg>