<?xml version="1.0" encoding="UTF-8"?>
<svg width="25px" height="31px" viewBox="0 0 25 31" version="1.1" xmlns="http://www.w3.org/2000/svg" xmlns:xlink="http://www.w3.org/1999/xlink">
    <!-- Generator: Sketch 49 (51002) - http://www.bohemiancoding.com/sketch -->
    <title>padlock (1)</title>
    <desc>Created with Sketch.</desc>
    <defs></defs>
    <g id="Login-+-Estratégia-de-Análise" stroke="none" stroke-width="1" fill="none" fill-rule="evenodd">
        <g id="padlock-(1)" fill="#000000" fill-rule="nonzero">
            <path d="M21.3235294,11.3828125 L19.1153799,11.3828125 L19.1153799,6.40404297 C19.1153799,2.87282812 16.1466912,0 12.4977328,0 C8.84877451,0 5.88008578,2.87282812 5.88008578,6.40404297 L5.88008578,11.3828125 L3.67647059,11.3828125 C1.64926471,11.3828125 0,13.0124922 0,15.015625 L0,27.3671875 C0,29.3703203 1.64926471,31 3.67647059,31 L21.3235294,31 C23.3507353,31 25,29.3703203 25,27.3671875 L25,15.015625 C25,13.0124922 23.3507353,11.3828125 21.3235294,11.3828125 Z M8.33106618,6.40404297 C8.33106618,4.20825 10.2002451,2.421875 12.4977328,2.421875 C14.7952206,2.421875 16.6643995,4.20825 16.6643995,6.40404297 L16.6643995,11.3828125 L8.33106618,11.3828125 L8.33106618,6.40404297 Z M22.5490196,27.3671875 C22.5490196,28.0348984 21.9992647,28.578125 21.3235294,28.578125 L3.67647059,28.578125 C3.00073529,28.578125 2.45098039,28.0348984 2.45098039,27.3671875 L2.45098039,15.015625 C2.45098039,14.3479141 3.00073529,13.8046875 3.67647059,13.8046875 L21.3235294,13.8046875 C21.9992647,13.8046875 22.5490196,14.3479141 22.5490196,15.015625 L22.5490196,27.3671875 Z" id="Shape"></path>
            <path d="M12.5,17 C11.1192568,17 10,18.0039394 10,19.2424242 C10,20.0332121 10.4567568,20.7278788 11.1461486,21.1271515 L11.1461486,23.7878788 C11.1461486,24.4572727 11.7511486,25 12.4975,25 C13.2437838,25 13.8488514,24.4572727 13.8488514,23.7878788 L13.8488514,21.13 C14.5410135,20.7312121 15,20.0351515 15,19.2424242 C15,18.0039394 13.8807432,17 12.5,17 Z" id="Shape"></path>
        </g>
    </g>
</svg>