<?xml version="1.0" encoding="UTF-8"?>
<svg viewBox="0 0 16 16" version="1.1" xmlns="http://www.w3.org/2000/svg" xmlns:xlink="http://www.w3.org/1999/xlink">
    <g id="Sprint-4" stroke="none" stroke-width="1" fill="none" fill-rule="evenodd">
        <g id="Pareto-de-contas_01" transform="translate(-31.000000, -433.000000)" fill="#333333" fill-rule="nonzero">
            <g id="Group-8" transform="translate(31.000000, 433.000000)">
                <path d="M13.6578723,2.34212766 C15.1693617,3.85361702 16,5.86212766 16,8 C16,10.1378723 15.1693617,12.146383 13.6578723,13.6578723 C12.146383,15.1693617 10.1378723,16 8,16 C5.86212766,16 3.85361702,15.1693617 2.34212766,13.6578723 C0.830638298,12.146383 0,10.1378723 0,8 C0,5.86212766 0.830638298,3.85361702 2.34212766,2.34212766 C3.85361702,0.830638298 5.86212766,0 8,0 C10.1378723,0 12.146383,0.830638298 13.6578723,2.34212766 Z M8,15.1829787 C11.9591489,15.1829787 15.1829787,11.9591489 15.1829787,8 C15.1829787,4.04085106 11.9591489,0.817021277 8,0.817021277 C4.04085106,0.817021277 0.817021277,4.04085106 0.817021277,8 C0.817021277,11.9591489 4.04085106,15.1829787 8,15.1829787 Z" id="Combined-Shape"></path>
                <path d="M12.5,14 C12.5,14.2761424 12.2761424,14.5 12,14.5 C11.7238576,14.5 11.5,14.2761424 11.5,14 L11.5,13 C11.5,12.1715729 10.8284271,11.5 10,11.5 L6,11.5 C5.17157288,11.5 4.5,12.1715729 4.5,13 L4.5,14 C4.5,14.2761424 4.27614237,14.5 4,14.5 C3.72385763,14.5 3.5,14.2761424 3.5,14 L3.5,13 C3.5,11.6192881 4.61928813,10.5 6,10.5 L10,10.5 C11.3807119,10.5 12.5,11.6192881 12.5,13 L12.5,14 Z M8,9.5 C6.61928813,9.5 5.5,8.38071187 5.5,7 C5.5,5.61928813 6.61928813,4.5 8,4.5 C9.38071187,4.5 10.5,5.61928813 10.5,7 C10.5,8.38071187 9.38071187,9.5 8,9.5 Z M8,8.5 C8.82842712,8.5 9.5,7.82842712 9.5,7 C9.5,6.17157288 8.82842712,5.5 8,5.5 C7.17157288,5.5 6.5,6.17157288 6.5,7 C6.5,7.82842712 7.17157288,8.5 8,8.5 Z" id="Combined-Shape"></path>
            </g>
        </g>
    </g>
</svg>
