<?xml version="1.0" encoding="utf-8"?>
<!-- Generator: Adobe Illustrator 22.0.1, SVG Export Plug-In . SVG Version: 6.00 Build 0)  -->
<svg version="1.1" id="Layer_1" xmlns="http://www.w3.org/2000/svg" xmlns:xlink="http://www.w3.org/1999/xlink" x="0px" y="0px"
	 viewBox="0 0 19 17" style="enable-background:new 0 0 19 17;" xml:space="preserve">
<g id="Sprint-1">
	<g>
		<path class="st1" d="M15.3,8.5h-5.2c-0.2-0.4-0.5-0.7-0.8-1C8.3,6.5,7,6,5.6,6S2.9,6.5,1.9,7.5s-1.5,2.3-1.5,3.7s0.5,2.7,1.5,3.7
			c1,1,2.3,1.5,3.7,1.5s2.7-0.5,3.7-1.5c1-1,1.5-2.3,1.5-3.7c0-0.5-0.1-0.9-0.2-1.3h4.6c1.1,0,2,0.9,2,2v1.3c0,0.4,0.3,0.7,0.7,0.7
			c0.4,0,0.7-0.3,0.7-0.7v-1.3C18.6,10,17.1,8.5,15.3,8.5z M9.9,11.2c0,2.3-1.9,4.2-4.2,4.2s-4.2-1.9-4.2-4.2C1.4,8.9,3.3,7,5.6,7
			C7,7,8.2,7.7,9,8.7c0.3,0.4,0.5,0.8,0.6,1.2C9.8,10.3,9.9,10.8,9.9,11.2z"/>
		<path class="st1" d="M11.6,7.2c1.8,0,3.3-1.5,3.3-3.3s-1.5-3.3-3.3-3.3S8.3,2,8.3,3.9S9.8,7.2,11.6,7.2z M11.6,1.9
			c1.1,0,2,0.9,2,2c0,1.1-0.9,2-2,2s-2-0.9-2-2C9.6,2.8,10.5,1.9,11.6,1.9z"/>
		<path class="st1" d="M7.3,12c0-0.4-0.2-0.8-0.6-1c-0.2-0.2-0.5-0.3-0.8-0.3H5.3c-0.2,0-0.3-0.1-0.3-0.3s0.1-0.3,0.3-0.3h1.3
			c0.3,0,0.5-0.2,0.5-0.5c0-0.3-0.2-0.5-0.5-0.5H6.1V8.8c0-0.3-0.2-0.5-0.5-0.5S5.1,8.5,5.1,8.8v0.3c-0.7,0.1-1.2,0.6-1.2,1.3
			c0,0.7,0.6,1.3,1.3,1.3H6c0.2,0,0.3,0.1,0.3,0.3S6.2,12.3,6,12.3H4.7c-0.3,0-0.5,0.2-0.5,0.5c0,0.3,0.2,0.5,0.5,0.5h0.5v0.3
			c0,0.3,0.2,0.5,0.5,0.5s0.5-0.2,0.5-0.5v-0.3c0.2,0,0.3-0.1,0.5-0.2C7,12.9,7.3,12.5,7.3,12z"/>
	</g>
</g>
</svg>
