<?xml version="1.0" encoding="UTF-8"?>
<svg viewBox="0 0 28 21" version="1.1" xmlns="http://www.w3.org/2000/svg" xmlns:xlink="http://www.w3.org/1999/xlink">
    <g transform="translate(9.000000, 0.000000)">
        <path d="M17.5,17.5 C17.5,17.9602373 17.126904,18.3333333 16.6666667,18.3333333 C16.2064294,18.3333333 15.8333333,17.9602373 15.8333333,17.5 L15.8333333,15.8333333 C15.8333333,14.4526215 14.7140452,13.3333333 13.3333333,13.3333333 L6.66666667,13.3333333 C5.28595479,13.3333333 4.16666667,14.4526215 4.16666667,15.8333333 L4.16666667,17.5 C4.16666667,17.9602373 3.79357062,18.3333333 3.33333333,18.3333333 C2.87309604,18.3333333 2.5,17.9602373 2.5,17.5 L2.5,15.8333333 C2.5,13.5321469 4.36548021,11.6666667 6.66666667,11.6666667 L13.3333333,11.6666667 C15.6345198,11.6666667 17.5,13.5321469 17.5,15.8333333 L17.5,17.5 Z M10,10 C7.69881354,10 5.83333333,8.13451979 5.83333333,5.83333333 C5.83333333,3.53214688 7.69881354,1.66666667 10,1.66666667 C12.3011865,1.66666667 14.1666667,3.53214688 14.1666667,5.83333333 C14.1666667,8.13451979 12.3011865,10 10,10 Z M10,8.33333333 C11.3807119,8.33333333 12.5,7.21404521 12.5,5.83333333 C12.5,4.45262146 11.3807119,3.33333333 10,3.33333333 C8.61928813,3.33333333 7.5,4.45262146 7.5,5.83333333 C7.5,7.21404521 8.61928813,8.33333333 10,8.33333333 Z" id="path-1"></path>
    </g>
    <g id="Sprint-1" stroke="none" stroke-width="1" fill="none" fill-rule="evenodd">
        <g id="01---Resultado-da-torre" transform="translate(-579.000000, -561.000000)">
            <g id="Terceiros" transform="translate(580.000000, 560.000000)">
                <g id="Group-11">
                    <path d="M12.0033341,7 L0.996665933,7 C0.447124579,7 0,7.44449913 0,7.99090822 L0,18.4684385
                      C0,18.5273095 0.0235140555,18.5837469 0.0653993264,18.6253914 L2.3883405,20.935004
                      C2.43019827,20.9766211 2.48698952,21 2.54617344,21 L12.0033341,21 C12.5528754,21 13,20.5555009
                      13,20.0090918 L13,7.99090822 C13,7.44449913 12.5528754,7 12.0033341,7 Z"
                    id="Shape" stroke="#999999" stroke-width="1.5" fill="#FFFFFF" fill-rule="nonzero" style="fill:#FFFFFF;"></path>
                    <path d="M7.33172879,13.7515279 L6.17178354,13.7515279 C5.68985787,13.7515279 5.29767008,13.3601218
                      5.29767008,12.8791567 C5.29767008,12.3981916 5.68985787,12.0067855 6.17178354,12.0067855
                      L8.21913675,12.0067855 C8.43849602,12.0067855 8.61797179,11.8276674 8.61797179,11.6087454
                      C8.61797179,11.3898233 8.43849602,11.2107053 8.21913675,11.2107053 L7.15225302,11.2107053
                      L7.15225302,10.3980401 C7.15225302,10.179118 6.97277725,10 6.75341798,10 C6.53405871,10
                      6.35458294,10.179118 6.35458294,10.3980401 L6.35458294,11.2107053 L6.17178354,11.2107053
                      C5.25113933,11.2107053 4.5,11.9603475 4.5,12.8791567 C4.5,13.7979659 5.25113933,14.5476081
                      6.17178354,14.5476081 L7.33172879,14.5476081 C7.81365446,14.5476081 8.20584225,14.9390142
                      8.20584225,15.4199793 C8.20584225,15.9009444 7.81365446,16.2923505 7.33172879,16.2923505
                      L5.2478157,16.2923505 C5.02845643,16.2923505 4.84898066,16.4714686 4.84898066,16.6903906
                      C4.84898066,16.9093127 5.02845643,17.0884307 5.2478157,17.0884307 L6.35125931,17.0884307
                      L6.35125931,17.9176809 C6.35125931,18.136603 6.53073508,18.315721 6.75009435,18.315721
                      C6.96945362,18.315721 7.14892939,18.136603 7.14892939,17.9176809 L7.14892939,17.0884307
                      L7.34169966,17.0884307 C7.34502329,17.0884307 7.34834691,17.0884307 7.35167054,17.0884307
                      C8.26234388,17.0751627 9.0001887,16.3321546 9.0001887,15.4199793 C9.0001887,14.4978531
                      8.252373,13.7515279 7.33172879,13.7515279 Z"
                      id="Shape" stroke="#333333" stroke-width="0.5" fill="#333333" opacity="0.5"></path>
                </g>
            </g>
        </g>
    </g>
</svg>