<?xml version="1.0" encoding="utf-8"?>
<!-- Generator: Adobe Illustrator 21.1.0, SVG Export Plug-In . SVG Version: 6.00 Build 0)  -->
<svg version="1.1" id="Layer_1" xmlns="http://www.w3.org/2000/svg" xmlns:xlink="http://www.w3.org/1999/xlink" x="0px" y="0px"
	 viewBox="0 0 23.5 23.5" style="enable-background:new 0 0 23.5 23.5;" xml:space="preserve">
<desc>Created with Sketch.</desc>
<g>
	<path d="M15.8,10.8h-3v-3c0-0.6-0.4-1-1-1s-1,0.4-1,1v3h-3c-0.6,0-1,0.4-1,1s0.4,1,1,1h3v3c0,0.6,0.4,1,1,1s1-0.4,1-1v-3h3
		c0.6,0,1-0.4,1-1S16.3,10.8,15.8,10.8z"/>
	<path d="M11.8,0.8c-6.1,0-11,4.9-11,11s4.9,11,11,11s11-4.9,11-11S17.8,0.8,11.8,0.8z M11.8,20.8c-5,0-9-4-9-9s4-9,9-9s9,4,9,9
		S16.7,20.8,11.8,20.8z"/>
</g>
</svg>
