<?xml version="1.0" encoding="UTF-8"?>
<svg viewBox="0 0 23 41" version="1.1" xmlns="http://www.w3.org/2000/svg" xmlns:xlink="http://www.w3.org/1999/xlink">
    <g id="Sprint-4" stroke="none" stroke-width="1" fill="none" fill-rule="evenodd">
        <g id="Identificação-de-Lacuna-(Preço-e-Consumo)" transform="translate(-427.000000, -190.000000)" fill="#000000" fill-rule="nonzero" stroke="#FFFFFF">
            <g id="price-tag" transform="translate(428.000000, 191.000000)">
                <path d="M19.8527719,13.9251534 C20.7155917,14.6907975 21.2142857,15.791411 21.2142857,16.9478528 L21.2142857,34.1269939 C21.2142857,36.7748466 19.0770256,38.9282209 16.4489872,38.9282209 L4.77321429,38.9282209 C2.14517591,38.9282209 0.00791577825,36.7748466 0.00791577825,34.1269939 L0.00791577825,16.9478528 C0.00791577825,15.791411 0.506609808,14.6907975 1.36942964,13.9251534 L4.82070896,10.8785276 C4.43283582,9.87361963 4.22702559,8.7809816 4.22702559,7.64846626 C4.22702559,5.63865031 4.86820362,3.74846626 6.03182303,2.31288344 C7.2429371,0.821472393 8.86567164,0 10.6071429,0 C14.1217484,0 16.9872601,3.42944785 16.9872601,7.64846626 C16.9872601,8.17484663 16.5598081,8.60552147 16.0373667,8.60552147 C15.5149254,8.60552147 15.0874733,8.17484663 15.0874733,7.64846626 C15.0874733,4.48220859 13.0768657,1.91411043 10.6071429,1.91411043 C9.45143923,1.91411043 8.34323028,2.48834356 7.50415778,3.52515337 C6.61759062,4.61779141 6.12681237,6.08527607 6.12681237,7.64846626 C6.12681237,8.29447853 6.21388593,8.91656442 6.37220149,9.50674847 L9.12689232,7.07423313 C9.53851279,6.71533742 10.0609542,6.51595092 10.6071429,6.51595092 C11.1533316,6.51595092 11.6757729,6.71533742 12.0873934,7.07423313 L19.8527719,13.9251534 Z M19.3144989,34.1269939 L19.3065832,34.1269939 L19.3065832,16.9478528 C19.3065832,16.3417178 19.0453625,15.7595092 18.5941631,15.3607362 L10.8287846,8.50981595 C10.7496269,8.43803681 10.6625533,8.42208589 10.5992271,8.42208589 C10.5359009,8.42208589 10.4488273,8.43803681 10.3696695,8.50981595 L7.1716951,11.3331288 C7.27460021,11.4846626 7.38542111,11.6282209 7.496242,11.7717791 C8.3353145,12.808589 9.43560768,13.3828221 10.5992271,13.3828221 C11.1216684,13.3828221 11.5491205,13.8134969 11.5491205,14.3398773 C11.5491205,14.8662577 11.1216684,15.2969325 10.5992271,15.2969325 C8.85775586,15.2969325 7.23502132,14.4754601 6.02390725,12.9840491 C5.92891791,12.8564417 5.83392857,12.7288344 5.73893923,12.601227 L2.61220682,15.3607362 C2.16100746,15.7595092 1.89978678,16.3417178 1.89978678,16.9478528 L1.89978678,34.1269939 C1.89978678,35.7220859 3.18214286,37.0141104 4.76529851,37.0141104 L16.4489872,37.0141104 C18.0321429,37.0141104 19.3144989,35.7220859 19.3144989,34.1269939 Z" id="Shape" stroke-width="0.5"></path>
                <path d="M11.6520256,24.2055215 L9.56226013,24.2055215 C8.82609275,24.2055215 8.2244936,23.5993865 8.2244936,22.8576687 C8.2244936,22.1159509 8.82609275,21.509816 9.56226013,21.509816 L13.243097,21.509816 C13.7655384,21.509816 14.1929904,21.0791411 14.1929904,20.5527607 C14.1929904,20.0263804 13.7655384,19.5957055 13.243097,19.5957055 L11.5570362,19.5957055 L11.5570362,18.3515337 C11.5570362,17.8251534 11.1295842,17.3944785 10.6071429,17.3944785 C10.0847015,17.3944785 9.65724947,17.8251534 9.65724947,18.3515337 L9.65724947,19.5957055 L9.56226013,19.5957055 C7.77329424,19.5957055 6.32470682,21.0631902 6.32470682,22.8576687 C6.32470682,24.6601227 7.78121002,26.1196319 9.56226013,26.1196319 L11.6520256,26.1196319 C12.388193,26.1196319 12.9897921,26.7257669 12.9897921,27.4674847 C12.9897921,28.2092025 12.388193,28.8153374 11.6520256,28.8153374 L7.8999467,28.8153374 C7.37750533,28.8153374 6.9500533,29.2460123 6.9500533,29.7723926 C6.9500533,30.298773 7.37750533,30.7294479 7.8999467,30.7294479 L9.65724947,30.7294479 L9.65724947,31.997546 C9.65724947,32.5239264 10.0847015,32.9546012 10.6071429,32.9546012 C11.1295842,32.9546012 11.5570362,32.5239264 11.5570362,31.997546 L11.5570362,30.7294479 L11.6678571,30.7294479 C11.6757729,30.7294479 11.6836887,30.7294479 11.6916045,30.7294479 C13.456823,30.7055215 14.8895789,29.2539877 14.8895789,27.4674847 C14.8895789,25.6650307 13.4330757,24.2055215 11.6520256,24.2055215 Z" id="Shape" stroke-width="0.3"></path>
            </g>
        </g>
    </g>
</svg>