<?xml version="1.0" encoding="utf-8"?>
<!-- Generator: Adobe Illustrator 22.0.1, SVG Export Plug-In . SVG Version: 6.00 Build 0)  -->
<svg version="1.1" id="Camada_1" xmlns="http://www.w3.org/2000/svg" xmlns:xlink="http://www.w3.org/1999/xlink" x="0px" y="0px"
	 viewBox="0 0 45.8 44.7" style="enable-background:new 0 0 45.8 44.7;" xml:space="preserve">
<style type="text/css">
	.st0{fill:#333333;}
	.st1{fill:none;}
	.st2{fill:#C6CBD4;}
	.st3{fill:#59A1D0;}
	.st4{fill:#FFFFFF;}
	.st5{fill:#52AD8C;}
	.st6{fill:#C86D61;}
</style>
<g>
	<path class="st1" d="M22.9,4.4c-9.9,0-18,8.1-18,18s8.1,18,18,18s18-8.1,18-18S32.8,4.4,22.9,4.4z M22.9,37.4c-8.3,0-15-6.7-15-15
		c0-8.3,6.7-15,15-15c8.3,0,15,6.7,15,15C37.9,30.7,31.2,37.4,22.9,37.4z"/>
	<path class="st2" d="M22.9,1.4c-11.6,0-21,9.4-21,21s9.4,21,21,21s21-9.4,21-21S34.5,1.4,22.9,1.4z M22.9,40.4c-9.9,0-18-8.1-18-18
		s8.1-18,18-18s18,8.1,18,18S32.8,40.4,22.9,40.4z"/>
	<circle class="st3" cx="22.9" cy="22.4" r="15"/>
</g>
</svg>
