<?xml version="1.0" encoding="UTF-8"?>
<svg width="10px" height="25px" viewBox="0 0 10 25" version="1.1" xmlns="http://www.w3.org/2000/svg" xmlns:xlink="http://www.w3.org/1999/xlink">
    <!-- Generator: Sketch 50.2 (55047) - http://www.bohemiancoding.com/sketch -->
    <title>Replicar UO</title>
    <desc>Created with Sketch.</desc>
    <defs>
        <path d="M7.58578644,6 L0.714285714,6 C0.319796607,6 0,5.55228475 0,5 C0,4.44771525 0.319796607,4 0.714285714,4 L7.58578644,4 L5.29289322,1.70710678 C4.90236893,1.31658249 4.90236893,0.683417511 5.29289322,0.292893219 C5.68341751,-0.0976310729 6.31658249,-0.0976310729 6.70710678,0.292893219 L10.7071068,4.29289322 C11.0976311,4.68341751 11.0976311,5.31658249 10.7071068,5.70710678 L6.70710678,9.70710678 C6.31658249,10.0976311 5.68341751,10.0976311 5.29289322,9.70710678 C4.90236893,9.31658249 4.90236893,8.68341751 5.29289322,8.29289322 L7.58578644,6 Z" id="replicar-custeio"></path>
    </defs>
    <g id="Sprint-3" stroke="none" stroke-width="1" fill="none" fill-rule="evenodd">
        <g id="Replicar-UO">
            <g id="Group-21">
                <g id="Group-20" transform="translate(5.000000, 12.500000) rotate(90.000000) translate(-5.000000, -12.500000) translate(-7.500000, 7.500000)">
                    <g id="Icons-/-Feather-/-log-out">
                        <path d="M21.5857864,6 L14.7142857,6 C14.3197966,6 14,5.55228475 14,5 C14,4.44771525 14.3197966,4 14.7142857,4 L21.5857864,4 L19.2928932,1.70710678 C18.9023689,1.31658249 18.9023689,0.683417511 19.2928932,0.292893219 C19.6834175,-0.0976310729 20.3165825,-0.0976310729 20.7071068,0.292893219 L24.7071068,4.29289322 C25.0976311,4.68341751 25.0976311,5.31658249 24.7071068,5.70710678 L20.7071068,9.70710678 C20.3165825,10.0976311 19.6834175,10.0976311 19.2928932,9.70710678 C18.9023689,9.31658249 18.9023689,8.68341751 19.2928932,8.29289322 L21.5857864,6 Z" id="Combined-replicar-custeio" fill="#000000" fill-rule="nonzero"></path>
                        <mask id="mask-2" fill="white">
                            <use xlink:href="#replicar-custeio"></use>
                        </mask>
                        <use id="Combined-replicar-custeio" fill="#000000" fill-rule="nonzero" transform="translate(5.500000, 5.000000) rotate(180.000000) translate(-5.500000, -5.000000) " xlink:href="#replicar-custeio"></use>
                    </g>
                </g>
            </g>
        </g>
    </g>
</svg>