<?xml version="1.0" encoding="UTF-8"?>
<svg viewBox="0 0 36 35" version="1.1" xmlns="http://www.w3.org/2000/svg" xmlns:xlink="http://www.w3.org/1999/xlink">
    <g id="Page-1" stroke="none" stroke-width="1" fill="none" fill-rule="evenodd">
        <g id="Group" fill="#000000">
            <g>
                <g id="Arrows-4" transform="translate(0.000000, 11.000000)">
                    <path d="M5.4,11.09 C5.98563509,11.6749068 6.93436491,11.6749068 7.52,11.09 C7.79660715,10.8309769 7.95357061,10.4689518 7.95357061,10.09 C7.95357061,9.71104821 7.79660715,9.34902306 7.52,9.09 L5.73,7.4 L30.49,7.4 L28.92,8.97 C28.5186936,9.34394116 28.3535016,9.90711108 28.4892289,10.4385778 C28.6249562,10.9700446 29.0399554,11.3850438 29.5714222,11.5207711 C30.1028889,11.6564984 30.6660588,11.4913064 31.04,11.09 L35.28,6.85 C35.8649068,6.26436491 35.8649068,5.31563509 35.28,4.73 L31.04,0.49 C30.4489805,-0.0607177209 29.5279806,-0.0444677518 28.9567564,0.526756402 C28.3855322,1.09798056 28.3692823,2.01898049 28.92,2.61 L30.71,4.4 L5.95,4.4 L7.52,2.72 C8.10672566,2.11176694 8.10672566,1.14823306 7.52,0.54 C7.242651,0.249424116 6.86155653,0.0804482653 6.46,0.07 C6.06331662,0.0654757282 5.68142328,0.220394722 5.4,0.5 L1.16,4.74 C0.575093244,5.32563509 0.575093244,6.27436491 1.16,6.86 L5.4,11.09 Z" id="Shape"></path>
                </g>
                <path d="M4.92877664,22.7699998 C5.51441174,23.3549066 6.46314155,23.3549066 7.04877664,22.7699998 C7.32538379,22.5109767 7.48234726,22.1489516 7.48234726,21.7699998 C7.48234726,21.391048 7.32538379,21.0290229 7.04877664,20.7699998 L5.25877664,19.0799998 L30.0187766,19.0799998 L28.4487766,20.6499998 C28.0474703,21.023941 27.8822783,21.5871109 28.0180056,22.1185776 C28.1537328,22.6500444 28.5687321,23.0650436 29.1001988,23.2007709 C29.6316656,23.3364982 30.1948355,23.1713062 30.5687766,22.7699998 L34.8087766,18.5299998 C35.3936834,17.9443647 35.3936834,16.9956349 34.8087766,16.4099998 L30.5687766,12.1699998 C29.9777571,11.6192821 29.0567572,11.6355321 28.485533,12.2067562 C27.9143089,12.7779804 27.8980589,13.6989803 28.4487766,14.2899998 L30.2387766,16.0799998 L5.47877664,16.0799998 L7.04877664,14.3999998 C7.63550231,13.7917667 7.63550231,12.8282329 7.04877664,12.2199998 C6.77142764,11.9294239 6.39033317,11.7604481 5.98877664,11.7499998 C5.59209326,11.7454755 5.21019993,11.9003945 4.92877664,12.1799998 L0.688776644,16.4199998 C0.103869888,17.0056349 0.103869888,17.9543647 0.688776644,18.5399998 L4.92877664,22.7699998 Z" id="Shape" transform="translate(17.748777, 17.498680) rotate(90.000000) translate(-17.748777, -17.498680) "></path>
            </g>
        </g>
    </g>
</svg>