<?xml version="1.0" encoding="UTF-8"?>
<svg viewBox="0 0 12 35" version="1.1" xmlns="http://www.w3.org/2000/svg" xmlns:xlink="http://www.w3.org/1999/xlink">
    <g id="Page-1" stroke="none" stroke-width="1" fill="none" fill-rule="evenodd">
        <path d="M-7.07122336,22.7699998 C-6.48558826,23.3549066 -5.53685845,23.3549066 -4.95122336,22.7699998 C-4.67461621,22.5109767 -4.51765274,22.1489516 -4.51765274,21.7699998 C-4.51765274,21.391048 -4.67461621,21.0290229 -4.95122336,20.7699998 L-6.74122336,19.0799998 L18.0187766,19.0799998 L16.4487766,20.6499998 C16.0474703,21.023941 15.8822783,21.5871109 16.0180056,22.1185776 C16.1537328,22.6500444 16.5687321,23.0650436 17.1001988,23.2007709 C17.6316656,23.3364982 18.1948355,23.1713062 18.5687766,22.7699998 L22.8087766,18.5299998 C23.3936834,17.9443647 23.3936834,16.9956349 22.8087766,16.4099998 L18.5687766,12.1699998 C17.9777571,11.6192821 17.0567572,11.6355321 16.485533,12.2067562 C15.9143089,12.7779804 15.8980589,13.6989803 16.4487766,14.2899998 L18.2387766,16.0799998 L-6.52122336,16.0799998 L-4.95122336,14.3999998 C-4.36449769,13.7917667 -4.36449769,12.8282329 -4.95122336,12.2199998 C-5.22857236,11.9294239 -5.60966683,11.7604481 -6.01122336,11.7499998 C-6.40790674,11.7454755 -6.78980007,11.9003945 -7.07122336,12.1799998 L-11.3112234,16.4199998 C-11.8961301,17.0056349 -11.8961301,17.9543647 -11.3112234,18.5399998 L-7.07122336,22.7699998 Z" id="Shape" fill="#000000" transform="translate(5.748777, 17.498680) rotate(90.000000) translate(-5.748777, -17.498680) "></path>
    </g>
</svg>