<?xml version="1.0" encoding="UTF-8"?>
<svg viewBox="0 0 36 12" version="1.1" xmlns="http://www.w3.org/2000/svg" xmlns:xlink="http://www.w3.org/1999/xlink">
    <g id="Page-1" stroke="none" stroke-width="1" fill="none" fill-rule="evenodd">
        <g id="Arrows-4" fill="#000000">
            <path d="M5.4,11.09 C5.98563509,11.6749068 6.93436491,11.6749068 7.52,11.09 C7.79660715,10.8309769 7.95357061,10.4689518 7.95357061,10.09 C7.95357061,9.71104821 7.79660715,9.34902306 7.52,9.09 L5.73,7.4 L30.49,7.4 L28.92,8.97 C28.5186936,9.34394116 28.3535016,9.90711108 28.4892289,10.4385778 C28.6249562,10.9700446 29.0399554,11.3850438 29.5714222,11.5207711 C30.1028889,11.6564984 30.6660588,11.4913064 31.04,11.09 L35.28,6.85 C35.8649068,6.26436491 35.8649068,5.31563509 35.28,4.73 L31.04,0.49 C30.4489805,-0.0607177209 29.5279806,-0.0444677518 28.9567564,0.526756402 C28.3855322,1.09798056 28.3692823,2.01898049 28.92,2.61 L30.71,4.4 L5.95,4.4 L7.52,2.72 C8.10672566,2.11176694 8.10672566,1.14823306 7.52,0.54 C7.242651,0.249424116 6.86155653,0.0804482653 6.46,0.07 C6.06331662,0.0654757282 5.68142328,0.220394722 5.4,0.5 L1.16,4.74 C0.575093244,5.32563509 0.575093244,6.27436491 1.16,6.86 L5.4,11.09 Z" id="Shape"></path>
        </g>
    </g>
</svg>