<?xml version="1.0" encoding="UTF-8"?>
<svg viewBox="0 0 24 24" version="1.1" xmlns="http://www.w3.org/2000/svg" xmlns:xlink="http://www.w3.org/1999/xlink">
    <g id="Parte-Total" stroke="none" stroke-width="1" fill="none" fill-rule="evenodd">
        <g id="Group-17" transform="translate(12.000000, 12.000000) scale(-1, -1) rotate(90.000000) translate(-12.000000, -12.000000) " fill="#000000">
            <g id="web-site-(1)" fill-rule="nonzero">
                <path d="M22.9090781,0 L1.09092188,0 C0.4884375,0 0,0.4884375 0,1.09092188 L0,22.909125 C0,23.5115625 0.4884375,24 1.09092188,24 L22.909125,24 C23.5115625,24 24,23.5115625 24,22.9090781 L24,1.09092188 C24,0.4884375 23.5115625,0 22.9090781,0 Z M21.8182031,21.8182031 L2.18179688,21.8182031 L2.18179688,2.18179688 L21.8182031,2.18179688 L21.8182031,21.8182031 Z" id="Shape" stroke="#FFFFFF" stroke-width="0.7"></path>
                <path d="M17.789511,5.05263158 L6.21053875,5.05263158 C5.57106035,5.05263158 5.05263158,5.57106035 5.05263158,6.21053875 L5.05263158,17.7894612 C5.05263158,18.4289397 5.57106035,18.9473684 6.21053875,18.9473684 L17.7894612,18.9473684 C18.4289397,18.9473684 18.9473684,18.4289397 18.9473684,17.7894612 L18.9473684,6.210489 C18.9473684,5.57106035 18.4289397,5.05263158 17.789511,5.05263158 Z M16.6316038,16.6315541 L7.36844593,16.6315541 L7.36844593,7.36839618 L16.6316038,7.36839618 L16.6316038,16.6315541 Z" id="Shape"></path>
            </g>
            <rect id="Rectangle-11" x="6.31578947" y="6.31578947" width="11.3684211" height="11.3684211"></rect>
        </g>
    </g>
</svg>
