<?xml version="1.0" encoding="utf-8"?>
<!-- Generator: Adobe Illustrator 21.1.0, SVG Export Plug-In . SVG Version: 6.00 Build 0)  -->
<svg version="1.1" id="Layer_1" xmlns="http://www.w3.org/2000/svg" xmlns:xlink="http://www.w3.org/1999/xlink" x="0px" y="0px"
	 viewBox="0 0 87 86" style="enable-background:new 0 0 87 86;" xml:space="preserve">
<style type="text/css">
	.rocket .st0{fill:none;}
	.rocket .st1{fill:#3B4340;}
	.rocket .st2{fill:#59A1D0;}
</style>
<title>:D</title>
<desc>Created with Sketch.</desc>
<g class="rocket">
	<ellipse transform="matrix(0.7071 -0.7071 0.7071 0.7071 -20.4943 27.8665)" class="st0" cx="23.4" cy="38.7" rx="5.1" ry="5.1"/>
	<path class="st0" d="M57.7,51.5c-0.3-0.3-2-2-2.5-2.6c-2.4-2.4-3.8-4.3-4.5-5.9c-0.5-1.3-0.5-2.6-0.1-3.6c-1.4-1.6-3.1-3.3-5-5.2
		C30.1,18.7,13.3,16.5,7.3,22.5c-6,6-3.8,22.9,11.7,38.4c1.5,1.5,2.9,2.9,4.2,4.1c1.1-0.4,2.3-0.4,3.6,0.1c1.6,0.6,3.5,2.1,5.9,4.5
		c0.5,0.5,2.2,2.2,2.6,2.5c0.4,0.4,0.7,0.7,0.9,1c3.2,0.1,6.1-1.8,10.1-5.5c-0.3-0.3-0.5-0.5-0.8-0.8c-2-2-3.5-3.7-4.5-5.1
		c-0.6-0.9-1-1.7-1.3-2.5c-0.4-1.3-0.2-2.5,0.8-3.5s2.2-1.1,3.5-0.8c0.8,0.2,1.6,0.7,2.5,1.3c1.4,1,3.1,2.5,5.1,4.5
		c0.3,0.3,0.5,0.5,0.8,0.8c3.6-3.9,5.5-6.8,5.5-9.9C57.8,51.5,57.7,51.5,57.7,51.5z M28.7,44c-2.9,2.9-7.7,2.9-10.6,0
		c-2.9-2.9-2.9-7.7,0-10.6c2.9-2.9,7.7-2.9,10.6,0C31.6,36.3,31.6,41,28.7,44z"/>
	<path class="st0" d="M53.2,39.7c-1.1,1.1-1,2.9,3.6,7.5c4.6,4.6,3.2,3.8,7.5,3.6s6.9-0.9,2.3-5.5C62,40.7,54.3,38.7,53.2,39.7z"/>
	<path class="st0" d="M42,57.3c-1.1,1.1,1.5,4.3,5,7.8s6.2,5.5,7.2,4.5c1.1-1.1-0.9-3.7-4.5-7.2S43.1,56.2,42,57.3z"/>
	<path class="st0" d="M30.9,71.2c-4.6-4.6-6.4-4.7-7.5-3.6c-1.1,1.1,1,8.8,5.6,13.4c4.6,4.6,5.4,2.1,5.5-2.3
		C34.7,74.4,35.5,75.8,30.9,71.2z"/>
	<circle class="st0" cx="61.4" cy="16.3" r="2"/>
	<circle class="st0" cx="77.2" cy="16.3" r="2"/>
	<circle class="st0" cx="69.3" cy="16.3" r="2"/>
	<path class="st1" d="M18.1,33.4c-2.9,2.9-2.9,7.7,0,10.6c2.9,2.9,7.7,2.9,10.6,0c2.9-2.9,2.9-7.7,0-10.6
		C25.8,30.5,21,30.5,18.1,33.4z M27,42.3c-2,2-5.2,2-7.2,0s-2-5.2,0-7.2s5.2-2,7.2,0S29,40.3,27,42.3z"/>
	<path class="st1" d="M52,77.9c-0.5-0.5-1.2-0.5-1.7,0c-0.5,0.5-0.5,1.2,0,1.7l5.6,5.6c0.5,0.5,1.2,0.5,1.7,0c0.5-0.5,0.5-1.2,0-1.7
		L52,77.9z"/>
	<path class="st1" d="M59.6,73.2c-0.5-0.5-1.2-0.5-1.7,0c-0.5,0.5-0.5,1.2,0,1.7l8.3,8.3c0.5,0.5,1.2,0.5,1.7,0
		c0.5-0.5,0.5-1.2,0-1.7L59.6,73.2z"/>
	<path class="st1" d="M64.3,65.7c-0.5-0.5-1.2-0.5-1.7,0c-0.5,0.5-0.5,1.2,0,1.7l5.6,5.6c0.5,0.5,1.2,0.5,1.7,0
		c0.5-0.5,0.5-1.2,0-1.7L64.3,65.7z"/>
	<path class="st1" d="M68.3,43.7c-2.4-2.4-5.6-4.3-8.9-5.5c-3.1-1.1-5.6-1.5-7.2-0.6c-1.4-1.5-3-3.2-4.9-5C39.7,25,31.4,20,23.5,18
		c-6.9-1.7-13.1-1-17,2.1l-4.2-4.2c-0.5-0.5-1.2-0.5-1.7,0s-0.5,1.2,0,1.7l4.2,4.2c-3.1,3.9-3.8,10-2.1,17c2,7.9,7,16.3,14.5,23.8
		c1.5,1.5,2.8,2.8,4,3.9c-1,1.6-0.6,4.2,0.6,7.3c1.2,3.3,3.1,6.5,5.5,8.9c1.3,1.3,2.4,2.2,3.4,2.7c1.4,0.7,2.9,0.7,4.1-0.2
		c1.5-1.2,1.9-2.9,2-6.3c0-0.7,0.1-2.3,0.1-2.3c0-0.4,0-0.7,0-1.1c2-0.1,3.9-0.9,5.9-2.2c1.5-1,3-2.2,5-4c0.9,0.8,1.7,1.4,2.4,1.9
		c0.9,0.6,1.6,0.9,2.4,1.1c1.2,0.2,2.3,0,3.2-0.9c0.9-0.9,1.1-2,0.9-3.2c-0.2-0.8-0.5-1.6-1.1-2.4c-0.5-0.7-1.1-1.5-1.9-2.4
		c1.8-1.9,3.1-3.5,4-5c1.1-1.8,1.9-3.4,2.1-5.1c0.6,0.2,1.3,0.3,2.1,0.3c0,0,1.6-0.1,2.3-0.1c3.4-0.1,5.1-0.5,6.3-2
		c0.9-1.2,0.9-2.7,0.2-4.1C70.5,46.1,69.6,45,68.3,43.7z M34.5,78.7c-0.2,4.4-0.9,6.9-5.5,2.3c-4.6-4.6-6.7-12.3-5.6-13.4
		c1.1-1.1,2.9-1,7.5,3.6C35.5,75.8,34.7,74.4,34.5,78.7z M54.3,69.6c-1.1,1.1-3.7-0.9-7.2-4.5s-6.1-6.7-5-7.8c1.1-1.1,4.3,1.5,7.8,5
		S55.3,68.5,54.3,69.6z M52.3,61.4c-0.3-0.3-0.5-0.5-0.8-0.8c-2-2-3.7-3.5-5.1-4.5c-0.9-0.6-1.7-1-2.5-1.3c-1.3-0.4-2.5-0.2-3.5,0.8
		s-1.1,2.2-0.8,3.5c0.2,0.8,0.7,1.6,1.3,2.5c1,1.4,2.5,3.1,4.5,5.1c0.3,0.3,0.5,0.5,0.8,0.8c-4,3.7-7,5.6-10.1,5.5
		c-0.2-0.3-0.5-0.6-0.9-1c-0.3-0.3-2-2-2.6-2.5c-2.4-2.4-4.3-3.8-5.9-4.5c-1.3-0.5-2.5-0.5-3.6-0.1c-1.3-1.2-2.7-2.6-4.2-4.1
		C3.4,45.4,1.2,28.6,7.3,22.5c6-6,22.9-3.8,38.4,11.7c1.9,1.9,3.6,3.6,5,5.2c-0.5,1.1-0.5,2.3,0.1,3.6c0.6,1.6,2.1,3.5,4.5,5.9
		c0.5,0.5,2.2,2.2,2.5,2.6c0,0,0.1,0.1,0.1,0.1C57.8,54.6,55.9,57.5,52.3,61.4z M64.4,50.9c-4.4,0.2-2.9,1-7.5-3.6
		c-4.6-4.6-4.7-6.4-3.6-7.5c1.1-1.1,8.8,1,13.4,5.6C71.3,50,68.7,50.7,64.4,50.9z"/>
	<path class="st2" d="M71.3,0.5h-3.9c-8.7,0-15.7,7-15.7,15.7c0,7.9,5.9,14.5,13.5,15.6c2.3,2.3,6.1,2.3,8.4,0
		C81.2,30.8,87,24.2,87,16.3C87,7.6,80,0.5,71.3,0.5z M61.4,18.2c-1.1,0-2-0.9-2-2s0.9-2,2-2s2,0.9,2,2S62.5,18.2,61.4,18.2z
		 M69.3,18.2c-1.1,0-2-0.9-2-2s0.9-2,2-2c1.1,0,2,0.9,2,2S70.4,18.2,69.3,18.2z M77.2,18.2c-1.1,0-2-0.9-2-2s0.9-2,2-2
		c1.1,0,2,0.9,2,2S78.3,18.2,77.2,18.2z"/>
</g>
</svg>
