<?xml version="1.0" encoding="utf-8"?>
<!-- Generator: Adobe Illustrator 22.0.1, SVG Export Plug-In . SVG Version: 6.00 Build 0)  -->
<svg version="1.1" id="Camada_1" xmlns="http://www.w3.org/2000/svg" xmlns:xlink="http://www.w3.org/1999/xlink" x="0px" y="0px"
	 viewBox="0 0 42.5 42.9" style="enable-background:new 0 0 42.5 42.9;" xml:space="preserve">
<style type="text/css">
	.st0{fill:#333333;}
	.st1{fill:none;}
	.st2{fill:#C6CBD4;}
	.st3{fill:#59A1D0;}
	.st4{fill:#FFFFFF;}
	.st5{fill:#52AD8C;}
	.st6{fill:#C86D61;}
</style>
<path id="path-15_1_" class="st0" d="M13.8,6.4v5.6h13.1c1,0,1.9,0.8,1.9,1.9s-0.8,1.9-1.9,1.9h-15c-1,0-1.9-0.8-1.9-1.9V6.4H8.1
	c-1,0-1.9,0.8-1.9,1.9v26.3c0,1,0.8,1.9,1.9,1.9H10V23.3c0-1,0.8-1.9,1.9-1.9h18.8c1,0,1.9,0.8,1.9,1.9v13.1h1.9
	c1,0,1.9-0.8,1.9-1.9V14.7L28,6.4H13.8z M28.8,36.4V25.2h-15v11.3H28.8z M34.4,40.2H8.1c-3.1,0-5.6-2.5-5.6-5.6V8.3
	c0-3.1,2.5-5.6,5.6-5.6h20.6c0.5,0,1,0.2,1.3,0.5l9.4,9.4c0.4,0.4,0.5,0.8,0.5,1.3v20.6C40,37.7,37.5,40.2,34.4,40.2z"/>
</svg>
