<?xml version="1.0" encoding="utf-8"?>
<!-- Generator: Adobe Illustrator 22.0.1, SVG Export Plug-In . SVG Version: 6.00 Build 0)  -->
<svg version="1.1" id="Camada_1" xmlns="http://www.w3.org/2000/svg" xmlns:xlink="http://www.w3.org/1999/xlink" x="0px" y="0px"
	 viewBox="0 0 52.6 53" style="enable-background:new 0 0 52.6 53;" xml:space="preserve">
<style type="text/css">
	.st0{fill:#333333;}
	.st1{fill:none;}
	.st2{fill:#C6CBD4;}
	.st3{fill:#59A1D0;}
	.st4{fill:#FFFFFF;}
	.st5{fill:#52AD8C;}
	.st6{fill:#C86D61;}
</style>
<path id="path-9_1_" class="st0" d="M39.3,35.9l11.3,11.3c1,1,1,2.6,0,3.5c-1,1-2.6,1-3.5,0L35.7,39.4c-3.6,2.9-8.2,4.6-13.2,4.6
	C10.8,44,1.3,34.5,1.3,22.8S10.8,1.5,22.6,1.5S43.8,11,43.8,22.8C43.8,27.7,42.1,32.3,39.3,35.9z M34.2,34.1
	c2.8-2.9,4.6-6.9,4.6-11.3c0-9-7.3-16.3-16.3-16.3S6.3,13.8,6.3,22.8S13.6,39,22.6,39c4.4,0,8.4-1.8,11.3-4.6c0-0.1,0.1-0.1,0.2-0.2
	C34.1,34.2,34.2,34.1,34.2,34.1z"/>
</svg>
