<?xml version="1.0" encoding="utf-8"?>
<!-- Generator: Adobe Illustrator 21.1.0, SVG Export Plug-In . SVG Version: 6.00 Build 0)  -->
<svg version="1.1" id="Capa_1" xmlns="http://www.w3.org/2000/svg" xmlns:xlink="http://www.w3.org/1999/xlink" x="0px" y="0px"
	 viewBox="0 0 24 24" style="enable-background:new 0 0 24 24;" xml:space="preserve">
<style type="text/css">
	.st0{fill:none;}
	.st1{fill:#313B40;}
	.st2{fill:#C4D6E4;}
	.st3{fill:#FFFFFF;}
	.st4{fill:#88BBE3;}
	.st5{fill:#000102;}
	.st6{fill:#070707;}
	.st7{fill:#6D56E1;}
	.st8{fill:#FDFDFE;}
	.st9{fill:#FCFCFE;}
	.st10{fill:#689BFE;}
	.st11{fill:#679CFE;}
	.st12{fill:#679AFE;}
	.st13{fill:#342B80;}
	.st14{fill:#F8F9FD;}
	.st15{fill:#5C48C4;}
	.st16{fill:#6796FD;}
	.st17{fill:#F0EFF5;}
	.st18{fill:#745DE2;}
	.st19{fill:#F6F7FD;}
	.st20{fill:#6A6FEF;}
	.st21{fill:#2F393F;}
	.st22{fill:#363C3F;}
	.st23{fill:#E0E2E2;}
	.st24{fill:#FAFDFD;}
	.st25{fill:#010101;}
	.st26{fill:#060302;}
	.st27{fill:#FEFEFE;}
	.st28{fill:#211D1D;}
	.st29{fill-rule:evenodd;clip-rule:evenodd;fill:#050505;}
	.st30{fill:#050505;}
</style>
<g>
	<path class="st30" d="M3.9,15.4v-1.8v-2.8V7.4V5.8V3.8c0-0.6,0.4-1,1-1h10c0.6,0,1,0.4,1,1v0.7h2V3.8c0-1.7-1.3-3-3-3h-10
		c-1.7,0-3,1.3-3,3v3.6v1.4v0.6v1.4v4.6c0,1.7,1.3,3,3,3h0.1v-2H4.9C4.4,16.4,3.9,16,3.9,15.4z"/>
	<path class="st30" d="M17.9,11.6c-0.3-0.3-0.8-0.3-1.2,0.1v0c-0.3,0.3-0.5,0.5-0.8,0.8c-0.2,0.2-0.4,0.3-0.5,0.5L13,15.3L12.7,15
		c-0.4-0.5-0.9-0.9-1.3-1.4c-0.3-0.4-0.9-0.4-1.2-0.1C10,13.6,9.9,13.8,9.9,14c0,0.2,0.1,0.5,0.3,0.7c0.6,0.7,1.1,1.2,1.6,1.7
		c0.2,0.2,0.3,0.4,0.5,0.5c0.2,0.2,0.4,0.3,0.6,0.3c0,0,0,0,0,0c0.2,0,0.4-0.1,0.6-0.3c0.2-0.2,0.4-0.4,0.6-0.6
		c0.6-0.6,1.2-1.1,1.7-1.7c0.7-0.6,1.3-1.3,2-1.9c0,0,0,0,0-0.1c0.2-0.2,0.3-0.4,0.3-0.6C18.2,12,18.1,11.8,17.9,11.6
		C18,11.6,17.9,11.6,17.9,11.6z"/>
	<path class="st30" d="M19.1,5.6h-1.1h-2H9.1c-1.7,0-3,1.3-3,3v3.6v1.4v0.6v1.4v0.9v2v1.7c0,1.7,1.3,3,3,3h10c1.7,0,3-1.3,3-3v-4.6
		v-1.4v-0.6v-1.4V8.6C22.1,6.9,20.7,5.6,19.1,5.6z M20.1,12.2L20.1,12.2l0,3.4h0v4.6c0,0.6-0.4,1-1,1h-10c-0.6,0-1-0.4-1-1v-1.7
		v-0.1v-1.9v-0.9v-3.4v-1.7V8.6c0-0.6,0.4-1,1-1h6.9h2h1.1c0.6,0,1,0.4,1,1V12.2z"/>
</g>
</svg>
