<svg version="1.1" id="Layer_1" xmlns="http://www.w3.org/2000/svg" xmlns:xlink="http://www.w3.org/1999/xlink" x="0px" y="0px"
	 viewBox="0 0 24 24" style="enable-background:new 0 0 24 24;" xml:space="preserve">
	<g>
	<path d="M12,14c1.1,0,2-0.9,2-2s-0.9-2-2-2s-2,0.9-2,2S10.9,14,12,14z M12,16c-2.2,0-4-1.8-4-4s1.8-4,4-4s4,1.8,4,4S14.2,16,12,16z
		M9.1,5.7C8.2,6,7.1,5.8,6.4,5.1L6.3,5C6.1,4.8,5.9,4.7,5.6,4.7S5.1,4.8,4.9,5C4.7,5.2,4.6,5.4,4.6,5.7s0.1,0.5,0.3,0.7L5,6.5
		c0.8,0.8,1,1.9,0.6,2.9c-0.4,1-1.3,1.7-2.4,1.7H3c-0.6,0-1,0.4-1,1c0,0.6,0.4,1,1,1l0.2,0c1.1,0,2,0.6,2.4,1.6
		c0.4,1,0.2,2.1-0.5,2.9L5,17.7c-0.2,0.2-0.3,0.4-0.3,0.7s0.1,0.5,0.3,0.7c0.2,0.2,0.4,0.3,0.7,0.3s0.5-0.1,0.7-0.3L6.5,19
		c0.8-0.8,1.9-1,2.9-0.6c1,0.4,1.7,1.3,1.7,2.4V21c0,0.6,0.4,1,1,1c0.6,0,1-0.4,1-1l0-0.2c0-1.1,0.6-2,1.6-2.4c1-0.4,2.1-0.2,2.9,0.5
		l0.1,0.1c0.2,0.2,0.4,0.3,0.7,0.3s0.5-0.1,0.7-0.3c0.2-0.2,0.3-0.4,0.3-0.7s-0.1-0.5-0.3-0.7L19,17.5c-0.8-0.8-1-1.9-0.5-2.9
		c0.4-1,1.4-1.6,2.4-1.6H21c0.6,0,1-0.4,1-1s-0.4-1-1-1l-0.2,0c-1.1,0-2-0.6-2.4-1.6c0-0.1-0.1-0.2-0.1-0.3c-0.3-0.9-0.1-2,0.6-2.7
		L19,6.3c0.2-0.2,0.3-0.4,0.3-0.7S19.2,5.1,19,4.9c-0.2-0.2-0.4-0.3-0.7-0.3s-0.5,0.1-0.7,0.3L17.5,5c-0.8,0.8-1.9,1-2.9,0.5
		c-1-0.4-1.6-1.4-1.6-2.4V3c0-0.6-0.4-1-1-1s-1,0.4-1,1l0,0.2c0,1.1-0.6,2-1.6,2.4C9.3,5.6,9.2,5.7,9.1,5.7z M20.3,8.7
		C20.4,8.9,20.6,9,20.8,9H21c1.7,0,3,1.3,3,3s-1.3,3-3,3l-0.1,0c-0.3,0-0.5,0.2-0.6,0.4c-0.1,0.3-0.1,0.5,0.1,0.7l0.1,0.1
		c0.6,0.6,0.9,1.3,0.9,2.1s-0.3,1.6-0.9,2.1c-0.6,0.6-1.3,0.9-2.1,0.9s-1.6-0.3-2.1-0.9l-0.1-0.1c-0.2-0.2-0.5-0.2-0.7-0.1
		c-0.2,0.1-0.4,0.3-0.4,0.6V21c0,1.7-1.3,3-3,3s-3-1.3-3-3c0-0.3-0.2-0.6-0.5-0.7c-0.2-0.1-0.5-0.1-0.7,0.1l-0.1,0.1
		c-0.6,0.6-1.3,0.9-2.1,0.9s-1.6-0.3-2.1-0.9c-0.6-0.6-0.9-1.3-0.9-2.1s0.3-1.6,0.9-2.1l0.1-0.1c0.2-0.2,0.2-0.5,0.1-0.7
		c-0.1-0.2-0.3-0.4-0.6-0.4H3c-1.7,0-3-1.3-3-3s1.3-3,3-3c0.3,0,0.6-0.2,0.7-0.5c0.1-0.2,0.1-0.5-0.1-0.7L3.5,7.8
		C2.9,7.3,2.6,6.5,2.6,5.7s0.3-1.6,0.9-2.1C4.1,3,4.8,2.7,5.6,2.7S7.2,3,7.7,3.6l0.1,0.1C8,3.8,8.3,3.9,8.5,3.8c0.1,0,0.1,0,0.2-0.1
		C8.9,3.6,9,3.4,9,3.2V3c0-1.7,1.3-3,3-3s3,1.3,3,3l0,0.1c0,0.3,0.2,0.5,0.4,0.6c0.2,0.1,0.5,0.1,0.7-0.1l0.1-0.1
		c0.6-0.6,1.3-0.9,2.1-0.9s1.6,0.3,2.1,0.9c0.6,0.6,0.9,1.3,0.9,2.1S21,7.2,20.4,7.7l-0.1,0.1c-0.2,0.2-0.2,0.5-0.1,0.7
		C20.3,8.6,20.3,8.6,20.3,8.7z"/>
	</g>
</svg>
