<?xml version="1.0" encoding="utf-8"?>
<svg viewBox="0 0 15 17" version="1.1" xmlns="http://www.w3.org/2000/svg" xmlns:xlink="http://www.w3.org/1999/xlink">
    <g>
        <path d="M4.8314,5.216 L6.7364,1.357 C6.9804,0.862 7.6874,0.862 7.9324,1.357 L9.8364,5.216 L14.0974,5.839 C14.6444,5.919 14.8614,6.591 14.4654,6.976 L11.3834,9.978 L12.1114,14.219 C12.2044,14.764 11.6324,15.179 11.1434,14.922 L7.3334,12.919 L3.5244,14.922 C3.0354,15.179 2.4634,14.764 2.5574,14.219 L3.2844,9.978 L0.2024,6.976 C-0.1936,6.591 0.0244,5.919 0.5714,5.839 L4.8314,5.216 Z" id="BorderLine" fill="#000000"></path>
        <path d="M5.8719,6.1351 C5.7749,6.3321 5.5869,6.4681 5.3709,6.5001 L2.0999,6.9781 L4.4659,9.2821 C4.6229,9.4351 4.6949,9.6561 4.6579,9.8731 L4.0999,13.1281 L7.0239,11.5901 C7.2179,11.4881 7.4499,11.4881 7.6439,11.5901 L10.5689,13.1281 L10.0099,9.8731 C9.9729,9.6561 10.0449,9.4351 10.2029,9.2821 L12.5689,6.9781 L9.2979,6.5001 C9.0809,6.4681 8.8929,6.3321 8.7959,6.1351 L7.3339,3.1731 L5.8719,6.1351 Z" id="Fill-4" fill="#FFFFFF"></path>
    </g>
</svg>