<?xml version="1.0" encoding="utf-8"?>
<!-- Generator: Adobe Illustrator 22.0.1, SVG Export Plug-In . SVG Version: 6.00 Build 0)  -->
<svg version="1.1" id="Camada_1" xmlns="http://www.w3.org/2000/svg" xmlns:xlink="http://www.w3.org/1999/xlink" x="0px" y="0px"
	 viewBox="0 0 52 52" style="enable-background:new 0 0 52 52;" xml:space="preserve">
<style type="text/css">
	.st0{fill:#333333;}
	.st1{fill:none;}
	.st2{fill:#C6CBD4;}
	.st3{fill:#59A1D0;}
	.st4{fill:#FFFFFF;}
	.st5{fill:#52AD8C;}
	.st6{fill:#C86D61;}
</style>
<g>
	<path class="st0" d="M40.1,37.3c-0.8-0.8-2-0.8-2.8,0s-0.8,2,0,2.8l2.8,2.8c0.8,0.8,2,0.8,2.8,0c0.8-0.8,0.8-2,0-2.8L40.1,37.3z"/>
	<path class="st0" d="M26,42c-1.1,0-2,0.9-2,2v4c0,1.1,0.9,2,2,2s2-0.9,2-2v-4C28,42.9,27.1,42,26,42z"/>
	<path class="st0" d="M26,14c-6.6,0-12,5.4-12,12s5.4,12,12,12s12-5.4,12-12S32.6,14,26,14z M26,34c-4.4,0-8-3.6-8-8s3.6-8,8-8
		s8,3.6,8,8S30.4,34,26,34z"/>
	<path class="st0" d="M48,24h-4c-1.1,0-2,0.9-2,2s0.9,2,2,2h4c1.1,0,2-0.9,2-2S49.1,24,48,24z"/>
	<path class="st0" d="M11.9,14.7c0.8,0.8,2,0.8,2.8,0s0.8-2,0-2.8L11.9,9c-0.8-0.8-2-0.8-2.8,0c-0.8,0.8-0.8,2,0,2.8L11.9,14.7z"/>
	<path class="st0" d="M26,10c1.1,0,2-0.9,2-2V4c0-1.1-0.9-2-2-2s-2,0.9-2,2v4C24,9.1,24.9,10,26,10z"/>
	<path class="st0" d="M40.1,14.7l2.8-2.8c0.8-0.8,0.8-2,0-2.8c-0.8-0.8-2-0.8-2.8,0l-2.8,2.8c-0.8,0.8-0.8,2,0,2.8
		S39.4,15.5,40.1,14.7z"/>
	<path class="st0" d="M10,26c0-1.1-0.9-2-2-2H4c-1.1,0-2,0.9-2,2s0.9,2,2,2h4C9.1,28,10,27.1,10,26z"/>
	<path class="st0" d="M11.9,37.3L9,40.1c-0.8,0.8-0.8,2,0,2.8c0.8,0.8,2,0.8,2.8,0l2.8-2.8c0.8-0.8,0.8-2,0-2.8S12.6,36.5,11.9,37.3
		z"/>
</g>
</svg>
