<?xml version="1.0" encoding="UTF-8"?>
<svg viewBox="0 0 13 15" version="1.1" xmlns="http://www.w3.org/2000/svg" xmlns:xlink="http://www.w3.org/1999/xlink">
    <g id="Sprint-3" stroke="none" stroke-width="1" fill="none" fill-rule="evenodd">
        <g id="03---Definição-linhas-de-análise" transform="translate(-256.000000, -339.000000)" fill="#59A1D0" fill-rule="nonzero">
            <g id="Group-18" transform="translate(255.000000, 339.000000)">
                <g id="Torre" transform="translate(1.000000, 0.000000)">
                    <path d="M10.4483471,1.07142857 L13.0805785,1.07142857 C13.4440138,1.07142857 13.7386364,1.35924552 13.7386364,1.71428571 L13.7386364,13.2857143 C13.7386364,13.6407545 13.4440138,13.9285714 13.0805785,13.9285714 L10.4483471,13.9285714 C10.0849118,13.9285714 9.79028926,13.6407545 9.79028926,13.2857143 L9.79028926,1.71428571 C9.79028926,1.35924552 10.0849118,1.07142857 10.4483471,1.07142857 Z M11.106405,2.35714286 L11.106405,12.6428571 L12.4225207,12.6428571 L12.4225207,2.35714286 L11.106405,2.35714286 Z M-0.0805785124,3 L2.55165289,3 C2.91508821,3 3.20971074,3.28781695 3.20971074,3.64285714 L3.20971074,12 C3.20971074,12.3550402 2.91508821,12.6428571 2.55165289,12.6428571 L-0.0805785124,12.6428571 C-0.444013828,12.6428571 -0.738636364,12.3550402 -0.738636364,12 L-0.738636364,3.64285714 C-0.738636364,3.28781695 -0.444013828,3 -0.0805785124,3 Z M0.577479339,4.28571429 L0.577479339,11.3571429 L1.89359504,11.3571429 L1.89359504,4.28571429 L0.577479339,4.28571429 Z M5.1838843,4.28571429 L7.8161157,4.28571429 C8.17955102,4.28571429 8.47417355,4.57353123 8.47417355,4.92857143 L8.47417355,10.0714286 C8.47417355,10.4264688 8.17955102,10.7142857 7.8161157,10.7142857 L5.1838843,10.7142857 C4.82044898,10.7142857 4.52582645,10.4264688 4.52582645,10.0714286 L4.52582645,4.92857143 C4.52582645,4.57353123 4.82044898,4.28571429 5.1838843,4.28571429 Z M5.84194215,9.42857143 L7.15805785,9.42857143 L7.15805785,5.57142857 L5.84194215,5.57142857 L5.84194215,9.42857143 Z" id="Combined-Shape" transform="translate(6.500000, 7.500000) rotate(90.000000) translate(-6.500000, -7.500000) "></path>
                </g>
            </g>
        </g>
    </g>
</svg>