<?xml version="1.0" encoding="utf-8"?>
<!-- Generator: Adobe Illustrator 22.0.1, SVG Export Plug-In . SVG Version: 6.00 Build 0)  -->
<svg version="1.1" id="Layer_1" xmlns="http://www.w3.org/2000/svg" xmlns:xlink="http://www.w3.org/1999/xlink" x="0px" y="0px"
	 viewBox="0 0 31.9 34.2" style="enable-background:new 0 0 31.9 34.2;" xml:space="preserve">
<path fill="#52AD8C" d="M31.9,10.1c0-1.7-0.8-3.2-2.3-3.9L17.9,0.5c-1.2-0.6-2.7-0.6-3.9,0L2.4,6.2C0.9,6.9,0,8.4,0,10.1V24
	c0,0.6,0.1,1.3,0.4,1.8c0.4,0.9,1.1,1.6,2,2.1l0.5,0.3c0,0,11.2,5.7,11.3,5.7c1.1,0.5,2.5,0.5,3.6,0L29.5,28c0.9-0.5,1.6-1.2,2-2.1
	c0.3-0.6,0.4-1.2,0.4-1.8V10.1L31.9,10.1z M15.4,3c0.4-0.2,0.9-0.2,1.3,0l10.6,5.3L16,13.9L4.7,8.3L15.4,3z M3.7,25.2
	C3.2,25,2.9,24.5,2.9,24v-0.6V10.6l11.6,5.8v1.2v3.2v9.8l0,0L3.7,25.2z M28.3,25.2l-10.8,5.4l0,0v-9.8v-3.2v-1.2l11.6-5.8v12.8V24
	C29.1,24.6,28.8,25.1,28.3,25.2z"/>
</svg>
