<?xml version="1.0" encoding="utf-8"?>
<!-- Generator: Adobe Illustrator 22.0.1, SVG Export Plug-In . SVG Version: 6.00 Build 0)  -->
<svg version="1.1" id="Layer_1" xmlns="http://www.w3.org/2000/svg" xmlns:xlink="http://www.w3.org/1999/xlink" x="0px" y="0px"
	 viewBox="0 0 31.9 51.8" style="enable-background:new 0 0 31.9 51.8;" xml:space="preserve">
<path fill="#ECC15F" d="M31.9,10.1c0-1.7-0.8-3.2-2.3-3.9L17.9,0.4c-1.2-0.6-2.7-0.6-3.9,0L2.4,6.2C0.9,6.9,0,8.4,0,10.1v13.8
	c0,0.6,0.1,1.3,0.4,1.8C0.1,26.4,0,26.9,0,27.5v13.8c0,0.6,0.1,1.3,0.4,1.8c0,0.1,0.1,0.2,0.2,0.3c0.4,0.7,1,1.3,1.8,1.8l0.5,0.3
	L14,51.1c0.1,0,0.1,0,0.2,0.1c0.1,0.1,0.3,0.1,0.4,0.1c0.9,0.3,2,0.3,2.9,0c0.1,0,0.2,0,0.3-0.1l0.1-0.1L29,45.6h0.1l0.4-0.2
	c0.5-0.3,0.9-0.6,1.3-1l0.1-0.1c0.1-0.1,0.2-0.3,0.3-0.4c0.1-0.2,0.2-0.3,0.3-0.5c0,0,0,0,0-0.1c0.3-0.6,0.4-1.2,0.4-1.8v-14
	c0-0.6-0.1-1.1-0.4-1.7c0.3-0.6,0.4-1.1,0.4-1.7V10.1z M27.2,25.8l-9.7,4.8v-9.7L27.2,25.8z M29.1,23.4v0.1l-11.2-5.6
	c-0.1-0.1-0.3-0.2-0.4-0.2v-0.1v-1.2l11.6-5.8V23.4z M15.4,3c0.4-0.2,0.9-0.2,1.3,0l10.6,5.3L16,13.9L4.7,8.4L15.4,3z M2.9,23.3
	V10.6l11.6,5.8v1.2c0,0-0.3,0.1-0.5,0.2L2.9,23.3L2.9,23.3z M4.7,25.7l9.8-4.9v9.8L4.7,25.7z M14.6,35v3.2V48l-9.9-4.8l-1-0.5
	c-0.5-0.2-0.8-0.8-0.8-1.3v-0.6V28.1c0,0,11.2,5.7,11.3,5.7c0.1,0.1,0.3,0.1,0.4,0.1V35z M29.1,40.7L29.1,40.7v0.6
	c0,0.6-0.3,1.1-0.8,1.3l-1.1,0.5L17.5,48v-9.7v-0.1V35v-1.1c0.1,0,0.2-0.1,0.3-0.1l11.3-5.6V40.7z M31.5,25.9"/>
</svg>
