<?xml version="1.0" encoding="utf-8"?>
<!-- Generator: Adobe Illustrator 22.0.1, SVG Export Plug-In . SVG Version: 6.00 Build 0)  -->
<svg version="1.1" id="Layer_1" xmlns="http://www.w3.org/2000/svg" xmlns:xlink="http://www.w3.org/1999/xlink" x="0px" y="0px"
	 viewBox="0 0 32 70" style="enable-background:new 0 0 32 70;" xml:space="preserve">
<path fill="#C86D61" d="M31.9,10.2c0-1.7-0.8-3.2-2.3-3.9L17.9,0.5c-1.2-0.6-2.7-0.6-3.9,0L2.4,6.3C0.9,7,0,8.5,0,10.2V24
	c0,0.6,0.1,1.3,0.4,1.8C0.1,26.4,0,27,0,27.6v13.8c0,0.6,0.1,1.3,0.4,1.8C0.1,43.7,0,44.5,0,45.1v13.8c0,1.6,0.9,3.2,2.4,3.9
	L14,68.7c1.2,0.6,2.7,0.6,3.9,0l11.6-5.8c1.5-0.7,2.4-2.2,2.4-3.9V45.1c0-0.6-0.1-1.2-0.4-1.8c0.3-0.6,0.4-1.2,0.4-1.8v-14
	c0-0.6-0.1-1.1-0.4-1.7c0.3-0.6,0.4-1.1,0.4-1.7V10.2z M27.3,25.8l-9.8,4.9V21v-0.1L27.3,25.8z M17.8,33.9l11.3-5.6v12.5v0.1
	c0,0-8.3-4.3-11.1-5.6c-0.1-0.1-0.5-0.2-0.5-0.2V35v-1C17.6,34,17.7,33.9,17.8,33.9z M17.5,38.4l9.7,4.8L17.5,48V38.4z M29.1,23.5
	l-11.2-5.6c-0.1-0.1-0.3-0.1-0.4-0.2v-1.1l11.6-5.8V23.5z M15.4,3.1c0.4-0.2,0.9-0.2,1.3,0l10.6,5.3L16,14L4.7,8.4L15.4,3.1z
	 M2.9,23.4V10.7l11.6,5.8v1.2c0,0-0.3,0.1-0.5,0.2L2.9,23.4L2.9,23.4z M4.7,25.8l9.8-4.9v9.8L4.7,25.8z M14.2,33.9
	c0.1,0.1,0.3,0.1,0.4,0.1v1.1v0.1c-0.2,0.1-0.4,0.2-0.6,0.3c-2.8,1.3-11.1,5.4-11.1,5.4V28.2C2.9,28.2,14.1,33.9,14.2,33.9z
	 M14.6,38.4v9.7l-9.9-4.8L14.6,38.4z M0.6,43.5c0.4,0.7,1,1.3,1.8,1.8C1.6,44.9,1,44.3,0.6,43.5z M14.5,51.4v14.2L3.7,60.3
	c-0.5-0.2-0.8-0.8-0.8-1.3V45.6L14,51.2c0.1,0,0.1,0,0.2,0.1C14.3,51.4,14.5,51.4,14.5,51.4c0.5,0.1,1,0.2,1.5,0.2
	C15.5,51.6,15,51.6,14.5,51.4z M29,59c0,0.6-0.3,1.1-0.8,1.3l-10.8,5.4V51.4c0,0,0.1,0,0.1,0c0.1,0,0.2,0,0.3-0.1l0.1-0.1L29,45.7
	V59z"/>
</svg>
