<?xml version="1.0" encoding="utf-8"?>
<!-- Generator: Adobe Illustrator 22.0.1, SVG Export Plug-In . SVG Version: 6.00 Build 0)  -->
<svg version="1.1" id="Layer_1" xmlns="http://www.w3.org/2000/svg" xmlns:xlink="http://www.w3.org/1999/xlink" x="0px" y="0px"
	 viewBox="0 0 32 70" style="enable-background:new 0 0 32 70;" xml:space="preserve">
<style type="text/css">
	.tower-icon .st0{fill:none;}
	.tower-icon .st1{fill:#59A1D0;}
	.tower-icon .st2{fill:#59A1D0;}
	.tower-icon .st3{fill:#59A1D0;}
</style>
<g class="tower-icon">
	<path class="st0" d="M17.5,65.7l10.8-5.4c0.5-0.2,0.8-0.7,0.8-1.3V45.6l-11.1,5.6c0,0-0.1,0-0.1,0l-0.4,0.2V65.7z"/>
	<path class="st0" d="M14.1,35.4c0.2-0.1,0.3-0.1,0.5-0.2V34l-0.3-0.1c-0.1,0-0.1-0.1-0.2-0.1L2.9,28.2v12.7L14.1,35.4z"/>
	<path class="st0" d="M3.7,60.3l10.8,5.4V51.5l-0.3-0.1c-0.1,0-0.1-0.1-0.2-0.1L2.9,45.7v13.3C2.9,59.5,3.2,60,3.7,60.3z"/>
	<path class="st0" d="M17.5,35.2c0.2,0.1,0.3,0.1,0.5,0.2l11.1,5.6V28.2l-11.1,5.6c0,0-0.1,0-0.1,0L17.5,34V35.2z"/>
	<polygon class="st0" points="17.5,38.4 17.5,48.2 27.3,43.3 	"/>
	<path class="st0" d="M27.3,8.4L16.6,3.1c-0.4-0.2-0.9-0.2-1.3,0L4.7,8.4L16,14L27.3,8.4z"/>
	<polygon class="st0" points="14.5,48.2 14.5,38.4 4.7,43.3 	"/>
	<polygon class="st0" points="17.5,20.9 17.5,30.8 27.3,25.8 	"/>
	<path class="st0" d="M29.1,23.5V10.7l-11.6,5.8v1.2c0.2,0.1,0.3,0.1,0.5,0.2L29.1,23.5z"/>
	<polygon class="st0" points="14.5,30.8 14.5,20.9 4.7,25.8 	"/>
	<path class="st0" d="M14.5,17.7v-1.2L2.9,10.7v12.8l11.1-5.6C14.2,17.8,14.4,17.8,14.5,17.7z"/>
	<path class="st1" d="M2.9,40.9v0.6c0,0.6,0.3,1.1,0.8,1.3l10.8,5.4v0l-9.8-4.9l9.8-4.9v-3.2c-0.2,0.1-0.3,0.1-0.5,0.2L2.9,40.9z"/>
	<path class="st1" d="M17.5,35.2v3.2l9.8,4.9l-9.8,4.9v0l10.8-5.4c0.5-0.2,0.8-0.7,0.8-1.3v-0.6l-11.1-5.6
		C17.8,35.3,17.6,35.2,17.5,35.2z"/>
	<path class="st1" d="M29.6,45.4l-0.5,0.2V59c0,0.6-0.3,1.1-0.8,1.3l-10.8,5.4V51.5l0.4-0.2c-1.1,0.5-2.4,0.5-3.6,0l0.3,0.1v14.2
		L3.7,60.3c-0.5-0.2-0.8-0.8-0.8-1.3V45.7l-0.5-0.3c-0.9-0.5-1.6-1.2-2-2.1C0.1,43.8,0,44.5,0,45.1v13.8c0,1.6,0.9,3.2,2.4,3.9
		L14,68.7c1.2,0.6,2.7,0.6,3.9,0l11.6-5.8c1.5-0.7,2.4-2.2,2.4-3.9V45.1c0-0.6-0.1-1.2-0.4-1.8C31.2,44.2,30.5,44.9,29.6,45.4z"/>
	<path class="st2" d="M29.6,27.9l-0.5,0.2v12.7v0.6c0,0.6-0.3,1.1-0.8,1.3l-10.8,5.4v0v-9.8v-3.2V34l0.4-0.2c-1.1,0.5-2.4,0.5-3.6,0
		l0.3,0.1v1.2v3.2v9.8v0L3.7,42.8c-0.5-0.2-0.8-0.8-0.8-1.3v-0.6V28.2l-0.5-0.3c-0.9-0.5-1.6-1.2-2-2.1C0.1,26.4,0,27,0,27.6v13.8
		c0,0.6,0.1,1.3,0.4,1.8c0.4,0.9,1.1,1.6,2,2.1l0.5,0.3L14,51.2c0.1,0,0.1,0.1,0.2,0.1c1.1,0.5,2.5,0.5,3.6,0c0,0,0.1,0,0.1,0
		l11.1-5.6l0.5-0.2c0.9-0.5,1.6-1.2,2-2.1c0.3-0.6,0.4-1.2,0.4-1.8V27.6c0-0.6-0.1-1.2-0.4-1.8C31.2,26.7,30.5,27.5,29.6,27.9z"/>
	<path class="st2" d="M17.9,17.9c-0.2-0.1-0.3-0.1-0.5-0.2v3.2l9.8,4.9l-9.8,4.9v0l10.8-5.4c0.5-0.2,0.8-0.7,0.8-1.3v-0.6L17.9,17.9
		z"/>
	<path class="st2" d="M4.7,25.8l9.8-4.9v-3.2c-0.2,0.1-0.3,0.1-0.5,0.2L2.9,23.5V24c0,0.6,0.3,1.1,0.8,1.3l10.8,5.4v0L4.7,25.8z"/>
	<path class="st3" d="M32,10.2c0-1.7-0.9-3.2-2.4-3.9L17.9,0.5c-1.2-0.6-2.7-0.6-3.9,0L2.4,6.3C0.9,7,0,8.5,0,10.2V24
		c0,0.6,0.1,1.3,0.4,1.8c0.4,0.9,1.1,1.6,2,2.1l0.5,0.3L14,33.8c0.1,0,0.1,0.1,0.2,0.1c1.1,0.5,2.5,0.5,3.6,0c0,0,0.1,0,0.1,0
		l11.1-5.6l0.5-0.2c0.9-0.5,1.6-1.2,2-2.1c0.3-0.6,0.4-1.2,0.4-1.8V10.2z M15.4,3.1c0.4-0.2,0.9-0.2,1.3,0l10.6,5.3L16,14L4.7,8.4
		L15.4,3.1z M3.7,25.3c-0.5-0.2-0.8-0.8-0.8-1.3v-0.6V10.7l11.6,5.8v1.2v3.2v9.8v0L3.7,25.3z M28.3,25.3l-10.8,5.4v0v-9.8v-3.2v-1.2
		l11.6-5.8v12.8V24C29.1,24.6,28.8,25.1,28.3,25.3z"/>
</g>
</svg>
