<?xml version="1.0" encoding="UTF-8"?>
<svg width="109px" height="44px" viewBox="0 0 109 44" version="1.1" xmlns="http://www.w3.org/2000/svg" xmlns:xlink="http://www.w3.org/1999/xlink">
    <defs>
        <path d="M81.9114583,0.880208333 L81.9114583,5.61979167 C81.9114583,5.80676307 82.0630286,5.95833333 82.25,5.95833333 C82.4369714,5.95833333 82.5885417,5.80676307 82.5885417,5.61979167 L82.5885417,0.880208333 C82.5885417,0.693236934 82.4369714,0.541666667 82.25,0.541666667 C82.0630286,0.541666667 81.9114583,0.693236934 81.9114583,0.880208333 Z M79.8802083,3.58854167 L84.6197917,3.58854167 C84.8067631,3.58854167 84.9583333,3.4369714 84.9583333,3.25 C84.9583333,3.0630286 84.8067631,2.91145833 84.6197917,2.91145833 L79.8802083,2.91145833 C79.6932369,2.91145833 79.5416667,3.0630286 79.5416667,3.25 C79.5416667,3.4369714 79.6932369,3.58854167 79.8802083,3.58854167 Z" id="tower-base"></path>
    </defs>
    <g id="Sprint-1" stroke="none" stroke-width="1" fill="none" fill-rule="evenodd">
        <g id="base_torre" transform="translate(1.000000, 0.000000)">
            <path d="M14,37.75 C13.3096441,37.75 12.75,38.3096441 12.75,39 L12.75,42 C12.75,42.6903559 13.3096441,43.25 14,43.25 L79,43.25 C79.6903559,43.25 80.25,42.6903559 80.25,42 L80.25,39 C80.25,38.3096441 79.6903559,37.75 79,37.75 L14,37.75 Z" id="Rectangle-5" stroke="#333333" stroke-width="1.5"></path>
            <path d="M22,24.75 C21.3096441,24.75 20.75,25.3096441 20.75,26 L20.75,29 C20.75,29.6903559 21.3096441,30.25 22,30.25 L72,30.25 C72.6903559,30.25 73.25,29.6903559 73.25,29 L73.25,26 C73.25,25.3096441 72.6903559,24.75 72,24.75 L22,24.75 Z" id="Rectangle-5" stroke="#333333" stroke-width="1.5"></path>
            <path d="M21,0.75 C20.3096441,0.75 19.75,1.30964406 19.75,2 L19.75,5 C19.75,5.69035594 20.3096441,6.25 21,6.25 L73,6.25 C73.6903559,6.25 74.25,5.69035594 74.25,5 L74.25,2 C74.25,1.30964406 73.6903559,0.75 73,0.75 L21,0.75 Z" id="Rectangle-5" stroke="#333333" stroke-width="1.5"></path>
            <path d="M28,12.75 C27.3096441,12.75 26.75,13.3096441 26.75,14 L26.75,17 C26.75,17.6903559 27.3096441,18.25 28,18.25 L66,18.25 C66.6903559,18.25 67.25,17.6903559 67.25,17 L67.25,14 C67.25,13.3096441 66.6903559,12.75 66,12.75 L28,12.75 Z" id="Rectangle-5" stroke="#333333" stroke-width="1.5"></path>
            <path d="M87.9114583,37.8802083 L87.9114583,42.6197917 C87.9114583,42.8067631 88.0630286,42.9583333 88.25,42.9583333 C88.4369714,42.9583333 88.5885417,42.8067631 88.5885417,42.6197917 L88.5885417,37.8802083 C88.5885417,37.6932369 88.4369714,37.5416667 88.25,37.5416667 C88.0630286,37.5416667 87.9114583,37.6932369 87.9114583,37.8802083 Z M85.8802083,40.5885417 L90.6197917,40.5885417 C90.8067631,40.5885417 90.9583333,40.4369714 90.9583333,40.25 C90.9583333,40.0630286 90.8067631,39.9114583 90.6197917,39.9114583 L85.8802083,39.9114583 C85.6932369,39.9114583 85.5416667,40.0630286 85.5416667,40.25 C85.5416667,40.4369714 85.6932369,40.5885417 85.8802083,40.5885417 Z" id="Combined-Shape" stroke="#333333" stroke-width="0.4" fill="#000000" fill-rule="nonzero"></path>
            <path d="M95.9114583,37.8802083 L95.9114583,42.6197917 C95.9114583,42.8067631 96.0630286,42.9583333 96.25,42.9583333 C96.4369714,42.9583333 96.5885417,42.8067631 96.5885417,42.6197917 L96.5885417,37.8802083 C96.5885417,37.6932369 96.4369714,37.5416667 96.25,37.5416667 C96.0630286,37.5416667 95.9114583,37.6932369 95.9114583,37.8802083 Z M93.8802083,40.5885417 L98.6197917,40.5885417 C98.8067631,40.5885417 98.9583333,40.4369714 98.9583333,40.25 C98.9583333,40.0630286 98.8067631,39.9114583 98.6197917,39.9114583 L93.8802083,39.9114583 C93.6932369,39.9114583 93.5416667,40.0630286 93.5416667,40.25 C93.5416667,40.4369714 93.6932369,40.5885417 93.8802083,40.5885417 Z" id="Combined-Shape" stroke="#333333" stroke-width="0.4" fill="#000000" fill-rule="nonzero"></path>
            <path d="M103.911458,37.8802083 L103.911458,42.6197917 C103.911458,42.8067631 104.063029,42.9583333 104.25,42.9583333 C104.436971,42.9583333 104.588542,42.8067631 104.588542,42.6197917 L104.588542,37.8802083 C104.588542,37.6932369 104.436971,37.5416667 104.25,37.5416667 C104.063029,37.5416667 103.911458,37.6932369 103.911458,37.8802083 Z M101.880208,40.5885417 L106.619792,40.5885417 C106.806763,40.5885417 106.958333,40.4369714 106.958333,40.25 C106.958333,40.0630286 106.806763,39.9114583 106.619792,39.9114583 L101.880208,39.9114583 C101.693237,39.9114583 101.541667,40.0630286 101.541667,40.25 C101.541667,40.4369714 101.693237,40.5885417 101.880208,40.5885417 Z" id="Combined-Shape" stroke="#333333" stroke-width="0.4" fill="#000000" fill-rule="nonzero"></path>
            <use id="Combined-Shape" stroke="#333333" stroke-width="0.4" fill="#000000" fill-rule="nonzero" xlink:href="#tower-base"></use>
        </g>
    </g>
</svg>
