<?xml version="1.0" encoding="utf-8"?>
<!-- Generator: Adobe Illustrator 22.0.1, SVG Export Plug-In . SVG Version: 6.00 Build 0)  -->
<svg version="1.1" id="Camada_1" xmlns="http://www.w3.org/2000/svg" xmlns:xlink="http://www.w3.org/1999/xlink" x="0px" y="0px"
	 viewBox="0 0 50 54.3" style="enable-background:new 0 0 50 54.3;" xml:space="preserve">

<path id="path-41_1_" class="st0" d="M36.3,11.4h9c1.2,0,2.3,1,2.3,2.3s-1,2.3-2.3,2.3H43v29.3c0,3.7-3,6.8-6.8,6.8H13.8
	c-3.7,0-6.8-3-6.8-6.8V15.9H4.8c-1.2,0-2.3-1-2.3-2.3s1-2.3,2.3-2.3h9V9.1c0-3.7,3-6.8,6.8-6.8h9c3.7,0,6.8,3,6.8,6.8V11.4z
	 M31.8,11.4V9.1c0-1.2-1-2.3-2.3-2.3h-9c-1.2,0-2.3,1-2.3,2.3v2.3H31.8z M38.5,15.9h-27v29.3c0,1.2,1,2.3,2.3,2.3h22.5
	c1.2,0,2.3-1,2.3-2.3V15.9z M18.3,24.9c0-1.2,1-2.3,2.3-2.3s2.3,1,2.3,2.3v13.5c0,1.2-1,2.3-2.3,2.3s-2.3-1-2.3-2.3V24.9z
	 M27.3,24.9c0-1.2,1-2.3,2.3-2.3s2.3,1,2.3,2.3v13.5c0,1.2-1,2.3-2.3,2.3s-2.3-1-2.3-2.3V24.9z"/>
</svg>
