<?xml version="1.0" encoding="utf-8"?>
<!-- Generator: Adobe Illustrator 21.1.0, SVG Export Plug-In . SVG Version: 6.00 Build 0)  -->
<svg version="1.1" id="Layer_1" xmlns="http://www.w3.org/2000/svg" xmlns:xlink="http://www.w3.org/1999/xlink" x="0px" y="0px"
	 viewBox="0 0 24 24" style="enable-background:new 0 0 24 24;" xml:space="preserve">
<style type="text/css">
	.st0{fill:#333333;}
</style>
<title>Combined Shape Copy</title>
<desc>Created with Sketch.</desc>
<path class="st0" d="M20.4,16.3l-2.7-6c-0.4-0.8-1.2-1.3-2.1-1.3h-2.9V8.8l0,0v-5l2.8,3.3c0.1,0.1,0.3,0.2,0.4,0.2
	c0.4,0,0.7-0.3,0.7-0.7c0-0.2-0.1-0.3-0.2-0.4l0,0l-4.2-4.8c-0.2-0.2-0.5-0.2-0.6,0L7.5,6.1l0,0C7.4,6.2,7.4,6.4,7.4,6.5
	c0,0.4,0.3,0.7,0.7,0.7c0.2,0,0.3-0.1,0.4-0.2l2.8-3.3v5H8.4c-1,0-1.7,0.5-2.1,1.3l-2.7,6.1c-0.1,0.2-0.1,0.4-0.1,0.6v3.6
	c0,1.3,1.1,2.4,2.3,2.4h12.4c1.3,0,2.3-1.1,2.3-2.3v-3.7C20.5,16.7,20.4,16.5,20.4,16.3z M7.6,10.9c0.1-0.2,0.5-0.5,0.7-0.5h2.9v2.5
	c0,0.4,0.4,0.6,0.7,0.6s0.7-0.2,0.7-0.6v-2.5h2.9c0.4,0,0.6,0.1,0.7,0.5l2.2,5H15c-0.2,0-0.5,0.1-0.6,0.4l-1.3,1.9h-2.2l-1.3-1.9
	c-0.1-0.2-0.4-0.4-0.6-0.4H5.5L7.6,10.9z M18.9,20.6c0,0.5-0.4,0.7-0.7,0.7H5.8c-0.5,0-0.7-0.4-0.7-0.7v-3.2h3.4l1.3,1.9
	c0.1,0.2,0.4,0.4,0.6,0.4h3c0.2,0,0.5-0.1,0.6-0.4l1.3-1.9h3.5V20.6z"/>
</svg>
