<?xml version="1.0" encoding="utf-8"?>
<!-- Generator: Adobe Illustrator 21.1.0, SVG Export Plug-In . SVG Version: 6.00 Build 0)  -->
<svg version="1.1" id="Capa_1" xmlns="http://www.w3.org/2000/svg" xmlns:xlink="http://www.w3.org/1999/xlink" x="0px" y="0px"
	 viewBox="0 0 834 590.9" style="enable-background:new 0 0 834 590.9;" xml:space="preserve">
<style type="text/css">
	.st0{fill:none;}
	.st1{fill:#88BBE3;}
	.st2{fill:#C4D6E4;}
	.st3{fill:#FFFFFF;}
	.st4{fill:none;stroke:#000000;stroke-width:11;stroke-linecap:square;stroke-miterlimit:10;}
	.st5{fill:none;stroke:#000000;stroke-width:11;stroke-linecap:square;stroke-miterlimit:10;stroke-dasharray:21.5849,21.5849;}
	.st6{fill:none;stroke:#000000;stroke-width:11;stroke-linecap:square;stroke-miterlimit:10;stroke-dasharray:21.1926,21.1926;}
	.st7{clip-path:url(#SVGID_2_);}
	.st8{clip-path:url(#SVGID_4_);fill:#3B4340;}
	.st9{clip-path:url(#SVGID_6_);}
	.st10{clip-path:url(#SVGID_8_);fill:#3B4340;}
	.st11{clip-path:url(#SVGID_10_);}
	.st12{clip-path:url(#SVGID_12_);fill:#3B4340;}
	.st13{clip-path:url(#SVGID_14_);}
	.st14{clip-path:url(#SVGID_16_);fill:#1AC964;}
	.st15{clip-path:url(#SVGID_18_);}
	.st16{clip-path:url(#SVGID_20_);fill:none;stroke:#FFFFFF;stroke-width:16;stroke-miterlimit:10;}
	.st17{clip-path:url(#SVGID_22_);}
	.st18{clip-path:url(#SVGID_24_);fill:#3B4340;}
	.st19{clip-path:url(#SVGID_26_);}
	.st20{clip-path:url(#SVGID_28_);fill:#3B4340;}
	.st21{clip-path:url(#SVGID_30_);}
	.st22{clip-path:url(#SVGID_32_);fill:#3B4340;}
	.st23{clip-path:url(#SVGID_34_);}
	.st24{clip-path:url(#SVGID_36_);fill:#3B4340;}
	.st25{clip-path:url(#SVGID_38_);}
	.st26{clip-path:url(#SVGID_40_);fill:#3B4340;}
	.st27{clip-path:url(#SVGID_42_);}
	.st28{clip-path:url(#SVGID_44_);fill:#3B4340;}
	.st29{clip-path:url(#SVGID_46_);}
	.st30{clip-path:url(#SVGID_48_);fill:#1AC964;}
	.st31{clip-path:url(#SVGID_50_);}
	.st32{clip-path:url(#SVGID_52_);fill:none;stroke:#FFFFFF;stroke-width:16;stroke-miterlimit:10;}
	.st33{clip-path:url(#SVGID_54_);}
	.st34{clip-path:url(#SVGID_56_);fill:#3B4340;}
	.st35{clip-path:url(#SVGID_58_);}
	.st36{clip-path:url(#SVGID_60_);fill:#3B4340;}
	.st37{clip-path:url(#SVGID_62_);}
	.st38{clip-path:url(#SVGID_64_);fill:#3B4340;}
	.st39{clip-path:url(#SVGID_66_);}
	.st40{clip-path:url(#SVGID_68_);fill:#3B4340;}
	.st41{fill:#000102;}
</style>
<g>
	<g>
		<defs>
			<path id="SVGID_1_" d="M936-390.3l2.6-4c-0.1-0.1,0.1-0.3,0-0.4l-3.7-0.5c-24.8,0-49.5,19.2-55.5,43.3l-9.3,37.3
				c-1.5,5.9,2.7,11.3,8.8,11.3h172c6.1,0,10.3-5.4,8.8-11.3l-9.3-37.3c-6-24.1-30.7-43.3-55.5-43.3h-1.2c-0.1,0.1-2.9,0.4-3,0.5
				l3.6,4.3l-2.8-2.3c-1,1-2,2-3.2,2.9l0.1,0.5h6.5c22.1,0,44.3,17.4,49.7,38.8l9.3,37.3c0.5,2.1-0.8,3.9-3,3.9h-172
				c-2.2,0-3.6-1.7-3-3.9l9.3-37.3c5.4-21.4,27.6-38.8,49.7-38.8h6.5l0.1-0.5c-1.2-0.9-2.2-1.9-3.2-2.9L936-390.3z"/>
		</defs>
		<clipPath id="SVGID_2_">
			<use xlink:href="#SVGID_1_"  style="overflow:visible;"/>
		</clipPath>
		<g class="st7">
			<defs>
				<rect id="SVGID_3_" x="47.8" y="-1064.2" width="2400" height="1800"/>
			</defs>
			<clipPath id="SVGID_4_">
				<use xlink:href="#SVGID_3_"  style="overflow:visible;"/>
			</clipPath>
		</g>
	</g>
	<g>
		<defs>
			<path id="SVGID_5_" d="M921.3-433.7c0.3,1.2,1,3.3,2,5.9c1.8,4.3,4.1,8.7,6.9,12.8c8.3,11.8,19.9,18.9,34.9,18.9
				c14.9,0,26.3-6.3,34.4-16.6c2.8-3.6,5-7.4,6.7-11.3c1-2.3,1.6-4.2,1.9-5.3l-5.8-1.5c0,0.2-0.2,0.6-0.4,1.1
				c-0.3,1-0.8,2.1-1.3,3.3c-1.5,3.4-3.5,6.8-5.9,10c-7,9-16.7,14.3-29.7,14.3c-12.9,0-22.7-6.1-30-16.4c-2.6-3.7-4.7-7.6-6.3-11.5
				c-0.6-1.4-1-2.7-1.4-3.8c-0.1-0.4-0.2-0.7-0.3-1c0-0.2-0.1-0.3-0.1-0.3L921.3-433.7z"/>
		</defs>
		<clipPath id="SVGID_6_">
			<use xlink:href="#SVGID_5_"  style="overflow:visible;"/>
		</clipPath>
		<g class="st9">
			<defs>
				<rect id="SVGID_7_" x="47.8" y="-1064.2" width="2400" height="1800"/>
			</defs>
			<clipPath id="SVGID_8_">
				<use xlink:href="#SVGID_7_"  style="overflow:visible;"/>
			</clipPath>
		</g>
	</g>
	<g>
		<defs>
			<path id="SVGID_9_" d="M922.3-460.1c3-11.4,19.4-27.2,19.4-27.2s20.2,15.1,44.5,24.7c24.3,9.7,21.4,32.1,21.4,32.1
				s23-45.6-5.9-75.3c-28.9-29.7-66.3-6.3-66.3-6.3s-20.1,11.6-21.3,37.1c-1.4,29.1,8.2,41.5,8.2,41.5S919.3-448.7,922.3-460.1z
				 M928.1-458.5L928.1-458.5c-0.5,1.8-0.8,3.9-1,6.3c-0.3,4.4-0.1,9.1,0.5,13.8c0.1,1.1,0.3,2.1,0.4,3c0.1,0.5,0.1,0.9,0.2,1
				c1.2,6.2-6.8,9.8-10.6,4.8c-0.2-0.2-0.4-0.5-0.6-0.9c-0.4-0.6-0.8-1.2-1.2-2c-1.1-2-2.3-4.5-3.3-7.3c-3.4-9.3-5.1-21.1-4.4-35.3
				c0.6-12.2,5-22.6,12-31c2.6-3.2,5.4-5.9,8.3-8.1c1-0.8,1.9-1.5,2.8-2.1c0.5-0.4,1-0.6,1.3-0.8l-0.2,0.1c0.6-0.4,1.5-0.9,2.9-1.6
				c2.2-1.1,4.6-2.2,7.3-3.3c14.7-5.7,30.2-6.9,44.9-0.8c6.7,2.8,13,7.1,18.7,12.9c7.8,8,12.6,17.5,14.9,28.1
				c2.9,13.7,1.2,28.2-3.2,42.1c-1,3.2-2.1,6.1-3.2,8.6c-0.7,1.6-1.2,2.7-1.5,3.4c-3,6-12.2,3.2-11.3-3.5c0,0,0-0.1,0-0.2
				c0.1-1.4,0-3.2-0.3-5.3c-0.5-3-1.5-6-3.2-8.8c-2.9-4.8-7.4-8.7-14.2-11.4c-6.2-2.5-12.5-5.4-18.7-8.7
				c-6.9-3.7-13.5-7.6-19.5-11.5c-2.1-1.4-4-2.7-5.6-3.8c-1-0.7-1.7-1.2-2.1-1.5l7.8-0.5c-0.1,0.1-0.4,0.4-0.8,0.8
				c-0.6,0.6-1.4,1.4-2.1,2.2c-2.2,2.4-4.4,4.9-6.5,7.4c-2.1,2.7-4,5.2-5.4,7.6C929.5-462.4,928.5-460.3,928.1-458.5z"/>
		</defs>
		<clipPath id="SVGID_10_">
			<use xlink:href="#SVGID_9_"  style="overflow:visible;"/>
		</clipPath>
		<g class="st11">
			<defs>
				<rect id="SVGID_11_" x="47.8" y="-1064.2" width="2400" height="1800"/>
			</defs>
			<clipPath id="SVGID_12_">
				<use xlink:href="#SVGID_11_"  style="overflow:visible;"/>
			</clipPath>
		</g>
	</g>
	<g>
		<defs>
			<path id="SVGID_13_" d="M1061.3-319.8L1061.3-319.8c-1.2-0.4-3.7-0.4-4.9,0l-17.1,6.1c-4.7,1.7-9.1-1.5-9-6.5l0.5-18.2
				c0-1.3-0.7-3.6-1.5-4.6l-11.1-14.4c-3.1-4-1.4-9.2,3.4-10.6l17.4-5.1c1.2-0.4,3.2-1.8,3.9-2.9l10.3-15c2.8-4.1,8.3-4.1,11.1,0
				l10.3,15c0.7,1.1,2.7,2.5,3.9,2.9l17.4,5.1c4.8,1.4,6.5,6.6,3.4,10.6l-11.1,14.4c-0.8,1-1.5,3.3-1.5,4.6l0.5,18.2
				c0.1,5-4.3,8.2-9,6.5L1061.3-319.8z"/>
		</defs>
		<clipPath id="SVGID_14_">
			<use xlink:href="#SVGID_13_"  style="overflow:visible;"/>
		</clipPath>
		<g class="st13">
			<defs>
				<rect id="SVGID_15_" x="47.8" y="-1064.2" width="2400" height="1800"/>
			</defs>
			<clipPath id="SVGID_16_">
				<use xlink:href="#SVGID_15_"  style="overflow:visible;"/>
			</clipPath>
		</g>
	</g>
	<g>
		<defs>
			<path id="SVGID_17_" d="M1062.6-323.6c-2.1-0.7-5.5-0.7-7.6,0l-17.1,6.1c-2.1,0.7-3.7-0.4-3.7-2.7l0.5-18.2
				c0.1-2.2-1-5.4-2.3-7.2l-11.1-14.4c-1.3-1.8-0.7-3.7,1.4-4.3l17.4-5.1c2.1-0.6,4.9-2.6,6.1-4.4l10.3-15c1.3-1.8,3.3-1.8,4.5,0
				l10.3,15c1.3,1.8,4,3.8,6.1,4.4l17.4,5.1c2.1,0.6,2.8,2.6,1.4,4.3l-11.1,14.4c-1.3,1.8-2.4,5-2.3,7.2l0.5,18.2
				c0.1,2.2-1.6,3.4-3.7,2.7L1062.6-323.6z M1002.6-408.2H1115v108.9h-112.4V-408.2z"/>
		</defs>
		<clipPath id="SVGID_18_">
			<use xlink:href="#SVGID_17_"  style="overflow:visible;"/>
		</clipPath>
		<g class="st15">
			<defs>
				<rect id="SVGID_19_" x="47.8" y="-1064.2" width="2400" height="1800"/>
			</defs>
			<clipPath id="SVGID_20_">
				<use xlink:href="#SVGID_19_"  style="overflow:visible;"/>
			</clipPath>
		</g>
	</g>
	<g>
		<defs>
			<path id="SVGID_21_" d="M935.6-390.4l25.5,54.5c0.7,1.5,2.5,2.1,4,1.4c1.5-0.7,2.1-2.5,1.4-4L941-392.9c-0.7-1.5-2.5-2.1-4-1.4
				C935.6-393.7,934.9-391.9,935.6-390.4z"/>
		</defs>
		<clipPath id="SVGID_22_">
			<use xlink:href="#SVGID_21_"  style="overflow:visible;"/>
		</clipPath>
		<g class="st17">
			<defs>
				<rect id="SVGID_23_" x="47.8" y="-1064.2" width="2400" height="1800"/>
			</defs>
			<clipPath id="SVGID_24_">
				<use xlink:href="#SVGID_23_"  style="overflow:visible;"/>
			</clipPath>
		</g>
	</g>
	<g>
		<defs>
			<path id="SVGID_25_" d="M994-390.3l-27.5,54.5c-0.7,1.5-2.6,2.1-4,1.3c-1.5-0.7-2.1-2.6-1.3-4l27.5-54.5c0.7-1.5,2.6-2.1,4-1.3
				C994.2-393.6,994.8-391.8,994-390.3z"/>
		</defs>
		<clipPath id="SVGID_26_">
			<use xlink:href="#SVGID_25_"  style="overflow:visible;"/>
		</clipPath>
		<g class="st19">
			<defs>
				<rect id="SVGID_27_" x="47.8" y="-1064.2" width="2400" height="1800"/>
			</defs>
			<clipPath id="SVGID_28_">
				<use xlink:href="#SVGID_27_"  style="overflow:visible;"/>
			</clipPath>
		</g>
	</g>
	<g>
		<defs>
			<path id="SVGID_29_" d="M917.3-356.5l-9.5,23.8c-0.8,1.9,0.6,4,2.6,4.1c0.1,0,0.3,0,0.6,0c0.5,0,1.1,0.1,1.7,0.1
				c1.9,0.1,4,0.3,6.2,0.4c6.4,0.5,12.9,1,18.9,1.6c13.7,1.3,23.4,2.6,25.8,3.6c2,0.9,4.2,1,6.9,0.6c1.8-0.3,2.2-0.4,6.9-1.5
				c6.8-1.7,10.6-2.1,14.6-0.9c1.2,0.3,2.3,0.8,3.4,1.5c3,1.7,5.6,3.9,7.8,6.4c2.1,2.4,3.7,4.9,4.8,7.5c0.4,0.9,0.7,1.7,1,2.4
				c0.1,0.4,0.2,0.7,0.2,0.8c0.4,1.6,2,2.6,3.6,2.2c1.6-0.4,2.6-2,2.2-3.6c-0.2-0.9-0.7-2.4-1.6-4.3c-1.4-3.1-3.3-6.1-5.8-8.9
				c-2.6-3-5.7-5.6-9.3-7.7c-1.5-0.9-3.1-1.5-4.8-2c-5.4-1.5-10-1.1-17.7,0.9c-6.7,1.7-8.4,1.9-10.1,1.2c-3.3-1.4-12.9-2.7-27.6-4.1
				c-6-0.6-12.5-1.1-19-1.6c-2.3-0.2-4.4-0.3-6.3-0.4c-0.7,0-1.2-0.1-1.8-0.1c-0.3,0-0.5,0-0.6,0l2.6,4.1l9.5-23.8
				c0.6-1.5-0.1-3.3-1.7-3.9C919.7-358.8,917.9-358.1,917.3-356.5z"/>
		</defs>
		<clipPath id="SVGID_30_">
			<use xlink:href="#SVGID_29_"  style="overflow:visible;"/>
		</clipPath>
		<g class="st21">
			<defs>
				<rect id="SVGID_31_" x="47.8" y="-1064.2" width="2400" height="1800"/>
			</defs>
			<clipPath id="SVGID_32_">
				<use xlink:href="#SVGID_31_"  style="overflow:visible;"/>
			</clipPath>
		</g>
	</g>
	<g>
		<defs>
			<path id="SVGID_33_" d="M1051.8-491.2v-13.9c-3.4,0.5-6,3.4-6,6.9C1045.8-494.6,1048.4-491.7,1051.8-491.2z M1067.8-485.1v13.9
				c3.4-0.5,6-3.4,6-6.9C1073.8-481.7,1071.2-484.6,1067.8-485.1z M1057.8-471.2v-14h4v14H1057.8z M1057.8-505.2v14h4v-14H1057.8z
				 M1057.8-515.2c0-1.7-1.3-3-3-3c-1.7,0-3,1.3-3,3v4c-6.7,0.5-12,6.1-12,13s5.3,12.5,12,13v14c-3.4-0.5-6-3.4-6-6.9
				c0-1.7-1.3-3-3-3s-3,1.3-3,3c0,6.8,5.3,12.5,12,13v4c0,1.7,1.3,3,3,3c1.7,0,3-1.3,3-3v-4h4v4c0,1.7,1.3,3,3,3c1.7,0,3-1.3,3-3v-4
				c6.7-0.5,12-6.1,12-13s-5.3-12.5-12-13v-14c3.4,0.5,6,3.4,6,6.9c0,1.7,1.3,3,3,3s3-1.3,3-3c0-6.8-5.3-12.5-12-13v-4
				c0-1.7-1.3-3-3-3c-1.7,0-3,1.3-3,3v4h-4V-515.2z"/>
		</defs>
		<clipPath id="SVGID_34_">
			<use xlink:href="#SVGID_33_"  style="overflow:visible;"/>
		</clipPath>
		<g class="st23">
			<defs>
				<rect id="SVGID_35_" x="47.8" y="-1064.2" width="2400" height="1800"/>
			</defs>
			<clipPath id="SVGID_36_">
				<use xlink:href="#SVGID_35_"  style="overflow:visible;"/>
			</clipPath>
		</g>
	</g>
</g>
<g>
	<defs>
		<path id="SVGID_37_" d="M936,375.3l2.6-4c-0.1-0.1,0.1-0.3,0-0.4l-3.7-0.5c-24.8,0-49.5,19.2-55.5,43.3l-9.3,37.3
			c-1.5,5.9,2.7,11.3,8.8,11.3h172c6.1,0,10.3-5.4,8.8-11.3l-9.3-37.3c-6-24.1-30.7-43.3-55.5-43.3h-1.2c-0.1,0.1-2.9,0.4-3,0.5
			l3.6,4.3l-2.8-2.3c-1,1-2,2-3.2,2.9l0.1,0.5h6.5c22.1,0,44.3,17.4,49.7,38.8l9.3,37.3c0.5,2.1-0.8,3.9-3,3.9h-172
			c-2.2,0-3.6-1.7-3-3.9l9.3-37.3c5.4-21.4,27.6-38.8,49.7-38.8h6.5l0.1-0.5c-1.2-0.9-2.2-1.9-3.2-2.9L936,375.3z"/>
	</defs>
	<clipPath id="SVGID_38_">
		<use xlink:href="#SVGID_37_"  style="overflow:visible;"/>
	</clipPath>
	<g class="st25">
		<defs>
			<rect id="SVGID_39_" x="47.8" y="-298.5" width="2400" height="1800"/>
		</defs>
		<clipPath id="SVGID_40_">
			<use xlink:href="#SVGID_39_"  style="overflow:visible;"/>
		</clipPath>
	</g>
</g>
<g>
	<defs>
		<path id="SVGID_41_" d="M922.3,305.5c3-11.4,19.4-27.2,19.4-27.2s20.2,15.1,44.5,24.7c24.3,9.7,21.4,32.1,21.4,32.1
			s23-45.6-5.9-75.3c-28.9-29.7-66.3-6.3-66.3-6.3s-20.1,11.6-21.3,37.1c-1.4,29.1,8.2,41.5,8.2,41.5S919.3,316.9,922.3,305.5z
			 M928.1,307.1L928.1,307.1c-0.5,1.8-0.8,3.9-1,6.3c-0.3,4.4-0.1,9.1,0.5,13.8c0.1,1.1,0.3,2.1,0.4,3c0.1,0.5,0.1,0.9,0.2,1
			c1.2,6.2-6.8,9.8-10.6,4.8c-0.2-0.2-0.4-0.5-0.6-0.9c-0.4-0.6-0.8-1.2-1.2-2c-1.1-2-2.3-4.5-3.3-7.3c-3.4-9.3-5.1-21.1-4.4-35.3
			c0.6-12.2,5-22.6,12-31c2.6-3.2,5.4-5.9,8.3-8.1c1-0.8,1.9-1.5,2.8-2.1c0.5-0.4,1-0.6,1.3-0.8l-0.2,0.1c0.6-0.4,1.5-0.9,2.9-1.6
			c2.2-1.1,4.6-2.2,7.3-3.3c14.7-5.7,30.2-6.9,44.9-0.8c6.7,2.8,13,7.1,18.7,12.9c7.8,8,12.6,17.5,14.9,28.1
			c2.9,13.7,1.2,28.2-3.2,42.1c-1,3.2-2.1,6.1-3.2,8.6c-0.7,1.6-1.2,2.7-1.5,3.4c-3,6-12.2,3.2-11.3-3.5c0,0,0-0.1,0-0.2
			c0.1-1.4,0-3.2-0.3-5.3c-0.5-3-1.5-6-3.2-8.8c-2.9-4.8-7.4-8.7-14.2-11.4c-6.2-2.5-12.5-5.4-18.7-8.7c-6.9-3.7-13.5-7.6-19.5-11.5
			c-2.1-1.4-4-2.7-5.6-3.8c-1-0.7-1.7-1.2-2.1-1.5l7.8-0.5c-0.1,0.1-0.4,0.4-0.8,0.8c-0.6,0.6-1.4,1.4-2.1,2.2
			c-2.2,2.4-4.4,4.9-6.5,7.4c-2.1,2.7-4,5.2-5.4,7.6C929.5,303.2,928.5,305.3,928.1,307.1z"/>
	</defs>
	<clipPath id="SVGID_42_">
		<use xlink:href="#SVGID_41_"  style="overflow:visible;"/>
	</clipPath>
	<g class="st27">
		<defs>
			<rect id="SVGID_43_" x="47.8" y="-298.5" width="2400" height="1800"/>
		</defs>
		<clipPath id="SVGID_44_">
			<use xlink:href="#SVGID_43_"  style="overflow:visible;"/>
		</clipPath>
	</g>
</g>
<g>
	<defs>
		<path id="SVGID_45_" d="M1061.3,445.8L1061.3,445.8c-1.2-0.4-3.7-0.4-4.9,0l-17.1,6.1c-4.7,1.7-9.1-1.5-9-6.5l0.5-18.2
			c0-1.3-0.7-3.6-1.5-4.6l-11.1-14.4c-3.1-4-1.4-9.2,3.4-10.6l17.4-5.1c1.2-0.4,3.2-1.8,3.9-2.9l10.3-15c2.8-4.1,8.3-4.1,11.1,0
			l10.3,15c0.7,1.1,2.7,2.5,3.9,2.9l17.4,5.1c4.8,1.4,6.5,6.6,3.4,10.6l-11.1,14.4c-0.8,1-1.5,3.3-1.5,4.6l0.5,18.2
			c0.1,5-4.3,8.2-9,6.5L1061.3,445.8z"/>
	</defs>
	<clipPath id="SVGID_46_">
		<use xlink:href="#SVGID_45_"  style="overflow:visible;"/>
	</clipPath>
	<g class="st29">
		<defs>
			<rect id="SVGID_47_" x="47.8" y="-298.5" width="2400" height="1800"/>
		</defs>
		<clipPath id="SVGID_48_">
			<use xlink:href="#SVGID_47_"  style="overflow:visible;"/>
		</clipPath>
	</g>
</g>
<g>
	<defs>
		<path id="SVGID_49_" d="M1062.6,442c-2.1-0.7-5.5-0.7-7.6,0l-17.1,6.1c-2.1,0.7-3.7-0.4-3.7-2.7l0.5-18.2c0.1-2.2-1-5.4-2.3-7.2
			l-11.1-14.4c-1.3-1.8-0.7-3.7,1.4-4.3l17.4-5.1c2.1-0.6,4.9-2.6,6.1-4.4l10.3-15c1.3-1.8,3.3-1.8,4.5,0l10.3,15
			c1.3,1.8,4,3.8,6.1,4.4l17.4,5.1c2.1,0.6,2.8,2.6,1.4,4.3l-11.1,14.4c-1.3,1.8-2.4,5-2.3,7.2l0.5,18.2c0.1,2.2-1.6,3.4-3.7,2.7
			L1062.6,442z M1002.6,357.4H1115v108.9h-112.4V357.4z"/>
	</defs>
	<clipPath id="SVGID_50_">
		<use xlink:href="#SVGID_49_"  style="overflow:visible;"/>
	</clipPath>
	<g class="st31">
		<defs>
			<rect id="SVGID_51_" x="47.8" y="-298.5" width="2400" height="1800"/>
		</defs>
		<clipPath id="SVGID_52_">
			<use xlink:href="#SVGID_51_"  style="overflow:visible;"/>
		</clipPath>
	</g>
</g>
<g>
	<defs>
		<path id="SVGID_53_" d="M935.6,375.2l25.5,54.5c0.7,1.5,2.5,2.1,4,1.4c1.5-0.7,2.1-2.5,1.4-4L941,372.7c-0.7-1.5-2.5-2.1-4-1.4
			C935.6,371.9,934.9,373.7,935.6,375.2z"/>
	</defs>
	<clipPath id="SVGID_54_">
		<use xlink:href="#SVGID_53_"  style="overflow:visible;"/>
	</clipPath>
	<g class="st33">
		<defs>
			<rect id="SVGID_55_" x="47.8" y="-298.5" width="2400" height="1800"/>
		</defs>
		<clipPath id="SVGID_56_">
			<use xlink:href="#SVGID_55_"  style="overflow:visible;"/>
		</clipPath>
	</g>
</g>
<g>
	<defs>
		<path id="SVGID_57_" d="M994,375.3l-27.5,54.5c-0.7,1.5-2.6,2.1-4,1.3c-1.5-0.7-2.1-2.6-1.3-4l27.5-54.5c0.7-1.5,2.6-2.1,4-1.3
			C994.2,372,994.8,373.8,994,375.3z"/>
	</defs>
	<clipPath id="SVGID_58_">
		<use xlink:href="#SVGID_57_"  style="overflow:visible;"/>
	</clipPath>
	<g class="st35">
		<defs>
			<rect id="SVGID_59_" x="47.8" y="-298.5" width="2400" height="1800"/>
		</defs>
		<clipPath id="SVGID_60_">
			<use xlink:href="#SVGID_59_"  style="overflow:visible;"/>
		</clipPath>
	</g>
</g>
<g>
	<defs>
		<path id="SVGID_61_" d="M917.3,409.1l-9.5,23.8c-0.8,1.9,0.6,4,2.6,4.1c0.1,0,0.3,0,0.6,0c0.5,0,1.1,0.1,1.7,0.1
			c1.9,0.1,4,0.3,6.2,0.4c6.4,0.5,12.9,1,18.9,1.6c13.7,1.3,23.4,2.6,25.8,3.6c2,0.9,4.2,1,6.9,0.6c1.8-0.3,2.2-0.4,6.9-1.5
			c6.8-1.7,10.6-2.1,14.6-0.9c1.2,0.3,2.3,0.8,3.4,1.5c3,1.7,5.6,3.9,7.8,6.4c2.1,2.4,3.7,4.9,4.8,7.5c0.4,0.9,0.7,1.7,1,2.4
			c0.1,0.4,0.2,0.7,0.2,0.8c0.4,1.6,2,2.6,3.6,2.2s2.6-2,2.2-3.6c-0.2-0.9-0.7-2.4-1.6-4.3c-1.4-3.1-3.3-6.1-5.8-8.9
			c-2.6-3-5.7-5.6-9.3-7.7c-1.5-0.9-3.1-1.5-4.8-2c-5.4-1.5-10-1.1-17.7,0.9c-6.7,1.7-8.4,1.9-10.1,1.2c-3.3-1.4-12.9-2.7-27.6-4.1
			c-6-0.6-12.5-1.1-19-1.6c-2.3-0.2-4.4-0.3-6.3-0.4c-0.7,0-1.2-0.1-1.8-0.1c-0.3,0-0.5,0-0.6,0l2.6,4.1l9.5-23.8
			c0.6-1.5-0.1-3.3-1.7-3.9C919.7,406.8,917.9,407.5,917.3,409.1z"/>
	</defs>
	<clipPath id="SVGID_62_">
		<use xlink:href="#SVGID_61_"  style="overflow:visible;"/>
	</clipPath>
	<g class="st37">
		<defs>
			<rect id="SVGID_63_" x="47.8" y="-298.5" width="2400" height="1800"/>
		</defs>
		<clipPath id="SVGID_64_">
			<use xlink:href="#SVGID_63_"  style="overflow:visible;"/>
		</clipPath>
	</g>
</g>
<g>
	<defs>
		<path id="SVGID_65_" d="M1051.8,274.4v-13.9c-3.4,0.5-6,3.4-6,6.9C1045.8,271,1048.4,273.9,1051.8,274.4z M1067.8,280.5v13.9
			c3.4-0.5,6-3.4,6-6.9C1073.8,283.9,1071.2,281,1067.8,280.5z M1057.8,294.5v-14h4v14H1057.8z M1057.8,260.5v14h4v-14H1057.8z
			 M1057.8,250.4c0-1.7-1.3-3-3-3c-1.7,0-3,1.3-3,3v4c-6.7,0.5-12,6.1-12,13s5.3,12.5,12,13v14c-3.4-0.5-6-3.4-6-6.9
			c0-1.7-1.3-3-3-3s-3,1.3-3,3c0,6.8,5.3,12.5,12,13v4c0,1.7,1.3,3,3,3c1.7,0,3-1.3,3-3v-4h4v4c0,1.7,1.3,3,3,3c1.7,0,3-1.3,3-3v-4
			c6.7-0.5,12-6.1,12-13s-5.3-12.5-12-13v-14c3.4,0.5,6,3.4,6,6.9c0,1.7,1.3,3,3,3s3-1.3,3-3c0-6.8-5.3-12.5-12-13v-4
			c0-1.7-1.3-3-3-3c-1.7,0-3,1.3-3,3v4h-4V250.4z"/>
	</defs>
	<clipPath id="SVGID_66_">
		<use xlink:href="#SVGID_65_"  style="overflow:visible;"/>
	</clipPath>
	<g class="st39">
		<defs>
			<rect id="SVGID_67_" x="47.8" y="-298.5" width="2400" height="1800"/>
		</defs>
		<clipPath id="SVGID_68_">
			<use xlink:href="#SVGID_67_"  style="overflow:visible;"/>
		</clipPath>
	</g>
</g>
<g>
	<path class="st0" d="M199.8,125c-2.8,0-5,2.3-5,5v98.1c0,1.7,1.3,3,3,3h29.4V125H199.8z"/>
	<path class="st0" d="M197.8,237.1c-1.7,0-3,1.3-3,3v246c0,2.8,2.3,5,5,5h27.4v-254H197.8z"/>
	<path class="st2" d="M527.4,418.4h58.2c1.7,0,3-1.3,3-3v-74.6c-0.1,0-0.2-0.1-0.2-0.1l-2.7-1.2l2.5-5.5l0.5,0.2v-94.1
		c0-1.7-1.3-3-3-3H227.3v254h286.1c1.7,0,3-1.3,3-3v-58.5C516.3,423.4,521.3,418.4,527.4,418.4z M279.1,326
		c-6.5,0-11.8-5.3-11.8-11.8c0-6.5,5.3-11.8,11.8-11.8s11.8,5.3,11.8,11.8C290.9,320.7,285.7,326,279.1,326z M458.6,407.5
		c-0.6,1-2.1,1.7-3.8,1.7c-0.4,0-0.9,0-1.3-0.1l-12.6-2.9c-33-7.5-69.3-7.5-102.3,0L326,409c-2.1,0.5-4.4-0.2-5.1-1.6
		c-0.7-1.3,0.4-2.8,2.4-3.3l12.6-2.9c34.7-7.9,72.9-7.9,107.6,0l12.6,2.9C458.2,404.7,459.3,406.1,458.6,407.5z M507.5,326
		c-6.5,0-11.8-5.3-11.8-11.8c0-6.5,5.3-11.8,11.8-11.8s11.8,5.3,11.8,11.8C519.3,320.7,514,326,507.5,326z"/>
	<path class="st1" d="M527.4,424.4c-2.8,0-5.1,2.3-5.1,5.1v57.1l60.2-62.2H527.4z"/>
	<path class="st1" d="M271.8,184.4c-2.8,0-5-2.2-5-5V125h-39.5v106.1h358.4c1.7,0,3-1.3,3-3V130c0-2.8-2.3-5-5-5h-44.7
		c-1.7,0-3-1.3-3-3c0,0,0,0,0,0h-18.8v56.4c0,2.8-2.2,5-5,5s-5-2.2-5-5V125H300.3c-1.7,0-3-1.3-3-3c0,0,0,0,0,0h-20.5v57.4
		C276.8,182.2,274.5,184.4,271.8,184.4z"/>
	<path d="M456.1,404.2l-12.6-2.9c-34.7-7.9-72.9-7.9-107.6,0l-12.6,2.9c-2.1,0.5-3.2,1.9-2.4,3.3c0.7,1.3,3,2,5.1,1.6l12.6-2.9
		c33-7.5,69.3-7.5,102.3,0l12.6,2.9c0.4,0.1,0.9,0.1,1.3,0.1c1.6,0,3.2-0.7,3.8-1.7C459.3,406.1,458.2,404.7,456.1,404.2z"/>
	<circle cx="279.1" cy="314.2" r="11.8"/>
	<circle cx="507.5" cy="314.2" r="11.8"/>
	<path d="M630,67.8c0-9.9-8.6-17.3-20.1-17.3c-11,0-19.5,7.3-20.2,17.3c-0.1,1.8,1.3,3.4,3.1,3.4h2.3c1.6,0,2.9-1.2,3.1-2.8l0,0
		c0.6-5.8,5.3-9.7,11.7-9.7c6.6,0,11.4,3.9,11.4,9.2c0,2.7-1.3,5.4-7.4,9.6c-6.4,4.3-9.9,8-9.9,15.2v4c0,1.7,1.4,3.1,3.1,3.1h2.4
		c1.7,0,3.1-1.4,3.1-3.1v-3.9c0-3.3,0.6-5,6.4-8.8C626.8,78.9,630,74.2,630,67.8z"/>
	<path d="M608.4,105.6c-3,0-5.5,2.4-5.5,5.3c0,2.9,2.5,5.2,5.5,5.2c3.1,0,5.6-2.4,5.6-5.2C614,108,611.5,105.6,608.4,105.6z"/>
	<path d="M658.8,369.6c-9.4,0-16.7,5.9-17.2,13.9c-0.1,1.5,1,2.7,2.5,2.7h2.3c1.3,0,2.4-1,2.5-2.2l0,0c0.5-4.7,4.5-7.8,10-7.8
		c5.6,0,9.7,3.1,9.7,7.4c0,2.2-1.1,4.3-6.3,7.7c-5.5,3.5-8.4,6.4-8.4,12.2v3.2c0,1.4,1.1,2.5,2.5,2.5h2.3c1.4,0,2.5-1.1,2.5-2.5
		v-3.2c0-2.7,0.5-4,5.5-7.1c6.6-4.1,9.3-7.8,9.3-13C675.9,375.5,668.6,369.6,658.8,369.6z"/>
	<path d="M657.6,413.9c-2.6,0-4.7,1.9-4.7,4.2c0,2.3,2.1,4.2,4.7,4.2c2.6,0,4.7-1.9,4.7-4.2C662.3,415.8,660.2,413.9,657.6,413.9z"
		/>
	<path d="M122.7,273c-2.7,0-4.9,2-4.9,4.4c0,2.4,2.2,4.4,4.9,4.4c2.7,0,4.9-2,4.9-4.4C127.6,274.9,125.4,273,122.7,273z"/>
	<path d="M132.1,254.9c6.9-4.2,9.7-8.1,9.7-13.5c0-8.2-7.7-14.4-17.8-14.4c-9.8,0-17.3,6.1-17.9,14.5c-0.1,1.5,1.1,2.8,2.6,2.8h2.4
		c1.3,0,2.4-1,2.6-2.3l0,0c0.5-4.8,4.7-8.1,10.3-8.1c5.8,0,10.1,3.2,10.1,7.7c0,2.3-1.1,4.5-6.6,8c-5.7,3.6-8.7,6.7-8.7,12.7v3.4
		c0,1.4,1.2,2.6,2.6,2.6h2.4c1.4,0,2.6-1.2,2.6-2.6v-3.3C126.4,259.4,126.8,258.1,132.1,254.9z"/>
	<path d="M84.6,451.5l-2.2-2.1l-4.1,4.4l2.2,2.1c5.7,5.4,12.2,9.1,19.3,11l3.5,0.9l1.5-5.8l-3.4-0.9
		C95.2,459.4,89.5,456.2,84.6,451.5z"/>
	<path d="M130.2,437.6l-5.9,0.8l0.4,3c0.2,1.2,0.2,2.4,0.2,3.6c0,5.7-1.9,10.6-5.3,13.6l-2.2,2l4,4.5l2.2-2
		c4.7-4.2,7.4-10.6,7.4-18.1c0-1.4-0.1-2.9-0.3-4.4L130.2,437.6z"/>
	<path d="M121.8,422.2l-2.3-2c-5.6-4.9-12.8-8.2-20.8-9.6l-3-0.5l-1,5.9l3,0.5c6.9,1.2,13.1,4.1,17.9,8.2l2.3,2L121.8,422.2z"/>
	<path d="M90.3,358c3.6-4.5,7.8-8.9,12.2-13.3c0.8-0.7,1.5-1.5,2.3-2.2l2.2-2.1l-4.1-4.4l-2.2,2.1c-0.8,0.7-1.6,1.5-2.3,2.2
		c-4.6,4.5-8.9,9.1-12.7,13.8l-1.9,2.3l4.6,3.8L90.3,358z"/>
	<path d="M137.7,314.5c-3.7,1.4-7.3,2.9-10.7,4.6c-3.1,1.5-6.2,3.3-9.2,5.3l-2.5,1.6l3.3,5l2.5-1.6c2.9-1.9,5.7-3.5,8.6-4.9
		c3.2-1.6,6.6-3.1,10.1-4.4l2.8-1.1l-2.1-5.6L137.7,314.5z"/>
	<path d="M181,306.3c-7.2,0.1-14.6,0.8-22,2.2l-2.9,0.6l1.1,5.9l2.9-0.6c7-1.3,14-2,20.9-2.1l3,0l-0.1-6L181,306.3z"/>
	<path d="M34.4,503.2c-0.2-3.5-0.3-6.8-0.3-10c0-3.9,0.1-7.6,0.4-11.1l0.2-3l-6-0.5l-0.2,3c-0.3,3.7-0.4,7.6-0.4,11.6
		c0,3.3,0.1,6.7,0.3,10.4l0.2,3l6-0.3L34.4,503.2z"/>
	<path d="M70.5,394.6c1.7-6.4,4.4-12.9,7.9-19.2l1.5-2.6l-5.2-2.9l-1.5,2.6c-3.8,6.8-6.6,13.7-8.5,20.6l-0.8,2.9l5.8,1.6L70.5,394.6
		z"/>
	<path d="M80.5,416.7l-1.6-5.8l-2.9,0.8c-2.7,0.7-5.3,1.7-7.8,2.8L68,412l-6,0.4l0.2,3c0,0.7,0.1,1.4,0.2,2.2
		c-0.1,0-0.1,0.1-0.2,0.1c-2.2,1.4-4.3,2.9-6.4,4.6l-2.3,1.9l3.8,4.6l2.3-1.9c1.2-1,2.4-1.9,3.7-2.8c0.9,4.5,2.3,9,4.2,13.2l1.2,2.7
		l5.5-2.4l-1.2-2.7c-2-4.4-3.4-9.2-4.2-14.1c2.7-1.4,5.6-2.5,8.7-3.3L80.5,416.7z"/>
	<path d="M41.3,439.3c-3.7,6.1-6.7,13-8.9,20.4l-0.8,2.9l5.8,1.7l0.8-2.9c2-6.9,4.8-13.3,8.3-19l1.6-2.6l-5.1-3.1L41.3,439.3z"/>
	<path d="M36.4,524.6l-0.4-3l-6,0.7l0.4,3c0.4,3.5,0.9,7,1.3,10.4l0.4,3l6-0.8l-0.4-3C37.3,531.6,36.8,528.1,36.4,524.6z"/>
	<path d="M594.6,336.7V130c0-6.1-4.9-11-11-11h-44.7c-1.7,0-3,1.3-3,3c0,0,0,0,0,0c0,1.7,1.3,3,3,3h44.7c2.8,0,5,2.3,5,5v98.1
		c0,1.7-1.3,3-3,3H227.3h-29.4c-1.7,0-3-1.3-3-3V130c0-2.8,2.3-5,5-5h27.4h39.5v54.4c0,2.8,2.2,5,5,5s5-2.2,5-5V122v-21
		c0-2.8-2.2-5-5-5s-5,2.2-5,5v18h-66.9c-6.1,0-11,4.9-11,11v356c0,6.1,4.9,11,11,11h27.4h289.9c2.2,0,4.2-0.9,5.8-2.4l3.4-3.6
		l62.2-64.3l3.7-3.8c1.5-1.5,2.3-3.5,2.3-5.6V343c1.4,0.4,2.9,0.8,4.4,1.1l2.9,0.6l1.2-5.9l-2.9-0.6
		C598.3,337.9,596.5,337.3,594.6,336.7z M516.3,429.5v58.5c0,1.7-1.3,3-3,3H227.3h-27.4c-2.8,0-5-2.3-5-5v-246c0-1.7,1.3-3,3-3h29.4
		h358.4c1.7,0,3,1.3,3,3v94.1l-0.5-0.2l-2.5,5.5l2.7,1.2c0.1,0,0.2,0.1,0.2,0.1v74.6c0,1.7-1.3,3-3,3h-58.2
		C521.3,418.4,516.3,423.4,516.3,429.5z M522.3,429.5c0-2.8,2.3-5.1,5.1-5.1h55.1l-60.2,62.2V429.5z"/>
	<path d="M658.3,217.8l2.6-5.4l-2.7-1.3c-5.9-2.9-11.6-6.7-16.9-11.3l-2.3-2l-3.9,4.5l2.3,2c5.7,5,11.9,9.1,18.2,12.2L658.3,217.8z"
		/>
	<path d="M737.3,147.5c-1.4-1-2.7-2.1-3.9-3.4c-3.2-3.3-5.8-7.4-7.4-12l-1-2.8l-5.7,2l1,2.8c1.9,5.4,4.9,10.3,8.8,14.2
		c1.4,1.5,3,2.8,4.7,4l2.4,1.8l3.5-4.9L737.3,147.5z"/>
	<path d="M686.5,201.4l0.5,3l5.9-1.1l-0.5-3c-1.3-7.2-3.3-14.3-5.8-20.9l-1.1-2.8l-5.6,2.1l1.1,2.8
		C683.4,187.8,685.3,194.5,686.5,201.4z"/>
	<path d="M621.5,144.8l-1.8,2.4l4.8,3.5l1.8-2.4c2.2-3.1,6.1-6.9,12.1-8c1.1-0.2,2.2-0.3,3.3-0.3l3.2,0l-0.1-6h-3
		c-1.5,0-3,0.1-4.5,0.4C631.2,135.6,625.6,139.3,621.5,144.8z"/>
	<path d="M658.9,321.6c3.2-3.2,6.1-6.6,8.3-9.8c1.7-2.4,3.3-5,4.9-7.6l1.6-2.6l-5.1-3.1l-1.6,2.6c-1.5,2.5-3.1,4.9-4.7,7.3
		c-2,2.9-4.7,6-7.6,9l-2.1,2.1l4.2,4.2L658.9,321.6z"/>
	<path d="M668.4,157.8c1.2,1.7,2.4,3.5,3.5,5.3l1.6,2.5l5.1-3.2l-1.6-2.5c-1.2-1.9-2.4-3.8-3.7-5.6c-3.2-4.4-6.6-8.3-10.3-11.4
		l-2.3-1.9l-3.9,4.6l2.3,1.9C662.3,150.3,665.6,153.8,668.4,157.8z"/>
	<path d="M728.5,190.4c-4.4,5.9-9.1,10.9-13.9,14.9l-2.3,1.9l3.8,4.6l2.3-1.9c5.3-4.3,10.3-9.7,15-16l1.8-2.4l-4.8-3.6L728.5,190.4z
		"/>
	<path d="M624.4,190.4l5-3.3l-1.6-2.5c-3.9-6-6.1-12.1-6.6-18.1l-0.3-3.3l-6,0.5l0.3,3.3c0.6,7,3.1,14,7.6,20.8L624.4,190.4z"/>
	<path d="M774.1,149.6c-0.9,0.5-1.9,1-2.8,1.5c-4.8,2.2-10.3,3.2-15.8,2.8l-1.5-0.1l0.3-0.9l-5.6-2.1l-1,2.8
		c-0.6,1.7-1.3,3.5-2.1,5.5c-1.9,4.7-4,9.3-6.2,13.6l-1.4,2.7l5.3,2.7l1.4-2.7c2.3-4.4,4.4-9.2,6.4-14.1c0.4-1,0.8-1.9,1.1-2.8
		l-0.1,1l3,0.2c6.5,0.4,13.1-0.8,18.7-3.4c1.1-0.5,2.2-1.1,3.3-1.7l2.6-1.5l-3-5.2L774.1,149.6z"/>
	<path d="M683.3,263c-1.8,6.7-4.1,13.2-6.9,19.6l-1.2,2.8l5.5,2.4l1.2-2.8c2.8-6.6,5.2-13.5,7.1-20.4l0.8-2.9l-5.8-1.6L683.3,263z"
		/>
	<path d="M644.2,333.5l-3.1-5.1l-2.6,1.5c-6.2,3.7-12.4,6.3-18.6,7.8l-2.9,0.7l1.4,5.8l2.9-0.7c6.8-1.6,13.6-4.5,20.3-8.5
		L644.2,333.5z"/>
	<path d="M795.8,117.2c-0.6,2.2-1.2,4.4-1.9,6.5c-1.5,4.4-3.5,8.4-5.8,12.1l-1.6,2.5l5.1,3.2l1.6-2.5c2.6-4.1,4.8-8.6,6.4-13.4
		c0.8-2.2,1.5-4.6,2.1-7l0.7-2.9l-5.8-1.5L795.8,117.2z"/>
	<path d="M752.2,125.6c0.2,1.6,0.3,3.3,0.3,5.1c0,1.1,0,2.2-0.1,3.3l-0.2,3l6,0.4l0.2-3c0.1-1.3,0.1-2.5,0.1-3.7
		c0-2-0.1-3.9-0.4-5.8c-0.6-4.3-2-8.7-4.1-12.6l-1.4-2.6l-5.3,2.9l1.4,2.6C750.6,118.4,751.8,122,752.2,125.6z"/>
	<path d="M697.1,215c-2.9,0.9-5.9,1.6-8.9,2c-3.5,0.4-7.1,0.4-10.7,0l-3-0.3l-0.7,6l3,0.3c4,0.5,8,0.5,11.8,0c0,0.5,0,1.1,0,1.7
		c0,5.9-0.4,12-1.2,18l-0.4,3l6,0.8l0.4-3c0.8-6.3,1.2-12.6,1.2-18.8c0-0.9,0-1.8,0-2.7c1.5-0.3,2.9-0.7,4.4-1.2l2.9-0.9l-1.9-5.7
		L697.1,215z"/>
	<path d="M724.9,112.9c0.5-2.4,1.3-4.6,2.4-6.7c0.5-1.1,1.2-2.4,2.2-2.9c0.7-0.4,1.8-0.5,3.3-0.3c0.7,0.1,1.5,0.2,2.2,0.4l2.9,0.7
		l1.5-5.8l-2.9-0.7c-1-0.2-2-0.4-3-0.6c-0.7-0.1-1.4-0.1-2.1-0.1c-1.9,0-3.5,0.4-4.9,1.2c-2.4,1.3-3.7,3.6-4.6,5.5
		c-1.2,2.5-2.2,5.2-2.8,8l-0.7,2.9l5.9,1.3L724.9,112.9z"/>
	<path d="M799.9,83.2l-0.2,3c-0.2,3.7-0.5,7-0.7,10.4l-0.3,3l6,0.5l0.3-3c0.3-3.4,0.5-6.8,0.8-10.5l0.2-3L799.9,83.2z"/>
	<path d="M591.6,446.2c-1.7,0-3,1.3-3,3v68.7c0,1.1-0.9,2-2,2l-389.7,1.6c0,0,0,0,0,0c-0.6,0-1.1-0.2-1.6-0.6
		c-0.4-0.4-0.6-1-0.6-1.6v-9.1c0-1.7-1.3-3-3-3s-3,1.3-3,3v9.1c0,2.2,0.9,4.3,2.4,5.8c1.5,1.5,3.6,2.4,5.8,2.4c0,0,0,0,0,0
		l389.7-1.6c4.4,0,7.9-3.6,7.9-8v-68.7C594.6,447.5,593.3,446.2,591.6,446.2z"/>
	<path d="M591.6,550.4H189.5c-1.7,0-3,1.3-3,3s1.3,3,3,3h402.1c1.7,0,3-1.3,3-3S593.3,550.4,591.6,550.4z"/>
	<path d="M300.3,125h206.8v53.4c0,2.8,2.2,5,5,5s5-2.2,5-5V122v-19c0-2.8-2.2-5-5-5s-5,2.2-5,5v16H300.3c-1.7,0-3,1.3-3,3
		c0,0,0,0,0,0C297.3,123.6,298.6,125,300.3,125z"/>
	
		<rect x="204.7" y="34.6" transform="matrix(0.9973 -7.325200e-02 7.325200e-02 0.9973 -3.737 15.3719)" class="st41" width="6" height="48"/>
	
		<rect x="151.3" y="56" transform="matrix(0.8141 -0.5807 0.5807 0.8141 -17.6224 104.4102)" class="st41" width="6" height="47.5"/>
	
		<rect x="120.3" y="105.7" transform="matrix(0.2029 -0.9792 0.9792 0.2029 -28.8852 224.2624)" class="st41" width="6" height="48.3"/>
</g>
</svg>
