<?xml version="1.0" encoding="utf-8"?>
<!-- Generator: Adobe Illustrator 22.0.1, SVG Export Plug-In . SVG Version: 6.00 Build 0)  -->
<svg version="1.1" id="Camada_1" xmlns="http://www.w3.org/2000/svg" xmlns:xlink="http://www.w3.org/1999/xlink" x="0px" y="0px"
	 viewBox="0 0 43.8 47.8" style="enable-background:new 0 0 43.8 47.8;" xml:space="preserve">
<g>
	<path class="st0" d="M15.3,13.3l4.6-4.6v23.2c0,1.1,0.9,2,2,2s2-0.9,2-2V8.7l4.6,4.6c0.8,0.8,2,0.8,2.8,0c0.8-0.8,0.8-2,0-2.8l-8-8
		c-0.8-0.8-2-0.8-2.8,0l-8,8c-0.8,0.8-0.8,2,0,2.8C13.2,14.1,14.5,14.1,15.3,13.3z"/>
	<path class="st0" d="M39.9,31.9c-1.1,0-2,0.9-2,2v6c0,1.1-0.9,2-2,2h-28c-1.1,0-2-0.9-2-2v-6c0-1.1-0.9-2-2-2s-2,0.9-2,2v6
		c0,3.3,2.7,6,6,6h28c3.3,0,6-2.7,6-6v-6C41.9,32.8,41,31.9,39.9,31.9z"/>
</g>
</svg>
