<?xml version="1.0" encoding="UTF-8"?>
<svg viewBox="0 0 29 25" version="1.1" xmlns="http://www.w3.org/2000/svg" xmlns:xlink="http://www.w3.org/1999/xlink">
    <g>
        <path d="M24.7815404,10.9834041 L26.9488895,8.81605503 C27.420977,8.34396754 28.186382,8.34396754 28.6584695,8.81605503 C29.130557,9.28814252 29.130557,10.0535476 28.6584695,10.5256351 L26.4911205,12.6929841 L28.6584695,14.8603332 C29.130557,15.3324207 29.130557,16.0978257 28.6584695,16.5699132 C28.186382,17.0420007 27.420977,17.0420007 26.9488895,16.5699132 L24.7815404,14.4025642 L22.6141914,16.5699132 C22.1421039,17.0420007 21.3766988,17.0420007 20.9046113,16.5699132 C20.4325239,16.0978257 20.4325239,15.3324207 20.9046113,14.8603332 L23.0719604,12.6929841 L20.9046113,10.5256351 C20.4325239,10.0535476 20.4325239,9.28814252 20.9046113,8.81605503 C21.3766988,8.34396754 22.1421039,8.34396754 22.6141914,8.81605503 L24.7815404,10.9834041 Z M20.5505457,25.3859682 C20.5505457,26.0536008 20.0093226,26.5948239 19.3416901,26.5948239 C18.6740576,26.5948239 18.1328345,26.0536008 18.1328345,25.3859682 L18.1328345,22.968257 C18.1328345,20.9653594 16.5091652,19.3416901 14.5062676,19.3416901 L6.04427815,19.3416901 C4.04138056,19.3416901 2.41771126,20.9653594 2.41771126,22.968257 L2.41771126,25.3859682 C2.41771126,26.0536008 1.87648816,26.5948239 1.20885563,26.5948239 C0.541223101,26.5948239 0,26.0536008 0,25.3859682 L0,22.968257 C4.02629806e-16,19.6300943 2.70611551,16.9239788 6.04427815,16.9239788 L14.5062676,16.9239788 C17.8444302,16.9239788 20.5505457,19.6300943 20.5505457,22.968257 L20.5505457,25.3859682 Z M10.2752729,14.5062676 C6.93711021,14.5062676 4.23099471,11.8001521 4.23099471,8.46198942 C4.23099471,5.12382677 6.93711021,2.41771126 10.2752729,2.41771126 C13.6134355,2.41771126 16.319551,5.12382677 16.319551,8.46198942 C16.319551,11.8001521 13.6134355,14.5062676 10.2752729,14.5062676 Z M10.2752729,12.0885563 C12.2781705,12.0885563 13.9018398,10.464887 13.9018398,8.46198942 C13.9018398,6.45909183 12.2781705,4.83542252 10.2752729,4.83542252 C8.27237527,4.83542252 6.64870597,6.45909183 6.64870597,8.46198942 C6.64870597,10.464887 8.27237527,12.0885563 10.2752729,12.0885563 Z" id="path-1"></path>
    </g>
</svg>