<?xml version="1.0" encoding="UTF-8"?>
<svg viewBox="0 0 34 26" version="1.1" xmlns="http://www.w3.org/2000/svg" xmlns:xlink="http://www.w3.org/1999/xlink">
    <g>
        <path d="M21.25,24.25 C21.25,24.9403559 20.6903559,25.5 20,25.5 C19.3096441,25.5 18.75,24.9403559 18.75,24.25 L18.75,21.75 C18.75,19.6789322 17.0710678,18 15,18 L6.25,18 C4.17893219,18 2.5,19.6789322 2.5,21.75 L2.5,24.25 C2.5,24.9403559 1.94035594,25.5 1.25,25.5 C0.559644063,25.5 0,24.9403559 0,24.25 L0,21.75 C4.16333634e-16,18.2982203 2.79822031,15.5 6.25,15.5 L15,15.5 C18.4517797,15.5 21.25,18.2982203 21.25,21.75 L21.25,24.25 Z M10.625,13 C7.17322031,13 4.375,10.2017797 4.375,6.75 C4.375,3.29822031 7.17322031,0.5 10.625,0.5 C14.0767797,0.5 16.875,3.29822031 16.875,6.75 C16.875,10.2017797 14.0767797,13 10.625,13 Z M10.625,10.5 C12.6960678,10.5 14.375,8.82106781 14.375,6.75 C14.375,4.67893219 12.6960678,3 10.625,3 C8.55393219,3 6.875,4.67893219 6.875,6.75 C6.875,8.82106781 8.55393219,10.5 10.625,10.5 Z" id="path-1"></path>
    </g>
    <g id="Sprint-4" stroke="none" stroke-width="1" fill="none" fill-rule="evenodd">
        <g id="user_transfer">
            <g id="Icons/-arrow-right" transform="translate(22.000000, 6.000000)">
                <path d="M9.39904546,4 L6.69452273,1.42426407 C6.44849242,1.18994949 6.44849242,0.810050506 6.69452273,0.575735931 C6.94055303,0.341421356 7.33944697,0.341421356 7.58547727,0.575735931 L11.3654773,4.17573593 C11.6115076,4.41005051 11.6115076,4.78994949 11.3654773,5.02426407 L7.58547727,8.62426407 C7.33944697,8.85857864 6.94055303,8.85857864 6.69452273,8.62426407 C6.44849242,8.38994949 6.44849242,8.01005051 6.69452273,7.77573593 L9.39904546,5.2 L0.84,5.2 C0.492060608,5.2 0.21,4.93137085 0.21,4.6 C0.21,4.26862915 0.492060608,4 0.84,4 L9.39904546,4 Z" id="path-3"></path>
            </g>
        </g>
    </g>
</svg>