<?xml version="1.0" encoding="UTF-8"?>
<svg viewBox="0 0 30 26" version="1.1" xmlns="http://www.w3.org/2000/svg" xmlns:xlink="http://www.w3.org/1999/xlink">
    <g>
        <path d="M21.2869565,26.2956522 C21.2869565,26.9872087 20.7263392,27.5478261 20.0347826,27.5478261 C19.3432261,27.5478261 18.7826087,26.9872087 18.7826087,26.2956522 L18.7826087,23.7913043 C18.7826087,21.7166347 17.1007566,20.0347826 15.026087,20.0347826 L6.26086957,20.0347826 C4.1861999,20.0347826 2.50434783,21.7166347 2.50434783,23.7913043 L2.50434783,26.2956522 C2.50434783,26.9872087 1.94373047,27.5478261 1.25217391,27.5478261 C0.560617357,27.5478261 0,26.9872087 0,26.2956522 L0,23.7913043 C4.17057693e-16,20.3335216 2.80308678,17.5304348 6.26086957,17.5304348 L15.026087,17.5304348 C18.4838697,17.5304348 21.2869565,20.3335216 21.2869565,23.7913043 L21.2869565,26.2956522 Z M10.6434783,15.026087 C7.18569548,15.026087 4.3826087,12.2230002 4.3826087,8.76521739 C4.3826087,5.30743461 7.18569548,2.50434783 10.6434783,2.50434783 C14.101261,2.50434783 16.9043478,5.30743461 16.9043478,8.76521739 C16.9043478,12.2230002 14.101261,15.026087 10.6434783,15.026087 Z M28.8,12.5217391 C29.4915566,12.5217391 30.0521739,13.0823565 30.0521739,13.773913 C30.0521739,14.4654696 29.4915566,15.026087 28.8,15.026087 L21.2869565,15.026087 C20.5954,15.026087 20.0347826,14.4654696 20.0347826,13.773913 C20.0347826,13.0823565 20.5954,12.5217391 21.2869565,12.5217391 L28.8,12.5217391 Z M10.6434783,12.5217391 C12.7181479,12.5217391 14.4,10.8398871 14.4,8.76521739 C14.4,6.69054772 12.7181479,5.00869565 10.6434783,5.00869565 C8.56880859,5.00869565 6.88695652,6.69054772 6.88695652,8.76521739 C6.88695652,10.8398871 8.56880859,12.5217391 10.6434783,12.5217391 Z" id="path-1"></path>
    </g>
    <g id="Sprint-4" stroke="none" stroke-width="1" fill="none" fill-rule="evenodd">
        <g id="Icons-/-Feather-/-user-minus" transform="translate(0.000000, -2.000000)">
            <mask id="mask-2" fill="white">
                <use xlink:href="#path-1"></use>
            </mask>
        </g>
    </g>
</svg>