<?xml version="1.0" encoding="utf-8"?>
<!-- Generator: Adobe Illustrator 22.0.1, SVG Export Plug-In . SVG Version: 6.00 Build 0)  -->
<svg version="1.1" id="Camada_1" xmlns="http://www.w3.org/2000/svg" xmlns:xlink="http://www.w3.org/1999/xlink" x="0px" y="0px"
	 viewBox="0 0 50.6 42.8" style="enable-background:new 0 0 50.6 42.8;" xml:space="preserve">
<style type="text/css">
	.st0{fill:#333333;}
	.st1{fill:none;}
	.st2{fill:#C6CBD4;}
	.st3{fill:#59A1D0;}
	.st4{fill:#FFFFFF;}
	.st5{fill:#52AD8C;}
	.st6{fill:#C86D61;}
</style>
<g>
	<path class="st0" d="M44.1,9.5h-2.4V5.8c0-0.2,0-0.4,0-0.7C41.5,4,40.9,3,40,2.3c-0.9-0.7-2.1-1-3.2-0.8L5.9,6.2
		c-2.1,0.3-3.7,2.1-3.7,4.3V37c0,2.4,2,4.4,4.4,4.4h37.6c2.4,0,4.4-2,4.4-4.4V13.9C48.5,11.5,46.5,9.5,44.1,9.5z M6.8,14.9
		c0-0.4,0.3-0.7,0.7-0.7h35.6c0.4,0,0.7,0.3,0.7,0.7v21c0,0.4-0.3,0.7-0.7,0.7H7.5c-0.4,0-0.7-0.3-0.7-0.7V14.9z M36.3,6.2
		c0.4-0.1,0.7,0.2,0.8,0.6c0,0,0,0.1,0,0.1v2.7H16.5L36.3,6.2z"/>
	<path class="st0" d="M36.1,31.2c3.1,0,5.7-2.6,5.7-5.7c0-3.2-2.6-5.7-5.7-5.7s-5.7,2.6-5.7,5.7C30.4,28.6,32.9,31.2,36.1,31.2z
		 M36.1,23.4c1.1,0,2,0.9,2,2c0,1.1-0.9,2-2,2s-2-0.9-2-2C34.1,24.3,35,23.4,36.1,23.4z"/>
</g>
</svg>
