<?xml version="1.0" encoding="utf-8"?>
<!-- Generator: Adobe Illustrator 22.0.1, SVG Export Plug-In . SVG Version: 6.00 Build 0)  -->
<svg version="1.1" id="Camada_1" xmlns="http://www.w3.org/2000/svg" xmlns:xlink="http://www.w3.org/1999/xlink" x="0px" y="0px"
	 viewBox="0 0 48.5 47" style="enable-background:new 0 0 48.5 47;" xml:space="preserve">
<g>
	<path class="st0" d="M31.7,16.1c-0.8-0.8-2-0.8-2.8,0l-4.6,4.6l-4.6-4.6c-0.8-0.8-2-0.8-2.8,0c-0.8,0.8-0.8,2,0,2.8l4.6,4.6
		l-4.6,4.6c-0.8,0.8-0.8,2,0,2.8c0.8,0.8,2,0.8,2.8,0l4.6-4.6l4.6,4.6c0.8,0.8,2,0.8,2.8,0c0.8-0.8,0.8-2,0-2.8l-4.6-4.6l4.6-4.6
		C32.4,18.1,32.4,16.9,31.7,16.1z"/>
	<path class="st0" d="M24.3,1.5c-12.2,0-22,9.8-22,22s9.8,22,22,22s22-9.8,22-22S36.4,1.5,24.3,1.5z M24.3,41.5c-9.9,0-18-8.1-18-18
		s8.1-18,18-18s18,8.1,18,18S34.2,41.5,24.3,41.5z"/>
</g>
</svg>
