<?xml version="1.0" encoding="utf-8"?>
<!-- Generator: Adobe Illustrator 22.0.1, SVG Export Plug-In . SVG Version: 6.00 Build 0)  -->
<svg version="1.1" id="Camada_1" xmlns="http://www.w3.org/2000/svg" xmlns:xlink="http://www.w3.org/1999/xlink" x="0px" y="0px"
	 viewBox="0 0 41.8 41.6" style="enable-background:new 0 0 41.8 41.6;" xml:space="preserve">
<path id="path-25_1_" class="st0" d="M24.8,20.8l14.8,14.8c1.1,1.1,1.1,2.9,0,3.9s-2.9,1.1-3.9,0L20.9,24.8L6.1,39.5
	c-1.1,1.1-2.9,1.1-3.9,0s-1.1-2.9,0-3.9l14.8-14.8L2.2,6c-1.1-1.1-1.1-2.9,0-3.9S5,1,6.1,2.1l14.8,14.8L35.7,2.1
	c1.1-1.1,2.9-1.1,3.9,0s1.1,2.9,0,3.9L24.8,20.8z"/>
</svg>
